<svg xmlns="http://www.w3.org/2000/svg" width="34" height="34" viewBox="0 0 34 34"><defs><style>.a{fill:#0052b4;}.b{fill:#ffda44;}</style></defs><circle class="a" cx="17" cy="17" r="17"/><g transform="translate(6.652 6.652)"><path class="b" d="M223.223,100.174l.55,1.694h1.781l-1.441,1.047.55,1.694-1.441-1.047-1.441,1.047.55-1.694-1.441-1.047h1.781Z" transform="translate(-212.875 -100.174)"/><path class="b" d="M139.478,139.477l1.587.809,1.259-1.259-.279,1.759,1.587.809-1.759.279-.279,1.759-.809-1.587-1.759.279,1.259-1.259Z" transform="translate(-136.447 -136.446)"/><path class="b" d="M100.175,223.222l1.694-.55V220.89l1.047,1.441,1.694-.55-1.047,1.441,1.047,1.441-1.694-.55-1.047,1.441v-1.781Z" transform="translate(-100.175 -212.874)"/><path class="b" d="M139.478,307.775l.809-1.587-1.259-1.259,1.759.279.809-1.587.279,1.759,1.759.279-1.587.809.279,1.759-1.259-1.259Z" transform="translate(-136.447 -290.11)"/><path class="b" d="M223.223,349.48l-.551-1.694h-1.781l1.441-1.047-.551-1.694,1.441,1.047,1.441-1.047-.55,1.694,1.441,1.047h-1.781Z" transform="translate(-212.875 -328.784)"/><path class="b" d="M307.777,307.775l-1.587-.809-1.259,1.259.279-1.759-1.587-.809,1.759-.279.279-1.759.809,1.587,1.759-.279-1.259,1.26Z" transform="translate(-290.112 -290.11)"/><path class="b" d="M349.48,223.222l-1.694.55v1.781l-1.047-1.441-1.694.55,1.047-1.441-1.047-1.441,1.694.55,1.047-1.441v1.781Z" transform="translate(-328.784 -212.874)"/><path class="b" d="M307.777,139.478l-.809,1.587,1.259,1.259-1.759-.279-.809,1.587-.279-1.759-1.759-.279,1.587-.809-.279-1.759,1.26,1.259Z" transform="translate(-290.112 -136.447)"/></g></svg>