<svg xmlns="http://www.w3.org/2000/svg" xmlns:xlink="http://www.w3.org/1999/xlink" width="114.774" height="116.5" viewBox="0 0 114.774 116.5"><defs><style>.a{fill:url(#a);}.b{fill:#fff;}</style><linearGradient id="a" x1="0.5" x2="0.5" y2="1" gradientUnits="objectBoundingBox"><stop offset="0" stop-color="#ca1072"/><stop offset="1" stop-color="#f5a21a"/></linearGradient></defs><g transform="translate(0.001)"><path class="a" d="M531.5,427.356c1.9,9.826,5.741,29.74-3.458,43.063-16.7,24.179-73.473,22.475-97.456-8.009-2.073-2.635-12.475-16.383-11.34-35.208,1.969-32.652,37.5-61.593,65.976-55.909,16.666,3.327,27.742,17.88,32.3,23.872A78.85,78.85,0,0,1,531.5,427.356Z" transform="translate(-419.162 -370.574)"/><g transform="translate(21.361 15.048)"><path class="b" d="M1026.681,1282.77l-52.91,30.451a1.63,1.63,0,0,1-2.226-.6l-17.429-30.285a1.63,1.63,0,0,1,.6-2.226l52.911-30.45a1.63,1.63,0,0,1,2.226.6l17.43,30.285A1.63,1.63,0,0,1,1026.681,1282.77Zm-53.124,26.812,50.085-28.824-15.8-27.459-50.084,28.824Z" transform="translate(-953.898 -1229.381)"/><path class="b" d="M1250.094,1512.616l-34.683,19.961a1.63,1.63,0,0,1-2.226-.6,3.277,3.277,0,0,0-4.469-1.2,1.63,1.63,0,0,1-2.226-.6l-7.61-13.224a1.63,1.63,0,0,1,.6-2.226,3.278,3.278,0,0,0,1.2-4.47,1.63,1.63,0,0,1,.6-2.226l34.683-19.961a1.63,1.63,0,0,1,2.226.6,3.277,3.277,0,0,0,4.459,1.211,1.63,1.63,0,0,1,2.226.6l7.611,13.224a1.63,1.63,0,0,1-.6,2.226,3.275,3.275,0,0,0-1.2,4.468A1.63,1.63,0,0,1,1250.094,1512.616Zm-35.069,16.421,32.215-18.54a6.562,6.562,0,0,1,1.708-6.409l-6.187-10.75a6.559,6.559,0,0,1-6.414-1.728l-32.205,18.534a6.555,6.555,0,0,1-1.728,6.413l6.186,10.75a6.559,6.559,0,0,1,6.417,1.734Z" transform="translate(-1188.883 -1458.267)"/><path class="b" d="M1663.6,1842.266a8.986,8.986,0,1,1,3.3-12.271l0,0A9,9,0,0,1,1663.6,1842.266Zm-7.337-12.749a5.725,5.725,0,1,0,7.818,2.108A5.725,5.725,0,0,0,1656.267,1829.518Z" transform="translate(-1622.321 -1782.42)"/><path class="b" d="M1201.686,1029.964a1.63,1.63,0,0,1-1.764-2.738l1.532-1.109-18.584-25.657-42.738,30.954a1.631,1.631,0,0,1-1.914-2.642l44.054-31.907a1.63,1.63,0,0,1,2.277.362h0l20.5,28.3a1.63,1.63,0,0,1-.362,2.277h0l-2.853,2.067c-.049.032-.1.063-.146.092Z" transform="translate(-1130.208 -986.597)"/><path class="b" d="M1248.74,778.556a1.63,1.63,0,0,1-1.877-2.648l.818-.706-20.694-23.99-39.394,33.98a1.633,1.633,0,1,1-2.132-2.473l40.63-35.045a1.63,1.63,0,0,1,2.3.169l22.824,26.46a1.63,1.63,0,0,1-.17,2.3l-2.052,1.769a1.652,1.652,0,0,1-.25.183Z" transform="translate(-1175.666 -747.28)"/></g></g></svg>