<svg xmlns="http://www.w3.org/2000/svg" width="47.344" height="50" viewBox="0 0 47.344 50"><defs><style>.a{fill:#fff;}</style></defs><g transform="translate(-13.601)"><g transform="translate(13.601 14.322)"><path class="a" d="M59.968,180.379H57.826v-31.1a2.628,2.628,0,0,0-2.625-2.625H50.413a2.628,2.628,0,0,0-2.625,2.625v31.1H42.35V163.37a2.628,2.628,0,0,0-2.625-2.625H34.937a2.628,2.628,0,0,0-2.625,2.625v17.009H26.873V171.57a2.628,2.628,0,0,0-2.625-2.625H19.46a2.628,2.628,0,0,0-2.625,2.625v8.809H14.578a.977.977,0,1,0,0,1.953h45.39a.977.977,0,1,0,0-1.953Zm-35.048,0H18.788V171.57a.673.673,0,0,1,.672-.672h4.788a.673.673,0,0,1,.672.672Zm15.477,0H34.265V163.37a.673.673,0,0,1,.672-.672h4.788a.673.673,0,0,1,.672.672Zm15.477,0H49.741v-31.1a.673.673,0,0,1,.672-.672H55.2a.673.673,0,0,1,.672.672v31.1Z" transform="translate(-13.601 -146.654)"/></g><g transform="translate(21.975)"><path class="a" d="M135.2,1.027A.973.973,0,0,0,134.171,0l-.047,0h-5.908a.977.977,0,0,0,0,1.953h3.648l-9.654,9.654-3.641-3.641a.977.977,0,0,0-1.381,0L99.632,25.522a.977.977,0,0,0,1.381,1.381l16.865-16.865,3.641,3.641a.977.977,0,0,0,1.381,0L133.245,3.334v3.3a.977.977,0,1,0,1.953,0V1.074C135.2,1.058,135.2,1.043,135.2,1.027Z" transform="translate(-99.346)"/></g><g transform="translate(18.683 28.644)"><circle class="a" cx="0.977" cy="0.977" r="0.977"/></g></g></svg>