<svg xmlns="http://www.w3.org/2000/svg" width="42.273" height="30" viewBox="0 0 42.273 30"><defs><style>.a{fill:#fff;}</style></defs><path class="a" d="M45.475,63.823a4.859,4.859,0,1,1,4.9-4.859A4.887,4.887,0,0,1,45.475,63.823Zm0-8.354a3.5,3.5,0,1,0,3.54,3.5A3.522,3.522,0,0,0,45.475,55.469Zm0,0" transform="translate(-37.113 -49.494)"/><path class="a" d="M10.335,194.149H1.782A1.778,1.778,0,0,1,0,192.378v-2.23A8.379,8.379,0,0,1,13.352,183.5a.682.682,0,0,1-.81,1.1,7.015,7.015,0,0,0-11.179,5.546v2.23a.414.414,0,0,0,.418.407h8.553a.682.682,0,1,1,0,1.364Zm0,0" transform="translate(0 -166.367)"/><path class="a" d="M344.994,188.1h-8.553a.682.682,0,1,1,0-1.364h8.553a.413.413,0,0,0,.418-.407V184.1a6.966,6.966,0,0,0-7-6.917,7.061,7.061,0,0,0-4.43,1.563.682.682,0,1,1-.858-1.06,8.43,8.43,0,0,1,5.288-1.867,8.331,8.331,0,0,1,8.362,8.28v2.23a1.778,1.778,0,0,1-1.782,1.77Zm0,0" transform="translate(-304.503 -160.832)"/><path class="a" d="M345.255,59.87a4.859,4.859,0,1,1,4.9-4.859A4.887,4.887,0,0,1,345.255,59.87Zm0-8.354a3.5,3.5,0,1,0,3.541,3.5A3.522,3.522,0,0,0,345.255,51.516Zm0,0" transform="translate(-311.345 -45.878)"/><path class="a" d="M134,172.55H115.491a2.224,2.224,0,0,1-2.23-2.213V167.2a11.484,11.484,0,0,1,22.967,0v3.137A2.224,2.224,0,0,1,134,172.55ZM124.745,157.2a10.074,10.074,0,0,0-10.12,10.005v3.137a.859.859,0,0,0,.866.85H134a.859.859,0,0,0,.866-.85V167.2A10.074,10.074,0,0,0,124.745,157.2Zm0,0" transform="translate(-103.609 -142.55)"/><path class="a" d="M177.583,12.484a6.279,6.279,0,0,1-6.3-6.243,6.3,6.3,0,0,1,12.6,0,6.279,6.279,0,0,1-6.3,6.242Zm0-11.121a4.914,4.914,0,0,0-4.938,4.879,4.938,4.938,0,0,0,9.876,0,4.914,4.914,0,0,0-4.938-4.879Zm0,0" transform="translate(-156.684 0)"/></svg>