<svg xmlns="http://www.w3.org/2000/svg" width="28.318" height="28.318" viewBox="0 0 28.318 28.318"><defs><style>.a{fill:#fff;}</style></defs><path class="a" d="M3.793,17.634a8.7,8.7,0,0,0,1.516-4.692V11.283a6.43,6.43,0,0,1,6.3-6.415h.209a6.441,6.441,0,0,1,6.322,6.415v1.659a7.349,7.349,0,0,0,.783,3.358,1.106,1.106,0,1,0,1.991-.964,5.174,5.174,0,0,1-.561-2.394V11.283A8.667,8.667,0,0,0,12.776,2.72V1.106a1.106,1.106,0,0,0-2.212,0V2.73A8.64,8.64,0,0,0,3.1,11.283v1.659a6.626,6.626,0,0,1-1.22,3.588,13.337,13.337,0,0,0-1.82,4.538A3.319,3.319,0,0,0,3.319,25H8.406a3.319,3.319,0,0,0,6.637,0c0-.024,0-.047,0-.07a1.106,1.106,0,0,0-.384-2.143H3.319a1.107,1.107,0,0,1-1.087-1.312,11.323,11.323,0,0,1,1.562-3.841ZM12.831,25a1.106,1.106,0,0,1-2.212,0Zm15.486-1.936a1.106,1.106,0,0,1-1.106,1.106H24.169v3.042a1.106,1.106,0,1,1-2.212,0V24.17H18.915a1.106,1.106,0,0,1,0-2.212h3.042V18.916a1.106,1.106,0,0,1,2.212,0v3.042h3.042A1.106,1.106,0,0,1,28.317,23.064Zm0,0" transform="translate(0 0)"/></svg>