<svg xmlns="http://www.w3.org/2000/svg" width="28.209" height="28.209" viewBox="0 0 28.209 28.209"><defs><style>.a{fill:#fff;}</style></defs><g transform="translate(0)"><g transform="translate(0)"><g transform="translate(7.444)"><path class="a" d="M146.961,24.322a6.661,6.661,0,1,1,6.661-6.661A6.668,6.668,0,0,1,146.961,24.322Zm0-10.973a4.312,4.312,0,1,0,4.312,4.312A4.317,4.317,0,0,0,146.961,13.349Z" transform="translate(-140.3 -11)"/></g><g transform="translate(0 14.168)"><path class="a" d="M38.035,271.141H12.174A1.172,1.172,0,0,1,11,269.967a14.183,14.183,0,0,1,4.208-10.132,9.653,9.653,0,0,1,6.77-2.735h6.252A9.643,9.643,0,0,1,35,259.835a14.183,14.183,0,0,1,4.208,10.132A1.172,1.172,0,0,1,38.035,271.141Zm-24.628-2.349H36.8a11.8,11.8,0,0,0-3.46-7.288,7.3,7.3,0,0,0-5.112-2.049H21.979a7.285,7.285,0,0,0-5.112,2.049,11.8,11.8,0,0,0-3.46,7.288Z" transform="translate(-11 -257.1)"/></g></g></g></svg>