<svg xmlns="http://www.w3.org/2000/svg" xmlns:xlink="http://www.w3.org/1999/xlink" width="261.671" height="260" viewBox="0 0 261.671 260"><defs><style>.a{fill:url(#a);}.b{fill:url(#b);}.c{fill:#91b3fa;}.d{fill:url(#c);}.e{fill:#980199;}.f{fill:url(#d);}.g{fill:url(#e);}.h{fill:url(#f);}.i{fill:url(#g);}.j{fill:#f074ff;}.k{fill:url(#h);}.l{fill:url(#i);}.m{fill:url(#j);}.n{fill:url(#k);}.o{fill:url(#l);}.p{fill:url(#m);}.q{fill:url(#n);}.r{fill:url(#o);}.s{fill:url(#q);}.t{fill:url(#r);}.u{fill:url(#s);}</style><linearGradient id="a" x1="1.091" y1="1.163" x2="0.386" y2="0.408" gradientUnits="objectBoundingBox"><stop offset="0" stop-color="#dae3fe"/><stop offset="1" stop-color="#e9effd"/></linearGradient><linearGradient id="b" x1="1.366" y1="1.414" x2="-0.471" y2="-0.466" gradientUnits="objectBoundingBox"><stop offset="0" stop-color="#09005d"/><stop offset="1" stop-color="#1a0f91"/></linearGradient><linearGradient id="c" y1="0.5" x2="1" y2="0.5" gradientUnits="objectBoundingBox"><stop offset="0" stop-color="#4f52ff"/><stop offset="1" stop-color="#4042e2"/></linearGradient><linearGradient id="d" x1="0.087" y1="0.632" x2="0.062" y2="-0.515" gradientUnits="objectBoundingBox"><stop offset="0" stop-color="#febbba"/><stop offset="1" stop-color="#ff928e"/></linearGradient><linearGradient id="e" x1="32.235" y1="-0.401" x2="30.994" y2="0.379" xlink:href="#d"/><linearGradient id="f" x1="0.701" y1="-0.441" x2="0.335" y2="0.986" xlink:href="#b"/><linearGradient id="g" x1="138.138" y1="-2.415" x2="132.799" y2="-0.099" xlink:href="#d"/><linearGradient id="h" x1="0.331" y1="-0.467" x2="0.739" y2="1.96" xlink:href="#d"/><linearGradient id="i" x1="-0.165" y1="-3.58" x2="0.749" y2="2.625" xlink:href="#d"/><linearGradient id="j" x1="0.363" y1="1.686" x2="0.88" y2="-2.199" xlink:href="#c"/><linearGradient id="k" x1="-0.189" y1="3.741" x2="1.231" y2="-2.937" xlink:href="#c"/><linearGradient id="l" x1="0.338" y1="0.635" x2="1.36" y2="-0.223" xlink:href="#c"/><linearGradient id="m" x1="0.546" y1="-0.486" x2="0.49" y2="0.756" xlink:href="#c"/><linearGradient id="n" x1="0.293" y1="4.11" x2="1.225" y2="-11.274" xlink:href="#c"/><linearGradient id="o" x1="0.137" y1="2.933" x2="1.084" y2="1.923" xlink:href="#c"/><linearGradient id="q" x1="3.288" y1="1.024" x2="-3.503" y2="1.902" xlink:href="#c"/><linearGradient id="r" x1="2.178" y1="-1.352" x2="0.418" y2="0.617" xlink:href="#c"/><linearGradient id="s" x1="2.284" y1="-0.172" x2="5.227" y2="-1.337" xlink:href="#c"/></defs><g transform="translate(-478.455 -455)"><path class="a" d="M708.643,678.607a100.045,100.045,0,0,1-17.571,14.263C645.565,723.255,593.546,714.5,577.463,711.5c-25.948-4.829-47.852-8.236-66.671-25.239-42.763-38.635-40.683-119.229-8.007-169.154,3.874-5.92,36.5-54.283,88.633-61.1,1.275-.167,2.226-.262,3.06-.35,8.065-.854,58.04-5.36,98.79,28.78a121.566,121.566,0,0,1,23.925,27.146C749.021,560.748,749.122,636.883,708.643,678.607Z"/><g transform="translate(530.489 466.243)"><g transform="translate(0 0)"><path class="b" d="M1047.231,576.445a12.065,12.065,0,0,0-11.008,11.995c-.108,38.185-.287,169.9,2.2,216.516a9.369,9.369,0,0,0,9.258,8.872c24.461.263,94.822.747,134.766-1.808a15.775,15.775,0,0,0,14.784-15.76c-.049-40.077-.689-152.787-6.179-204.306a12.874,12.874,0,0,0-11.809-11.473C1152.568,578.4,1081.723,573.445,1047.231,576.445Z" transform="translate(-1036.171 -575.505)"/><path class="c" d="M1133.942,709.593c-.48,32.664-1.848,141.325.54,181.429a11.145,11.145,0,0,0,10.525,10.686c23.149.807,82.51,2.368,116.335-1.354a12.528,12.528,0,0,0,10.908-12.342c.846-33.334,3.131-134.538.811-174.195a12.333,12.333,0,0,0-11.262-11.782c-25.065-1.689-89.428-5.584-118.192-3.189A10.76,10.76,0,0,0,1133.942,709.593Z" transform="translate(-1124.07 -686.651)"/><path class="d" d="M1741.351,628.28a1.694,1.694,0,0,0,1.642,1.659c4.454.135,17,.519,22.61.721a1.7,1.7,0,0,0,1.718-2.054,1.73,1.73,0,0,0-1.579-1.519,216.6,216.6,0,0,0-22.8-.539A1.752,1.752,0,0,0,1741.351,628.28Z" transform="translate(-1675.549 -621.661)"/></g><g transform="translate(9.885 54.366)"><path class="e" d="M1392.448,1832.764s31.906-8,65.618-3.177a32.777,32.777,0,0,1,23,14.977c9.223,14.595,22.262,40.6,19.5,67.728l-14.475,3.579s-10-32.19-21.264-45.291c0,0-13.335,30.4-12.661,47.086q.029.708.091,1.381c1.53,16.33-64.011,3.047-64.011,3.047Z" transform="translate(-1365.291 -1765.545)"/><path class="f" d="M1734.529,1537.159l-6.793,21.637a4.911,4.911,0,0,0,1.575,5.384c3.636,2.8,10.822,7.258,19.6,7.13a3.241,3.241,0,0,0,3.07-3.077l2.414-36.165Z" transform="translate(-1672.878 -1497.189)"/><g transform="translate(46.365)"><path class="g" d="M1791.615,1329.1s2.639,17.04.977,25.183-1.3,13.805-11.005,12.983-16.307-7.5-18.442-16.606c0,0-3.4-14.062-.585-18.716S1791.615,1329.1,1791.615,1329.1Z" transform="translate(-1750.027 -1312.841)"/><path class="h" d="M1656.865,1191.117l1.173.308s-2.229-11.185,2.476-11.811,22.43.364,27.628-4.652c5.011-4.835,3.844-13.089-.279-16.4a.646.646,0,0,0-.872.085l-.579.63a.652.652,0,0,1-1.131-.425h0a.649.649,0,0,0-1.085-.47c-1.58,1.493-5.351,3.606-13.812,2.975-12.005-.9-20.792,1.75-23.058,9.614a.652.652,0,0,1-1.111.26c-.71-.737-2-1.334-4.206-.289-3.839,1.818-4.354,9.013,1.056,16.465a.648.648,0,0,1-.3,1c-1.463.485-3.834,1.931.314,5.779,4.244,3.936,7.241,4.416,8.417,4.424a.652.652,0,0,0,.649-.527l1.409-7.126a.652.652,0,0,1,.8-.5Z" transform="translate(-1639.066 -1158.214)"/><path class="i" d="M1757.186,1439.834s.027-10.435-5.072-8.847-.6,11.541,2.822,12.832Z" transform="translate(-1739.484 -1405.389)"/></g><g transform="translate(0 67.219)"><path class="e" d="M1170.607,1947.223c-1.413-9.98,7.789-28.119,12.064-33.686a9.251,9.251,0,0,0,1.924-5.547c.125-14.134-5.81-23.212-15.319-29.307,0,0-34.513,40.208-25.725,71.135a26.017,26.017,0,0,0,4.281,8.669C1149.217,1946.834,1163.82,1947.761,1170.607,1947.223Z" transform="translate(-1142.119 -1878.683)"/><path class="j" d="M1429.436,2274.694l-1.315-.15c1.115-9.787,9.7-21.869,13.344-26.61l1.05.806C1438.941,2253.393,1430.514,2265.236,1429.436,2274.694Z" transform="translate(-1401.437 -2213.483)"/><path class="k" d="M1222.056,2608.291c-3.882.006-21.739.618-23.388,11.272,15.4,20.37,57.854,13.021,57.854,13.021v-7.926s-26.611-4.833-33.376-15.759A1.278,1.278,0,0,0,1222.056,2608.291Z" transform="translate(-1193.392 -2540.219)"/></g><path class="l" d="M1779.7,2746.453s6.268-14.791,17.313-9.544,10.177,8.679,10.177,8.679Z" transform="translate(-1720.215 -2588.597)"/><path class="m" d="M1764.547,2779.233h0a2.1,2.1,0,0,0,2.163,1.931l57.233-2a2.1,2.1,0,0,0,1.928-1.47l1.661-5.316a2.1,2.1,0,0,0-1.89-2.719l-20.871-1.109a2.1,2.1,0,0,0-.565.047l-38.023,8.421A2.1,2.1,0,0,0,1764.547,2779.233Z" transform="translate(-1706.469 -2618.308)"/><path class="n" d="M2175.8,2789.338l1.575-7.338,21.438,1.023-1.411,6.088Z" transform="translate(-2079.36 -2630.501)"/><path class="o" d="M1977.749,1935.276c-1.213,9.914-6.672,50.195-8.234,61.7a2.642,2.642,0,0,0,2.7,3l92.592-2.65a2.647,2.647,0,0,0,2.508-2.072l14.4-64.866a2.646,2.646,0,0,0-2.738-3.215l-98.759,5.784A2.644,2.644,0,0,0,1977.749,1935.276Z" transform="translate(-1892.297 -1855.425)"/><path class="p" d="M2323.933,2420.666l-13.685,38.841,31.82.675,2.649-39.282a3.053,3.053,0,0,0-3.248-3.251l-14.86.987A3.053,3.053,0,0,0,2323.933,2420.666Z" transform="translate(-2201.262 -2300.137)"/><path class="q" d="M2171.167,2840.477h0a1.653,1.653,0,0,0,1.57,2.168h49.832a1.653,1.653,0,0,0,1.653-1.653v-2.137a1.653,1.653,0,0,0-1.724-1.651l-49.832,2.137A1.653,1.653,0,0,0,2171.167,2840.477Z" transform="translate(-2075.082 -2680.554)"/><path class="c" d="M2036.629,2014.134l-.657-.083,4.549-35.878a4.672,4.672,0,0,1,4.35-4.074l85.343-5.154.04.661-85.343,5.154a4.009,4.009,0,0,0-3.734,3.5Z" transform="translate(-1952.576 -1893.305)"/><rect class="c" width="7.829" height="0.662" transform="matrix(0.125, -0.992, 0.992, 0.125, 81.118, 138.733)"/><g transform="translate(56.342 2.321)"><g transform="translate(6.205 32.782)"><path class="r" d="M1828.82,1544.8c-10.282.777-16.259-9.855-16.318-9.963l.689-.379c.057.1,5.8,10.3,15.57,9.558Z" transform="translate(-1812.502 -1534.462)"/><path class="d" d="M1982.29,1630.33a1.1,1.1,0,0,1-1.1,1.1h-2.942a1.1,1.1,0,0,1-1.1-1.1h0a1.1,1.1,0,0,1,1.1-1.1h2.942a1.1,1.1,0,0,1,1.1,1.1Z" transform="translate(-1961.78 -1620.385)"/></g><path class="s" d="M1793.582,1204.464s3.691-18.929,14.563-20.715a7.353,7.353,0,0,0-6.289.131c-3.21,1.681-11.324,10.9-10.993,21.051C1793.071,1205.725,1793.582,1204.464,1793.582,1204.464Z" transform="translate(-1786.669 -1183.096)"/><path class="t" d="M1751.025,1401.666c-5.652,1.147-4.958,8.3-4.958,8.3-.407,5.188,1.107,7.759,3.047,8.984a4.466,4.466,0,0,0,6.835-3.449c.1-1.412.224-2.754.329-3.23C1756.532,1411.111,1756.677,1400.519,1751.025,1401.666Z" transform="translate(-1746 -1381.195)"/><path class="u" d="M1765.739,1421.51a2.569,2.569,0,0,0-2.8,1.513c-3.378,7.826.77,12.917,2.806,13.023,2.146.112,2.1-10.214,1.647-12.86A1.886,1.886,0,0,0,1765.739,1421.51Z" transform="translate(-1760.195 -1399.231)"/></g></g></g></g></svg>