<svg xmlns="http://www.w3.org/2000/svg" xmlns:xlink="http://www.w3.org/1999/xlink" width="260.566" height="260" viewBox="0 0 260.566 260"><defs><style>.a{fill:url(#a);}.b{fill:url(#b);}.c{fill:#fcfcfc;}.d{fill:url(#c);}.e{fill:url(#d);}.f{fill:url(#e);}.g{fill:url(#f);}.h{fill:url(#g);}.i{fill:url(#h);}.j{fill:url(#i);}.k{fill:url(#j);}.l{fill:url(#k);}.m{fill:url(#l);}.n{fill:url(#m);}.o{fill:url(#n);}.p{fill:url(#o);}.q{fill:url(#p);}.r{fill:url(#q);}.s{fill:#820197;}.t,.z{fill:#fff;}.u{fill:url(#r);}.v{fill:url(#s);}.w{fill:url(#t);}.x{fill:url(#u);}.y{fill:url(#v);}.z{opacity:0.58;}.aa{fill:#a001b1;}.ab{fill:url(#w);}.ac{fill:url(#x);}.ad{fill:url(#y);}.ae{fill:url(#z);}.af{fill:url(#aa);}.ag{fill:url(#ab);}.ah{fill:url(#ac);}.ai{fill:url(#ad);}.aj{fill:url(#ae);}.ak{fill:url(#af);}.al{fill:url(#ag);}.am{fill:url(#ah);}.an{fill:#850197;}.ao{fill:url(#ai);}.ap{fill:url(#aj);}.aq{fill:url(#ak);}.ar{fill:url(#al);}.as{fill:#650284;}.at{fill:url(#am);}.au{fill:url(#an);}.av{fill:url(#ao);}.aw{fill:url(#ap);}.ax{fill:url(#aq);}.ay{fill:url(#ar);}</style><linearGradient id="a" x1="0.5" x2="0.5" y2="1" gradientUnits="objectBoundingBox"><stop offset="0" stop-color="#fbfbff"/><stop offset="1" stop-color="#dadafd"/></linearGradient><linearGradient id="b" x1="-1.08" y1="2.563" x2="0.346" y2="-1.095" gradientUnits="objectBoundingBox"><stop offset="0" stop-color="#4f52ff"/><stop offset="1" stop-color="#4042e2"/></linearGradient><linearGradient id="c" x1="0.602" y1="2.28" x2="1.994" y2="-2.281" xlink:href="#b"/><linearGradient id="d" x1="0.024" y1="1.186" x2="0.131" y2="1.072" gradientUnits="objectBoundingBox"><stop offset="0" stop-color="#febbba"/><stop offset="1" stop-color="#ff928e"/></linearGradient><linearGradient id="e" x1="-0.118" y1="1.266" x2="1.56" y2="-0.3" gradientUnits="objectBoundingBox"><stop offset="0" stop-color="#09005d"/><stop offset="1" stop-color="#1a0f91"/></linearGradient><linearGradient id="f" x1="-0.166" y1="0.905" x2="0.847" y2="0.174" xlink:href="#e"/><linearGradient id="g" x1="-6.721" y1="1.348" x2="-7.001" y2="0.281" xlink:href="#d"/><linearGradient id="h" x1="0.112" y1="0.34" x2="1.184" y2="0.762" xlink:href="#d"/><linearGradient id="i" x1="12.714" y1="15.917" x2="13.62" y2="15.917" xlink:href="#e"/><linearGradient id="j" x1="-1.807" y1="-0.608" x2="1.164" y2="0.819" xlink:href="#d"/><linearGradient id="k" x1="0.044" y1="0.5" x2="1.044" y2="0.5" xlink:href="#b"/><linearGradient id="l" x1="3.484" y1="-1.365" x2="-0.242" y2="1.237" xlink:href="#e"/><linearGradient id="m" x1="-1.737" y1="0.5" x2="-0.737" y2="0.5" xlink:href="#d"/><linearGradient id="n" x1="-11.898" y1="0.5" x2="-10.898" y2="0.5" xlink:href="#b"/><linearGradient id="o" x1="-1.837" y1="-0.771" x2="2.175" y2="1.483" xlink:href="#e"/><linearGradient id="p" x1="-11.929" y1="0.5" x2="-10.929" y2="0.5" xlink:href="#d"/><linearGradient id="q" x1="-4.756" y1="1.073" x2="-2.809" y2="-0.534" xlink:href="#e"/><linearGradient id="r" x1="-32.683" y1="26.223" x2="-32.725" y2="23.462" gradientUnits="objectBoundingBox"><stop offset="0" stop-color="#e1473d"/><stop offset="1" stop-color="#e9605a"/></linearGradient><linearGradient id="s" x1="-89.504" y1="12.321" x2="-88.929" y2="16.449" xlink:href="#r"/><linearGradient id="t" x1="-32.664" y1="26.883" x2="-32.706" y2="24.122" xlink:href="#r"/><linearGradient id="u" x1="-87.605" y1="11.637" x2="-87.042" y2="15.441" xlink:href="#r"/><linearGradient id="v" x1="-8.972" y1="6.275" x2="-9.055" y2="7.863" gradientUnits="objectBoundingBox"><stop offset="0" stop-color="#ff928e"/><stop offset="1" stop-color="#fe7062"/></linearGradient><linearGradient id="w" x1="0.366" y1="1.185" x2="0.583" y2="0.09" xlink:href="#r"/><linearGradient id="x" x1="-27.439" y1="8.681" x2="-26.454" y2="8.681" xlink:href="#v"/><linearGradient id="y" x1="0.727" y1="0.159" x2="-0.108" y2="1.39" xlink:href="#d"/><linearGradient id="z" x1="-1.099" y1="1.732" x2="0.867" y2="0.385" xlink:href="#e"/><linearGradient id="aa" x1="0.629" y1="0.227" x2="1.415" y2="-1.439" xlink:href="#e"/><linearGradient id="ab" x1="-9.085" y1="0.5" x2="-8.085" y2="0.5" xlink:href="#e"/><linearGradient id="ac" x1="-6.707" y1="-12.944" x2="-10.405" y2="11.132" xlink:href="#b"/><linearGradient id="ad" x1="-23.392" y1="-0.843" x2="-23.899" y2="2.39" xlink:href="#d"/><linearGradient id="ae" x1="-5.158" y1="-5.387" x2="-7.675" y2="17.678" xlink:href="#b"/><linearGradient id="af" x1="-6.311" y1="0.5" x2="-5.311" y2="0.5" xlink:href="#e"/><linearGradient id="ag" x1="-20.334" y1="-0.826" x2="-20.814" y2="1.889" xlink:href="#d"/><linearGradient id="ah" x1="0.945" y1="-0.016" x2="-0.331" y2="1.523" xlink:href="#e"/><linearGradient id="ai" x1="-0.17" y1="0.869" x2="1" y2="0.288" xlink:href="#d"/><linearGradient id="aj" x1="0.877" y1="0.89" x2="0.214" y2="0.024" xlink:href="#d"/><linearGradient id="ak" x1="-0.002" y1="-0.153" x2="0.677" y2="0.651" xlink:href="#e"/><linearGradient id="al" x1="2.217" y1="2.237" x2="-0.496" y2="-0.589" xlink:href="#d"/><linearGradient id="am" x1="1.314" y1="-0.073" x2="0.004" y2="0.944" xlink:href="#d"/><linearGradient id="an" x1="1.01" y1="-1.182" x2="-0.407" y2="2.854" xlink:href="#d"/><linearGradient id="ao" x1="0.7" y1="0.02" x2="-1.5" y2="3.348" xlink:href="#d"/><linearGradient id="ap" x1="1.378" y1="0.9" x2="-0.812" y2="-0.019" xlink:href="#d"/><linearGradient id="aq" x1="2.489" y1="-2.054" x2="-2.007" y2="3.719" xlink:href="#r"/><linearGradient id="ar" x1="1.268" y1="-0.843" x2="-1.343" y2="3.85" xlink:href="#r"/></defs><g transform="translate(60.454 18.208)"><g transform="translate(-60.454 -18.208)"><path class="a" d="M728.487,630.621c-24.986,58.831-91.542,91.789-149.259,82.9-9.392-1.447-35.14-5.756-57.936-26.085C477.408,648.3,468.023,570.8,503.423,516.193c25.765-39.748,71.951-62.279,115.838-61.152,9.453.243,45.681,1.739,77.519,27.992a119.4,119.4,0,0,1,24.286,27.556C742.894,544.723,744.77,592.28,728.487,630.621Z" transform="translate(-478.987 -455)"/><g transform="translate(0 31.374)"><g transform="translate(107.076)"><path class="b" d="M1695.45,828.879c-3.488-6.127-6.172-14.366-.691-20.533,9.9-11.138,29.7-13.614,34.654,3.713,2.047,7.167.6,12.738-1.8,16.807a5.658,5.658,0,0,0,4.893,8.518h31.559v42.107a4.688,4.688,0,0,1-7.4,3.811c-21.171-14.694-32.211,2.638-32.234,10.439-.026,8.663,3.739,29.084,17.353,28.465A33.568,33.568,0,0,0,1757,917.643a4.687,4.687,0,0,1,7.069,4.026v39.247h-32.66a4.871,4.871,0,0,0-4.081,7.536c2.423,3.738,4.453,9.158,4.563,16.872.282,19.636-29.7,16.089-37.129,9.9-5.3-4.42-5.522-18.593-1.392-27.358a4.947,4.947,0,0,0-4.564-6.952h-31.791V917.968a4.025,4.025,0,0,0-6.092-3.457c-5.471,3.251-13.922,7.328-22.373,7.695-14.232.619-16.089-15.47-16.708-27.846-.547-10.931,20.293-28.625,36.743-17.838,2.7,1.767,8.227,4.354,8.227,1.131V837.385h33.737A5.67,5.67,0,0,0,1695.45,828.879Z" transform="translate(-1611.203 -798.906)"/><path class="c" d="M1706.823,994.709a41.184,41.184,0,0,1-5.143-.331c-5.665-.715-10.815-2.517-13.439-4.7-5.724-4.77-5.641-19.441-1.558-28.105a4.089,4.089,0,0,0-.273-4,4.393,4.393,0,0,0-3.724-2.057H1650.9a.626.626,0,0,1-.626-.626V911.936a3.4,3.4,0,0,0-5.147-2.919c-5.63,3.346-14.132,7.411-22.665,7.782-6.562.292-11.3-2.887-14.063-9.432-2.346-5.552-2.983-12.724-3.3-19.009-.3-5.974,5.246-13.61,13.185-18.157,8.442-4.835,17.381-4.92,24.526-.235,2.481,1.628,5.833,3.018,6.923,2.432.091-.049.335-.181.335-.777V831.352a.626.626,0,0,1,.626-.626h33.736a4.975,4.975,0,0,0,4.346-2.494,5.04,5.04,0,0,0,.014-5.076c-4.984-8.753-5.2-16.1-.615-21.259,6.052-6.809,15.67-10.334,23.382-8.576,6.043,1.378,10.426,5.829,12.341,12.533,1.806,6.322,1.18,12.142-1.862,17.3a5.032,5.032,0,0,0,4.354,7.574h31.559a.626.626,0,0,1,.626.626v42.107a5.2,5.2,0,0,1-2.828,4.681,5.356,5.356,0,0,1-5.55-.356c-10.505-7.292-17.844-6.146-22.151-3.9-6.19,3.227-9.09,10.159-9.1,13.828-.02,6.705,2.134,18.775,8.152,24.543a11.234,11.234,0,0,0,8.546,3.295,32.668,32.668,0,0,0,14.924-4.48,5.323,5.323,0,0,1,5.374-.009,5.23,5.23,0,0,1,2.633,4.577v39.247a.626.626,0,0,1-.626.626h-32.66a4.245,4.245,0,0,0-3.555,6.57c3,4.623,4.567,10.412,4.664,17.2.087,6.061-2.677,10.606-7.993,13.143A27.186,27.186,0,0,1,1706.823,994.709Zm-55.3-40.451h31.164a5.639,5.639,0,0,1,4.781,2.639,5.388,5.388,0,0,1,.349,5.206c-4.207,8.929-3.577,22.607,1.227,26.61,4.923,4.1,19.793,6.892,28.822,2.583,4.911-2.343,7.361-6.379,7.28-11.995-.094-6.553-1.6-12.118-4.462-16.541a5.5,5.5,0,0,1,4.606-8.5h32.034V915.637a3.989,3.989,0,0,0-2.008-3.493,4.082,4.082,0,0,0-4.123.009A33.912,33.912,0,0,1,1735.7,916.8a12.437,12.437,0,0,1-9.469-3.642c-6.3-6.041-8.559-18.529-8.539-25.451.013-4.092,3.053-11.431,9.774-14.934,4.612-2.4,12.424-3.665,23.443,3.983a4.054,4.054,0,0,0,4.256.276,3.966,3.966,0,0,0,2.157-3.572V831.978h-30.933a6.284,6.284,0,0,1-5.432-9.462c2.86-4.849,3.444-10.339,1.736-16.317-2.287-8-7.47-10.757-11.416-11.656-7.289-1.664-16.406,1.7-22.168,8.187-2.923,3.288-5.162,9.394.767,19.807h0a6.279,6.279,0,0,1-.02,6.325,6.214,6.214,0,0,1-5.428,3.116h-33.11v39.643a1.961,1.961,0,0,1-.992,1.879c-2.391,1.291-7.968-2.331-8.2-2.486-6.737-4.419-15.2-4.319-23.217.275-7.431,4.256-12.829,11.568-12.557,17.008.309,6.175.931,13.212,3.2,18.584,2.576,6.1,6.777,8.932,12.855,8.668,8.273-.359,16.574-4.335,22.08-7.608a4.652,4.652,0,0,1,7.039,4Z" transform="translate(-1605.085 -792.873)"/></g><g transform="translate(0 2.344)"><path class="d" d="M490.579,938.927a31.491,31.491,0,0,1-14.136,5.467c-12.23,1.223-17.121-12.229-17.733-23.848s9.784-22.625,18.956-21.4c4.32.576,9.047,3.322,12.84,6.067a4.623,4.623,0,0,0,7.339-3.744V859.739h42.217a4.815,4.815,0,0,0,4.38-6.83c-3.312-7.2-7.033-18.139-1.844-22.86,8.064-7.338,29.848-7.338,33.517,3.669,2.054,6.163-.737,13.578-3.59,18.91a4.816,4.816,0,0,0,4.248,7.095H612.8v38.646a5.144,5.144,0,0,1-8.024,4.3c-15.586-11.062-32.608.607-34.168,13.6-1.834,15.287,7.949,28.128,18.344,26.905,5.279-.621,11.345-3.607,16.039-6.4A5.158,5.158,0,0,1,612.8,941.2v42.686H571.3a6.468,6.468,0,0,1-5.866-9.233c2.453-5.1,12.505-11.36,11.9-16.191-1.223-9.783-23.007-12.2-34.74-10.382-8.955,1.39-4.5,15.4.586,26.625a6.479,6.479,0,0,1-5.881,9.182H497.844V942.728A4.636,4.636,0,0,0,490.579,938.927Z" transform="translate(-458.059 -824.301)"/><path class="c" d="M606.7,978.326H565.2a7.1,7.1,0,0,1-6.038-3.339,7,7,0,0,1-.393-6.791c1.054-2.192,3.431-4.569,5.73-6.867,3.162-3.163,6.433-6.433,6.115-8.975a7.54,7.54,0,0,0-3.274-5.038c-4.415-3.33-17.556-6.851-30.748-4.8a4.783,4.783,0,0,0-3.757,2.463c-2.042,3.778-.376,11.83,4.817,23.285a7.105,7.105,0,0,1-6.451,10.067H491.738a.626.626,0,0,1-.626-.626V936.545a3.913,3.913,0,0,0-2.1-3.507,4.023,4.023,0,0,0-4.2.227,31.659,31.659,0,0,1-14.422,5.57,13.151,13.151,0,0,1-10.259-3.111c-2.217-1.9-7.449-7.788-8.162-21.327a22.819,22.819,0,0,1,7.4-17.411c3.778-3.487,8.25-5.179,12.267-4.644,3.728.5,8.143,2.576,13.124,6.18a4,4,0,0,0,6.346-3.237V853.556a.626.626,0,0,1,.626-.626h42.217a4.188,4.188,0,0,0,3.811-5.942c-3.718-8.081-7.03-18.732-1.7-23.585,5.111-4.651,15.707-6.574,24.121-4.376,5.4,1.409,9.094,4.36,10.411,8.31,2.142,6.426-.793,14.1-3.633,19.4a4.19,4.19,0,0,0,3.7,6.173H606.7a.626.626,0,0,1,.626.626v38.646a5.832,5.832,0,0,1-3.179,5.193,5.528,5.528,0,0,1-5.833-.384c-6.6-4.687-14.029-5.591-20.906-2.544-6.668,2.954-11.487,9.12-12.278,15.709-1,8.338,1.565,16.711,6.694,21.853,3.25,3.257,7.138,4.805,10.955,4.356,5.327-.627,11.528-3.779,15.792-6.313a5.784,5.784,0,0,1,8.755,4.96V977.7A.626.626,0,0,1,606.7,978.326ZM544.52,940.718c8.21,0,18.12,1.487,23.57,5.6a8.737,8.737,0,0,1,3.762,5.883c.394,3.149-3.1,6.64-6.472,10.016-2.224,2.225-4.525,4.525-5.486,6.525a5.749,5.749,0,0,0,.324,5.581,5.849,5.849,0,0,0,4.978,2.754H606.07v-42.06a4.532,4.532,0,0,0-6.863-3.883c-4.368,2.6-10.74,5.827-16.285,6.48-4.2.5-8.462-1.18-11.988-4.715-5.394-5.407-8.1-14.177-7.051-22.886.842-7.018,5.95-13.574,13.014-16.7,7.3-3.232,15.159-2.285,22.137,2.667a4.3,4.3,0,0,0,4.534.292,4.585,4.585,0,0,0,2.5-4.081v-38.02H570.665a5.442,5.442,0,0,1-4.8-8.016c2.723-5.088,5.55-12.413,3.549-18.416-1.178-3.535-4.566-6.2-9.539-7.495-8.048-2.1-18.133-.3-22.963,4.091-2.157,1.963-4.766,7.448,1.992,22.136a5.441,5.441,0,0,1-4.949,7.718H492.364v41.1a5.249,5.249,0,0,1-8.332,4.251c-4.743-3.432-9.084-5.49-12.555-5.953-3.646-.487-7.748,1.089-11.251,4.323a21.538,21.538,0,0,0-7,16.425c.477,9.058,3.365,16.7,7.727,20.443a11.942,11.942,0,0,0,9.318,2.815,30.423,30.423,0,0,0,13.849-5.364h0a5.326,5.326,0,0,1,5.482-.291,5.146,5.146,0,0,1,2.759,4.612v40.529H531.2a5.81,5.81,0,0,0,4.9-2.67,5.87,5.87,0,0,0,.406-5.628c-5.438-11.994-7.046-20.2-4.778-24.4a6.035,6.035,0,0,1,4.666-3.1A54.5,54.5,0,0,1,544.52,940.718Z" transform="translate(-451.953 -818.118)"/></g></g><g transform="translate(45.71 74.306)"><g transform="translate(59.643 0.826)"><g transform="translate(0 28.652)"><path class="e" d="M1595.96,1817.991s-1.454-3.829-3.153-3.478a11.613,11.613,0,0,0-3.557,1.656l-2.729,3.691s7.661,3.018,10.355,1.288a58.948,58.948,0,0,0,17.708-.269,38.733,38.733,0,0,1-2.784-8.391A41.227,41.227,0,0,1,1595.96,1817.991Z" transform="translate(-1586.52 -1790.221)"/><path class="f" d="M1884.373,1572.684s-11.2,14.112-25.612,22.267a38.738,38.738,0,0,0,2.784,8.391A46.26,46.26,0,0,0,1885,1592.685Z" transform="translate(-1833.481 -1572.684)"/></g><path class="g" d="M2134.883,1613.682c-2.191-10.408-4.382-16.433-11.719-36.161-2.309-6.208-4.406-12.489-3.392-19.035l1.138-7.351a55.058,55.058,0,0,1,30.062-.2s21.563,9.367,6.917,55.629C2151.288,1613.947,2143.562,1616.052,2134.883,1613.682Z" transform="translate(-2070.018 -1522.483)"/><path class="h" d="M2160.724,1448.583l3.7,8.882a1.77,1.77,0,0,0,1.337,1.063c2.131.366,7.287.937,10.673-1.289a.861.861,0,0,0,.23-1.21l-6.83-9.806Z" transform="translate(-2107.405 -1429.314)"/><g transform="translate(48.575)"><path class="i" d="M2137.883,1320.58c-.155.146-6.553,12.71-6.553,12.71l7.251,3.5,7.833-11.007S2140.482,1318.133,2137.883,1320.58Z" transform="translate(-2129.316 -1314.899)"/><path class="j" d="M2123.44,1276.325l-3.617,6.029a1.125,1.125,0,0,1-.2.247c-.43.4-1.9,1.566-3.042-.021a10.2,10.2,0,0,0-2.857-3.089,1.156,1.156,0,0,0-1.56.514,43.157,43.157,0,0,0-2.475,5.871,1.151,1.151,0,0,0,.67,1.412,32.082,32.082,0,0,0,6.945,2.026,1.157,1.157,0,0,0,1.094-.465c1.108-1.518,4.23-5.759,5.3-6.821.99-.986,2.818-.615,3.641-.378a1.161,1.161,0,0,0,.924-.121,2.548,2.548,0,0,0,.959-3.878,1.158,1.158,0,0,1,.358-1.572,2.558,2.558,0,0,0,.981-3.63,3.607,3.607,0,0,0-3.907-1.912,1.2,1.2,0,0,1-1.26-.7.765.765,0,0,0-.6-.47,1.122,1.122,0,0,1-.908-1.318,2.963,2.963,0,0,0-1.655-3.394c-3.128-1.72-5.869,1.083-6.566,3.449s2.8,4.038,5,4.317c1.616.2,2.5,1.969,2.859,2.891A1.159,1.159,0,0,1,2123.44,1276.325Z" transform="translate(-2109.637 -1264.121)"/><path class="k" d="M2244.633,1442.05s1.556-3.662,3.337-3.512,3.183,1.924.975,3.918C2246.2,1444.936,2244.633,1442.05,2244.633,1442.05Z" transform="translate(-2232.098 -1422.338)"/></g><g transform="translate(62.893 171.015)"><path class="l" d="M2264.4,3234.059c3.444.3,9.42.781,14.131.988a13.605,13.605,0,0,0,5.4-.528c0,.105,0,.206-.009.3a.975.975,0,0,1-.926.921,165.624,165.624,0,0,1-18.5.019.694.694,0,0,1-.565-1.043A5.721,5.721,0,0,1,2264.4,3234.059Z" transform="translate(-2263.833 -3222.151)"/><path class="m" d="M2284.078,3167.119c-4.712-.208-10.688-.691-14.132-.989,3.386-4.153,14.132-6.953,14.132-6.953h3.035a12.725,12.725,0,0,1,2.367,7.413A13.6,13.6,0,0,1,2284.078,3167.119Z" transform="translate(-2269.378 -3154.222)"/><path class="n" d="M2405.008,3105.817l-.284,5.62a1.283,1.283,0,0,1-1.1,1.207,5,5,0,0,1-2.28-.189,1.519,1.519,0,0,1-1.021-1.168l-.981-5.471Z" transform="translate(-2386.762 -3105.817)"/></g><g transform="translate(110.368 165.762)"><g transform="translate(1.337 5.216)"><path class="o" d="M2834.1,3226.535a2.726,2.726,0,0,0,2.452-1.814c0,.008,0,.015.006.023a1.941,1.941,0,0,1-1.308,2.212,8.538,8.538,0,0,1-3.621.567,3.6,3.6,0,0,1-2.715-1.252l-.008-.011C2830.035,3226.817,2831.615,3226.882,2834.1,3226.535Z" transform="translate(-2825.25 -3213.643)"/><path class="p" d="M2791.313,3105.423h2.5c3.812-.078,6.207,7.963,6.99,11.077a2.726,2.726,0,0,1-2.452,1.814c-2.49.347-4.07.282-5.195-.275-2.06-2.71-3.081-6.68-3.572-9A3.159,3.159,0,0,1,2791.313,3105.423Z" transform="translate(-2789.499 -3105.422)"/></g><path class="q" d="M2780.431,3049.251l1.39,5.528a1.5,1.5,0,0,1-.781,1.7,5.325,5.325,0,0,1-2.878.7,1.253,1.253,0,0,1-1.022-.836l-2.041-5.816Z" transform="translate(-2775.099 -3049.251)"/></g><path class="r" d="M2332.2,2255.83c-1.729,1.534-7.354,1.736-7.354,1.736-20.26-48.626-28.706-62.012-28.706-62.012,2.925,18.354.631,65.465.631,65.465-3.343,1.475-7.654,0-7.654,0-.271-30.047-4.5-62.334-9.958-82.993,13.693-.307,21.135-3.293,23.513-5.173C2314.09,2191.254,2332.2,2255.83,2332.2,2255.83Z" transform="translate(-2214.846 -2088.47)"/><g transform="translate(59.172 76.604)"><path class="s" d="M2242.013,2315.567l2.52,15.672a5.162,5.162,0,0,0,5.731,4.291l37.711-4.6a3.725,3.725,0,0,0,3.281-3.615,69.693,69.693,0,0,0-1.778-17.821Z" transform="translate(-2240.318 -2289.028)"/><path class="t" d="M2261.4,2334.751a.108.108,0,0,1-.013-.214l.854-.1a.1.1,0,0,1,.12.093.108.108,0,0,1-.094.12l-.854.1Zm-1.995-.049-.024,0a5,5,0,0,1-.835-.269.107.107,0,1,1,.084-.2,4.707,4.707,0,0,0,.8.257.108.108,0,0,1-.024.213Zm4.841-.3a.107.107,0,0,1-.013-.214l.853-.1a.109.109,0,0,1,.12.094.107.107,0,0,1-.094.119l-.854.1Zm2.846-.347a.107.107,0,0,1-.013-.214l.854-.1a.106.106,0,0,1,.12.094.108.108,0,0,1-.094.12l-.854.1Zm2.846-.347a.108.108,0,0,1-.013-.215l.854-.1a.1.1,0,0,1,.12.093.108.108,0,0,1-.094.12l-.854.1Zm2.846-.348a.107.107,0,0,1-.013-.214l.854-.1a.108.108,0,0,1,.027.213l-.854.1Zm-15.838-.052a.109.109,0,0,1-.078-.033,5.055,5.055,0,0,1-.55-.683.108.108,0,1,1,.178-.12,4.848,4.848,0,0,0,.527.655.108.108,0,0,1-.078.182Zm18.684-.295a.108.108,0,0,1-.013-.214l.854-.1a.106.106,0,0,1,.12.093.108.108,0,0,1-.094.12l-.854.1Zm2.846-.347a.107.107,0,0,1-.013-.214l.854-.1a.106.106,0,0,1,.119.094.107.107,0,0,1-.094.12l-.854.1Zm2.846-.347a.107.107,0,0,1-.013-.214l.854-.1a.107.107,0,1,1,.026.213l-.853.1Zm2.846-.347a.108.108,0,0,1-.013-.215l.854-.1a.106.106,0,0,1,.12.094.107.107,0,0,1-.093.12l-.854.1Zm2.846-.347a.108.108,0,0,1-.013-.215l.854-.1a.105.105,0,0,1,.12.094.107.107,0,0,1-.094.12l-.854.1Zm2.846-.347a.107.107,0,0,1-.013-.214l.854-.1a.108.108,0,0,1,.026.214l-.854.1Zm2.846-.347a.108.108,0,0,1-.013-.214l.854-.1a.106.106,0,0,1,.12.094.108.108,0,0,1-.094.12l-.854.1Zm-37.043-.14a.107.107,0,0,1-.106-.089l-.138-.851a.108.108,0,0,1,.212-.034l.137.848a.107.107,0,0,1-.087.125Zm39.89-.207a.107.107,0,0,1-.014-.214l.854-.1a.105.105,0,0,1,.12.094.107.107,0,0,1-.094.12l-.854.1Zm2.775-.618a.107.107,0,0,1-.053-.2,3.477,3.477,0,0,0,.667-.5.107.107,0,0,1,.148.156,3.648,3.648,0,0,1-.709.528A.106.106,0,0,1,2298.332,2329.967Zm-43.121-2.006a.108.108,0,0,1-.106-.09l-.136-.85a.107.107,0,0,1,.089-.123.105.105,0,0,1,.123.089l.136.849a.107.107,0,0,1-.089.123Zm44.8-.218a.16.16,0,0,1-.026,0,.108.108,0,0,1-.079-.131,3.4,3.4,0,0,0,.1-.751l0-.076a.108.108,0,0,1,.107-.106h0a.108.108,0,0,1,.106.109v.079a3.638,3.638,0,0,1-.1.8A.108.108,0,0,1,2300.016,2327.744Zm-45.26-2.613a.107.107,0,0,1-.106-.091l-.136-.849a.108.108,0,0,1,.089-.123.106.106,0,0,1,.123.089l.137.85a.107.107,0,0,1-.089.123Zm45.375-.247a.107.107,0,0,1-.107-.106c0-.278-.005-.565-.01-.859a.108.108,0,0,1,.106-.11.1.1,0,0,1,.109.106c.005.294.009.582.01.861a.107.107,0,0,1-.106.108Zm-45.83-2.584a.107.107,0,0,1-.106-.091l-.136-.85a.107.107,0,0,1,.089-.123.106.106,0,0,1,.123.089l.136.85a.107.107,0,0,1-.089.124Zm45.762-.283a.107.107,0,0,1-.107-.1c-.012-.281-.025-.568-.041-.858a.108.108,0,0,1,.1-.113.1.1,0,0,1,.113.1c.016.291.029.578.041.86a.107.107,0,0,1-.1.112Zm-46.217-2.548a.107.107,0,0,1-.106-.091l-.137-.85a.107.107,0,0,1,.212-.034l.137.849a.107.107,0,0,1-.089.123Zm46.042-.315a.108.108,0,0,1-.107-.1q-.034-.424-.074-.855a.107.107,0,0,1,.1-.117.1.1,0,0,1,.117.1q.04.432.074.859a.108.108,0,0,1-.1.116Zm-46.5-2.516a.107.107,0,0,1-.106-.091l-.154-.958.443-.057a.1.1,0,0,1,.12.093.107.107,0,0,1-.093.12l-.222.029.119.74a.107.107,0,0,1-.089.123Zm46.206-.336a.108.108,0,0,1-.107-.094q-.053-.425-.112-.852a.107.107,0,0,1,.092-.121.105.105,0,0,1,.121.092q.06.428.113.854a.108.108,0,0,1-.094.12Zm-44.019-.81a.107.107,0,0,1-.014-.214l.853-.11a.1.1,0,0,1,.12.093.108.108,0,0,1-.093.12l-.853.109Zm2.844-.364a.108.108,0,0,1-.014-.214l.853-.109a.1.1,0,0,1,.121.093.108.108,0,0,1-.093.121l-.853.109Zm2.844-.364a.108.108,0,0,1-.014-.214l.854-.11a.1.1,0,0,1,.12.093.108.108,0,0,1-.093.12l-.854.109Zm2.844-.364a.108.108,0,0,1-.014-.214l.853-.109a.1.1,0,0,1,.121.093.108.108,0,0,1-.093.121l-.853.109Zm2.844-.364a.108.108,0,0,1-.014-.215l.853-.109a.1.1,0,0,1,.121.093.107.107,0,0,1-.093.121l-.853.109Zm2.844-.364a.107.107,0,0,1-.014-.214l.853-.109a.1.1,0,0,1,.121.093.108.108,0,0,1-.093.12l-.853.109Zm29.374-.206a.107.107,0,0,1-.106-.089q-.075-.422-.157-.844a.107.107,0,0,1,.085-.126.106.106,0,0,1,.126.085c.056.283.108.565.158.848a.107.107,0,0,1-.087.124Zm-26.53-.158a.108.108,0,0,1-.014-.215l.853-.109a.1.1,0,0,1,.121.093.108.108,0,0,1-.093.121l-.853.109Zm2.844-.364a.108.108,0,0,1-.014-.215l.853-.109a.1.1,0,0,1,.121.093.108.108,0,0,1-.093.12l-.853.109Zm2.844-.364a.107.107,0,0,1-.014-.214l.853-.109a.1.1,0,0,1,.121.093.109.109,0,0,1-.093.121l-.853.109Zm2.844-.364a.107.107,0,0,1-.014-.214l.853-.109a.1.1,0,0,1,.12.093.108.108,0,0,1-.093.121l-.853.109Zm2.844-.364a.107.107,0,0,1-.014-.214l.853-.109a.105.105,0,0,1,.12.093.107.107,0,0,1-.093.12l-.853.11Zm2.844-.364a.108.108,0,0,1-.014-.214l.853-.109a.1.1,0,0,1,.12.093.107.107,0,0,1-.093.121l-.853.109Zm2.844-.364a.108.108,0,0,1-.014-.215l.853-.109a.1.1,0,0,1,.121.093.108.108,0,0,1-.093.12l-.853.109Zm2.844-.364a.108.108,0,0,1-.014-.214l.853-.109a.1.1,0,0,1,.12.093.108.108,0,0,1-.093.121l-.854.109Zm6.039-.1a.109.109,0,0,1-.1-.083q-.067-.279-.138-.557l-.094.012a.105.105,0,0,1-.12-.093.107.107,0,0,1,.093-.12l.282-.036.024.091c.056.217.11.434.163.652a.107.107,0,0,1-.079.129A.094.094,0,0,1,2298.588,2310.66Zm-3.2-.262a.108.108,0,0,1-.014-.215l.854-.108a.1.1,0,0,1,.12.093.107.107,0,0,1-.093.12l-.853.109Z" transform="translate(-2250.403 -2289.29)"/><path class="u" d="M2344.793,2212.712l-.042-1.228a.94.94,0,0,1,.638-.636c1.15-.337,4.02-1.038,5.556-.169l.39,1.383Z" transform="translate(-2333.516 -2199.009)"/><path class="v" d="M2364.042,2174.249a1.7,1.7,0,0,1-.812.1.741.741,0,0,1-.651-.64l-.486-3.8,1.934-.248.486,3.8A.742.742,0,0,1,2364.042,2174.249Z" transform="translate(-2349.248 -2162.183)"/><path class="w" d="M2546.518,2186.9l-.042-1.229a.94.94,0,0,1,.638-.635c1.15-.337,4.019-1.039,5.555-.17l.39,1.384Z" transform="translate(-2516.51 -2175.592)"/><path class="x" d="M2565.268,2144.524a1.69,1.69,0,0,1-.813.1.74.74,0,0,1-.65-.639l-.538-4.2,1.934-.248.537,4.2A.742.742,0,0,1,2565.268,2144.524Z" transform="translate(-2531.742 -2134.855)"/><path class="y" d="M2349.084,2097.776l20.71-3.35a1.011,1.011,0,0,0,.853-.946,8.538,8.538,0,0,0-.273-2.644,2.418,2.418,0,0,0-2.585-1.733c-3.892.4-13.769,1.671-18.937,4.521a1.915,1.915,0,0,0-.98,1.466,4.651,4.651,0,0,0,.22,2.118A.9.9,0,0,0,2349.084,2097.776Z" transform="translate(-2336.316 -2089.091)"/><path class="z" d="M2351.913,2124.477a.288.288,0,0,1-.279-.222,5.137,5.137,0,0,1-.079-1.654,1.941,1.941,0,0,1,1.142-1.5,23.225,23.225,0,0,1,5.106-1.646.287.287,0,1,1,.088.567,23.212,23.212,0,0,0-4.964,1.6,1.365,1.365,0,0,0-.8,1.056,4.584,4.584,0,0,0,.07,1.446.286.286,0,0,1-.215.344A.283.283,0,0,1,2351.913,2124.477Z" transform="translate(-2339.655 -2116.63)"/><path class="aa" d="M2225.329,2195.7c6.708-.946,35.736-4.971,44.31-5.032a1.733,1.733,0,0,1,1.648,1.143,57.215,57.215,0,0,1,3.007,12.512,1.519,1.519,0,0,1-1.048,1.594l-18.807,6.112-6.846.876-21.059-1.455a1.619,1.619,0,0,1-1.486-1.325c-.468-2.6-1.461-8.7-1.259-12.738A1.792,1.792,0,0,1,2225.329,2195.7Z" transform="translate(-2223.763 -2181.237)"/><path class="t" d="M2262.844,2226.635h-.007l-.858-.059a.108.108,0,0,1-.1-.115.115.115,0,0,1,.115-.1l.858.059a.108.108,0,0,1-.008.215Zm.784-.1a.108.108,0,0,1-.014-.215l.853-.108a.1.1,0,0,1,.121.093.109.109,0,0,1-.093.121l-.853.109Zm-3.645-.1h-.007l-.858-.06a.107.107,0,0,1-.1-.115.114.114,0,0,1,.115-.1l.858.059a.108.108,0,0,1-.008.215Zm-2.861-.2h-.007l-.858-.059a.108.108,0,0,1-.1-.115.119.119,0,0,1,.115-.1l.858.059a.108.108,0,0,1-.008.216Zm9.349-.069a.108.108,0,0,1-.014-.215l.854-.109a.1.1,0,0,1,.121.093.108.108,0,0,1-.093.12l-.853.109Zm-12.209-.129h-.007l-.858-.06a.107.107,0,0,1-.1-.115.117.117,0,0,1,.114-.1l.858.059a.108.108,0,0,1-.007.215Zm-2.86-.2h-.008l-.858-.059a.108.108,0,0,1-.1-.115.116.116,0,0,1,.115-.1l.858.06a.107.107,0,0,1-.007.215Zm17.913-.038a.107.107,0,0,1-.013-.214l.055-.007.745-.244a.11.11,0,0,1,.136.069.108.108,0,0,1-.069.136l-.84.26Zm-20.774-.159h-.007l-.858-.059a.108.108,0,0,1-.1-.115.116.116,0,0,1,.115-.1l.858.059a.108.108,0,0,1-.008.215Zm-2.86-.2h-.008l-.858-.059a.107.107,0,0,1-.1-.115.113.113,0,0,1,.115-.1l.858.059a.108.108,0,0,1-.007.215Zm-2.861-.2h-.007l-.916-.063-.015-.082a.12.12,0,0,1,.084-.138.111.111,0,0,1,.086.015l.777.053a.108.108,0,0,1-.008.215Zm29.224-.322a.108.108,0,0,1-.033-.21l.818-.266a.111.111,0,0,1,.136.069.109.109,0,0,1-.069.136l-.818.265A.115.115,0,0,1,2272.045,2224.931Zm2.726-.886a.108.108,0,0,1-.033-.21l.818-.266a.108.108,0,0,1,.067.205l-.818.265A.116.116,0,0,1,2274.771,2224.044Zm-33.123-.855a.107.107,0,0,1-.106-.09c-.043-.272-.088-.557-.132-.852a.107.107,0,1,1,.212-.033c.045.295.089.579.132.85a.108.108,0,0,1-.089.124Zm35.85-.031a.107.107,0,0,1-.033-.209l.817-.266a.107.107,0,1,1,.067.2l-.818.266A.116.116,0,0,1,2277.5,2223.158Zm2.727-.886a.107.107,0,0,1-.033-.209l.818-.266a.107.107,0,0,1,.066.2l-.818.266A.092.092,0,0,1,2280.225,2222.272Zm2.727-.886a.108.108,0,0,1-.033-.21l.818-.266a.107.107,0,0,1,.066.2l-.817.266A.118.118,0,0,1,2282.952,2221.386Zm2.727-.886a.108.108,0,0,1-.1-.074.107.107,0,0,1,.069-.135l.819-.266a.107.107,0,1,1,.066.2l-.818.266A.114.114,0,0,1,2285.678,2220.5Zm-44.443-.15a.108.108,0,0,1-.107-.093c-.036-.281-.072-.567-.107-.855a.107.107,0,0,1,.213-.026c.035.287.071.572.107.853a.107.107,0,0,1-.092.121Zm46.621-1.089a.108.108,0,0,1-.107-.095q-.053-.426-.115-.85a.107.107,0,0,1,.091-.122.1.1,0,0,1,.122.091c.041.285.08.569.115.855a.107.107,0,0,1-.094.12Zm-46.937-1.763a.108.108,0,0,1-.107-.1c-.025-.287-.049-.574-.071-.859a.108.108,0,0,1,.215-.016c.021.284.044.57.07.856a.107.107,0,0,1-.1.116Zm46.486-1.069a.107.107,0,0,1-.105-.087q-.082-.424-.17-.841a.108.108,0,0,1,.083-.128.107.107,0,0,1,.127.083q.089.418.171.845a.108.108,0,0,1-.085.126A.083.083,0,0,1,2287.4,2216.429Zm-46.658-1.795a.107.107,0,0,1-.107-.1c-.006-.232-.009-.462-.009-.687v-.177a.108.108,0,0,1,.107-.107h0a.108.108,0,0,1,.107.109v.176q0,.335.008.682a.107.107,0,0,1-.1.109Zm46.036-1a.108.108,0,0,1-.1-.082c-.071-.282-.142-.56-.214-.832a.107.107,0,0,1,.076-.131.109.109,0,0,1,.132.076c.072.273.144.552.215.835a.107.107,0,0,1-.078.13A.1.1,0,0,1,2286.781,2213.629Zm-44.975-.991a.107.107,0,0,1-.015-.214l.853-.119a.107.107,0,0,1,.121.092.108.108,0,0,1-.092.121l-.852.119Zm2.842-.394a.108.108,0,0,1-.015-.214l.853-.117a.105.105,0,0,1,.121.092.107.107,0,0,1-.091.121l-.853.118Zm2.842-.389a.108.108,0,0,1-.014-.214l.853-.115a.108.108,0,1,1,.029.213l-.853.115Zm2.842-.384a.108.108,0,0,1-.014-.214l.853-.114a.105.105,0,0,1,.121.092.108.108,0,0,1-.093.121l-.853.114Zm2.844-.378a.107.107,0,0,1-.014-.214l.853-.112a.108.108,0,0,1,.028.213l-.853.112Zm32.845-.23a.108.108,0,0,1-.1-.076c-.086-.286-.17-.561-.252-.822a.107.107,0,0,1,.07-.135.106.106,0,0,1,.135.07q.124.393.253.824a.108.108,0,0,1-.072.134A.111.111,0,0,1,2286.021,2210.863Zm-30-.142a.107.107,0,0,1-.014-.214l.854-.11a.109.109,0,0,1,.121.093.107.107,0,0,1-.093.12l-.854.111Zm2.844-.364a.108.108,0,0,1-.014-.215l.854-.108a.107.107,0,1,1,.027.213l-.854.108Zm2.844-.357a.107.107,0,0,1-.013-.214l.853-.106a.1.1,0,0,1,.12.094.107.107,0,0,1-.093.12l-.854.105Zm2.846-.349a.108.108,0,0,1-.013-.214l.854-.1a.1.1,0,0,1,.12.094.107.107,0,0,1-.094.119l-.854.1Zm2.847-.339a.108.108,0,0,1-.012-.214l.855-.1a.1.1,0,0,1,.119.094.107.107,0,0,1-.094.119l-.855.1Zm2.848-.326a.108.108,0,0,1-.012-.215l.855-.1a.108.108,0,1,1,.023.214l-.854.095Zm2.851-.312a.108.108,0,0,1-.011-.215l.856-.09a.108.108,0,1,1,.022.214l-.856.09Zm2.853-.292a.107.107,0,0,1-.01-.214l.857-.083a.1.1,0,0,1,.117.1.107.107,0,0,1-.1.117l-.856.083Zm9.181-.248a.108.108,0,0,1-.1-.072l-.109-.308-.391.006h0a.108.108,0,0,1,0-.215c.147,0,.287-.005.422-.006a.168.168,0,0,1,.162.105l.123.346a.108.108,0,0,1-.066.137A.1.1,0,0,1,2285.135,2208.135Zm-6.326-.016a.107.107,0,0,1-.009-.214l.857-.072a.109.109,0,0,1,.116.1.108.108,0,0,1-.1.116l-.856.072Zm2.859-.221a.108.108,0,0,1-.007-.215q.447-.03.859-.053a.1.1,0,0,1,.113.1.108.108,0,0,1-.1.114q-.412.023-.858.053Z" transform="translate(-2239.063 -2196.541)"/><path class="ab" d="M2461.341,2365.2l-6,.767a1.563,1.563,0,0,1-1.716-1.165l-1.431-5.683a1.56,1.56,0,0,1,1.32-1.926l7.205-.922a1.561,1.561,0,0,1,1.761,1.484l.224,5.837A1.562,1.562,0,0,1,2461.341,2365.2Z" transform="translate(-2430.942 -2331.453)"/><path class="ac" d="M2473.387,2375.65l-4.565.585a1.19,1.19,0,0,1-1.305-.887l-1.09-4.325a1.187,1.187,0,0,1,1-1.465l5.484-.7a1.187,1.187,0,0,1,1.34,1.129l.17,4.443A1.188,1.188,0,0,1,2473.387,2375.65Z" transform="translate(-2443.861 -2342.869)"/></g><path class="ad" d="M2425.739,1941.454a46.822,46.822,0,0,1,1.237,13.647,1.622,1.622,0,0,1-1.5,1.453c-.894.063-2.111.145-3.2.207a5.97,5.97,0,0,1-3.41-1.318.534.534,0,0,0-.786.675,6.52,6.52,0,0,0,1.945,2.1c.452.344,1.955.954,1.85,1.63a1.205,1.205,0,0,1-.3.565,6.825,6.825,0,0,1-3.346,1.92.927.927,0,0,0-.432.22c-.031.806,2.45,1.7,3.09,1.915a7.125,7.125,0,0,0,2.984.347,8.822,8.822,0,0,0,6.145-4.063,43.808,43.808,0,0,0,6.131-17.388C2432.805,1940.019,2427.758,1940.866,2425.739,1941.454Z" transform="translate(-2340.608 -1878.061)"/><g transform="translate(72.659 30.2)"><path class="ae" d="M2399.619,1624.985c2.666-20.141-12.855-35.627-12.855-35.627l-9.235,10.766c7.011,8.739,10.344,16.747,11.866,23.036C2391.415,1622.572,2396.276,1621.642,2399.619,1624.985Z" transform="translate(-2376.737 -1589.357)"/><path class="af" d="M2381.441,1716.1a.573.573,0,0,1-.555-.437c-1.876-7.753-5.832-15.429-11.756-22.813a.572.572,0,1,1,.892-.716c6.03,7.517,10.06,15.342,11.976,23.26a.571.571,0,0,1-.421.69A.559.559,0,0,1,2381.441,1716.1Z" transform="translate(-2369.004 -1682.394)"/></g></g><g transform="translate(0.55 85.452)"><path class="ag" d="M1027.243,3141.89a1.146,1.146,0,0,0-.03-.3c-1.485-5.888-8.857-9.555-8.857-9.555l-2.921.229c-1.68,5.19-1.464,8.373-1.194,9.79.007.04.02.078.03.116A69.329,69.329,0,0,0,1027.243,3141.89Z" transform="translate(-1008.121 -3043.213)"/><path class="ah" d="M1016.367,3238.433a1.269,1.269,0,0,0,.927.937c3.428.72,8.876.14,11.163-.159a1.063,1.063,0,0,0,.882-1.06A69.239,69.239,0,0,1,1016.367,3238.433Z" transform="translate(-1010.217 -3139.474)"/><path class="ai" d="M1016.252,3087.648l1.237,5.956a.973.973,0,0,0,.832.8,8.236,8.236,0,0,0,1.917-.031,1.223,1.223,0,0,0,.969-1.438l-.86-5.288Z" transform="translate(-1010.112 -3002.946)"/><path class="aj" d="M1236.049,3232.336a17.434,17.434,0,0,1-5.757-.822c0,.32,0,.646.01.985a.637.637,0,0,0,.608.648l17.713-.115a.809.809,0,0,0,.651-1.177C1246.951,3232.046,1241.036,3232.476,1236.049,3232.336Z" transform="translate(-1204.276 -3133.453)"/><path class="ak" d="M1249.28,3150.4a.833.833,0,0,0-.07-.134c-1.564-2.186-5.548-6.538-13.421-8.426l-3.777-.12s-1.682,2.923-1.714,8.338a17.423,17.423,0,0,0,5.757.823C1241.042,3151.023,1246.957,3150.594,1249.28,3150.4Z" transform="translate(-1204.283 -3052)"/><path class="al" d="M1239.4,3070.035c.06.278.845,4.516,1.15,6.159a.822.822,0,0,0,.738.7,8.649,8.649,0,0,0,2.587-.2,1.118,1.118,0,0,0,.774-1.173l-.422-6.7Z" transform="translate(-1212.538 -2985.86)"/><path class="am" d="M974.131,2181.4s5.2,35.7,8.945,78.184a1.619,1.619,0,0,1-1.338,1.644,19.7,19.7,0,0,1-4.223.489,1.565,1.565,0,0,1-1.491-1.306c-1.277-7.491-10.391-47.691-12.784-56.539,0,0-2.748,37.583-1.869,57.081a.925.925,0,0,1-.815.962,15.531,15.531,0,0,1-3.39-.01,1.237,1.237,0,0,1-1.1-1.05c-.91-6.339-6.146-44.074-5.924-71.256.013-1.533,1.8-14.128,1.8-14.128Z" transform="translate(-950.133 -2175.474)"/></g><path class="an" d="M945.786,1604.646a1.47,1.47,0,0,1-.965-1.238c-.691-6.7-4.036-48.264,17.083-65.36,0,0,1.211-3.169,11.166,4.62s4.625,15.954,2.242,27.215c-2.884,13.627-7.944,24.766-5.706,33.151a1.162,1.162,0,0,1-.712,1.393A32.972,32.972,0,0,1,945.786,1604.646Z" transform="translate(-944.212 -1511.207)"/><path class="ao" d="M1141.018,1410.174c-.007.591-8.44,12.569-8.44,12.569s1.514,2.981,8.74,5.4l6.238-12.825Z" transform="translate(-1115.087 -1395.786)"/><g transform="translate(15.152)"><path class="ap" d="M1177.4,1336.256s3,6.893,3.2,10.511.981,5.966-3.2,6.694a8.892,8.892,0,0,1-9.616-4.959s-2.991-5.553-2.32-7.827S1177.4,1336.256,1177.4,1336.256Z" transform="translate(-1159.982 -1328.732)"/><path class="aq" d="M1116.619,1272.4l.238-.1a.574.574,0,0,0,.281-.789c-.59-1.14-1.74-3.752-.254-4.361,1.915-.785,9.5-2.332,11.135-5.023a5.007,5.007,0,0,0-1.915-6.874.289.289,0,0,0-.377.123l-.174.33a.284.284,0,0,1-.524-.054h0a.283.283,0,0,0-.512-.073c-.5.8-1.861,2.11-5.492,2.78-5.161.952-8.573,3.041-8.657,6.607a.285.285,0,0,1-.44.235c-.381-.232-.991-.341-1.806.344-1.417,1.192-.838,4.283,2.27,6.826a.282.282,0,0,1-.013.455c-.563.366-1.4,1.239.773,2.4a7.325,7.325,0,0,0,4.578,1,.283.283,0,0,0,.229-.342l-.691-3.135a.284.284,0,0,1,.277-.345Z" transform="translate(-1107.388 -1255.225)"/><path class="ar" d="M1171.377,1414.264s-1.145-4.4-3.119-3.169,1.025,4.933,2.612,5.1Z" transform="translate(-1162.015 -1396.423)"/></g><g transform="translate(32.062 32.756)"><path class="as" d="M1289.49,1632.964l.581,15.616a42.959,42.959,0,0,0,4.721,1.341,47.2,47.2,0,0,1,4.687-9.467A23.151,23.151,0,0,1,1289.49,1632.964Z" transform="translate(-1289.49 -1630.645)"/><path class="at" d="M1372.265,1630.1c-8.51,9.189-15.4,9.729-20.985,7.755a47.2,47.2,0,0,0-4.687,9.467c22.727,5.01,28.078-15.883,28.078-15.883Z" transform="translate(-1341.29 -1628.049)"/><path class="au" d="M1641.645,1609.064a3.117,3.117,0,0,1,2.795-.722c1.814.33,3.429.961,4.56,0s1.528.329,1.528.329l-3.385,2.573Z" transform="translate(-1608.945 -1607.986)"/><path class="av" d="M1619.841,1614.942s.672-2.809,2.7-2.424,6.62,2.884,7.8,2.424,2.7-1.562,3.476-1.173l-1.369,1.7s3.518-2.03,4.124-.783l-5.854,3.294S1622.153,1617.125,1619.841,1614.942Z" transform="translate(-1589.166 -1612.064)"/></g><path class="aw" d="M1187.752,1754.449s16,13.4,33.277,7.553a4.113,4.113,0,0,1,3.244.244l4.967,2.623a4.434,4.434,0,0,0,5.876-1.645,9.329,9.329,0,0,0,1.4-3.736l-9.719-3.935.717-1.192s-4.745-.4-5.987,3c0,0-9.038,3.76-24.281-13.006C1197.241,1744.355,1190.324,1750.236,1187.752,1754.449Z" transform="translate(-1165.137 -1698.936)"/><path class="ax" d="M1079.689,1730.428a.27.27,0,0,1-.153-.047,30.786,30.786,0,0,1-9.937-11.973.274.274,0,0,1,.5-.214,30.2,30.2,0,0,0,9.74,11.732.274.274,0,0,1-.154.5Z" transform="translate(-1057.936 -1675.053)"/><path class="ay" d="M1114.43,1592.9a.274.274,0,0,1-.23-.126c-.02-.031-2.078-3.235-6-10.255a7.9,7.9,0,0,0-4.709-4.062,9.2,9.2,0,0,0-6.271.833.274.274,0,0,1-.271-.476,9.561,9.561,0,0,1,6.684-.886,8.422,8.422,0,0,1,5.044,4.323c3.91,7,5.961,10.194,5.981,10.226a.274.274,0,0,1-.082.378A.271.271,0,0,1,1114.43,1592.9Z" transform="translate(-1082.643 -1547.709)"/></g></g></g></svg>