<svg xmlns="http://www.w3.org/2000/svg" xmlns:xlink="http://www.w3.org/1999/xlink" width="214.01" height="241.822" viewBox="0 0 214.01 241.822"><defs><style>.a{fill:url(#a);}</style><linearGradient id="a" x1="0.5" x2="0.5" y2="1" gradientUnits="objectBoundingBox"><stop offset="0" stop-color="#ca1072"/><stop offset="1" stop-color="#f5a21a"/></linearGradient></defs><path class="a" d="M1695.45,828.879c-3.488-6.127-6.172-14.366-.691-20.533,9.9-11.138,29.7-13.614,34.654,3.713,2.047,7.167.6,12.738-1.8,16.807a5.658,5.658,0,0,0,4.893,8.518h31.559v42.107a4.688,4.688,0,0,1-7.4,3.811c-21.171-14.694-32.211,2.638-32.234,10.439-.026,8.663,3.739,29.084,17.353,28.465A33.568,33.568,0,0,0,1757,917.643a4.687,4.687,0,0,1,7.069,4.026v39.247h-32.66a4.871,4.871,0,0,0-4.081,7.536c2.423,3.738,4.453,9.158,4.563,16.872.282,19.636-29.7,16.089-37.129,9.9-5.3-4.42-5.522-18.593-1.392-27.358a4.947,4.947,0,0,0-4.564-6.952h-31.791V917.968a4.025,4.025,0,0,0-6.092-3.457c-5.471,3.251-13.922,7.328-22.373,7.695-14.232.619-16.089-15.47-16.708-27.846-.547-10.931,20.293-28.625,36.743-17.838,2.7,1.767,8.227,4.354,8.227,1.131V837.385h33.737A5.67,5.67,0,0,0,1695.45,828.879Z" transform="translate(-1791.295 -114.234) rotate(-21)"/></svg>