<svg xmlns="http://www.w3.org/2000/svg" width="34" height="34" viewBox="0 0 34 34"><defs><style>.b{fill:#f0f0f0;}.c{fill:#0052b4;}.d{fill:#d80027;}</style></defs><g transform="translate(-1238 -453)"><g transform="translate(1238 453)"><circle class="b" cx="17" cy="17" r="17"/><g transform="translate(0.586 0.586)"><path class="c" d="M11.748,100.142a16.938,16.938,0,0,0-2.929,5.915h8.844Z" transform="translate(-8.819 -94.078)"/><path class="c" d="M378.849,106.058a16.94,16.94,0,0,0-2.929-5.915L370,106.058Z" transform="translate(-346.02 -94.079)"/><path class="c" d="M8.819,322.784a16.939,16.939,0,0,0,2.929,5.915l5.915-5.915Z" transform="translate(-8.819 -301.935)"/><path class="c" d="M328.7,11.748a16.939,16.939,0,0,0-5.915-2.929v8.844Z" transform="translate(-301.933 -8.819)"/><path class="c" d="M100.142,375.92a16.94,16.94,0,0,0,5.915,2.929V370Z" transform="translate(-94.078 -346.02)"/><path class="c" d="M106.057,8.819a16.94,16.94,0,0,0-5.915,2.929l5.915,5.915Z" transform="translate(-94.078 -8.819)"/><path class="c" d="M322.783,378.849a16.939,16.939,0,0,0,5.915-2.929L322.783,370Z" transform="translate(-301.934 -346.02)"/><path class="c" d="M370,322.784l5.915,5.915a16.939,16.939,0,0,0,2.929-5.915Z" transform="translate(-346.02 -301.935)"/></g><path class="d" d="M33.856,14.783H19.217V.144a17.156,17.156,0,0,0-4.435,0V14.782H.144a17.156,17.156,0,0,0,0,4.435H14.783V33.856a17.156,17.156,0,0,0,4.435,0V19.218H33.856a17.156,17.156,0,0,0,0-4.435Z"/><path class="d" d="M322.783,322.783h0l7.586,7.586q.523-.523,1-1.091l-6.495-6.495h-2.091Z" transform="translate(-301.348 -301.348)"/><path class="d" d="M82.566,322.784h0L74.98,330.37q.523.523,1.091,1l6.495-6.495Z" transform="translate(-70.001 -301.349)"/><path class="d" d="M68.518,82.566h0L60.932,74.98q-.523.523-1,1.091l6.495,6.495h2.091Z" transform="translate(-55.953 -70.001)"/><path class="d" d="M322.783,68.519h0l7.586-7.586q-.523-.523-1.091-1l-6.495,6.495Z" transform="translate(-301.348 -55.954)"/></g></g></svg>