<svg xmlns="http://www.w3.org/2000/svg" width="14.063" height="16" viewBox="0 0 14.063 16"><g transform="translate(-31)"><g transform="translate(31)"><g transform="translate(0)"><path d="M43.656,1.875H41.313V1.406A1.408,1.408,0,0,0,39.906,0h-3.75A1.408,1.408,0,0,0,34.75,1.406v.469H32.406a1.406,1.406,0,0,0-.437,2.743l.836,10.093a1.414,1.414,0,0,0,1.4,1.29h7.65a1.415,1.415,0,0,0,1.4-1.29l.836-10.093a1.406,1.406,0,0,0-.437-2.743Zm-7.969-.469a.469.469,0,0,1,.469-.469h3.75a.469.469,0,0,1,.469.469v.469H35.688Zm6.636,13.226a.472.472,0,0,1-.467.43h-7.65a.471.471,0,0,1-.467-.43l-.824-9.945H43.147ZM43.656,3.75H32.406a.469.469,0,1,1,0-.937h11.25a.469.469,0,1,1,0,.938Z" transform="translate(-31)"/></g></g><g transform="translate(34.75 5.625)"><g transform="translate(0)"><path d="M152.4,188l-.469-7.562a.469.469,0,1,0-.936.058l.469,7.563A.469.469,0,1,0,152.4,188Z" transform="translate(-150.999 -179.999)"/></g></g><g transform="translate(37.563 5.625)"><g transform="translate(0)"><path d="M241.469,180a.469.469,0,0,0-.469.469v7.563a.469.469,0,0,0,.938,0v-7.562A.469.469,0,0,0,241.469,180Z" transform="translate(-241 -180)"/></g></g><g transform="translate(39.906 5.625)"><g transform="translate(0)"><path d="M316.965,180a.469.469,0,0,0-.5.439L316,188a.469.469,0,0,0,.936.058l.469-7.562A.469.469,0,0,0,316.965,180Z" transform="translate(-315.999 -180)"/></g></g></g></svg>