<svg xmlns="http://www.w3.org/2000/svg" width="50" height="42.985" viewBox="0 0 50 42.985"><defs><style>.a{fill:#54529a;}</style></defs><g transform="translate(0 -28.588)"><g transform="translate(0 28.588)"><g transform="translate(0 0)"><path class="a" d="M49.93,52.911h0l-9.44-23.7a.982.982,0,0,0-1.275-.549h0L.916,43.908a.962.962,0,0,0-.393.312A.971.971,0,0,0,0,45.072V70.592a.982.982,0,0,0,.982.982H42.205a.982.982,0,0,0,.982-.982V56.654l6.2-2.468A.981.981,0,0,0,49.93,52.911Zm-8.706,16.7H1.963V46.054H41.224ZM16.377,44.1l16.434-6.549a7.809,7.809,0,0,0,5.627,2.426L40.077,44.1Zm26.81,10.45V45.072a.982.982,0,0,0-.982-.982h-.016l-2.08-5.224a.812.812,0,0,0-.08-.124A.97.97,0,0,0,39,37.988a5.869,5.869,0,0,1-5.146-2.216.973.973,0,0,0-1.259-.22,1.1,1.1,0,0,0-.138.026L12.4,43.567a.97.97,0,0,0-.539.524H5.763L39.029,30.845l8.715,21.883Z" transform="translate(0 -28.588)"/><path class="a" d="M32.7,201.912a5.869,5.869,0,0,1,3.962,3.957.981.981,0,0,0,.94.7.9.9,0,0,0,.151-.023.914.914,0,0,0,.134.027H61.445a.846.846,0,0,0,.12-.025.914.914,0,0,0,1.1-.672v-.005a5.868,5.868,0,0,1,3.962-3.962.969.969,0,0,0,.673-1.08.99.99,0,0,0,.028-.145v-7.852a.887.887,0,0,0-.029-.145.968.968,0,0,0-.673-1.08,5.863,5.863,0,0,1-3.96-3.963.97.97,0,0,0-1.088-.673.934.934,0,0,0-.138-.027H37.889a.928.928,0,0,0-.146.029.97.97,0,0,0-1.08.673,5.869,5.869,0,0,1-3.962,3.961.969.969,0,0,0-.673,1.08.991.991,0,0,0-.027.145v7.852a.9.9,0,0,0,.027.136A.972.972,0,0,0,32.7,201.912Zm1.262-8.68a7.788,7.788,0,0,0,4.325-4.325H61.046a7.791,7.791,0,0,0,4.326,4.325v7.055a7.8,7.8,0,0,0-4.325,4.325H38.288a7.8,7.8,0,0,0-4.325-4.325Z" transform="translate(-28.074 -167.516)"/><path class="a" d="M133.889,230.723A5.889,5.889,0,1,0,128,224.834,5.889,5.889,0,0,0,133.889,230.723Zm0-9.815a3.926,3.926,0,1,1-3.926,3.926A3.926,3.926,0,0,1,133.889,220.908Z" transform="translate(-112.296 -195.59)"/><path class="a" d="M77.472,257.89A1.472,1.472,0,1,0,76,256.417,1.472,1.472,0,0,0,77.472,257.89Zm0-1.963a.491.491,0,1,1-.491.491A.491.491,0,0,1,77.472,255.927Z" transform="translate(-66.676 -227.173)"/><path class="a" d="M253.472,257.89A1.472,1.472,0,1,0,252,256.417,1.472,1.472,0,0,0,253.472,257.89Zm0-1.963a.491.491,0,1,1-.491.491A.491.491,0,0,1,253.472,255.927Z" transform="translate(-221.082 -227.173)"/></g></g></g></svg>