<svg xmlns="http://www.w3.org/2000/svg" width="22.952" height="28.173" viewBox="0 0 22.952 28.173"><defs><style>.a{fill:#fff;}</style></defs><g transform="translate(0)"><path class="a" d="M68.24,7.17V25.463a2.7,2.7,0,0,1-2.692,2.71H53.265a2.7,2.7,0,0,1-2.692-2.71V13.569a6.579,6.579,0,0,0,2.019.052V25.463a.676.676,0,0,0,.673.677H65.548a.676.676,0,0,0,.673-.677V7.17a.676.676,0,0,0-.673-.677H58.885a7.21,7.21,0,0,0-.295-2.032h6.957A2.7,2.7,0,0,1,68.24,7.17Zm-16.6,5.613a6.392,6.392,0,1,1,6.35-6.391A6.378,6.378,0,0,1,51.638,12.783Zm0-1.355a5.037,5.037,0,1,0-5-5.036A5.026,5.026,0,0,0,51.638,11.428Zm3.808-4.359a.677.677,0,0,0,0-1.355H52.311V3.055a.673.673,0,1,0-1.346,0V6.392a.676.676,0,0,0,.673.677Zm7.768,5.493H55.923a.677.677,0,0,0,0,1.355h7.292a.677.677,0,0,0,0-1.355Zm.012,4.11H55.935a.677.677,0,0,0,0,1.355h7.292a.677.677,0,0,0,0-1.355Zm0,4.28H55.935a.677.677,0,0,0,0,1.355h7.292a.677.677,0,0,0,0-1.355Z" transform="translate(-45.288 0)"/></g></svg>