<svg xmlns="http://www.w3.org/2000/svg" xmlns:xlink="http://www.w3.org/1999/xlink" width="117.104" height="111.374" viewBox="0 0 117.104 111.374"><defs><style>.a{fill:url(#a);}.b{fill:#fff;}</style><linearGradient id="a" x1="0.5" x2="0.5" y2="1" gradientUnits="objectBoundingBox"><stop offset="0" stop-color="#c52b7c"/><stop offset="1" stop-color="#6f47b7"/></linearGradient></defs><g transform="translate(0 0)"><path class="a" d="M585.308,497.1c-29.051-4.4-52.659-31.866-48.37-62.395,3.659-26.036,26.486-46.3,53.859-48.211q2.973-.208,6.011-.123a59.817,59.817,0,0,1,38.874,15.792c9.988,9.2,16.477,21.5,17.658,34.41C656.487,470.918,621.441,502.576,585.308,497.1Z" transform="translate(-536.434 -386.349)"/><g transform="translate(37.229 9.32) rotate(20)"><g transform="translate(0 0)"><path class="b" d="M15.45,7.725A7.725,7.725,0,1,0,7.725,15.45,7.734,7.734,0,0,0,15.45,7.725Zm-11.236,0a3.511,3.511,0,1,1,3.511,3.511A3.515,3.515,0,0,1,4.214,7.725Z" transform="translate(28.233 18.259)"/><path class="b" d="M71.89,70.257c.044-.3.026-43.4.006-43.555a2.118,2.118,0,0,0-.657-1.281c-.294-.273-16.633-12.044-18.567-13.455V2.107A2.107,2.107,0,0,0,50.565,0H21.351a2.107,2.107,0,0,0-2.107,2.107v9.858C17.158,13.487,2.176,24.289.853,25.277a2.1,2.1,0,0,0-.838,1.463C-.011,26.984,0,70.025.008,70.1a2.108,2.108,0,0,0,2.1,1.952c72.524,0,67.884.061,68.4-.121a2.1,2.1,0,0,0,1.383-1.674ZM4.216,65.784V31.113L27.8,48.323C26.74,49.1,5.4,64.917,4.216,65.784ZM31.361,45.707l-7.9-5.768V14.147a12.22,12.22,0,0,0,9.928-9.933h5.145a12.22,12.22,0,0,0,9.928,9.933V39.939l-7.9,5.768-3.35-2.46a2.107,2.107,0,0,0-2.494,0Zm12.756,2.616L67.7,31.113V65.784C66.52,64.917,45.176,49.1,44.118,48.323Zm22.11-21.352L52.672,36.864V17.173c2.744,1.984,5.751,4.131,13.556,9.8ZM48.458,4.214V9.848a7.984,7.984,0,0,1-5.62-5.634Zm-25,0h5.62a7.984,7.984,0,0,1-5.62,5.634ZM19.244,17.173V36.864L5.689,26.971C13.5,21.3,16.418,19.216,19.244,17.173ZM8.537,67.838c2.841-2.087,24.539-18.163,27.421-20.28,20.149,14.8,17,12.627,27.421,20.28Z"/></g></g></g></svg>