<svg xmlns="http://www.w3.org/2000/svg" xmlns:xlink="http://www.w3.org/1999/xlink" width="118.87" height="116.5" viewBox="0 0 118.87 116.5"><defs><style>.a{fill:url(#a);}.b{fill:#fff;}</style><linearGradient id="a" x1="0.5" x2="0.5" y2="1" gradientUnits="objectBoundingBox"><stop offset="0" stop-color="#a70e5f"/><stop offset="1" stop-color="#511bb2"/></linearGradient></defs><g transform="translate(0.002 0)"><path class="a" d="M787.363,513.176c-24.033,30.741-80.315,31.234-95.9,14.159-6.218-6.814-7.86-18.517-10.274-35.708a158.284,158.284,0,0,1-1.427-19.522c-.34-15.568-.51-23.352,2-28.648C688.942,428.3,713.879,422.4,730,422.124q1.688-.029,3.4.022c18.873.562,40.17,8.419,53.3,25.207a56.326,56.326,0,0,1,3.8,5.484A52.963,52.963,0,0,1,787.363,513.176Z" transform="translate(-679.576 -422.113)"/><g transform="translate(17.025 15.683)"><path class="b" d="M1452.778,1230.275a22.752,22.752,0,1,0,22.752,22.752A22.752,22.752,0,0,0,1452.778,1230.275Zm-9.812,5.451a51.7,51.7,0,0,0-2.025,7.471,46.543,46.543,0,0,0-6.561,2.24A20.019,20.019,0,0,1,1442.966,1235.725Zm-9.7,13.367a43.719,43.719,0,0,1,7.187-2.809,52.134,52.134,0,0,0-.417,5.322h-7.092a19.749,19.749,0,0,1,.323-2.52Zm-.321,5.357h7.092a52.047,52.047,0,0,0,.418,5.328,43.742,43.742,0,0,1-7.187-2.809A19.748,19.748,0,0,1,1432.942,1254.449Zm1.439,6.168a46.715,46.715,0,0,0,6.562,2.24,51.51,51.51,0,0,0,2.023,7.471A20.021,20.021,0,0,1,1434.381,1260.618Zm16.975,12.245a19.808,19.808,0,0,1-4.719-.907,48.693,48.693,0,0,1-2.648-8.406,47.029,47.029,0,0,0,7.368.8Zm0-11.357a44.024,44.024,0,0,1-7.939-.981,49.084,49.084,0,0,1-.539-6.076h8.478Zm0-9.9h-8.478a49.086,49.086,0,0,1,.539-6.076,44.035,44.035,0,0,1,7.939-.981Zm0-9.9a46.853,46.853,0,0,0-7.368.8,48.689,48.689,0,0,1,2.648-8.406,19.808,19.808,0,0,1,4.719-.907Zm21.258,9.9h-7.09a52.5,52.5,0,0,0-.427-5.331,43.718,43.718,0,0,1,7.2,2.811A19.613,19.613,0,0,1,1472.614,1251.605Zm-1.439-6.167a46.378,46.378,0,0,0-6.583-2.245,51.543,51.543,0,0,0-2.058-7.5A20.021,20.021,0,0,1,1471.175,1245.438Zm-16.975-12.247a19.71,19.71,0,0,1,4.656.885,48.542,48.542,0,0,1,2.693,8.429,46.807,46.807,0,0,0-7.349-.8Zm0,11.357a43.859,43.859,0,0,1,7.928.98,49.211,49.211,0,0,1,.551,6.078H1454.2Zm4.741,27.4a19.772,19.772,0,0,1-4.741.916v-8.511a46.8,46.8,0,0,0,7.382-.8A48.624,48.624,0,0,1,1458.941,1271.947Zm-4.741-10.441v-7.057h8.485a48.708,48.708,0,0,1-.535,6.073A43.837,43.837,0,0,1,1454.2,1261.506Zm8.411,8.808a51.43,51.43,0,0,0,2.018-7.461,46.656,46.656,0,0,0,6.542-2.236A20,20,0,0,1,1462.611,1270.315Zm9.68-13.346a43.807,43.807,0,0,1-7.174,2.806,51.894,51.894,0,0,0,.41-5.326h7.086A19.7,19.7,0,0,1,1472.291,1256.969Z" transform="translate(-1410.118 -1210.365)"/><path class="b" d="M2319.34,2559.441c.889-.392,1.781-.825,2.647-1.28l-1.328-2.514c-.809.427-1.639.829-2.47,1.2Z" transform="translate(-2259.426 -2477.755)"/><path class="b" d="M2080.407,2640.782c-.891.186-1.8.347-2.7.473l.394,2.816c.966-.135,1.939-.306,2.9-.506Z" transform="translate(-2029.462 -2559.166)"/><path class="b" d="M1821.826,2652.559c-.91-.06-1.829-.151-2.731-.271l-.378,2.818c.967.129,1.951.229,2.924.293Z" transform="translate(-1781.803 -2570.168)"/><path class="b" d="M1061.81,1289.7l2.591,1.178c.376-.833.787-1.659,1.22-2.46l-2.5-1.353C1062.656,1287.926,1062.217,1288.813,1061.81,1289.7Z" transform="translate(-1058.011 -1264.669)"/><path class="b" d="M1563.009,2588.59l.954-2.68c-.853-.3-1.706-.643-2.559-1.012l-1.138,2.608C1561.173,2587.9,1562.095,2588.263,1563.009,2588.59Z" transform="translate(-1534.66 -2505.727)"/><path class="b" d="M1029.231,2051.213l2.618-1.112c-.359-.842-.69-1.706-.985-2.559l-2.687.927C1028.493,2049.387,1028.847,2050.309,1029.231,2051.213Z" transform="translate(-1025.85 -1991.878)"/><path class="b" d="M976.691,1805.255l2.821-.353c-.112-.9-.194-1.822-.246-2.733l-2.844.157C976.48,1803.3,976.57,1804.289,976.691,1805.255Z" transform="translate(-976.358 -1757.24)"/><path class="b" d="M985.786,1541.408l2.813.426c.135-.9.3-1.807.5-2.7l-2.777-.619C986.112,1539.469,985.931,1540.443,985.786,1541.408Z" transform="translate(-985.312 -1505.12)"/><path class="b" d="M997.713,2216.79a11.376,11.376,0,1,0-11.376,11.376A11.376,11.376,0,0,0,997.713,2216.79Zm-11.376,8.532a8.532,8.532,0,1,1,8.532-8.532A8.533,8.533,0,0,1,986.337,2225.322Z" transform="translate(-974.961 -2142.844)"/><path class="b" d="M1280.562,786.558a11.369,11.369,0,0,0-21.266-5.6,42.6,42.6,0,0,0-52.284,7.464q-.872.915-1.692,1.884l2.173,1.836q.763-.9,1.578-1.757l-1.031-.981,1.03.98a39.768,39.768,0,0,1,49.14-6.767,11.337,11.337,0,0,0,13.92,13.92,39.765,39.765,0,0,1-6.768,49.14c-.66.63-1.351,1.243-2.05,1.823l1.816,2.193c.749-.623,1.489-1.28,2.2-1.955a42.6,42.6,0,0,0,7.463-52.286A11.376,11.376,0,0,0,1280.562,786.558Zm-11.376,8.532a8.532,8.532,0,1,1,8.532-8.532A8.532,8.532,0,0,1,1269.186,795.09Z" transform="translate(-1195.241 -775.18)"/><path class="b" d="M1130.332,2338.276h.562a1.422,1.422,0,1,0,0-2.844h-.562a5.688,5.688,0,1,0,0,11.376h.562a1.422,1.422,0,1,0,0-2.844h-.562a2.844,2.844,0,0,1-2.366-1.267c-.031-.048-.044-.1-.072-.155h3a1.422,1.422,0,1,0,0-2.844h-3c.028-.05.041-.107.072-.155A2.844,2.844,0,0,1,1130.332,2338.276Z" transform="translate(-1118.095 -2267.174)"/><path class="b" d="M2574.138,888.668l-3.145-1.564a.879.879,0,0,1,0-1.573,2.107,2.107,0,0,1,1.874,0l1.272.637a1.423,1.423,0,0,0,1.271-2.545l-1.28-.635a4.96,4.96,0,0,0-4.408,0,3.724,3.724,0,0,0,0,6.661l3.144,1.564a.88.88,0,0,1,0,1.573,2.111,2.111,0,0,1-1.874,0l-1.272-.637a1.423,1.423,0,0,0-1.271,2.545l1.28.635a4.964,4.964,0,0,0,4.408,0,3.724,3.724,0,0,0,0-6.66Z" transform="translate(-2497.985 -877.776)"/></g></g></svg>