<svg xmlns="http://www.w3.org/2000/svg" xmlns:xlink="http://www.w3.org/1999/xlink" width="265.882" height="260.001" viewBox="0 0 265.882 260.001"><defs><style>.a{fill:none;}.b{fill:url(#a);}.c{fill:url(#b);}.d,.y{fill:#91b3fa;}.e{fill:#7d97f4;}.f,.h{fill:#fff;}.f{opacity:0.2;}.g{opacity:0.68;}.h{mix-blend-mode:soft-light;isolation:isolate;}.i{fill:url(#c);}.j{fill:url(#d);}.k{fill:url(#e);}.l{fill:url(#f);}.m{fill:#666694;}.n{fill:#6f0285;}.o{fill:url(#h);}.p{fill:url(#i);}.q{fill:url(#j);}.r{fill:url(#k);}.s{fill:url(#l);}.t{fill:#9c0199;}.u{fill:url(#m);}.v{fill:url(#n);}.w{fill:url(#o);}.x{clip-path:url(#p);}.y{opacity:0.18;}.z{fill:url(#q);}.aa{fill:url(#r);}.ab{fill:url(#t);}.ac{fill:url(#v);}.ad{fill:#980199;}.ae{fill:url(#w);}.af{fill:url(#x);}.ag{fill:url(#y);}.ah{fill:url(#z);}.ai{clip-path:url(#ab);}.aj{opacity:0.26;}</style><linearGradient id="a" x1="0.68" y1="-0.555" x2="0.466" y2="0.99" gradientUnits="objectBoundingBox"><stop offset="0" stop-color="#4f52ff"/><stop offset="1" stop-color="#4042e2"/></linearGradient><linearGradient id="b" x1="1.091" y1="1.163" x2="0.386" y2="0.408" gradientUnits="objectBoundingBox"><stop offset="0" stop-color="#dae3fe"/><stop offset="1" stop-color="#e9effd"/></linearGradient><linearGradient id="c" y1="0.5" x2="1" y2="0.5" gradientUnits="objectBoundingBox"><stop offset="0" stop-color="#09005d"/><stop offset="1" stop-color="#1a0f91"/></linearGradient><linearGradient id="d" y1="0.5" x2="1" y2="0.5" gradientUnits="objectBoundingBox"><stop offset="0" stop-color="#febbba"/><stop offset="1" stop-color="#ff928e"/></linearGradient><linearGradient id="e" x1="0" y1="0.5" x2="1" y2="0.5" xlink:href="#c"/><linearGradient id="f" x1="0" y1="0.5" x2="1" y2="0.5" xlink:href="#d"/><linearGradient id="h" x1="0.751" y1="0.379" x2="-1.67" y2="2.296" xlink:href="#d"/><linearGradient id="i" x1="-24.219" y1="15.035" x2="-27.226" y2="19.245" xlink:href="#d"/><linearGradient id="j" x1="-75.441" y1="236.908" x2="-76.524" y2="238.189" xlink:href="#d"/><linearGradient id="k" x1="-53.786" y1="157.002" x2="-52.87" y2="157.002" xlink:href="#c"/><linearGradient id="l" x1="-219.386" y1="784.756" x2="-216.909" y2="782.12" xlink:href="#d"/><linearGradient id="m" x1="-14.958" y1="3.19" x2="-13.516" y2="-0.753" xlink:href="#d"/><linearGradient id="n" x1="-11.959" y1="7.71" x2="-10.807" y2="-0.265" xlink:href="#d"/><linearGradient id="o" x1="0" y1="0.5" x2="1" y2="0.5" xlink:href="#a"/><clipPath id="p"><path class="a" d="M1846.668,1836.115a14.213,14.213,0,0,1-11.73,3.727c-10.849-1.1-12.01-11.165-10.828-16.429,1-4.442,10.289-11.192,18.43-7.029a2.357,2.357,0,0,0,3.334-2.62l-4.1-23.882-26.221,5.266a3.24,3.24,0,0,1-3.579-4.179,28.9,28.9,0,0,0,.833-10.2c-.88-9.531-9.283-12.333-16.787-10.241-6.464,1.8-12.8,13.73-3.882,23.286a3.392,3.392,0,0,1-1.617,5.585l-22.064,4.44,4.853,28.253c5.286-10.081,15.7-9.687,21.146-1.56,5.466,8.157,3.631,16.844-5.154,19.191a11.922,11.922,0,0,1-10.03-1.464,1.529,1.529,0,0,0-2.3,1.672l3.917,22.8,21.8-3.618a3.223,3.223,0,0,1,3.213,4.654,12.12,12.12,0,0,0-1.33,7.06c.966,7.777,7.637,14.283,15.031,13.953,7.446-.334,13.9-8.939,11.521-16.195a33.723,33.723,0,0,0-4.718-8.905,3.21,3.21,0,0,1,1.861-5.095l26.175-4.348-3.9-22.707A2.318,2.318,0,0,0,1846.668,1836.115Z"/></clipPath><linearGradient id="q" x1="0.756" y1="-0.057" x2="0.265" y2="0.791" xlink:href="#d"/><linearGradient id="r" x1="0" y1="0.5" x2="1" y2="0.5" xlink:href="#d"/><linearGradient id="t" x1="0" y1="0.5" x2="1" y2="0.5" xlink:href="#a"/><linearGradient id="v" x1="1.393" y1="-0.497" x2="0.273" y2="0.668" xlink:href="#d"/><linearGradient id="w" x1="1.189" y1="-0.098" x2="4.838" y2="-3.017" xlink:href="#c"/><linearGradient id="x" x1="0" y1="0.5" x2="1" y2="0.5" xlink:href="#d"/><linearGradient id="y" x1="0.95" y1="0.531" x2="4.931" y2="0.806" xlink:href="#d"/><linearGradient id="z" x1="0.871" y1="0.207" x2="-1.554" y2="2.042" xlink:href="#c"/><clipPath id="ab"><path class="b" d="M1947.626,1805.773a23.319,23.319,0,0,1-6.861,2.888c-14.679,3.448-13.8-15.388-6.612-23.438,3.676-4.119,8.368-3.19,12.1-1.277a4.016,4.016,0,0,0,5.809-3.865l-1.525-25.749-24.057,2.1a3.758,3.758,0,0,0-2.818,5.65,24.427,24.427,0,0,1,3.381,10.928c.59,9.964-12.3,13.325-16.456,13.959-3.754.572-19.108-5.343-10.859-22.7a3.53,3.53,0,0,0-3.324-5.154l-26.594,2.327,1.51,25.506a2.486,2.486,0,0,1-3.8,2.356c-8.044-5.312-18.569.677-20.133,5.215-1.855,5.379-1.814,16.066,9.428,18.481a14.983,14.983,0,0,0,12.727-2.537,2.444,2.444,0,0,1,3.892,1.938l1.435,24.251,27.436-1.474a3.491,3.491,0,0,0,2.448-5.634c-2.422-3.192-5.138-7.068-5.92-9.343-1.5-4.354.435-13.6,10.7-15.712,10.361-2.131,18.368,4.556,18.5,14.039a30.591,30.591,0,0,1-1.663,10.461,3.555,3.555,0,0,0,3.5,4.708l25.142-1.351-1.386-23.421A3.938,3.938,0,0,0,1947.626,1805.773Z"/></clipPath></defs><g transform="translate(-1724.742 -1716.085)"><path class="c" d="M1954.571,1939.286a99.859,99.859,0,0,1-17.544,14.237c-45.436,30.33-97.374,21.588-113.432,18.6-25.907-4.821-47.777-8.221-66.567-25.193-42.7-38.564-40.619-119.012-7.994-168.846,3.868-5.909,36.444-54.184,88.495-60.986,1.273-.166,2.223-.261,3.055-.349,8.052-.853,57.949-5.351,98.635,28.727a121.343,121.343,0,0,1,23.888,27.1C1994.887,1821.641,1994.987,1897.637,1954.571,1939.286Z"/><ellipse class="d" cx="112.01" cy="120.935" rx="112.01" ry="120.935" transform="translate(1739.193 1945.167) rotate(-87.495)"/><path class="e" d="M1773.678,1764.342c-2.655,4.26-4.7,9.057-4.317,14.061.445,5.8,3.379,11.222,3.529,17.032.255,9.853-7.353,18.1-9.726,27.668-2.653,10.693,7.349,22.877,11.334,28.845s2.272-4.843,4.689-9.058,7.627,17.738,15.766,22.557c4.366,2.585,9.49,4.306,12.63,8.291,4.581,5.813,3.312,14.084,2.624,21.452s.343,16.348,6.98,19.623c3.908,1.929,8.876,1.276,12.4,3.836,6.193,4.5,3.234,14.3,5.689,21.545,2.669,7.882,7.961,7.986,16.149,9.657s-1.032-16.312,2.8-22.6c2.016-3.3,5.094-5.932,6.684-9.46,2.2-4.894,1.584-11.431,5.862-14.674,3.206-2.43,7.669-1.773,11.692-1.808s8.918-1.781,9.375-5.778c.405-3.547-3.146-6.375-6.621-7.2s-7.177-.43-10.589-1.48c-9.761-3.005-14.313-16.659-24.506-17.3-8.712-.547-16.01,9.23-24.571,7.523-4.772-.952-8.039-5.178-11.582-8.514-4.551-4.285-10.2-7.5-13.812-12.6s-4.228-13.254.912-16.811c3.819-2.643,9.244-1.57,13.016,1.138s6.341,6.726,9.111,10.453a6.924,6.924,0,0,0,3.193,2.772c3.684,1.153,6.371-4.028,5.49-7.785s-3.536-7.061-3.661-10.918c-.219-6.8,7.1-11.11,13.525-13.35s13.993-4.91,15.882-11.443c.667-2.308.492-4.847,1.51-7.023,3.373-7.211,21.175-10.811,16.92-14.993s-17.761-5.09-20.391-13.511c-.942-3.015-1.911-7-5.057-7.292-5.124-.475-8.048,5.866-12.345,6.954-2.041.517-2.237,3.982-2.157,8.242a5.6,5.6,0,0,1-11.2.212,8.635,8.635,0,0,1,.652-3.465,15.65,15.65,0,0,1,3.983-5.162c6.61-6.31,26.335-13.243,22.205-15.929s-23.955-10.1-26.912-6.008,1.934.627,3.126,5.478-14.664,4.2-22,6.3a5.249,5.249,0,0,1-3.687.136c-1.267-.613-1.8-2.088-2.488-3.316-3.682-6.577-15.931-2.308-15.931-2.308A19.932,19.932,0,0,0,1773.678,1764.342Z"/><path class="e" d="M1829.078,1734.494c-1.781,3.318,3.514,3.264,4.041,6.993,4.766.519,6.723-6.994,11.437-7.87,2.66-.495,5.239,1.41,6.684,3.7s2.12,4.971,3.345,7.383a18.185,18.185,0,0,0,14.456,9.7,5,5,0,0,0,3.753-.848c2.873-2.531-1.237-7.285-.169-10.961,1.22-4.2,7.278-3.564,11.373-5.1,1.13-.425,9.816-2.743,9.956-3.941.248-2.124-3.782-3.477-8.291-4.636-7.638-1.964-21.078-1.882-27.647-1.288-8.74.791-23.3.152-28.938,6.876Z"/><path class="e" d="M1974.83,1877.192a110.112,110.112,0,0,0-.485-37.467c-.614-3.292-2.05-7.216-5.366-7.689-3.835-.548-8.53,3.856-10.93.816-1.06-1.342-.637-3.3-.037-4.9a32.447,32.447,0,0,1,7.224-11.32c1.965-2,4.212-3.767,5.725-6.124,3.236-5.043.964-12.411-3.615-16.275s-10.486,3.065-15.3.315-4.964-9.423-5.868-14.891c-.67-4.051-3.656-15.025-6.953-9.681s4.4,26.621,13.061,36.82c1.045,1.23,2.2,2.608,2.11,4.219-.211,3.848-5.819,3.677-9.593,4.465-4.671.975-11.829-1.526-7.879,6.611,2.084,4.292,12.037,10.165,9.362,13.037s-10.9,11.191-14.753,17.918-5.728,15.1-2.819,22.294,11.657,12.152,18.8,9.124c3.342-1.417,6.985-4.364,10.091-2.486,2.814,1.7,2.4,5.782,2.259,9.066s1.755,7.643,4.95,6.871a5.3,5.3,0,0,0,2.589-1.867C1971.9,1890.886,1973.749,1883.954,1974.83,1877.192Z"/><ellipse class="f" cx="94.896" cy="89.624" rx="94.896" ry="89.624" transform="translate(1763.467 1740.846)"/><g class="g"><path class="h" d="M1898.66,1840.473a339.48,339.48,0,0,1-4.845,59.007c-.877,4.863-1.9,9.7-3.109,14.5a139.438,139.438,0,0,1-4.345,14.185c-.863,2.32-1.807,4.613-2.869,6.854a53.3,53.3,0,0,1-3.615,6.509,26.616,26.616,0,0,1-4.86,5.677,13.844,13.844,0,0,1-3.176,2.049,9.5,9.5,0,0,1-3.7.875,9.325,9.325,0,0,1-3.741-.69,12.971,12.971,0,0,1-3.248-1.937,25.259,25.259,0,0,1-4.966-5.587,51.531,51.531,0,0,1-3.673-6.477c-1.076-2.235-2.033-4.522-2.9-6.84a136.076,136.076,0,0,1-4.391-14.17c-1.227-4.79-2.255-9.628-3.14-14.49-1.766-9.725-2.969-19.545-3.778-29.391s-1.2-19.727-1.245-29.607c-.021-4.94.1-9.878.275-14.814s.447-9.869.806-14.8c.721-9.851,1.8-19.681,3.415-29.43.809-4.873,1.754-9.726,2.891-14.536a139.452,139.452,0,0,1,4.11-14.243c.827-2.331,1.731-4.637,2.762-6.889a50.241,50.241,0,0,1,3.538-6.533,24.288,24.288,0,0,1,4.86-5.63,12.419,12.419,0,0,1,3.211-1.928,9.053,9.053,0,0,1,3.69-.659,9.771,9.771,0,0,1,3.648.858,14.24,14.24,0,0,1,3.172,1.983,27.108,27.108,0,0,1,4.966,5.535,52.827,52.827,0,0,1,3.774,6.4c1.12,2.208,2.118,4.475,3.039,6.77a135.2,135.2,0,0,1,4.667,14.072c1.313,4.766,2.424,9.584,3.385,14.431A310.731,310.731,0,0,1,1898.66,1840.473Zm-1.192,0c.014-9.847-.364-19.7-1.186-29.51a283.963,283.963,0,0,0-3.876-29.271c-.915-4.836-1.979-9.646-3.244-14.4a134.341,134.341,0,0,0-4.518-14.043c-.9-2.29-1.866-4.55-2.958-6.751a52.368,52.368,0,0,0-3.681-6.369,26.686,26.686,0,0,0-4.834-5.488,13.889,13.889,0,0,0-3.066-1.956,9.2,9.2,0,0,0-3.5-.851,8.61,8.61,0,0,0-3.535.662,11.975,11.975,0,0,0-3.091,1.894,23.886,23.886,0,0,0-4.719,5.57,49.779,49.779,0,0,0-3.443,6.5c-1,2.242-1.881,4.541-2.682,6.865a139.2,139.2,0,0,0-3.964,14.21c-1.089,4.8-1.987,9.643-2.75,14.507-1.521,9.73-2.512,19.54-3.143,29.368s-.869,19.681-.852,29.53q-.03,14.77,1.056,29.515c.745,9.819,1.882,19.612,3.58,29.309.851,4.848,1.845,9.67,3.035,14.444a135.408,135.408,0,0,0,4.275,14.108c.85,2.3,1.785,4.577,2.835,6.793a50.813,50.813,0,0,0,3.578,6.406,24.6,24.6,0,0,0,4.79,5.464,12.361,12.361,0,0,0,3.072,1.86,8.525,8.525,0,0,0,3.48.66,8.862,8.862,0,0,0,3.446-.84,13.172,13.172,0,0,0,3.008-1.971,25.946,25.946,0,0,0,4.692-5.558,66.452,66.452,0,0,0,6.319-13.249,138.825,138.825,0,0,0,4.225-14.123c1.177-4.777,2.158-9.6,3-14.451,1.686-9.7,2.809-19.494,3.555-29.312S1897.47,1850.322,1897.468,1840.473Z"/><path class="h" d="M1948.49,1840.473a146.526,146.526,0,0,1-1.275,19.012,138.866,138.866,0,0,1-3.818,18.669,121.026,121.026,0,0,1-15.724,34.575,99.275,99.275,0,0,1-12.038,14.754,84.389,84.389,0,0,1-14.826,11.932,71.513,71.513,0,0,1-17.285,7.94,65.306,65.306,0,0,1-37.623.014,71.533,71.533,0,0,1-17.3-7.93,84.448,84.448,0,0,1-14.843-11.925,99.313,99.313,0,0,1-12.056-14.751,121.155,121.155,0,0,1-15.758-34.586,137.9,137.9,0,0,1-3.839-18.677,143.257,143.257,0,0,1,.01-38.052,137.878,137.878,0,0,1,3.849-18.674,121.144,121.144,0,0,1,15.775-34.566,99.3,99.3,0,0,1,12.058-14.738,84.317,84.317,0,0,1,14.839-11.908,71.789,71.789,0,0,1,17.285-7.905,64.919,64.919,0,0,1,37.575.012,71.794,71.794,0,0,1,17.274,7.917A84.21,84.21,0,0,1,1915.6,1753.5a99.2,99.2,0,0,1,12.038,14.74,120.981,120.981,0,0,1,15.742,34.556,138.964,138.964,0,0,1,3.828,18.664A146.486,146.486,0,0,1,1948.49,1840.473Zm-1.367,0a145.129,145.129,0,0,0-1.2-18.841,137.834,137.834,0,0,0-3.723-18.507,120.577,120.577,0,0,0-15.316-34.382,98.3,98.3,0,0,0-11.815-14.718,82.577,82.577,0,0,0-14.61-11.936,70.628,70.628,0,0,0-17.1-7.928,63.61,63.61,0,0,0-37.271.012,70.61,70.61,0,0,0-17.094,7.94,82.512,82.512,0,0,0-14.593,11.943,98.281,98.281,0,0,0-11.8,14.72,120.448,120.448,0,0,0-15.282,34.372,143.821,143.821,0,0,0,.02,74.644,120.418,120.418,0,0,0,15.3,34.353,98.339,98.339,0,0,0,11.8,14.707,82.354,82.354,0,0,0,14.589,11.926,70.814,70.814,0,0,0,17.084,7.915,63.231,63.231,0,0,0,37.222.014,70.854,70.854,0,0,0,17.094-7.905,82.37,82.37,0,0,0,14.606-11.919,98.285,98.285,0,0,0,11.816-14.705,120.51,120.51,0,0,0,15.333-34.362,137.468,137.468,0,0,0,3.733-18.5A145.111,145.111,0,0,0,1947.123,1840.473Z"/><path class="h" d="M1766.775,1797.073l25.2-.165,25.205-.094,50.411-.076,50.411.083,25.205.1,25.2.179a.059.059,0,0,1,.06.061.061.061,0,0,1-.06.06l-25.2.179-25.205.1-50.411.084-50.411-.076-25.205-.095-25.2-.165a.09.09,0,0,1-.09-.09A.091.091,0,0,1,1766.775,1797.073Z"/><path class="h" d="M1796.016,1754.868l17.9-.166,17.9-.094c5.965-.04,11.93-.036,17.9-.048l17.895-.028,35.79.083,17.9.1,17.9.179a.06.06,0,0,1,0,.121l-17.9.179-17.9.1-35.79.083-17.895-.028c-5.965-.012-11.93-.008-17.9-.048l-17.9-.094-17.9-.166a.089.089,0,0,1,0-.179Z"/><path class="h" d="M1758.015,1839.279l27.4-.165,27.4-.095,54.79-.075,54.79.083,27.4.1,27.4.179a.06.06,0,1,1,0,.12l-27.4.18-27.4.1-54.79.084-54.79-.076-27.4-.095-27.4-.165a.09.09,0,0,1,0-.18Z"/><path class="h" d="M1766.775,1881.485l25.2-.165,25.205-.095,50.411-.076,50.411.084,25.205.1,25.2.179a.06.06,0,1,1,0,.12l-25.2.18-25.205.1L1867.6,1882l-50.411-.076-25.205-.1-25.2-.165a.09.09,0,0,1,0-.18Z"/><path class="h" d="M1942.783,1924.1H1799.622a.315.315,0,0,1,0-.63h143.161a.315.315,0,1,1,0,.63Z"/></g><path class="i" d="M1737.046,1969.37s-.995,1.568-1.246,5.958a.716.716,0,0,0,.711.758h7.781a.46.46,0,0,0,.437-.6,12.45,12.45,0,0,0-4.911-6.518Z"/><path class="j" d="M1736.708,1966.4l.44,3.689a.694.694,0,0,0,.606.61,6.146,6.146,0,0,0,1.645-.015,1.14,1.14,0,0,0,.94-1.131v-3.562Z"/><path class="k" d="M1756.3,1968.964a10.86,10.86,0,0,0-1.457,5.491,1.374,1.374,0,0,0,1.382,1.344h12.086a.578.578,0,0,0,.332-1.052c-2.287-1.6-6.782-4.6-10.033-5.783Z"/><path class="l" d="M1755.054,1964.979l.938,4.557a.941.941,0,0,0,1.112.739,3.4,3.4,0,0,0,1.062-.444,1.079,1.079,0,0,0,.482-1.1l-.971-5.52Z"/><path class="k" d="M1738.432,1901.627s-3.264,2.877-3.878,6.339,1.74,59.719,1.74,59.719,3.264.543,4.946-.476c0,0,2-36.511,3.513-44.948,0,0,7.955,37.82,10.159,44.654,0,0,3.145.382,4.159-.216,0,0-1.4-54.849-4.017-63.565Z"/><path class="m" d="M1744.658,1921.074a.354.354,0,0,1-.343-.265l-1.351-5.183-2.879-1.846a.354.354,0,1,1,.383-.6l2.995,1.921a.35.35,0,0,1,.151.208l1.387,5.318a.355.355,0,0,1-.254.432A.4.4,0,0,1,1744.658,1921.074Z"/><path class="n" d="M1763.841,1863.3c-13.723,1.341-16.746,4.781-16.746,4.781l8.365,9.07s13.235-2.683,21.416-11.751a23.586,23.586,0,0,1-4.848-4.993A18.2,18.2,0,0,1,1763.841,1863.3Z"/><path class="o" d="M1781.394,1839.607a.421.421,0,0,0-.818-.014l-1.055,3.994a3.9,3.9,0,0,0,.11,2.336l1,2.032a3.76,3.76,0,0,1-.218,3.08,26.154,26.154,0,0,1-8.381,9.374,23.586,23.586,0,0,0,4.848,4.993,23.687,23.687,0,0,0,6.061-12.742,1.84,1.84,0,0,0,.949-2.031Z"/><path class="p" d="M1754.275,1852.786l-2.251,10.628s5.245,2.374,8.937,1.385l.4-9.261Z"/><path class="q" d="M1759.893,1844.8c.117.115,4.827,9.854,4.827,9.854l-5.62,2.57-5.835-8.568S1757.938,1842.878,1759.893,1844.8Z"/><path class="r" d="M1755.742,1849.664l2.718,4.751a.78.78,0,0,0,.127.165c.306.3,1.436,1.26,2.348.045a6.867,6.867,0,0,1,2.421-2.4.765.765,0,0,1,.955.384,33.061,33.061,0,0,1,1.892,4.768.762.762,0,0,1-.462.92,24.685,24.685,0,0,1-5.543,1.493.766.766,0,0,1-.714-.321c-.785-1.124-3.183-4.532-4-5.378-.765-.794-2.233-.5-2.84-.334a.751.751,0,0,1-.587-.08,1.981,1.981,0,0,1-.692-3.1.767.767,0,0,0-.215-1.082,1.984,1.984,0,0,1-.78-2.856,2.8,2.8,0,0,1,3.146-1.387.765.765,0,0,0,.845-.5.605.605,0,0,1,.562-.4.754.754,0,0,0,.652-.9,2.282,2.282,0,0,1,1.308-2.66c2.427-1.269,4.486.924,4.983,2.75s-2.214,3.054-3.906,3.233c-1.287.136-2,1.566-2.269,2.243A.757.757,0,0,0,1755.742,1849.664Z"/><path class="s" d="M1756.493,1855.808s-1-3.145-2.372-3.058-2.472,1.425-.81,2.989C1755.378,1857.686,1756.493,1855.808,1756.493,1855.808Z"/><path class="t" d="M1769.374,1868.435c-5.693-4.259-15.18-4.924-20.6-4.919a4.892,4.892,0,0,0-4.824,4.032c-1.2,6.777-4.618,24.46-5.346,27.525-.6,2.515-1.249,4.983-1.667,6.528a1.735,1.735,0,0,0,1.211,2.129c4.8,1.323,13.187,2.283,16.579,2.635a1.123,1.123,0,0,0,1.221-1.32,3.5,3.5,0,0,1,.168-1.866l8.494-22.546c9.14,7.043,15.939,6.6,20.718,3.824a39.066,39.066,0,0,1-3.149-7.679C1774.385,1876.861,1769.374,1868.435,1769.374,1868.435Z"/><path class="u" d="M1794.41,1873.088l-1.7-1.569c-3.862,3.835-7.422,5.226-10.537,5.259a39.066,39.066,0,0,0,3.149,7.679C1791.622,1880.8,1794.41,1873.088,1794.41,1873.088Z"/><path class="v" d="M1793.455,1873.3l7.737-1.1,6.354-5.239c-1.131-.451-6.636,1.9-6.636,1.9s-6.168.187-7.793.48c-1.35.244-.8,2.149-.579,2.788.045.13.077.207.077.207Z"/><path class="w" d="M1846.668,1835.852a14.213,14.213,0,0,1-11.73,3.727c-10.849-1.1-12.01-11.165-10.828-16.429,1-4.442,10.289-11.192,18.43-7.029a2.357,2.357,0,0,0,3.334-2.62l-4.1-23.882-26.221,5.266a3.24,3.24,0,0,1-3.579-4.179,28.9,28.9,0,0,0,.833-10.2c-.88-9.531-9.283-12.333-16.787-10.241-6.464,1.8-12.8,13.73-3.882,23.286a3.392,3.392,0,0,1-1.617,5.585l-22.064,4.44,4.853,28.253c5.286-10.081,15.7-9.687,21.146-1.56,5.466,8.157,3.631,16.844-5.154,19.191a11.922,11.922,0,0,1-10.03-1.464,1.529,1.529,0,0,0-2.3,1.672l3.917,22.8,21.8-3.618a3.223,3.223,0,0,1,3.213,4.654,12.12,12.12,0,0,0-1.33,7.06c.966,7.777,7.637,14.283,15.031,13.953,7.446-.334,13.9-8.939,11.521-16.2a33.722,33.722,0,0,0-4.718-8.9,3.21,3.21,0,0,1,1.861-5.1l26.175-4.348-3.9-22.707A2.318,2.318,0,0,0,1846.668,1835.852Z"/><g class="x"><path class="y" d="M1773.993,1764.04c-2.655,4.261-4.7,9.057-4.317,14.061.445,5.8,3.379,11.222,3.529,17.032.255,9.853-7.353,18.1-9.727,27.668-2.652,10.693,7.35,22.877,11.335,28.845s2.272-4.842,4.689-9.058,7.627,17.739,15.766,22.557c4.366,2.585,9.49,4.306,12.63,8.291,4.581,5.813,3.312,14.085,2.624,21.452s.343,16.348,6.98,19.623c3.908,1.929,8.876,1.276,12.4,3.836,6.193,4.5,3.234,14.3,5.689,21.546,2.669,7.882,7.961,7.985,16.149,9.656s-1.032-16.312,2.8-22.6c2.016-3.3,5.094-5.933,6.684-9.461,2.205-4.893,1.584-11.431,5.862-14.674,3.206-2.43,7.668-1.772,11.692-1.808s8.918-1.781,9.375-5.778c.4-3.547-3.146-6.375-6.621-7.2s-7.177-.43-10.589-1.481c-9.761-3-14.313-16.659-24.506-17.3-8.712-.546-16.01,9.231-24.571,7.523-4.772-.952-8.039-5.178-11.582-8.514-4.551-4.285-10.2-7.5-13.812-12.6s-4.228-13.253.912-16.811c3.819-2.643,9.244-1.57,13.016,1.138s6.341,6.727,9.111,10.453a6.919,6.919,0,0,0,3.193,2.772c3.684,1.153,6.371-4.028,5.49-7.785s-3.536-7.061-3.661-10.918c-.219-6.8,7.1-11.11,13.525-13.349s13.993-4.91,15.882-11.444c.667-2.307.492-4.847,1.51-7.023,3.373-7.211,21.175-10.811,16.92-14.992s-17.761-5.091-20.391-13.512c-.942-3.015-1.911-7-5.057-7.292-5.124-.475-8.048,5.866-12.345,6.955-2.041.516-2.237,3.981-2.157,8.241a5.6,5.6,0,0,1-11.2.212,8.635,8.635,0,0,1,.652-3.465,15.66,15.66,0,0,1,3.983-5.162c6.61-6.31,26.335-13.243,22.2-15.929s-23.955-10.1-26.912-6.008,1.934.627,3.126,5.479-14.664,4.2-22,6.3a5.249,5.249,0,0,1-3.687.136c-1.267-.613-1.8-2.087-2.488-3.316-3.682-6.577-15.931-2.308-15.931-2.308A19.944,19.944,0,0,0,1773.993,1764.04Z"/></g><path class="z" d="M1922.324,1834.261s-14.71,18.828,2.073,37.979l6.309-.588s-12.145-19.5-6.736-35.039l8.938.652,4.943-3.221Z"/><path class="aa" d="M1930.38,1926.445s11.918,25.969,18.171,36.725c0,0,1.242,6.768,0,8.9l-1.058.47,4.939-.146s.439-9.1.1-9.613a1.261,1.261,0,0,0-1.029-.475s-2.118-16.776-8.252-20.356l-5.944-20.47Z"/><path class="w" d="M1945.383,1973.811c-.007.12,3.857.065,5.957.027a1.67,1.67,0,0,0,1.6-1.316l1.585-8.327a1.5,1.5,0,0,0-1.137-1.739l-.885-.2a4.742,4.742,0,0,0-.865,3.362c.4,1.629.751,5.852-.253,6.344a14.647,14.647,0,0,1-3.893.577S1945.449,1972.739,1945.383,1973.811Z"/><path class="ab" d="M1919.084,1973.963a.435.435,0,0,0,.22.814c3.513-.035,11.385-.146,12.085-.437.9-.375-.329-3.62-1.626-4.718l-7.161,2.337Z"/><path class="aa" d="M1916.861,1924.788s7.7,37.249,9.881,44.515l-5.154,3.233s2.583-.439,4.5-.577,3.677-2.337,3.677-2.337l-.618-.984s-1.931-37.046-1.461-41.253Z"/><path class="ac" d="M1897.743,1837.906s-1.062,19.376,16.583,29.278l-4.248,9.686s-15.972-9.658-15.385-36a3.076,3.076,0,0,0-.75-2.074l-3.4-3.938a6.093,6.093,0,0,1-1.3-5.458l.447-1.786a.926.926,0,0,1,1.364-.576l.355.206a6.241,6.241,0,0,1,2.559,2.845l1.667,3.726c.4.9.536,1.214.995,1.285a1.21,1.21,0,0,0,1.332-.946l.118-.507C1899.583,1834.92,1899.517,1836.334,1897.743,1837.906Z"/><path class="ad" d="M1913.712,1865.732c2.952.818,12.953,3.448,19.2,3.341l-3.834,21.627.306,3.527-12.5-.056s-3.519-8.169-6.295-12.242c-.8-1.176-.205-2.579.25-3.928l-.624-.415a1.7,1.7,0,0,1-.674-1.943l3.043-9.31A.93.93,0,0,1,1913.712,1865.732Z"/><path class="ae" d="M1915.88,1892.326l.246,2.137s-3.532,10.575,1.766,35.274c0,0,11.475,3.25,20.906-4.527,0,0-2.66-23.312-3.387-24.4-3.619-5.409-6.03-6.585-6.03-6.585l-.109-2.334S1919.185,1893.716,1915.88,1892.326Z"/><path class="af" d="M1920.773,1867.475c-.044-.058,2.609-8.009,2.609-8.009l3.8.345,1.484,9.019S1922.711,1870.032,1920.773,1867.475Z"/><path class="ag" d="M1926.273,1846.929c-.253.157-8.121,3.408-6.431,11.574a1.534,1.534,0,0,0,.872,1.092,13.331,13.331,0,0,0,6.613,1.095c4.122-.419,6.823-7.61,6.708-9.7S1928.785,1845.365,1926.273,1846.929Z"/><path class="ah" d="M1928.667,1843.754c-.206.027-4.546,1.538-2.394,4.682s2.959,4.995,1.941,6.375c-.927,1.258-2.981.541-2.8,3.158a1.469,1.469,0,0,1-.626,1.327c-1.936,1.31-6.659,5.342-1.979,11.093a1.464,1.464,0,0,1,.165,1.639c-1.37,2.457-4.249,9.657,6.173,13.651,10.3,3.946,14.018-2.784,15.057-5.475a1.435,1.435,0,0,1,1.421-.908c1.132.053,2.735-.135,2.662-1.647a3.773,3.773,0,0,0-1.3-2.4,1.434,1.434,0,0,1,.276-2.259,2.813,2.813,0,0,0,1.389-1.745c.624-2.313-.622-9.226-7.251-10.4a1.563,1.563,0,0,1-1.212-1.172l0-.024a1.433,1.433,0,0,1,.532-1.409,3.718,3.718,0,0,0,1.313-4.845,5.431,5.431,0,0,0-4.246-3.212,1.443,1.443,0,0,1-1.183-1.725C1937.073,1846.247,1936.663,1842.706,1928.667,1843.754Z"/><path class="b" d="M1947.626,1805.773a23.319,23.319,0,0,1-6.861,2.888c-14.679,3.448-13.8-15.388-6.612-23.438,3.676-4.119,8.368-3.19,12.1-1.277a4.016,4.016,0,0,0,5.809-3.865l-1.525-25.749-24.057,2.1a3.758,3.758,0,0,0-2.818,5.65,24.427,24.427,0,0,1,3.381,10.928c.59,9.964-12.3,13.325-16.456,13.959-3.754.572-19.108-5.343-10.859-22.7a3.53,3.53,0,0,0-3.324-5.154l-26.594,2.327,1.51,25.506a2.486,2.486,0,0,1-3.8,2.356c-8.044-5.312-18.569.677-20.133,5.215-1.855,5.379-1.814,16.066,9.428,18.481a14.983,14.983,0,0,0,12.727-2.537,2.444,2.444,0,0,1,3.892,1.938l1.435,24.251,27.436-1.474a3.491,3.491,0,0,0,2.448-5.634c-2.422-3.192-5.138-7.068-5.92-9.343-1.5-4.354.435-13.6,10.7-15.712,10.361-2.131,18.368,4.556,18.5,14.039a30.591,30.591,0,0,1-1.663,10.461,3.555,3.555,0,0,0,3.5,4.708l25.142-1.351-1.386-23.421A3.938,3.938,0,0,0,1947.626,1805.773Z"/><g class="ai"><g class="aj"><path class="d" d="M1773.993,1764.04c-2.655,4.261-4.7,9.057-4.317,14.061.445,5.8,3.379,11.222,3.529,17.032.255,9.853-7.353,18.1-9.727,27.668-2.652,10.693,7.35,22.877,11.335,28.845s2.272-4.842,4.689-9.058,7.627,17.739,15.766,22.557c4.366,2.585,9.49,4.306,12.63,8.291,4.581,5.813,3.312,14.085,2.624,21.452s.343,16.348,6.98,19.623c3.908,1.929,8.876,1.276,12.4,3.836,6.193,4.5,3.234,14.3,5.689,21.546,2.669,7.882,7.961,7.985,16.149,9.656s-1.032-16.312,2.8-22.6c2.016-3.3,5.094-5.933,6.684-9.461,2.205-4.893,1.584-11.431,5.862-14.674,3.206-2.43,7.668-1.772,11.692-1.808s8.918-1.781,9.375-5.778c.4-3.547-3.146-6.375-6.621-7.2s-7.177-.43-10.589-1.481c-9.761-3-14.313-16.659-24.506-17.3-8.712-.546-16.01,9.231-24.571,7.523-4.772-.952-8.039-5.178-11.582-8.514-4.551-4.285-10.2-7.5-13.812-12.6s-4.228-13.253.912-16.811c3.819-2.643,9.244-1.57,13.016,1.138s6.341,6.727,9.111,10.453a6.919,6.919,0,0,0,3.193,2.772c3.684,1.153,6.371-4.028,5.49-7.785s-3.536-7.061-3.661-10.918c-.219-6.8,7.1-11.11,13.525-13.349s13.993-4.91,15.882-11.444c.667-2.307.492-4.847,1.51-7.023,3.373-7.211,21.175-10.811,16.92-14.992s-17.761-5.091-20.391-13.512c-.942-3.015-1.911-7-5.057-7.292-5.124-.475-8.048,5.866-12.345,6.955-2.041.516-2.237,3.981-2.157,8.241a5.6,5.6,0,0,1-11.2.212,8.635,8.635,0,0,1,.652-3.465,15.66,15.66,0,0,1,3.983-5.162c6.61-6.31,26.335-13.243,22.2-15.929s-23.955-10.1-26.912-6.008,1.934.627,3.126,5.479-14.664,4.2-22,6.3a5.249,5.249,0,0,1-3.687.136c-1.267-.613-1.8-2.087-2.488-3.316-3.682-6.577-15.931-2.308-15.931-2.308A19.944,19.944,0,0,0,1773.993,1764.04Z"/></g><g class="aj"><path class="d" d="M1975.145,1876.89a110.115,110.115,0,0,0-.485-37.467c-.614-3.292-2.05-7.215-5.366-7.689-3.835-.548-8.53,3.856-10.93.816-1.06-1.342-.637-3.3-.037-4.9a32.456,32.456,0,0,1,7.224-11.32c1.965-2,4.212-3.767,5.725-6.124,3.236-5.042.964-12.411-3.615-16.274s-10.487,3.065-15.3.314-4.964-9.422-5.868-14.891c-.67-4.051-3.656-15.025-6.953-9.68s4.4,26.62,13.061,36.819c1.045,1.23,2.2,2.608,2.11,4.219-.211,3.848-5.819,3.677-9.593,4.465-4.671.975-11.83-1.525-7.879,6.611,2.084,4.292,12.037,10.166,9.362,13.037s-10.9,11.191-14.754,17.919-5.727,15.1-2.818,22.293,11.657,12.152,18.8,9.124c3.342-1.417,6.985-4.364,10.091-2.486,2.814,1.7,2.4,5.782,2.259,9.066s1.755,7.643,4.95,6.871a5.291,5.291,0,0,0,2.589-1.866C1972.212,1890.585,1974.064,1883.652,1975.145,1876.89Z"/></g></g></g></svg>