<svg xmlns="http://www.w3.org/2000/svg" xmlns:xlink="http://www.w3.org/1999/xlink" width="310.266" height="313.579" viewBox="0 0 310.266 313.579"><defs><style>.a{fill:url(#a);}.b{fill:url(#b);}.c{fill:url(#c);}.d{clip-path:url(#g);}.e{opacity:0.5;mix-blend-mode:soft-light;}.ae,.ah,.aq,.e,.s,.y{isolation:isolate;}.f{fill:#fff;}.g{fill:url(#h);}.h{fill:url(#i);}.i{clip-path:url(#k);}.j{fill:url(#l);}.k{fill:url(#m);}.l{fill:url(#n);}.m{fill:url(#o);}.n{fill:url(#p);}.o{fill:url(#q);}.p{fill:url(#r);}.q{fill:url(#s);}.r{fill:url(#t);}.ae,.ah,.aq,.s,.y{opacity:0.3;}.ah,.aq,.s,.y{mix-blend-mode:multiply;}.s{fill:url(#u);}.t{fill:url(#v);}.u{fill:url(#w);}.v{fill:url(#x);}.w{fill:url(#y);}.x{fill:url(#z);}.y{fill:url(#aa);}.z{fill:url(#ab);}.aa{fill:url(#ac);}.ab{fill:url(#ad);}.ac{fill:url(#ae);}.ad{fill:url(#af);}.ae{mix-blend-mode:color-burn;}.af{fill:url(#ag);}.ag{fill:url(#ah);}.ai{fill:url(#ai);}.aj{fill:url(#aj);}.ak{fill:url(#ak);}.al{fill:url(#al);}.am{fill:url(#am);}.an{fill:url(#an);}.ao{fill:url(#ao);}.ap{fill:url(#ap);}.aq{fill:url(#aq);}.ar{fill:url(#ar);}.as{fill:url(#at);}.at{filter:url(#d);}</style><linearGradient id="a" x1="0.225" y1="0.281" x2="0.415" y2="0.508" gradientUnits="objectBoundingBox"><stop offset="0" stop-color="#aa80f9"/><stop offset="0.996" stop-color="#6165d7"/></linearGradient><linearGradient id="b" x1="1.224" y1="0.199" x2="0.509" y2="0.606" gradientUnits="objectBoundingBox"><stop offset="0" stop-color="#ff9085"/><stop offset="1" stop-color="#fb6fbb"/></linearGradient><linearGradient id="c" x1="0.5" x2="0.5" y2="1" gradientUnits="objectBoundingBox"><stop offset="0" stop-color="#a70e5f"/><stop offset="1" stop-color="#511bb2"/></linearGradient><filter id="d" x="0" y="0" width="310.266" height="313.579" filterUnits="userSpaceOnUse"><feOffset dy="15" input="SourceAlpha"/><feGaussianBlur stdDeviation="15" result="e"/><feFlood flood-color="#d22d60" flood-opacity="0.4"/><feComposite operator="in" in2="e"/><feComposite in="SourceGraphic"/></filter><clipPath id="g"><path class="a" d="M1349.838,521.348c10.49-4.967,25.072-13.824,35.47-29.638,13.637-20.738,8.1-35.22,21.544-73.433,8.5-24.162,14.682-40.938,29.9-46.078,11.923-4.028,27.969-.427,35.3,9.224,6.1,8.025,6.89,21.172,5.6,29.958-1.056,7.161-3.553,11.8-.787,16.644,2.826,4.947,7.815,4.267,10.687,8.182,5.823,7.939-4.432,24.728-6.089,27.442-18.437,30.184-55.7,42.551-72.014,47.75A214.279,214.279,0,0,1,1349.838,521.348Z" transform="translate(-1349.838 -370.574)"/></clipPath><linearGradient id="h" x1="0.873" y1="0.863" x2="1.076" y2="1.066" gradientUnits="objectBoundingBox"><stop offset="0" stop-color="#444b8c"/><stop offset="0.996" stop-color="#3e4177"/></linearGradient><linearGradient id="i" x1="0.878" y1="0.793" x2="1.216" y2="1.013" xlink:href="#h"/><clipPath id="k"><path class="b" d="M1516.061,1357.354c13.32,9.488,31.718,19.361,53.547,22.217,5.571.729,39.985,5.23,45.647-10.555,1.994-5.561-1.263-8.942,1.288-16.416,3.023-8.855,9.532-9.774,18.4-17.238,5.289-4.454,20.768-17.487,18.094-32.584-1.6-9.021-9.606-18.372-18.227-21.527-12.646-4.628-24.134,4.981-43.346,21.579-17.031,14.714-18.555,20.187-30.969,30.566C1551.278,1341.1,1537.089,1350.649,1516.061,1357.354Z" transform="translate(-1516.061 -1280.09)"/></clipPath><linearGradient id="l" x1="1.74" y1="0.831" x2="0.566" y2="0.511" gradientUnits="objectBoundingBox"><stop offset="0" stop-color="#ffc444"/><stop offset="0.996" stop-color="#f36f56"/></linearGradient><linearGradient id="m" x1="2.229" y1="0.823" x2="0.272" y2="0.477" xlink:href="#l"/><linearGradient id="n" x1="0.495" y1="0.117" x2="0.513" y2="1.536" xlink:href="#l"/><linearGradient id="o" x1="-120.004" y1="0.5" x2="-119.004" y2="0.5" gradientUnits="objectBoundingBox"><stop offset="0" stop-color="#311944"/><stop offset="1" stop-color="#893976"/></linearGradient><linearGradient id="p" x1="25.964" y1="-2.41" x2="26.144" y2="2.649" gradientUnits="objectBoundingBox"><stop offset="0" stop-color="#311944"/><stop offset="1" stop-color="#a03976"/></linearGradient><linearGradient id="q" x1="95.754" y1="1.152" x2="95.632" y2="-5.07" xlink:href="#l"/><linearGradient id="r" x1="40.784" y1="-1.484" x2="41.069" y2="1.472" xlink:href="#p"/><linearGradient id="s" x1="68.13" y1="1.353" x2="68.044" y2="-3.032" xlink:href="#l"/><linearGradient id="t" x1="14.587" y1="0.5" x2="15.587" y2="0.5" xlink:href="#h"/><linearGradient id="u" x1="15.596" y1="0.5" x2="16.67" y2="0.5" xlink:href="#h"/><linearGradient id="v" x1="7.246" y1="0.5" x2="8.246" y2="0.5" xlink:href="#h"/><linearGradient id="w" x1="-42.772" y1="0.362" x2="-42.637" y2="1.902" xlink:href="#o"/><linearGradient id="x" x1="-88.266" y1="0.812" x2="-88.389" y2="-0.259" gradientUnits="objectBoundingBox"><stop offset="0.004" stop-color="#26264f"/><stop offset="1" stop-color="#444b8c"/></linearGradient><linearGradient id="y" x1="-109.824" y1="-0.675" x2="-108.417" y2="0.911" xlink:href="#o"/><linearGradient id="z" x1="-7.674" y1="1.264" x2="-7.772" y2="0.186" gradientUnits="objectBoundingBox"><stop offset="0.004" stop-color="#6165d7"/><stop offset="1" stop-color="#aa80f9"/></linearGradient><linearGradient id="aa" x1="-17.997" y1="1.439" x2="-18.207" y2="-0.14" xlink:href="#a"/><linearGradient id="ab" x1="-13.99" y1="4.246" x2="-12.784" y2="4.246" gradientUnits="objectBoundingBox"><stop offset="0.004" stop-color="#f36f56"/><stop offset="1" stop-color="#ffc444"/></linearGradient><linearGradient id="ac" x1="-5.896" y1="0.252" x2="-7.539" y2="6.542" gradientUnits="objectBoundingBox"><stop offset="0" stop-color="#444b8c"/><stop offset="0.996" stop-color="#26264f"/></linearGradient><linearGradient id="ad" x1="0.923" y1="0.274" x2="-0.277" y2="0.87" gradientUnits="objectBoundingBox"><stop offset="0" stop-color="#ab316d"/><stop offset="1" stop-color="#792d3d"/></linearGradient><linearGradient id="ae" x1="5.147" y1="-19.765" x2="3.906" y2="-6.866" xlink:href="#ac"/><linearGradient id="af" x1="4.752" y1="-3.598" x2="5.72" y2="-3.598" xlink:href="#ab"/><linearGradient id="ag" x1="-0.132" y1="1.364" x2="-1.835" y2="0.845" xlink:href="#ad"/><linearGradient id="ah" x1="-1.056" y1="0.625" x2="-1.951" y2="1.241" xlink:href="#ad"/><linearGradient id="ai" x1="-1.484" y1="0.603" x2="-2.643" y2="1.213" xlink:href="#ad"/><linearGradient id="aj" x1="0.489" y1="0.996" x2="0.545" y2="-0.591" xlink:href="#ab"/><linearGradient id="ak" x1="-53.154" y1="0.38" x2="-53.012" y2="1.756" xlink:href="#ab"/><linearGradient id="al" x1="-26.74" y1="2.05" x2="-26.857" y2="0.955" xlink:href="#ac"/><linearGradient id="am" x1="0.418" y1="-0.915" x2="0.616" y2="3.156" xlink:href="#ab"/><linearGradient id="an" x1="47.055" y1="10.703" x2="48.507" y2="12.289" xlink:href="#ab"/><linearGradient id="ao" x1="-60.321" y1="0.882" x2="-59.948" y2="1.618" xlink:href="#ab"/><linearGradient id="ap" x1="-0.113" y1="1.166" x2="0.806" y2="0.027" xlink:href="#ab"/><linearGradient id="aq" x1="-5.569" y1="0.009" x2="-5.3" y2="1.163" xlink:href="#ab"/><linearGradient id="ar" x1="0" y1="0.5" x2="1" y2="0.5" xlink:href="#ad"/><linearGradient id="at" x1="0.788" y1="0.011" x2="-0.467" y2="2.142" xlink:href="#b"/></defs><g transform="translate(45 30)"><g transform="translate(0 0)"><g class="at" transform="matrix(1, 0, 0, 1, -45, -30)"><path class="c" d="M634.757,479.546c3.64,18.857,11.017,57.075-6.637,82.642-32.04,46.4-141.005,43.132-187.031-15.371-3.979-5.058-23.94-31.441-21.763-67.568,3.778-62.664,71.967-118.206,126.616-107.3,31.983,6.384,53.241,34.314,61.992,45.813C611.541,422.5,628.059,444.844,634.757,479.546Z" transform="translate(-374.16 -340.57)"/></g><g transform="translate(71.349 0)"><g transform="translate(0)"><path class="a" d="M1349.838,521.348c10.49-4.967,25.072-13.824,35.47-29.638,13.637-20.738,8.1-35.22,21.544-73.433,8.5-24.162,14.682-40.938,29.9-46.078,11.923-4.028,27.969-.427,35.3,9.224,6.1,8.025,6.89,21.172,5.6,29.958-1.056,7.161-3.553,11.8-.787,16.644,2.826,4.947,7.815,4.267,10.687,8.182,5.823,7.939-4.432,24.728-6.089,27.442-18.437,30.184-55.7,42.551-72.014,47.75A214.279,214.279,0,0,1,1349.838,521.348Z" transform="translate(-1349.838 -370.574)"/><g class="d"><g class="e" transform="translate(-11.185 -6.157)"><path class="f" d="M1203.965,450.2l-.028-.542c15.709-.814,29.793-3.28,41.861-7.329,17.8-5.973,30.678-15.258,38.268-27.594,5.943-9.661,8.527-20.812,12.1-36.244a213.846,213.846,0,0,0,4.573-29.236c1.051-10.352,1.881-18.529,6.589-29.261a88.732,88.732,0,0,1,21.748-29.727l.367.4a88.192,88.192,0,0,0-21.617,29.544c-4.673,10.653-5.5,18.793-6.546,29.1a214.318,214.318,0,0,1-4.584,29.3c-3.454,14.9-6.182,26.67-12.171,36.406-7.658,12.448-20.63,21.81-38.557,27.825C1233.856,446.906,1219.723,449.381,1203.965,450.2Z" transform="translate(-1203.937 -290.263)"/><path class="f" d="M2208.782,565.963l-.23-.2a59.979,59.979,0,0,1-12.226-16.914,61.316,61.316,0,0,1-5.969-19.831,64.618,64.618,0,0,1,2.389-26.253l.521.154a64.079,64.079,0,0,0-2.371,26.034,62.194,62.194,0,0,0,17.789,36.194c13.535-19.628,29.573-29.5,40.667-34.321,12.082-5.255,21.082-5.833,21.171-5.838l.032.542c-.089.005-9.012.581-21.01,5.8-11.07,4.82-27.1,14.7-40.59,34.378Z" transform="translate(-2114.327 -486.471)"/><path class="f" d="M1831.187,1126.6c-.2,0-.395,0-.59-.008l-.2,0-.056-.189a173.874,173.874,0,0,0-11.192-27.43c-6.931-13.2-29.521-24.276-29.749-24.387l.237-.489c.229.111,22.98,11.268,29.992,24.623a174.633,174.633,0,0,1,11.175,27.338c14.215.236,33.267-13.219,46.77-24.584a305.019,305.019,0,0,0,26.326-25.164l.4.364a305.618,305.618,0,0,1-26.375,25.211,163.6,163.6,0,0,1-24.007,17.192C1845.1,1124.073,1837.455,1126.6,1831.187,1126.6Z" transform="translate(-1744.518 -1014.005)"/><path class="f" d="M1833.486,1595.176a149.47,149.47,0,0,1-25.689-2.028l-.531-.1.4-.364a30.108,30.108,0,0,0,9.906-17.675,39.251,39.251,0,0,0-1.552-17.736,67.36,67.36,0,0,0-9.632-19.165l.431-.331a67.979,67.979,0,0,1,9.721,19.339,39.786,39.786,0,0,1,1.568,17.982,30.519,30.519,0,0,1-9.673,17.618,157.3,157.3,0,0,0,29.142,1.872c15.9-.385,39.34-3.281,60.764-14.891l41.575-22.531.259.478L1898.6,1580.17c-21.524,11.664-45.065,14.572-61.024,14.957Q1835.481,1595.177,1833.486,1595.176Z" transform="translate(-1760.202 -1442.135)"/></g></g></g></g><g transform="translate(114.654 22.652)"><path class="g" d="M1964.834,712.966a4.99,4.99,0,0,0,4.5-8.871c-.117-.06-.237-.11-.357-.157a28.678,28.678,0,0,0,.95-4.088c.13,0,.26,0,.392-.014a5.205,5.205,0,0,0,4.576-5.3,4.408,4.408,0,0,0-4.772-4.465c-.135.012-.267.033-.4.057a26.333,26.333,0,0,0-1.105-3.9c.119-.069.237-.141.352-.222a5.205,5.205,0,0,0,1.577-6.821,4.408,4.408,0,0,0-6.42-1.218c-.113.079-.22.165-.325.252a23.318,23.318,0,0,0-2.864-2.673c.073-.119.144-.24.208-.367,1.244-2.45,2.869-5.126.589-6.239-5.275-2.575-7.538-.371-8.782,2.079-.064.127-.12.256-.173.385a23.314,23.314,0,0,0-3.848-.735c.008-.136.014-.273.012-.411-.054-2.7.746-4.155-1.845-4.205-5.65-.11-7.556,2.343-7.5,5.038,0,.141.015.279.029.416a26.307,26.307,0,0,0-3.8,1.412c-.059-.12-.12-.24-.19-.356a4.408,4.408,0,0,0-6.42-1.218,5.205,5.205,0,0,0-1.577,6.821c.068.114.144.22.22.325a28.689,28.689,0,0,0-2.74,3.179c-.109-.069-.22-.136-.338-.2a4.99,4.99,0,0,0-4.5,8.871c.117.06.237.11.357.157a28.707,28.707,0,0,0-.95,4.088c-.13,0-.26,0-.392.014a5.206,5.206,0,0,0-4.576,5.3,4.408,4.408,0,0,0,4.772,4.465c.135-.012.267-.033.4-.057a26.314,26.314,0,0,0,1.105,3.9c-.119.069-.237.141-.352.222a5.205,5.205,0,0,0-1.577,6.821c1.337,2.22,5.765,3.251,7.974,1.7.113-.079-1.334-.651-1.228-.738a23.316,23.316,0,0,0,2.864,2.673c-.073.119-.144.24-.208.367a4.609,4.609,0,1,0,8.193,4.16c.064-.127.12-.256.173-.385a23.323,23.323,0,0,0,3.848.735c-.008.136-.014.273-.012.411a4.408,4.408,0,0,0,4.772,4.465,5.205,5.205,0,0,0,4.576-5.3c0-.141-.014-.279-.028-.415a26.32,26.32,0,0,0,3.8-1.412c.059.12.12.24.19.356a4.408,4.408,0,0,0,6.42,1.218,5.205,5.205,0,0,0,1.577-6.821c-.069-.114-.144-.22-.22-.325a28.689,28.689,0,0,0,2.74-3.179C1964.606,712.839,1964.717,712.906,1964.834,712.966Zm-28.2.358c-8.214-4.171-11.213-14.762-6.7-23.657s14.836-12.724,23.051-8.554,11.213,14.762,6.7,23.657S1944.845,717.494,1936.63,713.323Z" transform="translate(-1914.714 -666.046)"/><path class="h" d="M2260.366,760.972a5.205,5.205,0,0,0,4.576-5.3,4.408,4.408,0,0,0-4.771-4.465c-.135.012-.268.033-.4.057a26.358,26.358,0,0,0-1.105-3.9c.119-.069.237-.141.352-.222,2.208-1.547,4.941-5.286,3.382-7.356-2.957-3.93-6.017-2.229-8.226-.682-.113.079-.219.165-.325.252a23.334,23.334,0,0,0-2.864-2.673c.073-.119.144-.24.208-.367a5.14,5.14,0,0,0,.29-4.053q-3.2,5.631-6.3,11.315c6.553,4.8,8.64,14.265,4.543,22.333a18.088,18.088,0,0,1-17.109,10.195c-.3.779-.6,1.563-.917,2.335-.873,2.095-1.865,4.146-2.859,6.2q.937.177,1.882.276c-.008.136-.014.273-.012.411.054,2.7,1.691,4.986,6.369,4.738,2.588-.137,3.033-2.876,2.979-5.572,0-.141-.015-.279-.029-.415a26.31,26.31,0,0,0,3.8-1.412c.059.12.12.24.19.356,1.337,2.22,5.977,3.163,8.186,1.616s1.149-5-.188-7.219c-.069-.114-.144-.22-.22-.325a28.691,28.691,0,0,0,2.74-3.179c.109.069.22.136.338.2a4.99,4.99,0,0,0,4.5-8.871c-.117-.06-.237-.109-.357-.157a28.735,28.735,0,0,0,.95-4.088C2260.1,760.986,2260.234,760.984,2260.366,760.972Z" transform="translate(-2204.757 -727.184)"/><path class="f" d="M1996.576,713.275a4.99,4.99,0,0,0,4.5-8.871c-.117-.059-.237-.109-.357-.157a28.666,28.666,0,0,0,.95-4.088c.13,0,.26,0,.392-.014a5.206,5.206,0,0,0,4.576-5.3,4.408,4.408,0,0,0-4.772-4.465c-.135.012-.267.033-.4.057a26.309,26.309,0,0,0-1.105-3.9c.119-.069.237-.141.352-.222a5.205,5.205,0,0,0,1.577-6.821,4.408,4.408,0,0,0-6.42-1.218c-.113.079-.22.165-.325.252a23.3,23.3,0,0,0-2.864-2.673c.073-.119.144-.24.208-.367a4.609,4.609,0,1,0-8.193-4.16c-.064.127-.12.256-.173.385a23.3,23.3,0,0,0-3.848-.735c.008-.136.014-.273.011-.411a4.408,4.408,0,0,0-4.772-4.465,5.205,5.205,0,0,0-4.576,5.3c0,.141.015.279.029.416a26.306,26.306,0,0,0-3.8,1.412c-.059-.12-.12-.24-.19-.356a4.408,4.408,0,0,0-6.42-1.218,5.205,5.205,0,0,0-1.577,6.821c.069.114.144.22.22.325a28.685,28.685,0,0,0-2.74,3.179c-.11-.069-.22-.136-.338-.2a4.99,4.99,0,0,0-4.5,8.871c.117.059.237.109.357.157a28.663,28.663,0,0,0-.95,4.089c-.13,0-.26,0-.392.014a5.206,5.206,0,0,0-4.576,5.3,4.408,4.408,0,0,0,4.772,4.465c.135-.012.268-.033.4-.057a26.308,26.308,0,0,0,1.1,3.9c-.119.069-.237.141-.352.222a5.205,5.205,0,0,0-1.577,6.821,4.408,4.408,0,0,0,6.42,1.218c.113-.079.22-.165.325-.252a23.336,23.336,0,0,0,2.864,2.673c-.073.119-.144.24-.208.367a4.609,4.609,0,1,0,8.193,4.16c.064-.127.12-.256.173-.385a23.328,23.328,0,0,0,3.848.734c-.008.136-.014.273-.012.411a4.408,4.408,0,0,0,4.772,4.465,5.205,5.205,0,0,0,4.576-5.3c0-.141-.015-.279-.029-.416a26.306,26.306,0,0,0,3.8-1.412c.059.12.12.24.19.356a4.408,4.408,0,0,0,6.42,1.218,5.206,5.206,0,0,0,1.577-6.821c-.068-.114-.144-.22-.22-.325a28.665,28.665,0,0,0,2.74-3.179C1996.348,713.148,1996.459,713.215,1996.576,713.275Zm-28.2.358c-8.215-4.171-11.213-14.762-6.7-23.657s14.836-12.724,23.051-8.553,11.213,14.762,6.7,23.657S1976.587,717.8,1968.372,713.633Z" transform="translate(-1944.023 -666.078)"/></g><g transform="translate(84.092 69.726)"><g transform="translate(0 0)"><path class="b" d="M1516.061,1357.354c13.32,9.488,31.718,19.361,53.547,22.217,5.571.729,39.985,5.23,45.647-10.555,1.994-5.561-1.263-8.942,1.288-16.416,3.023-8.855,9.532-9.774,18.4-17.238,5.289-4.454,20.768-17.487,18.094-32.584-1.6-9.021-9.606-18.372-18.227-21.527-12.646-4.628-24.134,4.981-43.346,21.579-17.031,14.714-18.555,20.187-30.969,30.566C1551.278,1341.1,1537.089,1350.649,1516.061,1357.354Z" transform="translate(-1516.061 -1280.09)"/><g class="i"><g class="e" transform="translate(-60.306 -12.065)"><path class="f" d="M798.921,1212.21a81.6,81.6,0,0,1-27.585-4.7c-15.983-5.7-30.085-16.138-41.915-31.035l.425-.338c11.766,14.816,25.786,25.2,41.672,30.861,21.164,7.543,44.714,5.947,70-4.746,26.331-11.137,47.942-29.35,61.435-42.668,9.353-9.232,16.593-21.635,21.519-36.865l.517.167c-4.953,15.314-12.239,27.791-21.654,37.084-13.527,13.351-35.195,31.61-61.605,42.781C826.82,1209.052,812.5,1212.21,798.921,1212.21Z" transform="translate(-729.421 -1122.715)"/><path class="f" d="M2614.029,1293.6l-.01-.27a82.69,82.69,0,0,1,1.974-18.564c2.089-9.625,6.838-23.3,17.6-33.772l.379.389c-10.662,10.376-15.373,23.936-17.446,33.483a83.772,83.772,0,0,0-1.973,18.172c42.167-1.571,57.581-26.4,61.306-33.982.106-.216.151-.306.183-.356l.456.3c-.018.029-.083.16-.151.3-3.767,7.67-19.375,32.81-62.049,34.3Z" transform="translate(-2469.527 -1231.923)"/><path class="f" d="M2235.411,1282.9c-.344,0-.69,0-1.043-.013a48.17,48.17,0,0,1-17.882-4.049,71.7,71.7,0,0,1-21.521-14.956l-.1-.1.025-.141c.043-.244,4.57-24.673,22.79-49.444l18.393-25.006.438.322-18.393,25.006c-17.423,23.689-22.271,47.052-22.666,49.078,8.565,8.354,22.241,18.343,38.933,18.749,10,.245,16.42-3.124,16.483-3.158l.256.479A36.294,36.294,0,0,1,2235.411,1282.9Z" transform="translate(-2082.517 -1184.096)"/></g></g></g></g><g transform="translate(65.603 88.858)"><path class="j" d="M1369.107,1617.844c4.253,2.159,9.6.177,11.935-4.429s.786-10.089-3.467-12.249c-.22-.112-.445-.206-.671-.3a53.937,53.937,0,0,0,1.786-7.686c.244,0,.488,0,.737-.027a9.785,9.785,0,0,0,8.6-9.959,8.287,8.287,0,0,0-8.97-8.393c-.254.023-.5.063-.75.107a49.467,49.467,0,0,0-2.078-7.339c.223-.131.445-.266.662-.418a9.785,9.785,0,0,0,2.965-12.822,8.287,8.287,0,0,0-12.069-2.289c-.213.149-.413.31-.611.474a43.838,43.838,0,0,0-5.384-5.026c.137-.224.271-.452.392-.69,2.338-4.605,5.394-9.636,1.107-11.728-9.916-4.841-14.171-.7-16.509,3.908-.121.239-.226.481-.326.724a43.831,43.831,0,0,0-7.234-1.381c.015-.256.027-.513.022-.772-.1-5.068,1.4-7.81-3.469-7.905-10.621-.206-14.205,4.4-14.1,9.471.005.265.027.524.054.781a49.479,49.479,0,0,0-7.151,2.654c-.11-.226-.225-.451-.357-.669a8.287,8.287,0,0,0-12.069-2.289,9.785,9.785,0,0,0-2.964,12.822c.129.214.27.414.413.611a53.952,53.952,0,0,0-5.151,5.977c-.206-.129-.414-.255-.635-.367-4.253-2.159-9.6-.177-11.935,4.429s-.786,10.089,3.467,12.248c.22.112.445.206.671.3a53.958,53.958,0,0,0-1.786,7.686c-.244,0-.488,0-.737.027a9.786,9.786,0,0,0-8.6,9.96,8.287,8.287,0,0,0,8.97,8.393c.254-.023.5-.062.75-.107a49.454,49.454,0,0,0,2.078,7.339c-.223.131-.445.266-.662.417a9.785,9.785,0,0,0-2.964,12.822c2.514,4.173,10.838,6.111,14.989,3.2.213-.149-2.507-1.224-2.309-1.387a43.828,43.828,0,0,0,5.384,5.026c-.137.224-.271.452-.392.69-2.338,4.605-.786,10.089,3.467,12.249s9.6.177,11.935-4.429c.121-.239.225-.481.326-.724a43.856,43.856,0,0,0,7.234,1.381c-.015.256-.027.512-.022.772a8.287,8.287,0,0,0,8.97,8.393,9.785,9.785,0,0,0,8.6-9.959c-.005-.265-.027-.524-.054-.781a49.452,49.452,0,0,0,7.151-2.654c.111.226.225.451.357.669a8.287,8.287,0,0,0,12.069,2.289,9.785,9.785,0,0,0,2.965-12.822c-.129-.214-.27-.413-.413-.611a53.93,53.93,0,0,0,5.151-5.977C1368.678,1617.606,1368.887,1617.732,1369.107,1617.844Zm-53.019.673c-15.442-7.84-21.078-27.751-12.589-44.471s27.89-23.92,43.332-16.079,21.078,27.751,12.589,44.471S1331.53,1626.357,1316.088,1618.516Z" transform="translate(-1274.889 -1529.641)"/><path class="k" d="M1924.662,1708.088a9.786,9.786,0,0,0,8.6-9.96,8.287,8.287,0,0,0-8.97-8.393c-.254.023-.5.063-.75.107a49.467,49.467,0,0,0-2.078-7.339c.223-.13.445-.266.662-.418,4.151-2.908,9.287-9.936,6.359-13.829-5.559-7.388-11.312-4.19-15.463-1.282-.213.149-.413.31-.611.473a43.874,43.874,0,0,0-5.384-5.026c.137-.224.271-.451.392-.69a9.662,9.662,0,0,0,.544-7.619q-6.015,10.586-11.851,21.27c12.319,9.027,16.241,26.817,8.541,41.984-6.525,12.852-19.5,20.069-32.162,19.165-.565,1.465-1.12,2.938-1.725,4.389-1.642,3.938-3.507,7.795-5.374,11.646q1.762.332,3.537.52c-.015.256-.027.513-.022.772.1,5.068,3.179,9.374,11.973,8.907,4.865-.258,5.7-5.406,5.6-10.474-.005-.265-.027-.524-.053-.781a49.461,49.461,0,0,0,7.151-2.654c.111.226.225.451.357.669,2.514,4.173,11.236,5.946,15.388,3.037s2.16-9.4-.354-13.57c-.129-.214-.27-.414-.413-.611a53.947,53.947,0,0,0,5.151-5.977c.206.129.414.255.635.367,4.253,2.16,9.6.177,11.935-4.429s.786-10.089-3.467-12.248c-.221-.112-.445-.206-.671-.3a53.964,53.964,0,0,0,1.786-7.685C1924.169,1708.114,1924.414,1708.11,1924.662,1708.088Z" transform="translate(-1820.125 -1644.571)"/><path class="l" d="M1428.777,1618.424c4.253,2.159,9.6.177,11.935-4.429s.786-10.089-3.467-12.248c-.22-.112-.445-.206-.671-.3a53.941,53.941,0,0,0,1.786-7.686c.244,0,.488,0,.737-.027a9.785,9.785,0,0,0,8.6-9.959,8.287,8.287,0,0,0-8.97-8.393c-.254.023-.5.063-.75.107a49.448,49.448,0,0,0-2.077-7.339c.223-.131.445-.266.662-.418a9.785,9.785,0,0,0,2.964-12.822,8.287,8.287,0,0,0-12.069-2.289c-.213.149-.413.31-.611.473a43.818,43.818,0,0,0-5.384-5.026c.137-.224.271-.452.392-.69,2.338-4.605.786-10.089-3.467-12.248s-9.6-.177-11.935,4.429c-.121.239-.225.481-.326.724a43.865,43.865,0,0,0-7.234-1.381c.015-.256.027-.512.022-.772a8.287,8.287,0,0,0-8.97-8.393,9.785,9.785,0,0,0-8.6,9.959c.005.265.027.524.054.781a49.483,49.483,0,0,0-7.151,2.654c-.111-.226-.225-.451-.357-.669a8.287,8.287,0,0,0-12.069-2.289,9.785,9.785,0,0,0-2.964,12.822c.129.214.27.414.413.611a53.928,53.928,0,0,0-5.151,5.977c-.206-.129-.414-.255-.635-.367-4.253-2.159-9.6-.177-11.935,4.429s-.786,10.089,3.467,12.248c.22.112.445.206.671.3a53.909,53.909,0,0,0-1.786,7.686c-.244,0-.489,0-.737.027a9.786,9.786,0,0,0-8.6,9.96,8.287,8.287,0,0,0,8.97,8.393c.253-.022.5-.062.75-.107a49.48,49.48,0,0,0,2.078,7.339c-.223.131-.445.266-.662.418a9.785,9.785,0,0,0-2.964,12.822,8.287,8.287,0,0,0,12.069,2.289c.213-.149.413-.31.611-.474a43.828,43.828,0,0,0,5.384,5.026c-.137.224-.271.452-.392.69-2.338,4.605-.786,10.089,3.467,12.248s9.6.177,11.935-4.428c.121-.239.225-.481.326-.724a43.833,43.833,0,0,0,7.234,1.381c-.015.256-.027.513-.022.772a8.287,8.287,0,0,0,8.97,8.393,9.785,9.785,0,0,0,8.6-9.96c-.005-.265-.027-.524-.054-.781a49.438,49.438,0,0,0,7.151-2.654c.111.226.225.451.357.669a8.287,8.287,0,0,0,12.069,2.289,9.785,9.785,0,0,0,2.965-12.822c-.129-.214-.27-.413-.413-.611a53.93,53.93,0,0,0,5.151-5.977C1428.349,1618.186,1428.557,1618.312,1428.777,1618.424Zm-53.019.673c-15.442-7.84-21.078-27.751-12.589-44.471s27.89-23.919,43.332-16.079,21.078,27.751,12.589,44.471S1391.2,1626.937,1375.759,1619.1Z" transform="translate(-1329.985 -1529.701)"/></g><g transform="translate(141.089 97.4)"><path class="m" d="M2263.24,1646.236s-.882-.123-.607-1.807c.215-1.32.052-1.764-.259-1.53s-.355,1-.355,1a6.236,6.236,0,0,1-1.6-2.24c-.468-1.27-.769-.2-.869.435a5.754,5.754,0,0,0,1.1,2.975,7.935,7.935,0,0,1,1.069,1.988Z" transform="translate(-2259.536 -1641.064)"/><path class="n" d="M2693.441,3047.964s-5.842,2.655-5.938,3.079,3.757-.142,5.33-.081,2.867-.4,2.724-1.07-.693-2.342-.693-2.342Z" transform="translate(-2654.692 -2939.725)"/><path class="o" d="M2762.188,3021.045l.355,2.63a2.063,2.063,0,0,0,1.546-.06l.265-2.885Z" transform="translate(-2723.653 -2914.961)"/><path class="p" d="M3070.268,3025.657l.679,1.091a1.3,1.3,0,0,1,.156,1.02c-.238.907-.712,2.675-.919,3.136-.282.628-4.063,1-4.063,1s-.337-.474.448-1.048,1.289-.663,1.566-1.509a22.151,22.151,0,0,0,.462-3.238Z" transform="translate(-3004.219 -2919.51)"/><path class="q" d="M3084.182,2985.721a35.284,35.284,0,0,1,1.462,3.884s.393.5,1.14-.239.338-.333.338-.333l-.14-3.625Z" transform="translate(-3020.962 -2882.347)"/><path class="r" d="M2717.593,2291.469c-.308,7.846-.321,16.371.131,25.479.508,10.255,1.53,19.734,2.817,28.326.479.015.981.018,1.507,0,.355-.01.7-.027,1.031-.05a65.253,65.253,0,0,0,2.165-6.923,66.622,66.622,0,0,0,1.511-8.106c1.125-8.887-.194-9.663.719-16.249.809-5.833,1.959-6.061,3.309-14.343,1.465-8.986.374-10.334-.156-10.821C2728.37,2286.712,2723.068,2288.123,2717.593,2291.469Z" transform="translate(-2682.273 -2238.232)"/><path class="s" d="M2742.407,2288.8c-2.153-1.978-7.077-.78-12.277,2.238,5.983,6.464,6.635,10.657,5.917,13.377-.81,3.075-3.275,3.96-3.265,7.323.012,4.132,3.74,5.226,3.661,9.6-.052,2.891-1.691,2.861-2.078,6.432-.458,4.225,1.683,5.681.99,8.807a8.459,8.459,0,0,1-3.574,4.912c.175,1.284.354,2.555.541,3.8.479.015.981.018,1.507,0q.532-.015,1.031-.05a65.2,65.2,0,0,0,2.165-6.923,66.6,66.6,0,0,0,1.511-8.106c1.125-8.887-.193-9.663.72-16.249.809-5.833,1.958-6.061,3.309-14.343C2744.028,2290.634,2742.937,2289.286,2742.407,2288.8Z" transform="translate(-2694.053 -2238.247)"/><path class="t" d="M2768.6,2281.334a176.189,176.189,0,0,1,24.154,51.7,3.15,3.15,0,0,0,1.725.267,3.209,3.209,0,0,0,1.953-1.055,50.753,50.753,0,0,0,.448-12.512,43.138,43.138,0,0,0-1.76-9.4c-1.422-4.587-2.4-4.845-4.255-9.7-1.926-5.037-1.459-6.294-3.3-12.6a83.188,83.188,0,0,0-4.118-11.053Z" transform="translate(-2729.57 -2228.229)"/><path class="u" d="M2668.437,1777.822a13.526,13.526,0,0,0,.905,3.841c.666,1.477,3.956,2.316,4.627,2.629s-1.2,1.348-3.1,1.6-7.361-.013-8.366-.706.768-.693,2.114-1.235,2.051-3.229,1.773-4.43S2668.437,1777.822,2668.437,1777.822Z" transform="translate(-2631.339 -1767.338)"/><g transform="translate(33.491 4.502)"><path class="v" d="M2700.674,1704.082c-1-1.329-.575-3.939.319-4.274.255-.1.428.039,2.977,2.125,1.265,1.036,1.88,1.569,1.914,2.282a2.126,2.126,0,0,1-.457,1.321,5.36,5.36,0,0,1-.9.8c-.455.352-.429.344-.566.444a7.449,7.449,0,0,1-1.949.99,5.2,5.2,0,0,0,.023-.9,4.6,4.6,0,0,0-.219-1.147A5.182,5.182,0,0,0,2700.674,1704.082Z" transform="translate(-2699.813 -1699.787)"/><path class="w" d="M2699.828,1754.294a2.813,2.813,0,0,1-2.753.331c-1.354-.594-.428-3.777.7-4.115a1.862,1.862,0,0,1,1.432.32c.255.183.309.336.731.626.39.268.529.264.62.421.113.2.11.574-.491,1.385a.8.8,0,0,1,.9.028.5.5,0,0,1,.119.247C2701.151,1753.964,2700.662,1754.3,2699.828,1754.294Z" transform="translate(-2696.401 -1746.583)"/></g><path class="x" d="M2331.767,1751.161c-2.149,1.947-5.872,2.1-6.685,2.139-3.825.163-4.371-1.5-8.155-1.337s-4.8,1.9-7.487,1.2a8.14,8.14,0,0,1-4.318-3.25c-5.609-7.329-.921-15.394-6.511-25.761a16.635,16.635,0,0,0-3.075-4.412c-4.825-4.771-9.426-2.6-15.506-6.43-4.988-3.141-8.336-9.456-6.888-12.3.656-1.29,1.224-1.12,2.106-1.223,1.48,2.511,5.145,5.573,9.36,7.356,4,1.691,7.082.883,13.2.969,3.74.052,10.161.142,15.252,1.965,12.732,4.558,17.446,20.057,18.839,24.64C2333.118,1738.722,2335.786,1747.521,2331.767,1751.161Z" transform="translate(-2271.785 -1695.285)"/><path class="y" d="M2709.592,1947.977c1.388-1.791-5.774-6.724-4.813-12.478.81-4.846,6.553-5.33,8.022-9.8.635-1.933.515-4.748-2.185-8.937,5.921,6.422,8.556,15.067,9.538,18.3,1.219,4.006,3.886,12.8-.134,16.444-2.149,1.947-5.872,2.1-6.685,2.139-3.825.162-4.371-1.5-8.155-1.337s-4.8,1.9-7.487,1.2a8.14,8.14,0,0,1-4.318-3.25c-.03-.038-.055-.077-.084-.116a11.537,11.537,0,0,1,5.427-3.051C2703.988,1945.907,2708.467,1949.427,2709.592,1947.977Z" transform="translate(-2660.038 -1895.622)"/></g><g transform="translate(6.3 15.44)"><g transform="translate(0 82.432)"><path class="z" d="M1030.7,2896.67l-.252,4.025a1.519,1.519,0,0,0,1.671.184l1.2-3.953Z" transform="translate(-989.888 -2800.884)"/><path class="aa" d="M1020.58,2935.272s-1.971.8-1.589,1.676a21.292,21.292,0,0,0,1.531,2.4,2.3,2.3,0,0,0,2.547.889c.319-.1.645-.189.934-.264a.625.625,0,0,0,.051-1.194,4.659,4.659,0,0,0-.805-.218c-.722-.111-1.715-1.816-1.831-2.5A1.03,1.03,0,0,0,1020.58,2935.272Z" transform="translate(-979.261 -2836.527)"/><path class="ab" d="M882.3,2392.758c2.9,1,13.641,5.061,16.032,14.37a16.836,16.836,0,0,1,.47,4.136c.062,9.4-5.4,17.349-9.376,21.975l-3.759-.063a21.3,21.3,0,0,1-.3-10.021c1.374-6.168,4.94-7.769,4.252-10.8-1.249-5.5-14.015-4.667-15.218-9.59C873.966,2400.991,874.921,2397.974,882.3,2392.758Z" transform="translate(-845.719 -2335.604)"/><path class="ac" d="M502,3100.227l5.452-.127a.363.363,0,0,0,.223-.643,1.379,1.379,0,0,0-1.052-.341c-1.036.108-3.363-1.343-4.418-1.031-.345.1-.625.913-.769,1.137A.653.653,0,0,0,502,3100.227Z" transform="translate(-501.333 -2986.817)"/><path class="ad" d="M514.964,3071.92l-2.245,2.046a2.5,2.5,0,0,0,1.927.335l2.295-1.579Z" transform="translate(-511.846 -2962.699)"/><g class="ae" transform="translate(28.594 61.513)"><path class="af" d="M891.935,2469.5c1.506-4.065,3.312-9.078,1.249-11.925-2.087-2.88-6.66-.449-11.247-2.77a11.408,11.408,0,0,1-4.9-5.19c-2.575,2.658-2.925,4.443-2.629,5.653,1.2,4.923,13.97,4.092,15.218,9.59.688,3.028-2.878,4.628-4.252,10.8a20.881,20.881,0,0,0,.045,8.941,30.941,30.941,0,0,1,2.2-6.747C889.262,2474.286,890.348,2473.786,891.935,2469.5Z" transform="translate(-874.315 -2449.618)"/></g><path class="ag" d="M562.276,2374.367a97.216,97.216,0,0,1-33.068,54.387,4.572,4.572,0,0,1-3.292-.253,31.268,31.268,0,0,1,3.075-9.316c3.47-6.678,6.559-6.464,10.044-12.358,2.552-4.316,3.382-8.9,5.041-18.07,1.281-7.081,1.282-8.773,3.037-10.8C550.66,2373.85,557.322,2373.8,562.276,2374.367Z" transform="translate(-524.031 -2318.387)"/><g class="ah" transform="translate(1.885 56.356)"><path class="ai" d="M530.321,2428.292c1.238-1.954,3.435-3.989,7.769-8,4.479-4.149,4.307-3.4,5.188-4.625,3.947-5.49,1.81-11.355,2.785-18.434.544-3.949,2.288-9.11,7.365-14.891a10.978,10.978,0,0,0-6.316,3.212c-2.037,2.247-1.886,4.447-3.037,10.8-1.659,9.169-2.489,13.754-5.041,18.07-3.485,5.894-6.575,5.68-10.044,12.358a31.269,31.269,0,0,0-3.075,9.316,4.55,4.55,0,0,0,2.676.391C528.306,2431.849,529.693,2429.284,530.321,2428.292Z" transform="translate(-525.916 -2382.339)"/></g><path class="aj" d="M942.739,1689.7s1.452,10.81-9.939,18.432l12.12,2.891s3.879-7.254,1.071-19.269Z" transform="translate(-899.722 -1686.442)"/><path class="ak" d="M1054.531,1652.541a6.9,6.9,0,0,0,.548-2.338c-.105-.726-1.833-1.695-3.011-2.695s.044,1.006.318,1.462a3.536,3.536,0,0,1,1.1,2.693Z" transform="translate(-1009.382 -1647.232)"/><path class="al" d="M852.428,1763.485c.6-1.172.841-1.165.987-1.784.333-1.41-.527-3.2-1.256-3.226-.47-.016-.509.715-1.5,1.854-1.219,1.4-1.96,1.213-2.677,2.424-.168.283-.923,1.559-.459,2.511.593,1.215,2.931,1.408,3.908.47C851.89,1765.29,851.695,1764.929,852.428,1763.485Z" transform="translate(-820.841 -1749.946)"/><path class="am" d="M844,1840.3a13.862,13.862,0,0,1,.12,4.04c-.269,1.637-3.3,3.338-3.883,3.826s1.542,1.017,3.49.762,7.281-1.961,8.091-2.912-.944-.482-2.419-.663-2.883-2.652-2.926-3.914S844,1840.3,844,1840.3Z" transform="translate(-814.169 -1825.491)"/><g transform="translate(29.022 12.178)"><path class="an" d="M881.345,1810.366a2.881,2.881,0,0,0,2.812-.4c1.182-.946-.576-3.85-1.779-3.888a1.907,1.907,0,0,0-1.333.7c-.2.248-.216.414-.558.813-.315.368-.454.4-.5.58-.06.224.043.6.853,1.241a.822.822,0,0,0-.886.267.515.515,0,0,0-.053.276C879.948,1810.389,880.521,1810.592,881.345,1810.366Z" transform="translate(-879.897 -1806.077)"/></g><path class="ao" d="M1326.217,1697.129s.9-.126.621-1.851c-.221-1.352-.053-1.806.266-1.567s.364,1.021.364,1.021a6.392,6.392,0,0,0,1.643-2.294c.479-1.3.787-.206.89.445a5.893,5.893,0,0,1-1.13,3.047,8.128,8.128,0,0,0-1.1,2.036Z" transform="translate(-1262.979 -1688.412)"/><path class="ap" d="M790.691,1740.968l-3.082-2.158c-1.25,7.683-4.091,10.7-6.5,12.018-5.821,3.182-11.017-2.488-22.159-.174-3.071.638-8.423,1.825-11.39,6.2-.78,1.15-1.058,2.02-2.353,10.269-1.656,10.544-1.715,12.384-1.481,14.654.427,4.155.686,6.672,2.6,8.9,5.087,5.918,15.9,2.866,17.254,2.465,2.5-.742,6.4-1.895,7.942-5.2.728-1.557.65-2.98-.468-8.674-2.215-11.279-2.5-12.009-1.88-13.244,2.087-4.168,8.7-1.783,14.283-5.659C786.721,1758.1,790.4,1753.156,790.691,1740.968Z" transform="translate(-725.047 -1731.789)"/><path class="aq" d="M899.656,1983.6c1.09-2.236-.375-4.3,1.232-6.984,2.048-3.425,5.734-2.262,7.121-4.793,2.372-4.328-6.964-10.364-5.067-17.254.906-3.29,4.068-5.671,6.71-6.573,5.865-2,9.7,3.1,15.2,1.506a9.443,9.443,0,0,0,4.312-2.789,13.749,13.749,0,0,1-4.564,5.613c-5.585,3.876-12.2,1.491-14.283,5.659-.618,1.235-.335,1.965,1.88,13.244,1.118,5.694,1.2,7.117.468,8.674-1.546,3.309-5.438,4.462-7.942,5.2a28.571,28.571,0,0,1-8.237,1.133A5.627,5.627,0,0,0,899.656,1983.6Z" transform="translate(-866.192 -1923.755)"/></g><g transform="translate(15.366 0)"><path class="ar" d="M772.977,638.635a7.09,7.09,0,0,0,6.4-12.6c-.166-.085-.336-.156-.507-.224A40.786,40.786,0,0,0,780.219,620c.184,0,.369,0,.557-.02a7.4,7.4,0,0,0,6.5-7.527,6.263,6.263,0,0,0-6.779-6.343c-.192.017-.38.047-.567.081a37.373,37.373,0,0,0-1.57-5.547c.169-.1.336-.2.5-.316a7.4,7.4,0,0,0,2.24-9.69,6.263,6.263,0,0,0-9.121-1.73c-.161.113-.312.234-.461.358a33.1,33.1,0,0,0-4.069-3.8c.1-.17.2-.341.3-.522,1.767-3.48,4.076-7.282.837-8.863-7.494-3.658-10.709-.527-12.476,2.954-.091.18-.17.363-.246.547a33.135,33.135,0,0,0-5.467-1.044c.012-.193.02-.387.017-.584-.077-3.83,1.06-5.9-2.621-5.974-8.027-.156-10.735,3.328-10.658,7.158,0,.2.021.4.04.59a37.373,37.373,0,0,0-5.4,2.006c-.084-.171-.17-.341-.27-.506a6.262,6.262,0,0,0-9.121-1.73,7.4,7.4,0,0,0-2.24,9.69c.1.162.2.313.312.462a40.771,40.771,0,0,0-3.893,4.517c-.155-.1-.313-.193-.48-.277a7.09,7.09,0,0,0-6.4,12.6c.167.085.337.156.507.224a40.771,40.771,0,0,0-1.349,5.808c-.184,0-.369,0-.557.02a7.4,7.4,0,0,0-6.5,7.527,6.262,6.262,0,0,0,6.779,6.343c.192-.017.38-.047.567-.081a37.39,37.39,0,0,0,1.57,5.547c-.169.1-.336.2-.5.316a7.4,7.4,0,0,0-2.24,9.69c1.9,3.153,8.19,4.619,11.328,2.42.161-.113-1.895-.925-1.745-1.048a33.155,33.155,0,0,0,4.069,3.8c-.1.169-.2.341-.3.521a6.548,6.548,0,1,0,11.64,5.91c.092-.18.17-.363.246-.547a33.114,33.114,0,0,0,5.467,1.044c-.011.194-.02.388-.016.584a6.263,6.263,0,0,0,6.779,6.343,7.4,7.4,0,0,0,6.5-7.527c0-.2-.021-.4-.041-.59a37.369,37.369,0,0,0,5.4-2.005c.083.171.17.341.27.505a6.262,6.262,0,0,0,9.121,1.73,7.4,7.4,0,0,0,2.24-9.69c-.1-.161-.2-.312-.312-.461a40.765,40.765,0,0,0,3.893-4.517C772.653,638.455,772.811,638.55,772.977,638.635Zm-40.068.508c-11.67-5.925-15.93-20.972-9.514-33.608s21.077-18.077,32.747-12.152,15.93,20.972,9.514,33.608S744.579,645.068,732.909,639.143Z" transform="translate(-701.774 -571.977)"/><path class="ar" d="M1192.828,706.837a7.4,7.4,0,0,0,6.5-7.527,6.263,6.263,0,0,0-6.779-6.343c-.192.017-.38.047-.567.081a37.358,37.358,0,0,0-1.57-5.547c.169-.1.337-.2.5-.316,3.137-2.2,7.019-7.509,4.805-10.451-4.2-5.583-8.549-3.167-11.686-.969-.161.113-.312.234-.461.358a33.124,33.124,0,0,0-4.069-3.8c.1-.169.2-.341.3-.521a7.3,7.3,0,0,0,.411-5.758q-4.546,8-8.956,16.075c9.31,6.822,12.274,20.266,6.455,31.728-4.931,9.713-14.734,15.167-24.306,14.483-.427,1.107-.846,2.221-1.3,3.317-1.241,2.976-2.65,5.891-4.062,8.8q1.331.251,2.673.393c-.011.194-.02.388-.016.584.077,3.83,2.4,7.084,9.048,6.732,3.677-.2,4.308-4.085,4.232-7.915,0-.2-.021-.4-.041-.59a37.363,37.363,0,0,0,5.4-2.006c.083.171.17.341.269.505,1.9,3.154,8.492,4.493,11.629,2.3s1.633-7.1-.267-10.255c-.1-.161-.2-.313-.312-.462a40.757,40.757,0,0,0,3.893-4.517c.156.1.313.193.48.277a7.09,7.09,0,0,0,6.4-12.6c-.167-.085-.336-.156-.507-.224a40.792,40.792,0,0,0,1.349-5.808C1192.455,706.856,1192.64,706.853,1192.828,706.837Z" transform="translate(-1113.826 -658.834)"/><path class="as" d="M818.072,639.075a7.09,7.09,0,0,0,6.4-12.6c-.167-.085-.336-.156-.507-.224a40.744,40.744,0,0,0,1.349-5.808c.184,0,.369,0,.557-.02a7.4,7.4,0,0,0,6.5-7.527,6.262,6.262,0,0,0-6.779-6.343c-.192.017-.38.047-.567.081a37.38,37.38,0,0,0-1.57-5.547c.169-.1.336-.2.5-.316a7.4,7.4,0,0,0,2.24-9.69,6.263,6.263,0,0,0-9.121-1.73c-.161.113-.312.234-.461.358a33.136,33.136,0,0,0-4.069-3.8c.1-.169.2-.341.3-.521a6.548,6.548,0,1,0-11.64-5.91c-.092.18-.171.363-.246.547a33.133,33.133,0,0,0-5.467-1.044c.011-.193.02-.387.016-.584a6.263,6.263,0,0,0-6.779-6.343,7.4,7.4,0,0,0-6.5,7.527c0,.2.021.4.041.59a37.366,37.366,0,0,0-5.4,2.006c-.084-.171-.17-.341-.269-.506a6.263,6.263,0,0,0-9.121-1.73,7.4,7.4,0,0,0-2.24,9.69c.1.161.2.313.312.462a40.743,40.743,0,0,0-3.893,4.517c-.155-.1-.313-.193-.48-.277a7.09,7.09,0,0,0-6.4,12.6c.167.085.336.156.507.224a40.753,40.753,0,0,0-1.349,5.808c-.184,0-.369,0-.557.02a7.4,7.4,0,0,0-6.5,7.527,6.262,6.262,0,0,0,6.779,6.343c.192-.017.38-.047.567-.081a37.373,37.373,0,0,0,1.57,5.547c-.169.1-.337.2-.5.316a7.4,7.4,0,0,0-2.24,9.69,6.263,6.263,0,0,0,9.121,1.73c.161-.113.312-.234.461-.358a33.145,33.145,0,0,0,4.069,3.8c-.1.169-.2.341-.3.522a6.548,6.548,0,1,0,11.64,5.91c.092-.18.17-.363.246-.547a33.148,33.148,0,0,0,5.467,1.044c-.011.193-.02.387-.016.584a6.263,6.263,0,0,0,6.779,6.343,7.4,7.4,0,0,0,6.5-7.527c0-.2-.021-.4-.041-.59a37.371,37.371,0,0,0,5.4-2.006c.084.171.17.341.27.505a6.262,6.262,0,0,0,9.121,1.73,7.4,7.4,0,0,0,2.241-9.69c-.1-.161-.2-.313-.312-.462a40.76,40.76,0,0,0,3.893-4.517C817.748,638.895,817.906,638.99,818.072,639.075ZM778,639.583c-11.67-5.925-15.93-20.972-9.514-33.608s21.077-18.077,32.747-12.152,15.93,20.972,9.514,33.608S789.674,645.508,778,639.583Z" transform="translate(-743.412 -572.024)"/></g></g></g></g></svg>