<svg xmlns="http://www.w3.org/2000/svg" xmlns:xlink="http://www.w3.org/1999/xlink" width="306.383" height="307.395" viewBox="0 0 306.383 307.395"><defs><style>.a{fill:url(#a);}.b{fill:url(#b);}.c{fill:url(#c);}.d{clip-path:url(#g);}.e{mix-blend-mode:soft-light;isolation:isolate;}.f{fill:#fcfdfe;}.g{clip-path:url(#i);}.h{fill:url(#j);}.i{fill:url(#k);}.j{fill:url(#l);}.k{fill:url(#m);}.l{fill:url(#n);}.m{fill:url(#o);}.n{fill:url(#p);}.o{fill:url(#q);}.p{fill:url(#r);}.q{fill:url(#s);}.r{fill:url(#v);}.s{fill:url(#w);}.t{fill:url(#x);}.u{fill:#fff;}.v{fill:url(#y);}.w{fill:url(#z);}.x{fill:#bfc8d6;}.y{fill:url(#aa);}.z{fill:url(#ab);}.aa{fill:url(#ac);}.ab{fill:#f4f7fa;}.ac{fill:url(#ae);}.ad{fill:url(#af);}.ae{fill:url(#ag);}.af{fill:url(#ah);}.ag{fill:url(#ai);}.ah{fill:url(#aj);}.ai{fill:url(#ak);}.aj{fill:url(#al);}.ak{fill:url(#am);}.al{fill:url(#an);}.am{fill:url(#ao);}.an{fill:url(#ap);}.ao{fill:url(#aq);}.ap{fill:url(#ar);}.aq{fill:url(#as);}.ar{fill:url(#at);}.as{fill:url(#au);}.at{fill:url(#av);}.au{fill:url(#aw);}.av{fill:url(#ax);}.aw{fill:#91b3fa;}.ax{fill:#7d97f4;}.ay{fill:url(#ay);}.az{fill:url(#az);}.ba{fill:url(#ba);}.bb{fill:url(#bb);}.bc{fill:url(#bc);}.bd{fill:url(#bd);}.be{fill:url(#be);}.bf{filter:url(#d);}</style><linearGradient id="a" x1="0.962" y1="1.233" x2="-0.264" y2="-0.493" gradientUnits="objectBoundingBox"><stop offset="0" stop-color="#aa80f9"/><stop offset="0.996" stop-color="#6165d7"/></linearGradient><linearGradient id="b" x1="0.111" y1="0.013" x2="0.876" y2="1.456" gradientUnits="objectBoundingBox"><stop offset="0.004" stop-color="#e38ddd"/><stop offset="1" stop-color="#9571f6"/></linearGradient><linearGradient id="c" x1="1.13" y1="1.295" x2="0.236" y2="0.19" gradientUnits="objectBoundingBox"><stop offset="0" stop-color="#a70e5f"/><stop offset="1" stop-color="#511bb2"/></linearGradient><filter id="d" x="0" y="0" width="306.383" height="307.395" filterUnits="userSpaceOnUse"><feOffset dy="15" input="SourceAlpha"/><feGaussianBlur stdDeviation="15" result="e"/><feFlood flood-color="#d22d60" flood-opacity="0.4"/><feComposite operator="in" in2="e"/><feComposite in="SourceGraphic"/></filter><clipPath id="g"><path class="a" d="M422.882,1116.024c-.4,3.508-1.591,8.561-2.745,14.32l55.7-16.276c-13.1-13.243-28.967-26.191-29.269-59.432-.142-15.6,4.8-45.395-8.449-57.712-15.1-14.033-25.924-.058-35.655-11.817-15.209-18.378-39.7-24.816-54.108-5.657-14.222,18.909,3.55,56.173,47.217,85.884C424.483,1090.2,424.993,1097.708,422.882,1116.024Z" transform="translate(-343.542 -967.844)"/></clipPath><clipPath id="i"><path class="b" d="M309.659,1784.018c11.352,24.123,19.4,10.794,31.281,8.265,20.668,12.331,29.466,28.507,17.466,51.42l-22.125,6.351c-7.847,3.15-17.936,4.916-22.1-5.548-4.705-11.835-5.323-20.434-20.978-20.156s-26-7.532-26.092-21.741c-.1-14.953-20.79-25.727-15.043-38.4C262.085,1742.132,297.839,1758.9,309.659,1784.018Z" transform="translate(-251.064 -1753.946)"/></clipPath><linearGradient id="j" x1="0.981" y1="-1.051" x2="0.798" y2="-0.459" gradientUnits="objectBoundingBox"><stop offset="0" stop-color="#ff928e"/><stop offset="1" stop-color="#fe7062"/></linearGradient><linearGradient id="k" x1="0.985" y1="-1.063" x2="0.802" y2="-0.471" xlink:href="#j"/><linearGradient id="l" x1="-13.087" y1="-0.86" x2="-4.775" y2="-0.028" xlink:href="#j"/><linearGradient id="m" x1="2.028" y1="-2.026" x2="-1.012" y2="3.001" gradientUnits="objectBoundingBox"><stop offset="0" stop-color="#cb236d"/><stop offset="1" stop-color="#4c246d"/></linearGradient><linearGradient id="n" x1="2.028" y1="-2.026" x2="-1.012" y2="3.001" gradientUnits="objectBoundingBox"><stop offset="0" stop-color="#53d8ff"/><stop offset="1" stop-color="#3840f7"/></linearGradient><linearGradient id="o" x1="2.028" y1="-2.026" x2="-1.012" y2="3.001" gradientUnits="objectBoundingBox"><stop offset="0" stop-color="#e1473d"/><stop offset="1" stop-color="#e9605a"/></linearGradient><linearGradient id="p" x1="2.028" y1="-2.026" x2="-1.012" y2="3.001" xlink:href="#j"/><linearGradient id="q" x1="-5.424" y1="2.046" x2="0.499" y2="0.5" gradientUnits="objectBoundingBox"><stop offset="0" stop-color="#fdf53f"/><stop offset="0.666" stop-color="#e47658"/><stop offset="1" stop-color="#d93c65"/></linearGradient><linearGradient id="r" x1="2.028" y1="-2.026" x2="-1.012" y2="3.001" xlink:href="#m"/><linearGradient id="s" x1="2.028" y1="-2.026" x2="-1.012" y2="3.001" xlink:href="#n"/><linearGradient id="v" x1="0.54" y1="-17.191" x2="0.518" y2="-7.311" xlink:href="#j"/><linearGradient id="w" x1="0.576" y1="-36.436" x2="0.554" y2="-25.716" xlink:href="#j"/><linearGradient id="x" x1="0.24" y1="0.692" x2="1.938" y2="-0.562" xlink:href="#j"/><linearGradient id="y" x1="1.607" y1="-6.278" x2="0.219" y2="2.221" xlink:href="#j"/><linearGradient id="z" x1="-12.704" y1="2.867" x2="1.183" y2="0.378" xlink:href="#o"/><linearGradient id="aa" x1="0.201" y1="0.023" x2="1.193" y2="1.294" gradientUnits="objectBoundingBox"><stop offset="0" stop-color="#fff"/><stop offset="0.996" stop-color="#ebeff2"/></linearGradient><linearGradient id="ab" x1="0.73" y1="0.758" x2="-0.115" y2="-0.571" xlink:href="#aa"/><linearGradient id="ac" y1="0.5" x2="1" y2="0.5" gradientUnits="objectBoundingBox"><stop offset="0" stop-color="#ffc444"/><stop offset="0.996" stop-color="#f36f56"/></linearGradient><linearGradient id="ae" x1="1.796" y1="-2.182" x2="1.229" y2="0.358" gradientUnits="objectBoundingBox"><stop offset="0" stop-color="#09005d"/><stop offset="1" stop-color="#1a0f91"/></linearGradient><linearGradient id="af" x1="2.709" y1="0.5" x2="3.709" y2="0.5" gradientUnits="objectBoundingBox"><stop offset="0" stop-color="#febbba"/><stop offset="1" stop-color="#ff928e"/></linearGradient><linearGradient id="ag" x1="1.949" y1="0.173" x2="0.65" y2="0.864" xlink:href="#ae"/><linearGradient id="ah" x1="4.35" y1="-3.904" x2="2.947" y2="-0.929" xlink:href="#ae"/><linearGradient id="ai" x1="3.138" y1="0.5" x2="4.138" y2="0.5" xlink:href="#af"/><linearGradient id="aj" x1="1.34" y1="0.125" x2="0.425" y2="0.803" xlink:href="#ae"/><linearGradient id="ak" x1="12.363" y1="-21.14" x2="11.331" y2="-19.867" xlink:href="#j"/><linearGradient id="al" x1="0.53" y1="0.5" x2="1.53" y2="0.5" xlink:href="#af"/><linearGradient id="am" x1="-0.208" y1="1.285" x2="0.556" y2="0.471" xlink:href="#af"/><linearGradient id="an" x1="-102.872" y1="-0.34" x2="-107.28" y2="3.804" xlink:href="#af"/><linearGradient id="ao" x1="32.326" y1="-53.923" x2="29.735" y2="-50.668" xlink:href="#j"/><linearGradient id="ap" x1="1.06" y1="0.5" x2="2.06" y2="0.5" xlink:href="#af"/><linearGradient id="aq" x1="-33.296" y1="-13.205" x2="-33.618" y2="-14.271" xlink:href="#af"/><linearGradient id="ar" x1="-11.759" y1="-0.616" x2="-12.13" y2="1.887" xlink:href="#o"/><linearGradient id="as" x1="-109.728" y1="-66.472" x2="-110.672" y2="-71.119" xlink:href="#af"/><linearGradient id="at" x1="1.976" y1="-0.812" x2="1.479" y2="-0.355" xlink:href="#ae"/><linearGradient id="au" x1="-26.688" y1="-0.654" x2="-29.418" y2="1.477" xlink:href="#ae"/><linearGradient id="av" x1="-24.954" y1="-0.433" x2="-26.824" y2="1.305" xlink:href="#ae"/><linearGradient id="aw" x1="0.419" y1="0.5" x2="1.419" y2="0.5" xlink:href="#af"/><linearGradient id="ax" x1="0.566" y1="-1.076" x2="1.08" y2="1.414" gradientUnits="objectBoundingBox"><stop offset="0" stop-color="#4f52ff"/><stop offset="1" stop-color="#4042e2"/></linearGradient><linearGradient id="ay" x1="1.345" y1="0.5" x2="2.345" y2="0.5" xlink:href="#af"/><linearGradient id="az" x1="-0.055" y1="-1.908" x2="0.202" y2="-0.813" xlink:href="#ae"/><linearGradient id="ba" x1="58.062" y1="-13.835" x2="59.203" y2="-13.835" xlink:href="#ae"/><linearGradient id="bb" x1="0.453" y1="-0.166" x2="1.359" y2="1.107" xlink:href="#aa"/><linearGradient id="bc" x1="0.945" y1="0.561" x2="0.177" y2="-0.767" xlink:href="#aa"/><linearGradient id="bd" x1="0.339" y1="0.268" x2="1.229" y2="0.268" xlink:href="#ac"/><linearGradient id="be" x1="0.699" y1="0.024" x2="1.556" y2="0.024" xlink:href="#ac"/></defs><g transform="translate(30.291 23.816)"><g class="bf" transform="matrix(1, 0, 0, 1, -30.29, -23.82)"><path class="c" d="M631.657,614.474a78.226,78.226,0,0,1-11.969,10.078c-39.045,28.015-85.246,19.849-95.065,17.855-14.5-2.945-42.527-8.637-62.79-32.467-30.656-36.051-25.883-92.85-2.1-130.343,4.35-6.858,27.326-44.922,74.024-51.027,28.261-3.694,61.205,3.757,85.062,23.744C668.893,494.27,665.328,579.027,631.657,614.474Z" transform="translate(-395.36 -397.66)"/></g><g transform="translate(0 48.159)"><g transform="translate(7.186)"><path class="a" d="M422.882,1116.024c-.4,3.508-1.591,8.561-2.745,14.32l55.7-16.276c-13.1-13.243-28.967-26.191-29.269-59.432-.142-15.6,4.8-45.395-8.449-57.712-15.1-14.033-25.924-.058-35.655-11.817-15.209-18.378-39.7-24.816-54.108-5.657-14.222,18.909,3.55,56.173,47.217,85.884C424.483,1090.2,424.993,1097.708,422.882,1116.024Z" transform="translate(-343.542 -967.844)"/><g class="d"><g class="e" transform="translate(-10.473 -4.405)"><path class="f" d="M323.68,1070.107c-2.754-7.033-5.708-13.528-8.835-20.4l-1.042-2.292c-1.71-3.218-3.309-6.437-4.854-9.551-3.491-7.03-6.788-13.67-11.262-20.276-.214-.407-.4-.812-.6-1.241a9.592,9.592,0,0,0-3.025-4.227l-.049-.054c-20.863-36.213-49.546-68.728-85.251-96.643l.207-.265c35.728,27.933,64.433,60.471,85.317,96.708a10.042,10.042,0,0,1,3.107,4.34c.2.425.382.827.583,1.21,4.476,6.608,7.779,13.258,11.275,20.3,1.545,3.111,3.142,6.328,4.855,9.552l1.047,2.3c3.129,6.88,6.085,13.378,8.842,20.42Z" transform="translate(-208.761 -914.844)"/><path class="f" d="M1390.439,1321.976c-8.5-17.747-8.766-43.319-7.488-61.646a279.414,279.414,0,0,1,4.856-35.867l.329.072a279,279,0,0,0-4.849,35.823c-1.275,18.285-1.016,43.793,7.456,61.473Z" transform="translate(-1291.188 -1200.116)"/><path class="f" d="M646.316,960.7c-10.074-18.33-16.4-39.9-18.48-46.987-.4-1.356-.661-2.251-.741-2.412l.3-.15c.09.18.3.886.762,2.468,2.077,7.079,8.4,28.622,18.452,46.92Z" transform="translate(-594.589 -911.151)"/><path class="f" d="M495.2,1745.131c-13.863-13.426-53.954-12.644-54.357-12.635l-.008-.337c.4-.01,40.636-.793,54.6,12.729Z" transform="translate(-422.804 -1668.354)"/></g></g></g><g transform="translate(0 61.084)"><path class="b" d="M309.659,1784.018c11.352,24.123,19.4,10.794,31.281,8.265,20.668,12.331,29.466,28.507,17.466,51.42l-22.125,6.351c-7.847,3.15-17.936,4.916-22.1-5.548-4.705-11.835-5.323-20.434-20.978-20.156s-26-7.532-26.092-21.741c-.1-14.953-20.79-25.727-15.043-38.4C262.085,1742.132,297.839,1758.9,309.659,1784.018Z" transform="translate(-251.064 -1753.946)"/><g class="g"><g class="e" transform="translate(3.276 -5.863)"><path class="f" d="M373.495,1836.957a174.467,174.467,0,0,1-36.524-21.083,169.033,169.033,0,0,1-30.268-29.253A159.407,159.407,0,0,1,293.229,1767l.3-.173a159.038,159.038,0,0,0,13.445,19.575,168.657,168.657,0,0,0,30.206,29.193,174.113,174.113,0,0,0,36.452,21.041Z" transform="translate(-293.229 -1759.966)"/><path class="f" d="M1114.352,2791.563l-.27-.214a59.081,59.081,0,0,1,11.414-10.7,57.61,57.61,0,0,1,6.729-4.261l.163.3a57.236,57.236,0,0,0-6.688,4.236A58.733,58.733,0,0,0,1114.352,2791.563Z" transform="translate(-1050.298 -2691.08)"/><path class="f" d="M496.121,2441.643c-15.415-5.465-37.749,5.869-37.971,5.985l-.158-.306c.226-.115,22.688-11.519,38.244-6Z" transform="translate(-445.189 -2380.655)"/><path class="f" d="M529.474,1718.5c-10.732-15.043-7.066-39.759-7.028-40.007l.34.052c-.038.247-3.682,24.827,6.968,39.755Z" transform="translate(-504.05 -1678.489)"/></g></g></g></g><g transform="translate(114.976 12.771)"><rect class="h" width="12.796" height="189.365" transform="translate(93.849 4.974)"/><rect class="i" width="12.796" height="189.365" transform="translate(0 5.439)"/><g transform="translate(2.766 32.424)"><rect class="j" width="6.818" height="27.729" rx="3.409" transform="translate(0.024)"/><g transform="translate(0 22.496)"><circle class="k" cx="1.991" cy="1.991" r="1.991" transform="translate(0 1.524) rotate(-22.5)"/><circle class="l" cx="1.299" cy="1.299" r="1.299" transform="matrix(0.16, -0.987, 0.987, 0.16, 1.111, 3.676)"/></g><g transform="translate(0.764 0.945)"><circle class="m" cx="1.991" cy="1.991" r="1.991"/><circle class="n" cx="1.299" cy="1.299" r="1.299" transform="translate(0.154 1.991) rotate(-45)"/></g></g><g transform="translate(2.274 137.904)"><rect class="o" width="6.818" height="27.729" rx="3.409"/><g transform="translate(0.182 22.702)"><circle class="p" cx="1.991" cy="1.991" r="1.991" transform="translate(0 3.876) rotate(-76.717)"/><circle class="q" cx="1.299" cy="1.299" r="1.299" transform="translate(0.832 3.361) rotate(-76.717)"/></g><g transform="translate(0.13 0.335)"><circle class="k" cx="1.991" cy="1.991" r="1.991" transform="translate(0 1.524) rotate(-22.5)"/><circle class="l" cx="1.299" cy="1.299" r="1.299" transform="matrix(0.23, -0.973, 0.973, 0.23, 1.039, 3.568)"/></g></g><path class="r" d="M11.383,0H99.51a7.135,7.135,0,0,1,7.135,7.135v4.248a0,0,0,0,1,0,0H0a0,0,0,0,1,0,0v0A11.383,11.383,0,0,1,11.383,0Z" transform="translate(0 0)"/><path class="s" d="M0,0H106.645a0,0,0,0,1,0,0V2.168a8.306,8.306,0,0,1-8.306,8.306H5.6A5.6,5.6,0,0,1,0,4.87V0A0,0,0,0,1,0,0Z" transform="translate(0 186.09)"/><rect class="t" width="90.458" height="184.072" rx="7.62" transform="translate(7.924 6.7)"/><path class="u" d="M2010.354,776.618h-61.077a6.356,6.356,0,0,1-6.349-6.349V705.174a6.356,6.356,0,0,1,6.349-6.349h61.077a6.356,6.356,0,0,1,6.349,6.349v65.095A6.356,6.356,0,0,1,2010.354,776.618Zm-61.077-77.27a5.833,5.833,0,0,0-5.827,5.826v65.095a5.833,5.833,0,0,0,5.827,5.827h61.077a5.833,5.833,0,0,0,5.827-5.827V705.174a5.833,5.833,0,0,0-5.827-5.826Z" transform="translate(-1926.439 -684.341)"/><path class="u" d="M2038.57,848.374h-17.017a6.356,6.356,0,0,1-6.349-6.349V788.907a6.356,6.356,0,0,1,6.349-6.349h17.017a6.356,6.356,0,0,1,6.349,6.349v53.118A6.356,6.356,0,0,1,2038.57,848.374Zm-17.017-65.294a5.833,5.833,0,0,0-5.827,5.827v53.118a5.833,5.833,0,0,0,5.827,5.827h17.017a5.833,5.833,0,0,0,5.826-5.827V788.907a5.833,5.833,0,0,0-5.826-5.827Z" transform="translate(-1993.098 -761.568)"/><path class="u" d="M2474.651,848.037h-17.017a6.357,6.357,0,0,1-6.349-6.349V788.57a6.357,6.357,0,0,1,6.349-6.349h17.017A6.356,6.356,0,0,1,2481,788.57v53.118A6.356,6.356,0,0,1,2474.651,848.037Zm-17.017-65.294a5.833,5.833,0,0,0-5.827,5.827v53.118a5.833,5.833,0,0,0,5.827,5.827h17.017a5.833,5.833,0,0,0,5.826-5.827V788.57a5.833,5.833,0,0,0-5.826-5.827Z" transform="translate(-2395.294 -761.257)"/><path class="u" d="M1994.077,1931.142h-65.242a6.356,6.356,0,0,1-6.349-6.349v-70.009a6.356,6.356,0,0,1,6.349-6.349h65.242a6.356,6.356,0,0,1,6.349,6.349v70.009A6.356,6.356,0,0,1,1994.077,1931.142Zm-65.242-82.185a5.833,5.833,0,0,0-5.827,5.827v70.009a5.833,5.833,0,0,0,5.827,5.827h65.242a5.833,5.833,0,0,0,5.827-5.827v-70.009a5.833,5.833,0,0,0-5.827-5.827Z" transform="translate(-1907.585 -1744.621)"/><circle class="v" cx="4.654" cy="4.654" r="4.654" transform="translate(82.459 97.315) rotate(-45)"/><rect class="w" width="4.183" height="16.629" rx="2.091" transform="translate(89.681 95.07) rotate(90)"/></g><g transform="translate(50.069 0)"><g transform="translate(0 0)"><path class="x" d="M927.74,427.753a8.327,8.327,0,0,1-4.532-1.172,87.62,87.62,0,0,1-15.747-11.934c-6.977-6.8-10.986-13.715-11.863-20.5l-.014-.106-.17-28.969c0-5.725,3.734-10.373,10.745-13.426,5.792-2.523,13.47-3.773,21.58-3.538,8.016.232,15.434,1.886,20.924,4.642,6.526,3.276,9.951,7.88,9.951,13.339l-.155,27.68-.013.1c-.8,6.5-4.49,13.221-11.009,20.017a90.9,90.9,0,0,1-15.2,12.446A8.625,8.625,0,0,1,927.74,427.753Z" transform="translate(-895.414 -348.074)"/><path class="y" d="M953.282,427.753a8.133,8.133,0,0,1-4.472-1.172,86.564,86.564,0,0,1-15.539-11.934c-6.885-6.8-10.841-13.715-11.706-20.5l-.014-.106-.168-28.969c0-5.725,3.685-10.373,10.6-13.426,5.716-2.523,13.292-3.773,21.3-3.538,7.91.232,15.23,1.886,20.648,4.642,6.44,3.276,9.819,7.88,9.819,13.339l-.153,27.68-.012.1c-.791,6.5-4.431,13.221-10.864,20.017a89.947,89.947,0,0,1-15,12.446A8.432,8.432,0,0,1,953.282,427.753Z" transform="translate(-919.366 -348.074)"/><path class="z" d="M946,386.208l.169,28.823c1.9,14.706,19.18,26.613,26.708,31.136a6.646,6.646,0,0,0,7.054-.19c7.37-4.85,23.707-17.059,25.452-31.2l.155-27.6C1005.537,366.695,946,364.823,946,386.208Z" transform="translate(-942.068 -369.194)"/><path class="aa" d="M1044.149,505.6a1.028,1.028,0,0,1-.558-.148,81.811,81.811,0,0,1-14.334-10.942c-5.645-5.546-8.9-10.937-9.648-16l-.166-28.345c.007-2.72,2.16-5.047,6.38-6.91,4.711-2.079,11.4-3.17,18.326-3.006,6.855.163,13.35,1.543,17.85,3.776,3.98,1.975,5.993,4.3,6,6.929l-.154,27.364c-.7,4.9-3.753,10.183-9.119,15.736a85,85,0,0,1-14.019,11.373A1.065,1.065,0,0,1,1044.149,505.6Z" transform="translate(-1009.805 -433.071)"/><path class="ab" d="M1057.5,524.9a79.5,79.5,0,0,1-13.552-10.429c-5.306-5.222-8.376-10.232-9.1-14.868l-.164-28.181c0-1.945,1.792-3.728,5.3-5.281,4.463-1.976,10.857-3.017,17.515-2.868,6.594.148,12.809,1.45,17.079,3.564,3.319,1.642,5,3.433,5,5.329l-.154,27.263c-.677,4.5-3.573,9.418-8.638,14.649A82.551,82.551,0,0,1,1057.5,524.9Z" transform="translate(-1023.868 -454.31)"/></g><path class="aa" d="M1200.571,561.41l-.459-.007.045-4.586a9.7,9.7,0,0,0-19.389.015l-.007,4.2-.257-.008c-1.274-.023-2.286.523-2.286,1.763v17.777a2.407,2.407,0,0,0,2.183,2.486h19.961a2.388,2.388,0,0,0,2.154-2.422l.184-17.4C1202.713,562.01,1201.8,561.432,1200.571,561.41Zm-7.09,16.991c-.181.233-.463.6-.76.6l-4.353-.015c-.3,0-.579-.376-.76-.613a1.167,1.167,0,0,1-.143-.936l1.974-6.432a3.037,3.037,0,0,1-1.865-2.8,2.98,2.98,0,0,1,3.049-2.947,3.019,3.019,0,0,1,3,3,2.931,2.931,0,0,1-1.883,2.71l1.891,6.5A1.158,1.158,0,0,1,1193.481,578.4Zm4.015-17.047-14.04-.267.011-4.2a7.068,7.068,0,0,1,7.345-7.029,6.909,6.909,0,0,1,6.721,6.894Z" transform="translate(-1156.242 -531.948)"/></g><g transform="translate(44.485 70.163)"><path class="ac" d="M1206.729,2983.138s-.5,2.808-.739,5.588a1.916,1.916,0,0,0,1.832,2.076c3.7.154,11.621.454,14.463.327a.623.623,0,0,0,.548-.854,1.4,1.4,0,0,0-.714-.752l-13.081-6.012Z" transform="translate(-1176.266 -2848.545)"/><path class="ad" d="M1210.361,2955.746l.4,3.359s2.291,1.067,3.856-.135l-.949-3.743Z" transform="translate(-1180.305 -2822.803)"/><path class="ae" d="M1090.911,2149.147c-.172.877-.924,43.775,3.661,63a.653.653,0,0,1-.383.759,11.361,11.361,0,0,1-3.735.759,1.124,1.124,0,0,1-1.115-.807c-1.311-4.46-7.592-26.808-8.411-48.156-.916-23.854,0-.812,0-.812l.537-14.745Z" transform="translate(-1060.555 -2079.357)"/><path class="af" d="M1003.217,3001.993a20.209,20.209,0,0,0-1.554,5.185,1.169,1.169,0,0,0,1.028,1.4c1.222.12,3.1.275,4.612.264a1.165,1.165,0,0,0,1.153-1.3,9.826,9.826,0,0,0-2.294-5.389Z" transform="translate(-987.801 -2865.935)"/><path class="ag" d="M1013.022,2944.046l.931,5.08a3.283,3.283,0,0,0,2.742.188l-.445-5.466Z" transform="translate(-998.3 -2812.309)"/><path class="ah" d="M963.509,2137.929c-3.75,22.633.813,55.94,2.353,62.459a1.015,1.015,0,0,0,.821.772,6.819,6.819,0,0,0,2.933-.117.931.931,0,0,0,.67-.858c.207-5.271-.165-37.625,3.329-50.413a2.906,2.906,0,0,1,1.12-1.6l6.782-4.822.52-7.794Z" transform="translate(-951.302 -2066.823)"/><g transform="translate(10.806 10.814)"><path class="ai" d="M987.92,1592.39c-11.239-.186-23.64,2.951-23.64,2.951-3.35,19.548-.586,42.095-.586,42.095,8.7,2.282,18.516-1.4,18.516-1.4,1.446-8.171,8.194-31.165,8.194-31.165a37.024,37.024,0,0,0,13.74-4.36,24.1,24.1,0,0,1-4.763-9.963A37.706,37.706,0,0,1,987.92,1592.39Z" transform="translate(-962.622 -1574.984)"/><path class="aj" d="M1457.418,1391.044a2.15,2.15,0,0,0-2.5-.7c-1.654,6.987-10.326,12.651-19.235,15.42a24.1,24.1,0,0,0,4.763,9.963C1455.23,1407.41,1457.418,1391.044,1457.418,1391.044Z" transform="translate(-1398.922 -1390.192)"/></g><g transform="translate(66.8 0)"><path class="ak" d="M1685.462,1263.03c.115.367-1.222.927-2.01-.576-.028-.72-.465-3.8-.035-4.39a57.425,57.425,0,0,1,6.733-7.039,1.057,1.057,0,0,1,.132,1.469l-2.155,2.245a10.428,10.428,0,0,1,1.258,2.487,3.019,3.019,0,0,1-.3,2.222c-.378.681-.894,1.567-1.382,2.26A2.982,2.982,0,0,1,1685.462,1263.03Z" transform="translate(-1683.228 -1251.025)"/><path class="al" d="M1703.516,1317.553l-1.964,1.665-.617,1.657,1.751,1.942a22.576,22.576,0,0,1,1.026-4C1704.151,1318.105,1703.924,1317.761,1703.516,1317.553Z" transform="translate(-1699.56 -1312.383)"/></g><path class="am" d="M843.172,1663.058l-4.311-10.883s-10.5,7.133-12.224,16.177a24.847,24.847,0,0,1,9.126,2.446C836.539,1666.527,843.172,1663.058,843.172,1663.058Z" transform="translate(-826.398 -1621.004)"/><path class="an" d="M1098.985,1496.775l-3.576,10.342a.372.372,0,0,0,.17.449,8.406,8.406,0,0,0,8.719-.586,1.754,1.754,0,0,0,.808-1.253l1.158-8.951Z" transform="translate(-1074.265 -1477.679)"/><g transform="translate(19.097 6.902)"><path class="ao" d="M1133.018,1373.528s3.927,7.392,3.423,10.378-5.37,2.772-9.62.347l-2.97-7.982Z" transform="translate(-1119.615 -1370.911)"/><path class="ap" d="M1076.717,1349.269a.3.3,0,0,0,.133-.446,7.949,7.949,0,0,1-1.093-2.319s-.706-.452,1.8-1.051,6.235-1.529,7.019-3.659-7.84-3.487-11.19,1.284c0,0-4.3,2.22-3.805,2.731a.308.308,0,0,1-.124.509c-.6.182.989,3.847,1.6,3.76a.3.3,0,0,1,.264.1c.525.581,2.9,3.064,5.479,3.362a.307.307,0,0,0,.32-.406l-1.113-3.235a.306.306,0,0,1,.165-.38Z" transform="translate(-1069.322 -1339.847)"/><path class="aq" d="M1134.5,1455.733s-2.8-1.918-3-.3,2.518,2.34,3.866,1.738Z" transform="translate(-1126.662 -1445.852)"/></g><path class="ar" d="M974.792,1827.7c.2-1.074,3.666-15.814,3.666-15.814l-2.445-13.594H962.746l-8.115,10.722,1.536,21.195C963.361,1830.509,970.1,1830.29,974.792,1827.7Z" transform="translate(-944.446 -1755.762)"/><path class="as" d="M1016.073,1642.926l-3.572-11.894a.24.24,0,0,1,.182-.3l3.88-.8a.24.24,0,0,1,.287.205l1.664,13.274a.24.24,0,0,1-.306.26l-1.972-.583A.24.24,0,0,1,1016.073,1642.926Z" transform="translate(-997.809 -1600.484)"/><path class="at" d="M1193.628,1625.714l4.505-14.269c-1.094-.532-2.385-.136-3.866-.01l-3.721,14.28Z" transform="translate(-1162.029 -1583.19)"/><path class="au" d="M849.506,1865.3s-11.786,6.661-15.763.973a4.47,4.47,0,0,1-.82-3.474,24.852,24.852,0,0,0-9.126-2.446,12.482,12.482,0,0,0,1.357,8.557c6.966,12.743,25.912-.7,25.912-.7Z" transform="translate(-823.557 -1813.007)"/><g transform="translate(24.506 34.208)"><path class="av" d="M1138.963,1743.675l6.433-22.464a.655.655,0,0,1,.554-.472c1.165-.136,4.543-.518,8.442-.848a95.792,95.792,0,0,1,13.41-.445.657.657,0,0,1,.537.946c-1.853,3.75-9.477,19-13.3,24a.66.66,0,0,1-.53.26l-14.925-.139A.657.657,0,0,1,1138.963,1743.675Z" transform="translate(-1138.937 -1717.162)"/><path class="aw" d="M1339.694,1692.044l4.664-.777a.335.335,0,0,1,.373.435l-.462,1.4a.335.335,0,0,1-.274.227l-4.488.6a.335.335,0,0,1-.37-.408l.286-1.221A.335.335,0,0,1,1339.694,1692.044Z" transform="translate(-1323.572 -1691.262)"/><path class="ax" d="M1301.367,1712.579l.384-2a.462.462,0,0,1,.407-.373l9.42-.956a.463.463,0,0,1,.5.568l-.6,2.494a.462.462,0,0,1-.427.354l-9.2.464A.463.463,0,0,1,1301.367,1712.579Z" transform="translate(-1288.738 -1707.849)"/><path class="ay" d="M1151.9,1871.706s-.9-3.684-.535-4.992,1.062-2.988,3.4-2.615a34.151,34.151,0,0,1,5.088,1.357,1.336,1.336,0,0,1-1.913,1.153l1.1.851s-.157,1.363-1.656.635l1.023,1.129a1.192,1.192,0,0,1-1.746.4C1155.56,1868.909,1155.031,1872.15,1151.9,1871.706Z" transform="translate(-1150.325 -1850.621)"/></g><g transform="translate(18.56 4.268)"><path class="az" d="M1076.627,1309.381c-7.2-9.305-19.643,2.435-11.607,9.932C1069.324,1315.237,1073.988,1309.478,1076.627,1309.381Z" transform="translate(-1062.413 -1305.947)"/><path class="ba" d="M1154.475,1329.609c10.868-2.456,2.546,3.171-7.064,7.07A20.529,20.529,0,0,1,1154.475,1329.609Z" transform="translate(-1140.806 -1327.217)"/></g></g><g transform="translate(76.675 111.532)"><g transform="translate(0 0)"><path class="x" d="M1241.863,1798.228a1.553,1.553,0,0,1-.75-.449,16.354,16.354,0,0,1-2.192-2.967,6.748,6.748,0,0,1-1.045-4.3l0-.02,1.5-5.2a2.805,2.805,0,0,1,2.632-1.839,9.676,9.676,0,0,1,4.052.5,9.557,9.557,0,0,1,3.5,1.933,2.845,2.845,0,0,1,1.08,2.914l-1.486,4.95-.008.018a6.78,6.78,0,0,1-3.026,3.006,16.968,16.968,0,0,1-3.378,1.429A1.61,1.61,0,0,1,1241.863,1798.228Z" transform="translate(-1237.822 -1783.408)"/><path class="bb" d="M1246.411,1799.45a1.519,1.519,0,0,1-.74-.446,16.179,16.179,0,0,1-2.155-2.956,6.772,6.772,0,0,1-1.017-4.29l0-.02,1.5-5.2a2.8,2.8,0,0,1,2.607-1.846,9.442,9.442,0,0,1,4,.488,9.333,9.333,0,0,1,3.454,1.919,2.843,2.843,0,0,1,1.056,2.906l-1.485,4.95-.008.018a6.808,6.808,0,0,1-3,3.013,16.8,16.8,0,0,1-3.342,1.439A1.573,1.573,0,0,1,1246.411,1799.45Z" transform="translate(-1242.084 -1784.545)"/><path class="bc" d="M1248.592,1790.619l-1.488,5.172c-.435,2.734,2.034,5.777,3.144,6.984a1.241,1.241,0,0,0,1.274.338c1.576-.481,5.145-1.807,6.2-4.248l1.482-4.936C1260.285,1790.26,1249.719,1786.788,1248.592,1790.619Z" transform="translate(-1246.336 -1788.519)"/><path class="bd" d="M1263.728,1814.515a.193.193,0,0,1-.092-.056,15.3,15.3,0,0,1-1.991-2.715,5.573,5.573,0,0,1-.885-3.375l1.463-5.086c.145-.487.653-.79,1.507-.9a8.39,8.39,0,0,1,3.441.427,8.284,8.284,0,0,1,3,1.616c.609.563.847,1.086.71,1.557l-1.469,4.893a5.6,5.6,0,0,1-2.462,2.339,15.877,15.877,0,0,1-3.11,1.3A.2.2,0,0,1,1263.728,1814.515Z" transform="translate(-1258.949 -1800.869)"/><path class="ab" d="M1266.381,1817.725a14.844,14.844,0,0,1-1.878-2.582,5.3,5.3,0,0,1-.846-3.143l1.455-5.057c.1-.348.517-.573,1.227-.667a8.034,8.034,0,0,1,3.289.409,7.932,7.932,0,0,1,2.872,1.538c.508.469.714.878.615,1.218l-1.464,4.876a5.323,5.323,0,0,1-2.319,2.169A15.407,15.407,0,0,1,1266.381,1817.725Z" transform="translate(-1261.626 -1804.463)"/></g><path class="be" d="M1291.811,1829.623l-.082-.026.25-.819a1.811,1.811,0,0,0-3.474-1.019l-.223.752-.046-.015c-.227-.071-.437-.027-.5.2l-.936,3.184a.449.449,0,0,0,.26.561l3.575,1.051a.446.446,0,0,0,.513-.32l.95-3.108C1292.163,1829.844,1292.03,1829.692,1291.811,1829.623Zm-2.165,2.67c-.045.032-.115.083-.168.068l-.779-.232c-.053-.016-.084-.1-.1-.15a.218.218,0,0,1,.024-.175l.692-1.048a.567.567,0,0,1-.187-.6.557.557,0,0,1,.7-.368.564.564,0,0,1,.38.7.548.548,0,0,1-.48.387l0,1.264A.216.216,0,0,1,1289.646,1832.293Zm1.617-2.842-2.5-.787.223-.751a1.32,1.32,0,0,1,1.686-.872,1.29,1.29,0,0,1,.841,1.589Z" transform="translate(-1282.974 -1823.166)"/></g></g></svg>