<svg xmlns="http://www.w3.org/2000/svg" xmlns:xlink="http://www.w3.org/1999/xlink" width="315.736" height="299.461" viewBox="0 0 315.736 299.461"><defs><style>.a{fill:none;}.b{fill:url(#a);}.c{fill:url(#d);}.d{clip-path:url(#e);}.e,.v{opacity:0.5;mix-blend-mode:soft-light;}.aa,.aj,.as,.e,.r,.t,.v{isolation:isolate;}.f{fill:#fcfdfe;}.g{clip-path:url(#f);}.h{fill:url(#g);}.i{fill:#beb8f2;}.j{fill:url(#h);}.k{clip-path:url(#i);}.l{clip-path:url(#j);}.m{fill:url(#k);}.n{fill:url(#l);}.o{clip-path:url(#m);}.p{fill:url(#n);}.q{fill:#d8dee8;}.r,.t{opacity:0.3;}.aa,.aj,.as,.r,.t{mix-blend-mode:multiply;}.r{fill:url(#o);}.s,.v{fill:#fff;}.t,.u{fill:#97a6b7;}.w{fill:url(#r);}.x{fill:url(#s);}.y{fill:url(#t);}.z{fill:url(#u);}.aa{opacity:0.1;}.ab{fill:url(#v);}.ac{fill:url(#w);}.ad{fill:url(#x);}.ae{fill:url(#y);}.af{fill:#26264f;}.ag{fill:url(#z);}.ah{fill:url(#aa);}.ai{fill:url(#ab);}.aj,.as{opacity:0.25;}.aj{fill:url(#ac);}.ak{fill:#444b8c;}.al{fill:url(#ad);}.am{fill:url(#ae);}.an{fill:url(#af);}.ao{fill:url(#ag);}.ap{fill:url(#ah);}.aq{fill:url(#ai);}.ar{fill:url(#aj);}.as{fill:url(#ak);}.at{fill:url(#al);}.au{fill:url(#am);}.av{fill:url(#an);}.aw{fill:url(#ao);}.ax{fill:url(#ap);}.ay{fill:url(#aq);}.az{fill:url(#ar);}.ba{fill:url(#at);}.bb{fill:url(#au);}.bc{fill:url(#av);}.bd{fill:url(#aw);}.be{fill:url(#ax);}.bf{fill:url(#ay);}.bg{filter:url(#b);}</style><linearGradient id="a" x1="0.5" x2="0.5" y2="1" gradientUnits="objectBoundingBox"><stop offset="0" stop-color="#c52b7c"/><stop offset="1" stop-color="#6f47b7"/></linearGradient><filter id="b" x="0" y="0" width="315.736" height="299.461" filterUnits="userSpaceOnUse"><feOffset dy="15" input="SourceAlpha"/><feGaussianBlur stdDeviation="15" result="c"/><feFlood flood-color="#d22d60" flood-opacity="0.4"/><feComposite operator="in" in2="c"/><feComposite in="SourceGraphic"/></filter><linearGradient id="d" x1="2.356" y1="-0.406" x2="2.986" y2="0.628" gradientUnits="objectBoundingBox"><stop offset="0" stop-color="#ff9085"/><stop offset="1" stop-color="#fb6fbb"/></linearGradient><clipPath id="e"><path class="a" d="M472.2,1406.566l19.034-1.518c.894-2.783,1.913-7.866-2.167-8.774-5.672-1.262-6.509-11.019-5.235-14.583,1.577-4.412,5.037-14.76-3.7-16.849-7.275-1.739-12.325-1.374-13.481-10.5s-6.566-14.477-14.833-13.336c-8.7,1.2-16.7-9.918-23.584-5.512-11.99,7.678.765,27.048,16.359,31.8s7.283,10.85,7.412,18.374c.176,10.272,13.852,7.092,17.8,10.849C472.893,1399.47,472.674,1403.857,472.2,1406.566Z" transform="translate(-423.501 -1334.458)"/></clipPath><clipPath id="f"><path class="a" d="M605.709,908.472l-20.518-.07s-3.827-10.538,1.227-17.949c10.31-15.121-3.652-23.1-9-27.311-8.066-6.357-12.4-15.476-.5-19.4s.018-22.393-14.488-30.781c-14.2-8.209-7.794-38.179,24.561-23.233,19.322,8.926,16.221,29.434,17.118,40.162s16.845,11.67,11.341,24.754c-4.7,11.176-13.589,19.306-6.853,27.024S616,898.015,605.709,908.472Z" transform="translate(-555.301 -785.614)"/></clipPath><linearGradient id="g" x1="3.501" y1="0.045" x2="2.834" y2="0.99" gradientUnits="objectBoundingBox"><stop offset="0" stop-color="#ffc444"/><stop offset="0.996" stop-color="#f36f56"/></linearGradient><linearGradient id="h" x1="-4.112" y1="-0.144" x2="-3.312" y2="1.065" gradientUnits="objectBoundingBox"><stop offset="0" stop-color="#aa80f9"/><stop offset="0.996" stop-color="#6165d7"/></linearGradient><clipPath id="i"><path class="a" d="M2180.6,851.729l-16.412-4.227s-4.227-12.294,1.84-15.571,3.744-15.083,3.235-21.522c-1.38-17.47,17.5-15.882,17.521-38.474.005-6.009-1.993-17.47,3.073-22.256,5.772-5.453,9.985-.1,13.7-4.663,5.8-7.126,15.212-9.683,20.823-2.349,5.537,7.238-1.191,21.647-17.917,33.228-11.058,9.667-11.231,12.562-10.361,19.61.61,4.937,5.319,17.8-1.382,22.932s-11.822,10.684-9.241,16.26C2189.4,843.181,2180.6,851.729,2180.6,851.729Z" transform="translate(-2162.751 -738.266)"/></clipPath><clipPath id="j"><path class="a" d="M2069.9,1242.577l19.579,6.137s6.834-8.888,4.257-17.48c-5.257-17.53,10.464-20.911,16.836-23.311,9.61-3.621,16.5-11,6.339-18.342s6.753-21.35,23.116-24.961c16.012-3.533,18.972-34.036-16.387-29.571-21.117,2.666-24.361,23.152-28.459,33.107s-19.585,6.031-18.294,20.167c1.1,12.074,7.116,22.511-1.637,27.831S2063.247,1229.5,2069.9,1242.577Z" transform="translate(-2066.358 -1134.604)"/></clipPath><linearGradient id="k" x1="3.53" y1="-0.427" x2="3.05" y2="0.59" gradientUnits="objectBoundingBox"><stop offset="0.004" stop-color="#e38ddd"/><stop offset="1" stop-color="#9571f6"/></linearGradient><linearGradient id="l" x1="-0.336" y1="-0.1" x2="0.353" y2="0.86" xlink:href="#g"/><clipPath id="m"><path class="a" d="M2115.923,1761.28l-19.089.433c-1.174-2.677-2.707-7.63,1.259-8.949,5.514-1.835,5.35-11.626,3.719-15.042-2.019-4.228-6.518-14.168,1.962-17.139,7.059-2.473,12.12-2.625,12.339-11.818s5.053-15.072,13.393-14.781c8.776.307,15.6-11.572,22.9-7.891,12.711,6.413,2,26.984-13.026,33.309s-6.137,11.537-5.5,19.035c.873,10.237-13.056,8.469-16.594,12.609C2114.511,1754.292,2115.177,1758.633,2115.923,1761.28Z" transform="translate(-2095.535 -1685.385)"/></clipPath><linearGradient id="n" y1="0.5" x2="1" y2="0.5" gradientUnits="objectBoundingBox"><stop offset="0" stop-color="#444b8c"/><stop offset="0.996" stop-color="#26264f"/></linearGradient><linearGradient id="o" x1="0" y1="0.5" x2="1" y2="0.5" xlink:href="#k"/><linearGradient id="r" x1="0.226" y1="1.759" x2="0.668" y2="-0.364" gradientUnits="objectBoundingBox"><stop offset="0.004" stop-color="#ebeff2"/><stop offset="1" stop-color="#fff"/></linearGradient><linearGradient id="s" x1="1.288" y1="-0.234" x2="-0.143" y2="1.241" xlink:href="#g"/><linearGradient id="t" x1="0.805" y1="0.284" x2="-0.743" y2="1.802" xlink:href="#g"/><linearGradient id="u" x1="0.581" y1="0.412" x2="-1.182" y2="3.113" xlink:href="#g"/><linearGradient id="v" x1="0.646" y1="-0.064" x2="-0.173" y2="2.518" xlink:href="#g"/><linearGradient id="w" x1="0.782" y1="0.329" x2="-0.103" y2="0.987" xlink:href="#g"/><linearGradient id="x" x1="0.416" y1="0.207" x2="0.655" y2="0.651" xlink:href="#g"/><linearGradient id="y" x1="-24.159" y1="1.152" x2="-24.159" y2="-0.027" xlink:href="#g"/><linearGradient id="z" x1="-25.295" y1="0.734" x2="-25.295" y2="-0.116" xlink:href="#g"/><linearGradient id="aa" x1="-3.421" y1="0.5" x2="-2.421" y2="0.5" gradientUnits="objectBoundingBox"><stop offset="0" stop-color="#311944"/><stop offset="1" stop-color="#893976"/></linearGradient><linearGradient id="ab" x1="-3.453" y1="0.129" x2="-2.732" y2="0.731" xlink:href="#aa"/><linearGradient id="ac" x1="-3.169" y1="0.047" x2="-2.449" y2="0.677" xlink:href="#aa"/><linearGradient id="ad" x1="-9.489" y1="-13.54" x2="-8.55" y2="-12.162" xlink:href="#d"/><linearGradient id="ae" x1="0.121" y1="0.029" x2="0.601" y2="0.855" xlink:href="#d"/><linearGradient id="af" x1="-12.441" y1="-1.343" x2="-11.897" y2="1.115" xlink:href="#k"/><linearGradient id="ag" x1="-14.878" y1="0.292" x2="-15.625" y2="1.155" xlink:href="#g"/><linearGradient id="ah" x1="-112.025" y1="-28.403" x2="-115.459" y2="-22.685" xlink:href="#g"/><linearGradient id="ai" x1="0.018" y1="-1.017" x2="0.749" y2="1.219" xlink:href="#n"/><linearGradient id="aj" x1="0.555" y1="0.622" x2="1.432" y2="2.129" xlink:href="#d"/><linearGradient id="ak" x1="0.053" y1="-0.577" x2="0.546" y2="0.805" xlink:href="#d"/><linearGradient id="al" x1="0.483" y1="0.713" x2="-0.718" y2="5.758" xlink:href="#aa"/><linearGradient id="am" x1="0.553" y1="-0.989" x2="0.482" y2="1.176" xlink:href="#aa"/><linearGradient id="an" x1="0.457" y1="0.977" x2="0.182" y2="6.619" xlink:href="#aa"/><linearGradient id="ao" x1="0.279" y1="0.562" x2="4.19" y2="-2.46" xlink:href="#aa"/><linearGradient id="ap" x1="1.543" y1="-3.195" x2="0.185" y2="1.907" xlink:href="#aa"/><linearGradient id="aq" x1="12.646" y1="-7.925" x2="13.029" y2="-7.925" xlink:href="#aa"/><linearGradient id="ar" x1="0" y1="0.5" x2="1" y2="0.5" xlink:href="#aa"/><linearGradient id="at" x1="0.482" y1="0.717" x2="-0.708" y2="5.724" gradientUnits="objectBoundingBox"><stop offset="0" stop-color="#ab316d"/><stop offset="1" stop-color="#792d3d"/></linearGradient><linearGradient id="au" x1="0.553" y1="-0.987" x2="0.482" y2="1.176" gradientUnits="objectBoundingBox"><stop offset="0" stop-color="#ffc444"/><stop offset="0.541" stop-color="#f8964e"/><stop offset="0.996" stop-color="#f36f56"/></linearGradient><linearGradient id="av" x1="0.457" y1="0.97" x2="0.184" y2="6.571" xlink:href="#g"/><linearGradient id="aw" x1="0.279" y1="0.562" x2="4.189" y2="-2.462" xlink:href="#k"/><linearGradient id="ax" x1="1.533" y1="-3.158" x2="0.187" y2="1.899" xlink:href="#k"/><linearGradient id="ay" x1="12.636" y1="-7.943" x2="13.019" y2="-7.943" xlink:href="#n"/></defs><g transform="translate(45 30)"><g transform="translate(0 0)"><g class="bg" transform="matrix(1, 0, 0, 1, -45, -30)"><path class="b" d="M539.882,455.048c-57.788-1.629-107.844,38.391-115.406,90.9-8.269,57.414,37.241,109.072,93.238,117.346,69.652,10.291,137.21-49.245,131.144-113.834C644.288,500.8,598.624,456.7,539.882,455.048Z" transform="translate(-378.5 -425)"/></g><g transform="translate(0 21.948)"><g transform="translate(0 46.194)"><path class="c" d="M472.2,1400.9l.23.079a43.216,43.216,0,0,0,15.787,2.21l3.51-.384c.772-2.859,1-5.717-2.657-6.53-5.672-1.262-6.509-11.019-5.235-14.583,1.577-4.412,5.037-14.76-3.7-16.849-7.275-1.739-12.325-1.374-13.481-10.5s-6.566-14.477-14.833-13.336c-8.7,1.2-16.7-9.918-23.584-5.512-11.99,7.678.765,27.048,16.359,31.8s7.283,10.85,7.412,18.374c.177,10.272,13.852,7.092,17.8,10.849A8.429,8.429,0,0,1,472.2,1400.9Z" transform="translate(-423.501 -1334.458)"/><g transform="translate(0 0)"><g class="d"><g class="e" transform="translate(-2.932 3.023)"><path class="f" d="M475.28,1438.854l.4-.112c-8.185-29.122-30.463-54.13-58.141-65.263l-.154.384C444.945,1384.949,467.13,1409.853,475.28,1438.854Z" transform="translate(-414.925 -1373.479)"/><path class="f" d="M1088.75,1752l.413-.031c-.893-11.855,8.559-21.86,8.655-21.96l-.3-.286C1097.422,1729.826,1087.843,1739.96,1088.75,1752Z" transform="translate(-1034.217 -1702.122)"/><path class="f" d="M806.037,2026.927l.348-.224c-6.5-10.147-28.454-10-28.675-10l.005.414C777.934,2017.118,799.657,2016.972,806.037,2026.927Z" transform="translate(-747.333 -1966.868)"/><path class="f" d="M852.044,1428.394l.366-.193c-4.453-8.461.242-22.351.29-22.49l-.391-.135C852.26,1405.718,847.508,1419.777,852.044,1428.394Z" transform="translate(-814.1 -1403.09)"/><path class="f" d="M409.392,1499.823l.19-.368c-9.684-4.991-23.783-.769-23.924-.725l.121.4C385.919,1499.082,399.859,1494.909,409.392,1499.823Z" transform="translate(-385.658 -1487.448)"/></g></g></g></g><g transform="translate(10.212 3.669)"><g class="g"><path class="h" d="M605.709,908.472l-20.518-.07s-3.827-10.538,1.227-17.949c10.31-15.121-3.652-23.1-9-27.311-8.066-6.357-11.6-14.547-1.858-19.818,11.024-5.965,1.379-21.974-13.127-30.363-14.2-8.209-7.794-38.179,24.561-23.233,19.322,8.926,16.221,29.434,17.118,40.162s16.845,11.67,11.341,24.754c-4.7,11.176-13.589,19.306-6.853,27.024S616,898.015,605.709,908.472Z" transform="translate(-555.301 -785.614)"/><g class="e" transform="translate(-3.564 0.672)"><path class="i" d="M554.384,983.137l-.426-.08c.049-.264,4.887-26.685,1.784-54.324-2.858-25.463-13.236-57.2-46.445-63.79l.084-.425c14.783,2.934,26.349,11.008,34.376,24,6.412,10.376,10.59,23.894,12.416,40.178C559.281,956.4,554.433,982.873,554.384,983.137Z" transform="translate(-509.297 -859.077)"/><path class="i" d="M946.26,829.3l-.43-.055c1.83-14.3-3.552-34.641-3.606-34.845l.418-.112C942.7,794.492,948.1,814.915,946.26,829.3Z" transform="translate(-908.68 -794.287)"/><path class="i" d="M583.376,1061.771c-14.551-9.134-28.189-4.822-28.325-4.777l-.135-.412c.138-.045,13.961-4.425,28.69,4.822Z" transform="translate(-551.381 -1035.267)"/><path class="i" d="M731.592,1618.344c-4.774-20.439-32.532-25.542-32.807-25.569l.014-.432c.272,0,28.4,5.282,33.215,25.9Z" transform="translate(-684.103 -1530.508)"/><path class="i" d="M1119.256,1551.252l-.424-.09c2.772-13.1,17.026-22.077,17.17-22.166l.229.368C1136.088,1529.452,1121.989,1538.332,1119.256,1551.252Z" transform="translate(-1071.604 -1472.069)"/><path class="i" d="M951,2165.2c-.6-7.951-11.925-14.283-12.039-14.347l.209-.379c.475.262,11.647,6.508,12.262,14.693Z" transform="translate(-905.672 -2045.395)"/><path class="i" d="M1105.131,2068.3l-.427-.074c1.082-6.211,10.5-13.1,13.593-15.366.437-.32.815-.6.872-.659l.323.289a10.039,10.039,0,0,1-.939.719C1115.494,2055.444,1106.183,2062.257,1105.131,2068.3Z" transform="translate(-1058.571 -1954.731)"/></g></g></g><g transform="translate(134.617)"><path class="j" d="M2183.753,834.7c2.258,4.877.106,9.756-1.959,13.039a4.959,4.959,0,0,0-1.277.261c-4.492,1.093-6.6.537-11.166.867a22.11,22.11,0,0,1-5.076-1.043l-2.175-.75s-3.861-11.863,2.206-15.14,3.744-15.083,3.235-21.522c-1.38-17.47,17.5-15.882,17.521-38.474.005-6.009-1.993-17.47,3.073-22.256,5.772-5.453,9.985-.1,13.7-4.663,5.8-7.126,15.212-9.683,20.823-2.349,5.537,7.238-1.191,21.647-17.917,33.228-11.058,9.667-11.231,12.562-10.361,19.61.61,4.937,5.319,17.8-1.382,22.932S2181.172,829.122,2183.753,834.7Z" transform="translate(-2160.89 -738.266)"/><g transform="translate(0.144)"><g class="k"><g class="e" transform="translate(1.294 -1.766)"><path class="f" d="M2296.825,828.016l-.333-.042c.248-1.987.522-3.987.815-5.945a210.4,210.4,0,0,1,10.247-40.94,169.164,169.164,0,0,1,14.327-29.977,141.342,141.342,0,0,1,14.891-20.244,113.205,113.205,0,0,1,11.694-11.458c.692-.582,1.432-1.138,2.148-1.677.954-.717,1.94-1.458,2.82-2.266l.227.248c-.892.819-1.885,1.565-2.845,2.287-.712.535-1.449,1.089-2.134,1.665a112.883,112.883,0,0,0-11.659,11.424,141.014,141.014,0,0,0-14.855,20.2,168.829,168.829,0,0,0-14.3,29.917,210.063,210.063,0,0,0-10.23,40.874C2297.347,824.034,2297.073,826.032,2296.825,828.016Z" transform="translate(-2287.423 -715.467)"/><path class="f" d="M2542.5,877.13l-.3-.143c6.125-13.055.747-37.175.691-37.417l.328-.075C2543.27,839.738,2548.674,863.97,2542.5,877.13Z" transform="translate(-2514.089 -829.885)"/><path class="f" d="M2362.5,1616.371l-.319-.106c3.125-9.36,20.647-16.584,20.823-16.656l.127.311C2382.952,1599.992,2365.572,1607.158,2362.5,1616.371Z" transform="translate(-2348.019 -1531.104)"/><path class="f" d="M2270.775,1570.707l-.332-.049c.927-6.374-1.214-15.562-6.03-25.871-.242-.518-.242-.518-.234-.582l.333.044-.167-.022.162-.042c.012.036.1.232.209.459C2269.561,1555.013,2271.712,1564.268,2270.775,1570.707Z" transform="translate(-2257.612 -1479.975)"/><path class="f" d="M2303.662,2012.506l-.3-.141c2.988-6.435,13.2-8.974,13.3-9l.079.327C2316.637,2003.717,2306.581,2006.219,2303.662,2012.506Z" transform="translate(-2293.756 -1903.577)"/><path class="f" d="M2188.341,1969.3c-1.266-5.579-4.176-10.977-8.895-16.5l.256-.218c4.755,5.568,7.688,11.013,8.966,16.646Z" transform="translate(-2179.446 -1856.729)"/><path class="f" d="M2775.881,734.838l-.3-.159a94.6,94.6,0,0,0,6.952-18.109c.188-.661.255-.893.292-.97l.3.147c-.027.059-.135.437-.271.915A94.914,94.914,0,0,1,2775.881,734.838Z" transform="translate(-2729.396 -715.589)"/><path class="f" d="M2674.7,1036.755l-.235-.24c5.366-5.282,20.426-5.113,21.064-5.1l-.005.336C2695.368,1031.745,2679.966,1031.571,2674.7,1036.755Z" transform="translate(-2636.109 -1006.929)"/></g></g></g></g><g transform="translate(127.292 30.709)"><g class="l"><path class="m" d="M2069.9,1242.577l19.579,6.137s6.834-8.888,4.257-17.48c-5.257-17.53,10.464-20.911,16.836-23.311,9.61-3.621,15.457-10.358,7.763-18.329-8.705-9.019,5.329-21.363,21.692-24.973,16.012-3.533,18.972-34.036-16.387-29.571-21.117,2.666-24.361,23.152-28.459,33.107s-19.585,6.031-18.294,20.167c1.1,12.074,7.116,22.511-1.637,27.831S2063.247,1229.5,2069.9,1242.577Z" transform="translate(-2066.358 -1134.604)"/><g class="e" transform="translate(4.304 -2.444)"><path class="i" d="M2214.066,1397.395l.43.053c.033-.266,3.41-26.914,14.723-52.321,10.422-23.407,29.909-50.52,63.557-46.763l.048-.43c-14.979-1.673-28.444,2.527-40.023,12.482-9.249,7.952-17.318,19.574-23.982,34.543C2217.482,1370.424,2214.1,1397.128,2214.066,1397.395Z" transform="translate(-2206.925 -1282.504)"/><path class="i" d="M2653.873,1135.336l.426.077c2.579-14.184,13.859-31.946,13.972-32.124l-.365-.234C2667.792,1103.235,2656.468,1121.068,2653.873,1135.336Z" transform="translate(-2612.655 -1103.056)"/><path class="i" d="M2754.493,1416.8c16.631-4.308,28.327,3.927,28.444,4.01l.253-.351c-.118-.085-11.97-8.439-28.805-4.078Z" transform="translate(-2705.379 -1390.943)"/><path class="i" d="M2321.423,1950.061c10.729-18.039,38.732-14.511,39-14.453l.117-.417c-.26-.081-28.667-3.55-39.491,14.649Z" transform="translate(-2305.62 -1870.424)"/><path class="i" d="M2243.761,1710.9l.431.043c1.32-13.328-9.554-26.192-9.665-26.32l-.329.282C2234.308,1685.035,2245.063,1697.762,2243.761,1710.9Z" transform="translate(-2225.498 -1639.565)"/><path class="i" d="M2222.879,2408.041c2.973-7.4,15.685-10.01,15.813-10.035l-.085-.425c-.532.106-13.069,2.682-16.13,10.3Z" transform="translate(-2214.684 -2297.279)"/><path class="i" d="M2130.81,2217.755l.429.058c.846-6.247-6.047-15.662-8.312-18.756-.32-.437-.6-.815-.632-.892l-.4.178a10.114,10.114,0,0,0,.678.969C2124.817,2202.372,2131.632,2211.681,2130.81,2217.755Z" transform="translate(-2121.9 -2113.314)"/></g></g></g><g transform="translate(129.348 73.385)"><path class="n" d="M2112.911,1755.642l-.22.1a43.214,43.214,0,0,1-15.479,3.81l-3.531-.024c-1.06-2.766-1.574-5.585,1.977-6.767,5.514-1.835,5.35-11.626,3.719-15.042-2.019-4.228-6.518-14.168,1.961-17.139,7.06-2.473,12.12-2.625,12.339-11.818s5.053-15.072,13.393-14.781c8.777.307,15.6-11.572,22.9-7.891,12.711,6.413,2,26.984-13.026,33.309s-6.137,11.537-5.5,19.035c.874,10.237-13.056,8.469-16.594,12.609A8.43,8.43,0,0,0,2112.911,1755.642Z" transform="translate(-2092.895 -1685.385)"/><g transform="translate(0.205)"><g class="o"><g class="e" transform="translate(4.276 2.167)"><path class="f" d="M2236.932,1784.283l-.408-.071c5.168-29.806,24.777-56.957,51.174-70.859l.193.366C2261.6,1727.563,2242.079,1754.6,2236.932,1784.283Z" transform="translate(-2229.876 -1713.354)"/><path class="f" d="M2161.987,2168.98l-.414.011c-.322-11.884-10.747-20.872-10.852-20.961l.268-.315C2151.1,2147.806,2161.66,2156.909,2161.987,2168.98Z" transform="translate(-2150.721 -2114.06)"/><path class="f" d="M2251.589,2402.871l-.369-.187c5.434-10.759,27.284-12.852,27.5-12.872l.037.412C2278.544,2390.244,2256.919,2392.317,2251.589,2402.871Z" transform="translate(-2243.433 -2337.399)"/><path class="f" d="M2441.366,1814.864l-.384-.154c3.566-8.872-2.523-22.209-2.585-22.343l.375-.174C2438.835,1792.328,2445,1805.829,2441.366,1814.864Z" transform="translate(-2416.107 -1786.084)"/><path class="f" d="M2639.414,1850.357l-.226-.347c9.124-5.954,23.58-3.193,23.725-3.164l-.08.406C2662.69,1847.224,2648.4,1844.5,2639.414,1850.357Z" transform="translate(-2601.341 -1835.89)"/></g></g></g></g></g><g transform="translate(40.31 27.182)"><path class="p" d="M1067.98,1006.645l-119.019-6.885c-2.741-.134-5.209,2.858-5.209,5.369v153.259c0,3.483,3.558,4.184,6.3,3.9l117.929-12.044a4.476,4.476,0,0,0,3.893-4.4v-135A4.19,4.19,0,0,0,1067.98,1006.645Z" transform="translate(-943.752 -984.728)"/><path class="q" d="M1093.245,1003.034l-119.254-5.867a4.521,4.521,0,0,0-4.974,4.339v154.456a4.249,4.249,0,0,0,4.974,4.072l119.254-12.274a4.5,4.5,0,0,0,3.893-4.438V1007.263A4.209,4.209,0,0,0,1093.245,1003.034Z" transform="translate(-967.06 -982.335)"/><path class="r" d="M1001.246,1182.918a2.3,2.3,0,0,1-2.684-2.2V1026.588a2.448,2.448,0,0,1,2.684-2.347l119.254,5.633a2.279,2.279,0,0,1,2.11,2.288v136.315a2.435,2.435,0,0,1-2.11,2.4Z" transform="translate(-994.315 -1007.314)"/><path class="s" d="M1258.712,1293.615l-102,9.827v-142.2l102,3.842Z" transform="translate(-1140.213 -1133.707)"/><path class="t" d="M1461.255,1039.39l-40.764.51.914-9.193a2.492,2.492,0,0,1,2.069-2.35l6.9-1.061a2.483,2.483,0,0,0,1.868-1.434l.749-1.626,18.057,1.115Z" transform="translate(-1383.552 -1007.313)"/><path class="p" d="M1483.024,831.931a2.181,2.181,0,0,0-2.077-1.817l-6.514-.292a5.23,5.23,0,0,1-5.015-5.576l.252-7.05a2.288,2.288,0,0,0-2.164-2.425l-2.14-.128a2.709,2.709,0,0,1-2.49-3.2,4.833,4.833,0,0,0-4.479-5.613,5.865,5.865,0,0,0-6.058,4.969,3.277,3.277,0,0,1-.453,1.256,3.35,3.35,0,0,1-3,1.6l-2.208-.132a2.927,2.927,0,0,0-2.948,2.18l-1.835,7.156a7.01,7.01,0,0,1-6.968,5.189l-7.145-.32a3.1,3.1,0,0,0-2.858,1.7l-4.306,8.544a.989.989,0,0,0,.85,1.481l61.964,2.058a1.151,1.151,0,0,0,1.129-1.326Zm-25.505-20a1.418,1.418,0,0,1-1.322-1.657,1.718,1.718,0,0,1,1.771-1.461,1.418,1.418,0,0,1,1.317,1.657A1.719,1.719,0,0,1,1457.519,811.932Z" transform="translate(-1383.553 -805.818)"/><path class="u" d="M1487.761,834.4a2.181,2.181,0,0,0-2.077-1.817l-6.514-.292a5.23,5.23,0,0,1-5.015-5.577l.251-7.05a2.288,2.288,0,0,0-2.164-2.425l-2.14-.128a2.709,2.709,0,0,1-2.49-3.2,4.833,4.833,0,0,0-4.479-5.613,5.865,5.865,0,0,0-6.058,4.969,3.275,3.275,0,0,1-.453,1.256,3.35,3.35,0,0,1-3,1.6l-2.208-.132a2.927,2.927,0,0,0-2.948,2.18l-1.836,7.156a7.01,7.01,0,0,1-6.968,5.189l-7.145-.32a3.1,3.1,0,0,0-2.858,1.7l-4.306,8.544a.988.988,0,0,0,.85,1.481l61.964,2.058a1.151,1.151,0,0,0,1.129-1.326Zm-25.505-20a1.418,1.418,0,0,1-1.322-1.657,1.718,1.718,0,0,1,1.771-1.461,1.418,1.418,0,0,1,1.317,1.657A1.719,1.719,0,0,1,1462.256,814.4Z" transform="translate(-1387.923 -808.093)"/><g transform="translate(37.306 11.267)"><path class="v" d="M1477.157,970.194c-5.527-3.412-9.768-.993-13.213-4.841-3.688-4.12-1.2-9.543-5.016-12.1-2.443-1.639-4.622-.193-7.463-.637a7.835,7.835,0,0,1-3.3-1.382l-1.531,5.968a7.01,7.01,0,0,1-6.968,5.189l-7.145-.32a3.1,3.1,0,0,0-2.858,1.7l-4.306,8.544a.988.988,0,0,0,.85,1.481l56.313,1.87A16.8,16.8,0,0,0,1477.157,970.194Z" transform="translate(-1425.229 -951.231)"/></g><g transform="translate(28.375 44.572)"><g transform="translate(1.182)"><path class="q" d="M1404.214,1386.25l-79-.481v-4.691l79,.653Z" transform="translate(-1325.218 -1381.079)"/><path class="q" d="M1404.214,1491.938l-79-.18v-4.691l79,.352Z" transform="translate(-1325.218 -1478.856)"/><path class="q" d="M1404.214,1597.626l-79,.122v-4.691l79,.05Z" transform="translate(-1325.218 -1576.633)"/><path class="q" d="M1404.214,1700.323l-79,.423v-4.691l79-.251Z" transform="translate(-1325.218 -1671.419)"/></g><g transform="translate(0 37.354)"><path class="q" d="M1376.782,1867.755l-66.819,1.609v-4.885l66.819-1.3Z" transform="translate(-1309.963 -1863.175)"/><path class="q" d="M1376.782,1971.232l-66.819,2.144v-4.885l66.819-1.839Z" transform="translate(-1309.963 -1958.635)"/><path class="q" d="M1376.782,2074.709l-66.819,2.679V2072.5l66.819-2.373Z" transform="translate(-1309.963 -2054.095)"/><path class="q" d="M1376.782,2178.187l-66.819,3.213v-4.885l66.819-2.908Z" transform="translate(-1309.963 -2149.555)"/></g><g transform="translate(71.388 37.093)"><path class="q" d="M2240.1,1864.329l-8.79.212v-4.559l8.79-.172Z" transform="translate(-2231.307 -1859.811)"/><path class="q" d="M2240.1,1966.427l-8.79.282v-4.559l8.79-.242Z" transform="translate(-2231.307 -1953.998)"/><path class="q" d="M2240.1,2068.525l-8.79.353v-4.559l8.79-.312Z" transform="translate(-2231.307 -2048.185)"/><path class="q" d="M2240.1,2170.624l-8.79.423v-4.559l8.79-.383Z" transform="translate(-2231.307 -2142.373)"/></g><g transform="translate(0 74.418)"><path class="q" d="M1376.782,2346.109l-66.819,4.081V2345.3l66.819-3.775Z" transform="translate(-1309.963 -2341.529)"/><path class="q" d="M1376.782,2449.586l-66.819,4.615v-4.885l66.819-4.31Z" transform="translate(-1309.963 -2436.989)"/><path class="q" d="M1376.782,2553.063l-66.819,5.15v-4.885l66.819-4.844Z" transform="translate(-1309.963 -2532.449)"/><path class="q" d="M1376.782,2656.541l-66.819,5.684v-4.885l66.819-5.379Z" transform="translate(-1309.963 -2627.909)"/></g><g transform="translate(71.388 73.663)"><path class="q" d="M2240.1,2336.307l-8.79.537v-4.559l8.79-.5Z" transform="translate(-2231.307 -2331.789)"/><path class="q" d="M2240.1,2438.405l-8.79.607v-4.559l8.79-.567Z" transform="translate(-2231.307 -2425.976)"/><path class="q" d="M2240.1,2540.5l-8.79.677v-4.559l8.79-.637Z" transform="translate(-2231.307 -2520.164)"/><path class="q" d="M2240.1,2642.6l-8.79.748v-4.559l8.79-.708Z" transform="translate(-2231.307 -2614.351)"/></g></g></g><g transform="translate(8.193 109.456)"><path class="p" d="M713.588,1871.878l-167.371-4.206c-9.281-.233-16.971,6.762-16.971,15.629v33.61c0,8.867,7.69,15.6,16.971,15.057l167.371-9.845c5.548-.326,9.97-5.99,9.97-12.657V1884.2C723.558,1877.533,719.136,1872.017,713.588,1871.878Z" transform="translate(-529.246 -1867.666)"/><path class="u" d="M737.2,1871.878l-167.372-4.206c-9.281-.233-16.971,6.762-16.971,15.629v33.61c0,8.867,7.69,15.6,16.971,15.057l167.372-9.845c5.548-.326,9.97-5.99,9.97-12.657V1884.2C747.17,1877.533,742.748,1872.017,737.2,1871.878Z" transform="translate(-551.028 -1867.666)"/><path class="w" d="M597.286,1954.831c-8.017.45-14.665-5.4-14.665-13.051v-33.511c0-7.65,6.647-13.725,14.665-13.546l167.372,3.748c4.806.108,8.66,4.9,8.66,10.678v25.324c0,5.781-3.854,10.7-8.66,10.97Z" transform="translate(-578.485 -1892.623)"/><g transform="translate(20.851 14.481)"><path class="q" d="M818.577,2055.231l4.769,9.443a1.19,1.19,0,0,0,.906.639l10.421,1.4a1.156,1.156,0,0,1,.647,1.977l-7.5,7.382a1.188,1.188,0,0,0-.343,1.048l1.785,10.224a1.23,1.23,0,0,1-1.725,1.305l-9.491-4.543a1.256,1.256,0,0,0-1.14.038l-9.77,5.319a1.209,1.209,0,0,1-1.831-1.2l1.895-10.649a1.155,1.155,0,0,0-.362-1.061l-8.1-7.389a1.213,1.213,0,0,1,.713-2.091l11.128-1.649a1.256,1.256,0,0,0,.938-.665l4.86-9.541A1.24,1.24,0,0,1,818.577,2055.231Z" transform="translate(-798.352 -2054.561)"/><path class="x" d="M1335.266,2058.36l4.294,8.96a1.077,1.077,0,0,0,.816.607l9.394,1.336a1.113,1.113,0,0,1,.584,1.878l-6.76,7a1.165,1.165,0,0,0-.309.995l1.609,9.708a1.121,1.121,0,0,1-1.555,1.236l-8.548-4.328a1.079,1.079,0,0,0-1.026.034l-8.785,5.027a1.1,1.1,0,0,1-1.645-1.144l1.7-10.091a1.132,1.132,0,0,0-.325-1.006l-7.274-7.01a1.164,1.164,0,0,1,.64-1.98l10-1.558a1.133,1.133,0,0,0,.844-.63l4.371-9.048A1.09,1.09,0,0,1,1335.266,2058.36Z" transform="translate(-1276.896 -2057.48)"/><path class="y" d="M1800.388,2061.184l3.886,8.525a.982.982,0,0,0,.739.578l8.511,1.276a1.077,1.077,0,0,1,.529,1.789l-6.127,6.661a1.144,1.144,0,0,0-.28.946l1.458,9.243a1.028,1.028,0,0,1-1.408,1.173l-7.738-4.132a.934.934,0,0,0-.928.031l-7.942,4.764a1,1,0,0,1-1.486-1.091l1.538-9.588a1.114,1.114,0,0,0-.294-.957l-6.569-6.667a1.122,1.122,0,0,1,.577-1.881l9.03-1.477a1.031,1.031,0,0,0,.762-.6l3.953-8.6A.967.967,0,0,1,1800.388,2061.184Z" transform="translate(-1707.594 -2060.114)"/><path class="z" d="M2221.3,2063.744l3.534,8.129a.9.9,0,0,0,.672.552l7.747,1.22a1.045,1.045,0,0,1,.482,1.707l-5.578,6.352a1.125,1.125,0,0,0-.254.9l1.326,8.82c.124.821-.633,1.481-1.282,1.117l-7.038-3.953a.814.814,0,0,0-.843.028l-7.215,4.528a.923.923,0,0,1-1.349-1.042l1.4-9.134a1.1,1.1,0,0,0-.267-.912l-5.961-6.357a1.086,1.086,0,0,1,.524-1.791l8.2-1.4a.944.944,0,0,0,.692-.57l3.592-8.2A.864.864,0,0,1,2221.3,2063.744Z" transform="translate(-2097.282 -2062.501)"/><path class="q" d="M2604.007,2066.076l3.228,7.769a.833.833,0,0,0,.614.527l7.081,1.17a1.017,1.017,0,0,1,.441,1.633l-5.1,6.069a1.111,1.111,0,0,0-.232.863l1.213,8.434c.113.785-.579,1.415-1.172,1.066l-6.429-3.789a.717.717,0,0,0-.77.026l-6.583,4.314c-.621.407-1.349-.182-1.23-1l1.273-8.72a1.083,1.083,0,0,0-.243-.871l-5.434-6.074a1.054,1.054,0,0,1,.477-1.71l7.474-1.336a.871.871,0,0,0,.632-.544l3.278-7.835A.777.777,0,0,1,2604.007,2066.076Z" transform="translate(-2451.549 -2064.677)"/></g><g class="aa" transform="translate(1.83)"><path class="u" d="M713.921,1899.771c-20.775-5.306-34.932,22.948-59.82,17.266-21.987-5.02-22.606-28.624-49.258-45.39q-2.77-1.743-5.648-3.237l-29.367-.738c-9.281-.233-16.971,6.762-16.971,15.629v33.61c0,8.867,7.69,15.6,16.971,15.057l166.307-9.782C728.632,1906.892,720.641,1901.487,713.921,1899.771Z" transform="translate(-552.858 -1867.666)"/></g><path class="ab" d="M818.577,2055.231l4.769,9.443a1.19,1.19,0,0,0,.906.639l10.421,1.4a1.156,1.156,0,0,1,.647,1.977l-7.5,7.382a1.188,1.188,0,0,0-.343,1.048l1.785,10.224a1.23,1.23,0,0,1-1.725,1.305l-9.491-4.543a1.256,1.256,0,0,0-1.14.038l-9.77,5.319a1.209,1.209,0,0,1-1.831-1.2l1.895-10.649a1.155,1.155,0,0,0-.362-1.061l-8.1-7.389a1.213,1.213,0,0,1,.713-2.091l11.128-1.649a1.256,1.256,0,0,0,.938-.665l4.86-9.541A1.24,1.24,0,0,1,818.577,2055.231Z" transform="translate(-777.501 -2040.08)"/></g><g transform="translate(134.96 105.562)"><g transform="translate(0 0)"><path class="ac" d="M2181.59,1824.177a5.065,5.065,0,0,0,.823-2.6c.063-2.408-1.722-4.285-1.962-4.178-.129.058.035.764.127,1.076.191.651.4.714.38,1.013-.035.615-.924.639-1.393,1.456a2.2,2.2,0,0,0,0,2.089A2.488,2.488,0,0,0,2181.59,1824.177Z" transform="translate(-2178.218 -1817.4)"/><path class="ad" d="M2692.961,2518.416l-.687-2.362,2.866-2.123,1.786-.668-1.058,3.3Z" transform="translate(-2651.445 -2459.346)"/><path class="ae" d="M2655.355,3188.963s1.567,3.943,1.155,5.691a17.609,17.609,0,0,0,2.771-.247,19.086,19.086,0,0,1-.808-2.689,26.45,26.45,0,0,1-.165-3.151Z" transform="translate(-2617.386 -3082.326)"/><path class="af" d="M2372.646,3312.463a1.236,1.236,0,0,1,.3.724,1.174,1.174,0,0,1-.089.485c-.267.7-.687.8-1.14,1.542-.277.456-.224.593-.478.8a1.66,1.66,0,0,1-1.089.291,19.35,19.35,0,0,1-2.518-.142q.844-1.087,1.8-2.2.419-.489.835-.955l1.654-.559Z" transform="translate(-2351.954 -3196.604)"/><path class="ag" d="M2377.238,3209.07s-.945,4.932.257,6.313c1.025,1.381-.495.4-.495.4l-1.814,1.584-1.089,1.88s1-4.827.735-6.743-.4-3.208-.4-3.208Z" transform="translate(-2357.921 -3101.24)"/><path class="ah" d="M2338.4,2501.183s-2.54,2.272-2.54,11.628,1.2,29.672,1.2,29.672l1.925,14.545a12.728,12.728,0,0,0,3.332-.33c1.2-5.48,3.163-14.75,2.228-22.5-.4-8.421,3.341-18.979,3.341-18.979s3.208,10.693,5.48,16.039,6.6,22.094,7,23.3a6.587,6.587,0,0,0,3.794-.462s-1.7-18.024-3.309-24.841-1.47-23.256-4.144-27.934C2350.693,2498.911,2338.4,2501.183,2338.4,2501.183Z" transform="translate(-2322.644 -2447.306)"/><path class="ai" d="M2338.4,2501.183s-2.54,2.272-2.54,11.628,1.2,29.672,1.2,29.672l1.925,14.545a12.735,12.735,0,0,0,3.333-.33c1.2-5.48,3.163-14.75,2.227-22.5-.4-8.421,3.342-18.979,3.342-18.979s3.208,10.693,5.48,16.039,6.6,22.095,7,23.3a6.583,6.583,0,0,0,3.794-.462s-1.7-18.024-3.309-24.84-1.47-23.256-4.143-27.934C2350.692,2498.91,2338.4,2501.183,2338.4,2501.183Z" transform="translate(-2322.643 -2447.305)"/><path class="aj" d="M2351.588,2518.325c.792,5.147,2.375,7.919,6.335,11.482,3.167,2.376.792,7.523,1.98,11.482.4,1.188,1.584,2.376,1.98,3.563,1.473,2.947.1,6.551.765,9.671a4.241,4.241,0,0,0,1.511-.433s-1.7-18.024-3.309-24.84-1.47-23.256-4.143-27.934c-6.015-2.406-18.311-.134-18.311-.134s-2.54,2.272-2.54,11.628c0,.759.008,1.591.023,2.478a9.628,9.628,0,0,0,11.354.266,1.566,1.566,0,0,1,.635-.288c.01-.03.017-.05.017-.05l.014.046C2349.413,2514.987,2351.244,2516.952,2351.588,2518.325Z" transform="translate(-2322.643 -2447.305)"/><g transform="translate(38.351 110.902)"><path class="af" d="M2660.652,3286.443s-.39,0-.358.5-.176,2.24,1.81,2.322a6.077,6.077,0,0,0,2.357-.141,16.3,16.3,0,0,0-.521-1.66l-.635-.814-1.709-.179Z" transform="translate(-2660.292 -3283.521)"/><path class="ak" d="M2665.854,3253.391a6.316,6.316,0,0,0-.513-1.61c-.35-.789-.063-1.083-.4-1.8a2.141,2.141,0,0,0-.473-.717,2.053,2.053,0,0,0-1.4-.534,1.424,1.424,0,0,0-.66.155,1.539,1.539,0,0,0-.594.627,6.95,6.95,0,0,0-.478,1.418,3.483,3.483,0,0,0-.125.483,3.528,3.528,0,0,0-.052.433,9.264,9.264,0,0,1,2.946.391,1.658,1.658,0,0,1,.635,1.351c0,.521.26.765.521.749A.855.855,0,0,0,2665.854,3253.391Z" transform="translate(-2661.091 -3248.727)"/></g><path class="ak" d="M2368.426,3281.609c.447.007.776.363,1.023,1.221s1.435,1.617.05,1.436-2.392,1.781-2.887,2.508-1.823,1.371-1.791.661.619-1.041.784-1.767S2367.406,3281.594,2368.426,3281.609Z" transform="translate(-2349.363 -3168.159)"/><path class="al" d="M2509.552,2143.692c.329-.914,2.381-6.92-.936-12.4a14.763,14.763,0,0,0-8.084-6.144c-4.079-1.2-6.123.343-7.41-1.081-2.184-2.417.29-10.648,5.075-12.3,5.393-1.858,11.864,5.288,14.485,9.982a21.645,21.645,0,0,1,2.394,13.54,21.13,21.13,0,0,1-2.611,7.308Z" transform="translate(-2466.985 -2088.686)"/><path class="am" d="M2319.609,2099.539c-4.814-.193-8.527-.116-10.624,1.979-2.215,2.214.023,4.713-.458,10.5-.736,8.865-6.385,11.031-6.81,20.025a22.963,22.963,0,0,0,.768,7,24.171,24.171,0,0,0,6.264,5.545c4.358,2.651,6.885,2.189,13.144,3.9,10.237,2.8,11.148,6.138,16.224,5.288,5.13-.859,9.631-5.177,9.088-7.547-.326-1.42-2.394-1.018-4.775-3.183-3.069-2.791-1.885-5.455-4.219-8.454-3.351-4.308-8.02-1.675-10.876-5.408-2.889-3.777-1.743-11.219.692-15.276,1.591-2.65,2.271-5.755,3.625-8.533a1.93,1.93,0,0,0,.186-1.083c-.22-1.81-3.236-2.791-5.52-3.511A27.227,27.227,0,0,0,2319.609,2099.539Z" transform="translate(-2291.126 -2077.615)"/><path class="an" d="M2480.6,2094.319l.949-.292s.248,1.285,3.3,1.446a4.564,4.564,0,0,0,2.79-.949l.648.473a4.988,4.988,0,0,1-3.687,1.733A4.542,4.542,0,0,1,2480.6,2094.319Z" transform="translate(-2456.168 -2072.594)"/><g transform="translate(25.336 12.884)"><path class="ao" d="M2493.346,2005.169a4.068,4.068,0,0,1,1.543-2.51c1.02-.811,1.227-.892,1.577-.959l.478-.072.052,0a4.759,4.759,0,0,1,1.271.452c.488.343.129,2.77-1.349,5.789q-.087.383-.174.767c1.288.226,1.607.459,1.617.644.022.4-1.388.914-2.695.948-1.639.042-3.379-.663-3.345-1.189.013-.213.323-.476,1.512-.734l.558-.784A3.584,3.584,0,0,1,2493.346,2005.169Z" transform="translate(-2492.321 -2000.238)"/><path class="ap" d="M2522.625,2039.8c.372-.222.655.256.48.674a.825.825,0,0,1-1.12.43C2521.627,2040.652,2522.125,2040.1,2522.625,2039.8Z" transform="translate(-2519.574 -2035.397)"/><path class="aq" d="M2559.956,1988.076c-4.893-5.309-16.277-3.853-22.591.411-2.934,1.981-4.44,4.322-7.907,4.518-2.635.149-6.828-.842-9.036-3.7-.278-.36-1.391-1.868-3.062-3.77a4.487,4.487,0,0,0-2.6-1.8,2.2,2.2,0,0,0-1.883.418,2.222,2.222,0,0,0-.488,2c.091.376.208.416.192.662-.047.692-1.308.994-1.238,1.342.05.249.706.158.819.471.124.343-.6.637-.906,1.5a3.621,3.621,0,0,0-1.073,2.647,11.782,11.782,0,0,0,.365,4.608c1.734,5.6,2.974,9.606,5.976,11.843,3.974,2.961,7.553.227,17.662-.205,13.843-.592,17.294,4.1,22.269.89C2562.663,2005.906,2565.036,1993.589,2559.956,1988.076Z" transform="translate(-2508.728 -1983.683)"/></g><path class="ar" d="M2169.282,1897.819a13.876,13.876,0,0,0,11.842,15.589c4.205.635,6.019-1.177,7.488.058,2.494,2.1,1.169,10.588-3.346,12.875-5.088,2.579-12.475-3.616-15.714-7.908a21.645,21.645,0,0,1-4.223-13.085,21.134,21.134,0,0,1,1.587-7.6,3.751,3.751,0,0,1,2.366.067Z" transform="translate(-2165.326 -1891.379)"/><path class="as" d="M2338.271,2411.2c-1.231-1.262.124-3.807-1.694-5.7-1.688-1.756-3.6-.337-6.315-1.848-3.484-1.938-2.524-5.486-5.853-7.393-2.394-1.372-3.518.1-7.239-.616a15.066,15.066,0,0,1-10.474-7.855,13.509,13.509,0,0,1-1.346-5.606c-1.671,2.985-3.4,5.845-3.632,10.673a22.961,22.961,0,0,0,.768,7,24.171,24.171,0,0,0,6.264,5.545c4.358,2.651,6.885,2.189,13.144,3.9,10.237,2.8,11.148,6.138,16.224,5.288a13.743,13.743,0,0,0,7.906-4.474C2341.291,2412.217,2339.164,2412.112,2338.271,2411.2Z" transform="translate(-2291.126 -2338.418)"/></g></g><g transform="translate(51.984 48.138)"><g transform="translate(0)"><path class="at" d="M1105.567,1341.836h1.126l21.8,15.456a26.159,26.159,0,0,0-5.329,16.011l-28.746-.427A48.891,48.891,0,0,1,1105.567,1341.836Z" transform="translate(-1094.417 -1321.26)"/><path class="au" d="M1300.848,1122c-5.152,1.539-9,4.682-12.536,8.355-.028.029-.043.107-.083.108a5.431,5.431,0,0,1-1.126,0l-.05-.035-22.773-15.389a55.455,55.455,0,0,1,28.549-16.584h1.126Z" transform="translate(-1251.119 -1096.733)"/><path class="av" d="M1704.6,1080.06l-6.353,21.808a34.572,34.572,0,0,0-9.072-1.906,41.73,41.73,0,0,0-9.112,1.029l-8.038-23.685a61.934,61.934,0,0,1,32.575,2.754Z" transform="translate(-1627.27 -1076.273)"/><path class="aw" d="M2063.05,1157.42l-18.261,11.763.17.625h-1.126a31.9,31.9,0,0,0-11.674-8.807l7.442-21.794a11.017,11.017,0,0,1,1.126,0c.021,0,.038.016.057.024A57.48,57.48,0,0,1,2063.05,1157.42Z" transform="translate(-1959.501 -1134.315)"/><path class="ax" d="M2232.331,1431.705l-23.126-.324a26.718,26.718,0,0,0-4.627-15.145l19.133-12.384a6.475,6.475,0,0,1,1.126,0c.191.047-.647.724-.541.889A49.384,49.384,0,0,1,2232.331,1431.705Z" transform="translate(-2118.56 -1378.455)"/></g><path class="ay" d="M1834.879,1383.031l30.626-22.09-21.75,29.762Z" transform="translate(-1777.506 -1338.885)"/><g transform="translate(52.697 42.057)"><path class="az" d="M1790.748,1626.7c0,4.091-3.572,7.377-8.023,7.339-4.5-.038-8.186-3.452-8.186-7.626s3.685-7.458,8.186-7.337C1787.176,1619.2,1790.748,1622.609,1790.748,1626.7Z" transform="translate(-1774.539 -1619.073)"/><g transform="translate(3.232 2.937)"><path class="az" d="M1821.2,1666.075a4.856,4.856,0,0,1-4.954-4.634,4.654,4.654,0,0,1,4.954-4.458,4.854,4.854,0,0,1,4.894,4.632A4.65,4.65,0,0,1,1821.2,1666.075Zm0-8.2a3.745,3.745,0,0,0-3.983,3.588,3.908,3.908,0,0,0,3.983,3.729,3.743,3.743,0,0,0,3.944-3.589A3.907,3.907,0,0,0,1821.2,1657.87Z" transform="translate(-1816.247 -1656.982)"/></g></g><g transform="translate(1.126)"><path class="ba" d="M1120.1,1342.68l22.926,15.423a26.112,26.112,0,0,0-5.329,15.995l-28.746-.4A48.573,48.573,0,0,1,1120.1,1342.68Z" transform="translate(-1108.947 -1322.038)"/><path class="bb" d="M1315.378,1121.569a30.576,30.576,0,0,0-13.745,8.476l-22.823-15.44a56.671,56.671,0,0,1,28.549-16.6Z" transform="translate(-1265.649 -1096.32)"/><path class="bc" d="M1719.13,1080.06l-7.478,21.808a33.878,33.878,0,0,0-17.139-1.086l-7.958-23.476a61.933,61.933,0,0,1,32.575,2.754Z" transform="translate(-1641.801 -1076.273)"/><path class="bd" d="M2077.58,1157.576l-19.217,12.37a31.242,31.242,0,0,0-11.674-8.8l7.442-21.789A57.417,57.417,0,0,1,2077.58,1157.576Z" transform="translate(-1974.031 -1134.47)"/><path class="be" d="M2246.862,1431.907l-23.126-.324a26.717,26.717,0,0,0-4.627-15.145l19.133-12.384A49.493,49.493,0,0,1,2246.862,1431.907Z" transform="translate(-2133.091 -1378.657)"/><path class="bf" d="M1849.409,1383.031l30.626-22.09-21.75,29.762Z" transform="translate(-1792.036 -1338.885)"/><g transform="translate(52.697 42.057)"><path class="p" d="M1805.279,1626.7c0,4.091-3.572,7.377-8.023,7.339-4.5-.038-8.186-3.452-8.186-7.626s3.685-7.458,8.186-7.337C1801.706,1619.2,1805.279,1622.609,1805.279,1626.7Z" transform="translate(-1789.07 -1619.073)"/><g transform="translate(3.232 2.937)"><path class="q" d="M1835.732,1666.075a4.856,4.856,0,0,1-4.954-4.634,4.654,4.654,0,0,1,4.954-4.458,4.853,4.853,0,0,1,4.894,4.632A4.65,4.65,0,0,1,1835.732,1666.075Zm0-8.2a3.745,3.745,0,0,0-3.983,3.588,3.908,3.908,0,0,0,3.983,3.729,3.743,3.743,0,0,0,3.944-3.589A3.907,3.907,0,0,0,1835.732,1657.87Z" transform="translate(-1830.778 -1656.982)"/></g></g></g></g></g></g></svg>