<svg xmlns="http://www.w3.org/2000/svg" xmlns:xlink="http://www.w3.org/1999/xlink" width="256.005" height="267.123" viewBox="0 0 256.005 267.123"><defs><style>.a{fill:url(#a);}.b{fill:#91b3fa;}.c{fill:url(#b);}.d{fill:url(#c);}.e{fill:url(#d);}.f{fill:url(#e);}.g,.h{fill:#fff;}.g{opacity:0.63;}.h{opacity:0.85;}.i{fill:url(#f);}.j{fill:url(#k);}.k{fill:url(#l);}.l{fill:url(#m);}.m{fill:url(#n);}.n{fill:url(#o);}.o{fill:url(#p);}.p{fill:url(#q);}.q{fill:url(#r);}.r{fill:url(#s);}.s{fill:url(#t);}.t{fill:url(#u);}.u{fill:url(#v);}.v{fill:#bdd0fb;}.w{fill:url(#w);}.x{fill:url(#x);}.y{fill:url(#y);}.z{fill:url(#z);}.aa{fill:url(#aa);}</style><linearGradient id="a" x1="1.13" y1="1.295" x2="0.236" y2="0.19" gradientUnits="objectBoundingBox"><stop offset="0" stop-color="#dae3fe"/><stop offset="1" stop-color="#e9effd"/></linearGradient><linearGradient id="b" x1="2.614" y1="-0.898" x2="-0.601" y2="1.145" gradientUnits="objectBoundingBox"><stop offset="0" stop-color="#e1473d"/><stop offset="1" stop-color="#e9605a"/></linearGradient><linearGradient id="c" x1="9.274" y1="-6.528" x2="-1.605" y2="2.168" xlink:href="#b"/><linearGradient id="d" x1="-0.312" y1="1.061" x2="2.479" y2="-1.142" gradientUnits="objectBoundingBox"><stop offset="0" stop-color="#ff928e"/><stop offset="1" stop-color="#fe7062"/></linearGradient><linearGradient id="e" x1="1.526" y1="-0.633" x2="-0.483" y2="1.586" xlink:href="#d"/><linearGradient id="f" x1="0" y1="0.5" x2="1" y2="0.5" xlink:href="#a"/><linearGradient id="k" x1="320.084" y1="-0.484" x2="317.249" y2="6.012" gradientUnits="objectBoundingBox"><stop offset="0" stop-color="#09005d"/><stop offset="1" stop-color="#1a0f91"/></linearGradient><linearGradient id="l" x1="1267.473" y1="0.5" x2="1268.473" y2="0.5" gradientUnits="objectBoundingBox"><stop offset="0" stop-color="#febbba"/><stop offset="1" stop-color="#ff928e"/></linearGradient><linearGradient id="m" x1="385.364" y1="0.031" x2="382.467" y2="0.887" xlink:href="#k"/><linearGradient id="n" x1="792.977" y1="-2.223" x2="785.96" y2="5.384" xlink:href="#k"/><linearGradient id="o" x1="1467.722" y1="0.5" x2="1468.722" y2="0.5" xlink:href="#l"/><linearGradient id="p" x1="271.546" y1="-0.035" x2="269.506" y2="0.806" xlink:href="#k"/><linearGradient id="q" x1="0.407" y1="0.325" x2="1.972" y2="-2.026" gradientUnits="objectBoundingBox"><stop offset="0" stop-color="#4f52ff"/><stop offset="1" stop-color="#4042e2"/></linearGradient><linearGradient id="r" x1="-213.433" y1="-0.492" x2="-213.088" y2="0.348" xlink:href="#l"/><linearGradient id="s" x1="-639.643" y1="0.04" x2="-638.614" y2="1.767" xlink:href="#l"/><linearGradient id="t" x1="-1545.921" y1="1.716" x2="-1547.796" y2="-0.451" xlink:href="#l"/><linearGradient id="u" x1="0.843" y1="0.152" x2="4.773" y2="-5.86" xlink:href="#q"/><linearGradient id="v" x1="196.016" y1="0.5" x2="197.016" y2="0.5" xlink:href="#l"/><linearGradient id="w" x1="629.18" y1="0.5" x2="630.18" y2="0.5" xlink:href="#l"/><linearGradient id="x" x1="495.784" y1="0.5" x2="496.784" y2="0.5" xlink:href="#l"/><linearGradient id="y" x1="-81.29" y1="157.782" x2="-81.612" y2="156.717" xlink:href="#l"/><linearGradient id="z" x1="-61.845" y1="119.609" x2="-61.64" y2="120.788" xlink:href="#k"/><linearGradient id="aa" x1="-266.145" y1="762.501" x2="-267.088" y2="757.854" xlink:href="#l"/></defs><g transform="translate(-930.995 -184.876)"><g transform="translate(-1014.044 -1526.164)"><path class="a" d="M2171.37,1941.986a92.513,92.513,0,0,1-14.161,11.922c-46.2,33.146-100.855,23.484-112.472,21.124-17.155-3.484-50.314-10.219-74.287-38.411-36.271-42.653-30.623-109.851-2.489-154.21,5.146-8.114,32.329-53.148,87.578-60.37,33.436-4.371,72.412,4.445,100.637,28.092C2215.424,1799.77,2211.206,1900.047,2171.37,1941.986Z"/><g transform="matrix(0.914, 0.407, -0.407, 0.914, 927.054, -684.487)"><path class="b" d="M2094.364,1811.55a20.708,20.708,0,1,0-20.709,20.708A20.707,20.707,0,0,0,2094.364,1811.55Zm-30.121,0a9.413,9.413,0,1,1,9.413,9.413h0a9.41,9.41,0,0,1-9.411-9.409v0Z"/><path class="b" d="M2169.973,1930.226c.119-.793.071-116.325.016-116.754a5.676,5.676,0,0,0-1.757-3.431c-.789-.732-44.586-32.287-49.771-36.068v-26.43a5.648,5.648,0,0,0-5.648-5.647H2034.5a5.647,5.647,0,0,0-5.647,5.645v26.428c-5.593,4.081-45.755,33.036-49.3,35.684a5.634,5.634,0,0,0-2.249,3.92c-.07.657-.035,116.033-.02,116.233a5.65,5.65,0,0,0,5.631,5.232c194.407,0,181.969.165,183.349-.324a5.645,5.645,0,0,0,3.707-4.487Zm-181.407-11.991V1825.3l63.217,46.136c-2.839,2.082-60.054,44.481-63.217,46.8Zm72.766-53.819-21.186-15.463v-69.135a32.753,32.753,0,0,0,26.607-26.627h13.787a32.758,32.758,0,0,0,26.607,26.627v69.139l-21.185,15.46-8.979-6.594a5.642,5.642,0,0,0-6.685,0Zm34.2,7.014,63.216-46.136v92.938c-3.163-2.324-60.378-44.719-63.216-46.805Zm59.268-57.238-36.338,26.519V1787.93c7.357,5.318,15.417,11.074,36.338,26.263Zm-47.629-61V1768.3a21.4,21.4,0,0,1-15.064-15.105Zm-67.018,0h15.066a21.405,21.405,0,0,1-15.066,15.105Zm-11.293,34.738v52.784l-36.339-26.519c20.931-15.2,28.763-20.787,36.334-26.263Zm-28.7,135.814c7.619-5.594,65.779-48.687,73.5-54.363,54.011,39.668,45.575,33.852,73.507,54.363Z"/></g><path class="c" d="M2083.641,1721.116c-11.8-.093-23.692,1.778-34.217,6.145-24.5,10.166-45.3,37.066-37.158,64.542,2.643,8.926,1.255,18.773,10.146,22.652,4.812,2.1,17.913,3.348,22.9,1.694,13.24-4.4,21.943-16.427,14.742-29.769-2.306-4.273-5.291-8.176-7.282-12.6s-2.9-9.684-.869-14.095c3.986-8.657,17.224-11.41,25.809-11.15a30.043,30.043,0,0,1,24.767,13.916c6.8,10.716,8.518,23.749,7.523,36.187-1.064,13.31-6.676,23.473-15.086,33.683-7.24,8.791-15.214,17.229-20.026,27.55-4.419,9.476-5.862,19.976-6.062,30.343-.038,2.009-10.031,20.944-9.988,26.729.006.817,11.333,3.525,12.15,3.534l20.79.232a1.658,1.658,0,0,0,1.679-1.635c.316-28.144,8.973-54.977,30.887-73.879,7.974-6.877,16.562-12.478,22.762-21.159,8.837-12.374,13.2-24.551,11.939-39.821-1.149-13.947-5.742-27.9-14.833-38.722-9.771-11.631-24.072-18.894-38.935-22.028A109.612,109.612,0,0,0,2083.641,1721.116Z"/><path class="d" d="M2105.391,1952.256c0,12.942-7.174,24.392-20.116,24.392-2.8,0-12.3.026-14.791-.873-9.022-3.259-9.054-10.19-9.054-20.337,0-12.942,4.37-25.67,17.312-25.67S2105.391,1939.314,2105.391,1952.256Z"/><path class="e" d="M2072.434,1718.167c-11.8-.093-23.691,1.777-34.217,6.145-24.5,10.166-45.3,37.065-37.158,64.542,2.643,8.926,8.755,20.161,17.647,24.04a21.744,21.744,0,0,0,15.394.306c13.24-4.4,21.943-16.428,14.742-29.769-2.306-4.273-5.29-8.176-7.282-12.6s-2.9-9.684-.868-14.095c3.985-8.658,17.223-11.41,25.808-11.15a30.043,30.043,0,0,1,24.768,13.916c6.795,10.715,8.517,23.749,7.522,36.187-1.064,13.309-6.676,23.473-15.086,33.683-7.24,8.791-15.214,17.229-20.026,27.55-4.418,9.476-5.862,19.976-6.062,30.342-.038,2.01.638,22.992.681,28.777a1.5,1.5,0,0,0,1.481,1.487l20.79.232a1.658,1.658,0,0,0,1.679-1.635c.316-28.144,8.973-54.977,30.887-73.879,7.974-6.878,16.562-12.478,22.762-21.16,8.837-12.373,13.2-24.55,11.939-39.82-1.149-13.947-5.742-27.9-14.833-38.722-9.77-11.631-24.071-18.894-38.935-22.028A109.621,109.621,0,0,0,2072.434,1718.167Z"/><circle class="f" cx="23.434" cy="23.434" r="23.434" transform="translate(2050.223 1929.056)"/><path class="g" d="M2008.816,1786.162a.3.3,0,0,1-.294-.235c-1.642-7.415-1.883-19.027,6.294-32.236,7.982-12.893,19.177-21.52,33.276-25.641,15.071-4.405,32.965-3.462,53.185,2.8a.3.3,0,0,1-.178.575c-38.846-12.037-69.307-4.018-85.772,22.579-8.07,13.038-7.836,24.483-6.218,31.79a.3.3,0,0,1-.228.358A.293.293,0,0,1,2008.816,1786.162Z"/><path class="g" d="M2013.745,1798.093a.3.3,0,0,1-.243-.124,30.149,30.149,0,0,1-3.33-6.54.3.3,0,1,1,.562-.214,30.247,30.247,0,0,0,3.254,6.4.3.3,0,0,1-.243.478Z"/><path class="g" d="M2081.5,1937.3a.285.285,0,0,1-.135-.033,16.882,16.882,0,0,0-7.706-1.835.3.3,0,0,1,0-.6,17.479,17.479,0,0,1,7.978,1.9.3.3,0,0,1-.137.569Z"/><path class="g" d="M2063.952,1967.183a.3.3,0,0,1-.168-.052,17.663,17.663,0,0,1,1.524-30.2.3.3,0,0,1,.285.53,17.061,17.061,0,0,0-1.473,29.177.3.3,0,0,1-.168.55Z"/><path class="b" d="M2113.312,1797.814l-12.737,13.029,15.279-4.081Z"/><path class="b" d="M2189.1,1803.208l-72.375,3.512a3.257,3.257,0,0,1-3.415-3.253v-29.775a5.991,5.991,0,0,1,5.8-5.988l65.229-2.018a8.8,8.8,0,0,1,8.8,8.795v24.487A4.246,4.246,0,0,1,2189.1,1803.208Z"/><path class="h" d="M2118.892,1805.524a4.473,4.473,0,0,1-4.468-4.475v-26.836a5.856,5.856,0,0,1,5.773-5.814l63.155-1.907a8.582,8.582,0,0,1,8.677,8.467v23.136a4.208,4.208,0,0,1-4.06,4.163l-68.859,3.261C2119.037,1805.523,2118.964,1805.524,2118.892,1805.524Zm64.465-38.718-63.151,1.907a5.543,5.543,0,0,0-5.468,5.5v26.836a4.162,4.162,0,0,0,4.358,4.157l68.858-3.262a3.893,3.893,0,0,0,3.762-3.849v-23.136A8.267,8.267,0,0,0,2183.357,1766.806Z"/><path class="i" d="M2183.146,1772.234l-57.872,2.166a.934.934,0,0,0-1,.839l.022.509a.93.93,0,0,0,1.049.752l57.874-2.114a.933.933,0,0,0,1-.839l-.024-.561A.929.929,0,0,0,2183.146,1772.234Z"/><path class="i" d="M2177.967,1786.885l-57.872,2.155a.942.942,0,0,0-1,.868l.023.527a.939.939,0,0,0,1.05.78l57.875-2.1a.944.944,0,0,0,1-.868l-.025-.582A.94.94,0,0,0,2177.967,1786.885Z"/><path class="i" d="M2184.728,1793.014l-64.515,2.436c-.634.024-1.133.419-1.114.881l.023.532c.02.457.541.806,1.168.783l64.517-2.381c.634-.023,1.135-.419,1.115-.881l-.025-.587C2185.877,1793.34,2185.355,1792.99,2184.728,1793.014Z"/><path class="i" d="M2151.416,1780.872l-31.542.919c-.31.01-.542.435-.516.948l.029.591c.025.508.292.91.6.9l31.545-.858c.31-.009.542-.434.517-.947l-.032-.653C2151.991,1781.266,2151.723,1780.863,2151.416,1780.872Z"/><path class="i" d="M2186.172,1779.782l-29.814.854c-.293.009-.51.433-.485.946l.03.592c.025.508.279.911.568.9l29.817-.794c.294-.007.511-.432.486-.946l-.033-.652C2186.716,1780.177,2186.462,1779.773,2186.172,1779.782Z"/><path class="j" d="M2003.419,1967.434s-.6,3.377-.889,6.721a2.3,2.3,0,0,0,2.2,2.495c4.452.186,13.975.546,17.392.394a.749.749,0,0,0,.659-1.027h0a1.676,1.676,0,0,0-.858-.9l-15.73-7.23Z"/><path class="k" d="M2002.931,1965.45l.479,4.039s2.755,1.283,4.637-.161l-1.141-4.5Z"/><path class="l" d="M2003.291,1889.5c-.207,1.054-1.111,52.643,4.4,75.761a.785.785,0,0,1-.46.913,13.655,13.655,0,0,1-4.491.913,1.351,1.351,0,0,1-1.341-.97c-1.576-5.364-9.13-32.238-10.115-57.911-1.1-28.686,0-.976,0-.976l.646-17.733Z"/><path class="m" d="M1985.324,1969.2a24.337,24.337,0,0,0-1.869,6.235,1.4,1.4,0,0,0,1.237,1.683c1.47.145,3.733.331,5.546.318a1.4,1.4,0,0,0,1.387-1.563,11.826,11.826,0,0,0-2.759-6.481Z"/><path class="n" d="M1984.49,1964l1.12,6.109a3.95,3.95,0,0,0,3.3.227l-.535-6.573Z"/><path class="o" d="M1981.465,1891.087c-4.51,27.218.978,67.272,2.829,75.112a1.221,1.221,0,0,0,.987.928,8.2,8.2,0,0,0,3.528-.141,1.12,1.12,0,0,0,.805-1.031c.248-6.338-.2-45.248,4-60.625a3.5,3.5,0,0,1,1.347-1.927l8.157-5.8.625-9.373Z"/><path class="p" d="M2010.2,1839.513c-13.516-.223-28.429,3.549-28.429,3.549-4.029,23.507-.705,50.622-.705,50.622,10.464,2.744,22.267-1.678,22.267-1.678,1.74-9.825,9.854-37.478,9.854-37.478a44.53,44.53,0,0,0,16.524-5.244,28.961,28.961,0,0,1-5.728-11.981A45.322,45.322,0,0,1,2010.2,1839.513Z"/><path class="q" d="M2050.126,1819.6a2.585,2.585,0,0,0-3.008-.845c-1.989,8.4-12.418,15.214-23.132,18.543a28.961,28.961,0,0,0,5.728,11.981C2047.495,1839.286,2050.126,1819.6,2050.126,1819.6Z"/><path class="r" d="M2049.8,1820.013c.139.441-1.47,1.114-2.417-.692-.034-.866-.56-4.575-.043-5.28a69.1,69.1,0,0,1,8.1-8.465,1.271,1.271,0,0,1,.159,1.766l-2.591,2.7a12.576,12.576,0,0,1,1.513,2.991,3.636,3.636,0,0,1-.362,2.673c-.455.819-1.076,1.884-1.663,2.718A3.584,3.584,0,0,1,2049.8,1820.013Z"/><path class="s" d="M2051.875,1811.793l-2.361,2-.742,1.993,2.106,2.335a27.163,27.163,0,0,1,1.234-4.81C2052.638,1812.457,2052.365,1812.043,2051.875,1811.793Z"/><path class="t" d="M1986.958,1856.149l-5.184-13.087s-12.625,8.578-14.7,19.453a29.873,29.873,0,0,1,10.975,2.942C1978.982,1860.321,1986.958,1856.149,1986.958,1856.149Z"/><path class="u" d="M1997.99,1868.464s-14.174,8.01-18.956,1.17a5.374,5.374,0,0,1-.986-4.177,29.873,29.873,0,0,0-10.975-2.942,15.008,15.008,0,0,0,1.632,10.29c8.377,15.325,31.161-.847,31.161-.847Z"/><path class="b" d="M1996.287,1878.6l7.736-27.015a.787.787,0,0,1,.666-.567c1.4-.164,5.463-.623,10.152-1.019a115.22,115.22,0,0,1,16.127-.536.79.79,0,0,1,.646,1.137c-2.229,4.51-11.4,22.853-15.988,28.862a.794.794,0,0,1-.638.313l-17.948-.167A.791.791,0,0,1,1996.287,1878.6Z"/><path class="v" d="M2015.644,1847.654l5.608-.934a.4.4,0,0,1,.448.523l-.555,1.683a.4.4,0,0,1-.329.272l-5.4.721a.4.4,0,0,1-.445-.49l.344-1.469A.4.4,0,0,1,2015.644,1847.654Z"/><path class="v" d="M2011.444,1852.4l.462-2.407a.556.556,0,0,1,.49-.449l11.328-1.149a.556.556,0,0,1,.6.683l-.72,3a.558.558,0,0,1-.513.426l-11.07.557A.556.556,0,0,1,2011.444,1852.4Z"/><path class="w" d="M1998.156,1872.071s-1.077-4.431-.643-6,1.277-3.593,4.084-3.144a41.028,41.028,0,0,1,6.119,1.632,1.607,1.607,0,0,1-2.3,1.387l1.323,1.023s-.189,1.64-1.991.764l1.231,1.358a1.434,1.434,0,0,1-2.1.482C2002.552,1868.707,2001.916,1872.6,1998.156,1872.071Z"/><path class="x" d="M1996.512,1828.54l-4.3,12.437a.448.448,0,0,0,.2.54,10.109,10.109,0,0,0,10.485-.706,2.106,2.106,0,0,0,.972-1.507l1.393-10.764Z"/><path class="y" d="M2005.87,1817.023s4.722,8.89,4.117,12.481-6.458,3.333-11.569.416l-3.571-9.6Z"/><path class="z" d="M1998.644,1825.207a.367.367,0,0,0,.16-.537,9.544,9.544,0,0,1-1.314-2.789s-.849-.544,2.161-1.264,7.5-1.839,8.441-4.4c.92-2.5-1.5-8.779-5.353-3.774a.365.365,0,0,1-.58,0c-.632-.822-2.294-2.53-4.6-1.495a3.464,3.464,0,0,0-2.372,3.348.365.365,0,0,1-.432.373,4.225,4.225,0,0,0-4.933,2.3c-1.007,2.214-.353,3.467.243,4.079a.365.365,0,0,1-.156.607,2.2,2.2,0,0,0-1.551,2.508c.128,2.324,2.726,2.119,3.465,2.013a.37.37,0,0,1,.326.115c.634.7,3.491,3.682,6.584,4.041a.369.369,0,0,0,.388-.488l-1.339-3.89a.369.369,0,0,1,.2-.457Z"/><path class="aa" d="M1999.182,1825.759s-3.362-2.307-3.608-.364,3.028,2.814,4.649,2.089Z"/></g></g></svg>