<svg xmlns="http://www.w3.org/2000/svg" xmlns:xlink="http://www.w3.org/1999/xlink" width="256.005" height="260" viewBox="0 0 256.005 260"><defs><style>.a{fill:url(#a);}.b{fill:url(#b);}.c{fill:url(#c);}.d{fill:url(#d);}.e{fill:url(#e);}.f,.h{fill:#fff;}.f{opacity:0.63;}.g{fill:#91b3fa;}.h{opacity:0.85;}.i{fill:url(#f);}.j{fill:url(#k);}.k{fill:url(#l);}.l{fill:url(#m);}.m{fill:url(#n);}.n{fill:url(#o);}.o{fill:url(#p);}.p{fill:url(#q);}.q{fill:url(#r);}.r{fill:url(#s);}.s{fill:url(#t);}.t{fill:url(#u);}.u{fill:url(#v);}.v{fill:#bdd0fb;}.w{fill:url(#w);}.x{fill:url(#x);}.y{fill:url(#y);}.z{fill:url(#z);}.aa{fill:url(#aa);}</style><linearGradient id="a" x1="1.13" y1="1.295" x2="0.236" y2="0.19" gradientUnits="objectBoundingBox"><stop offset="0" stop-color="#dae3fe"/><stop offset="1" stop-color="#e9effd"/></linearGradient><linearGradient id="b" x1="2.614" y1="-0.898" x2="-0.601" y2="1.145" gradientUnits="objectBoundingBox"><stop offset="0" stop-color="#e1473d"/><stop offset="1" stop-color="#e9605a"/></linearGradient><linearGradient id="c" x1="9.274" y1="-6.528" x2="-1.605" y2="2.168" xlink:href="#b"/><linearGradient id="d" x1="-0.312" y1="1.061" x2="2.479" y2="-1.142" gradientUnits="objectBoundingBox"><stop offset="0" stop-color="#ff928e"/><stop offset="1" stop-color="#fe7062"/></linearGradient><linearGradient id="e" x1="1.526" y1="-0.633" x2="-0.483" y2="1.586" xlink:href="#d"/><linearGradient id="f" x1="0" y1="0.5" x2="1" y2="0.5" xlink:href="#a"/><linearGradient id="k" x1="30.575" y1="-0.484" x2="27.74" y2="6.012" gradientUnits="objectBoundingBox"><stop offset="0" stop-color="#09005d"/><stop offset="1" stop-color="#1a0f91"/></linearGradient><linearGradient id="l" x1="117.679" y1="0.5" x2="118.679" y2="0.5" gradientUnits="objectBoundingBox"><stop offset="0" stop-color="#febbba"/><stop offset="1" stop-color="#ff928e"/></linearGradient><linearGradient id="m" x1="37.68" y1="0.031" x2="34.783" y2="0.887" xlink:href="#k"/><linearGradient id="n" x1="76.431" y1="-2.223" x2="69.414" y2="5.384" xlink:href="#k"/><linearGradient id="o" x1="136.292" y1="0.5" x2="137.292" y2="0.5" xlink:href="#l"/><linearGradient id="p" x1="26.639" y1="-0.035" x2="24.598" y2="0.806" xlink:href="#k"/><linearGradient id="q" x1="0.407" y1="0.325" x2="1.972" y2="-2.026" gradientUnits="objectBoundingBox"><stop offset="0" stop-color="#4f52ff"/><stop offset="1" stop-color="#4042e2"/></linearGradient><linearGradient id="r" x1="-15.589" y1="-0.492" x2="-15.244" y2="0.348" xlink:href="#l"/><linearGradient id="s" x1="-49.983" y1="0.04" x2="-48.954" y2="1.767" xlink:href="#l"/><linearGradient id="t" x1="-119.468" y1="1.716" x2="-121.344" y2="-0.451" xlink:href="#l"/><linearGradient id="u" x1="0.843" y1="0.152" x2="4.773" y2="-5.86" xlink:href="#q"/><linearGradient id="v" x1="18.202" y1="0.5" x2="19.202" y2="0.5" xlink:href="#l"/><linearGradient id="w" x1="58.424" y1="0.5" x2="59.424" y2="0.5" xlink:href="#l"/><linearGradient id="x" x1="46.037" y1="0.5" x2="47.037" y2="0.5" xlink:href="#l"/><linearGradient id="y" x1="-4.609" y1="12.076" x2="-4.931" y2="11.011" xlink:href="#l"/><linearGradient id="z" x1="-3.408" y1="8.144" x2="-3.203" y2="9.323" xlink:href="#k"/><linearGradient id="aa" x1="-16.246" y1="56.083" x2="-17.189" y2="51.436" xlink:href="#l"/></defs><g transform="translate(39 37.113)"><g transform="translate(-39 -37.113)"><path class="a" d="M696.814,706.158a92.566,92.566,0,0,1-14.161,11.923C636.458,751.226,581.8,741.564,570.181,739.2c-17.154-3.484-50.314-10.219-74.287-38.411-36.27-42.653-30.622-109.851-2.489-154.21,5.146-8.114,32.329-53.148,87.578-60.37,33.436-4.371,72.412,4.445,100.637,28.092C740.868,563.943,736.65,664.219,696.814,706.158Z" transform="translate(-470.484 -482.336)"/><g transform="translate(54.226)"><g transform="translate(11.207 2.949)"><path class="b" d="M1248.31,486.764c-11.794-.093-23.691,1.777-34.217,6.145-24.5,10.166-45.3,37.066-37.158,64.542,2.643,8.926,1.255,18.773,10.146,22.652,4.811,2.1,17.913,3.348,22.894,1.694,13.24-4.4,21.943-16.427,14.742-29.769-2.306-4.273-5.291-8.176-7.282-12.6s-2.9-9.684-.869-14.095c3.985-8.658,17.224-11.41,25.809-11.15a30.042,30.042,0,0,1,24.767,13.916c6.8,10.715,8.517,23.749,7.523,36.187-1.064,13.309-6.676,23.473-15.086,33.683-7.241,8.79-15.214,17.228-20.027,27.55-4.418,9.476-5.862,19.975-6.061,30.342-.039,2.009-10.031,20.945-9.988,26.73.006.817,11.333,3.525,12.151,3.534l20.79.232a1.658,1.658,0,0,0,1.678-1.635c.317-28.145,8.973-54.977,30.888-73.879,7.974-6.878,16.561-12.479,22.761-21.16,8.837-12.373,13.2-24.55,11.939-39.821-1.149-13.947-5.741-27.9-14.833-38.722-9.771-11.63-24.072-18.893-38.935-22.028A109.667,109.667,0,0,0,1248.31,486.764Z" transform="translate(-1175.141 -486.76)"/><path class="c" d="M1767.879,2756.3c0,12.942-7.174,24.392-20.116,24.392-2.8,0-12.3.026-14.791-.872-9.022-3.26-9.055-10.19-9.055-20.337,0-12.942,4.371-25.67,17.313-25.67S1767.879,2743.36,1767.879,2756.3Z" transform="translate(-1672.96 -2525.16)"/></g><path class="d" d="M1127.62,455c-11.795-.093-23.691,1.777-34.217,6.145-24.5,10.166-45.3,37.066-37.158,64.542,2.643,8.926,8.755,20.161,17.647,24.04a21.745,21.745,0,0,0,15.394.306c13.24-4.4,21.943-16.427,14.742-29.769-2.306-4.273-5.291-8.176-7.282-12.6s-2.9-9.684-.869-14.095c3.985-8.658,17.224-11.41,25.809-11.15a30.042,30.042,0,0,1,24.767,13.916c6.8,10.715,8.518,23.749,7.523,36.187-1.064,13.309-6.676,23.473-15.086,33.683-7.241,8.79-15.214,17.228-20.027,27.55-4.418,9.476-5.862,19.975-6.061,30.342-.039,2.009.638,22.992.681,28.777a1.5,1.5,0,0,0,1.482,1.487l20.79.232a1.657,1.657,0,0,0,1.678-1.635c.317-28.145,8.973-54.977,30.888-73.879,7.974-6.878,16.561-12.479,22.762-21.16,8.837-12.373,13.2-24.55,11.939-39.821-1.149-13.947-5.741-27.9-14.832-38.722-9.771-11.63-24.072-18.893-38.935-22.028A109.666,109.666,0,0,0,1127.62,455Z" transform="translate(-1054.451 -455)"/><circle class="e" cx="23.434" cy="23.434" r="23.434" transform="translate(50.958 210.892)"/><path class="f" d="M1145.488,592.976a.3.3,0,0,1-.293-.236c-1.642-7.415-1.883-19.027,6.294-32.236,7.981-12.893,19.177-21.519,33.276-25.641,15.071-4.405,32.965-3.462,53.185,2.8a.3.3,0,0,1-.178.575c-38.846-12.037-69.307-4.018-85.772,22.58-8.071,13.037-7.836,24.483-6.218,31.789a.3.3,0,0,1-.229.359A.3.3,0,0,1,1145.488,592.976Z" transform="translate(-1135.937 -524.977)"/><path class="f" d="M1175.287,1246.691a.3.3,0,0,1-.243-.123,30.172,30.172,0,0,1-3.33-6.54.3.3,0,0,1,.562-.215,30.2,30.2,0,0,0,3.254,6.4.3.3,0,0,1-.243.478Z" transform="translate(-1160.807 -1166.762)"/><path class="f" d="M1860.494,2790.813a.3.3,0,0,1-.136-.032,16.876,16.876,0,0,0-7.705-1.835.3.3,0,0,1,0-.6,17.472,17.472,0,0,1,7.977,1.9.3.3,0,0,1-.136.569Z" transform="translate(-1778.261 -2571.676)"/><path class="f" d="M1673.382,2840.8a.3.3,0,0,1-.168-.052,17.663,17.663,0,0,1,1.524-30.205.3.3,0,0,1,.285.53,17.061,17.061,0,0,0-1.473,29.177.3.3,0,0,1-.168.55Z" transform="translate(-1608.695 -2591.784)"/></g><g transform="translate(155.536 47.522)"><path class="g" d="M2158.222,1312.776l-12.737,13.029,15.279-4.081Z" transform="translate(-2145.484 -1280.648)"/><path class="g" d="M2358.443,1004.3l-72.375,3.512a3.257,3.257,0,0,1-3.415-3.253V974.78a5.99,5.99,0,0,1,5.805-5.987l65.228-2.018a8.8,8.8,0,0,1,8.8,8.8v24.487A4.245,4.245,0,0,1,2358.443,1004.3Z" transform="translate(-2269.917 -966.774)"/><path class="h" d="M2299.093,1014.488a4.475,4.475,0,0,1-4.468-4.475V983.176a5.856,5.856,0,0,1,5.773-5.814l63.156-1.907a8.583,8.583,0,0,1,8.677,8.467v23.137a4.208,4.208,0,0,1-4.061,4.162l-68.859,3.261C2299.239,1014.486,2299.166,1014.488,2299.093,1014.488Zm64.465-38.719-63.151,1.907a5.544,5.544,0,0,0-5.468,5.5v26.836a4.161,4.161,0,0,0,4.358,4.156l68.858-3.261a3.894,3.894,0,0,0,3.761-3.849V983.922A8.267,8.267,0,0,0,2363.558,975.769Z" transform="translate(-2280.776 -974.649)"/><path class="i" d="M2459.6,1037.286l-57.872,2.166a.934.934,0,0,0-1,.839l.022.509a.93.93,0,0,0,1.049.752l57.874-2.113a.935.935,0,0,0,1-.839l-.024-.561A.93.93,0,0,0,2459.6,1037.286Z" transform="translate(-2377.03 -1030.738)"/><path class="i" d="M2403.835,1195.068l-57.873,2.155a.943.943,0,0,0-1,.868l.023.527a.939.939,0,0,0,1.05.78l57.875-2.1a.943.943,0,0,0,1-.868l-.025-.581A.939.939,0,0,0,2403.835,1195.068Z" transform="translate(-2326.443 -1173.869)"/><path class="i" d="M2410.6,1261.07l-64.515,2.436c-.634.024-1.134.419-1.114.881l.023.532c.019.457.541.806,1.167.783l64.517-2.381c.634-.023,1.135-.419,1.115-.881l-.025-.587C2411.749,1261.4,2411.227,1261.046,2410.6,1261.07Z" transform="translate(-2326.447 -1233.741)"/><path class="i" d="M2379.8,1130.318l-31.542.919c-.31.009-.542.434-.516.947l.029.592c.025.508.292.91.6.9l31.546-.858c.31-.008.542-.434.517-.947l-.032-.653C2380.372,1130.711,2380.1,1130.309,2379.8,1130.318Z" transform="translate(-2328.956 -1115.131)"/><path class="i" d="M2771.28,1118.577l-29.814.855c-.293.008-.51.433-.485.946l.03.591c.025.508.279.911.569.9l29.817-.794c.293-.008.511-.433.486-.946l-.032-.652C2771.824,1118.972,2771.57,1118.568,2771.28,1118.577Z" transform="translate(-2685.683 -1104.481)"/></g><g transform="translate(21.746 87.412)"><path class="j" d="M1090.419,3139.451s-.6,3.377-.889,6.72a2.3,2.3,0,0,0,2.2,2.5c4.452.186,13.975.546,17.392.394a.749.749,0,0,0,.659-1.027h0a1.68,1.68,0,0,0-.858-.9l-15.73-7.23Z" transform="translate(-1053.785 -2977.593)"/><path class="k" d="M1093.928,3111.986l.479,4.04s2.756,1.283,4.637-.162l-1.141-4.5Z" transform="translate(-1057.783 -2952.112)"/><path class="l" d="M975.759,2300.176c-.207,1.055-1.111,52.644,4.4,75.762a.785.785,0,0,1-.46.913,13.663,13.663,0,0,1-4.491.913,1.351,1.351,0,0,1-1.341-.97c-1.576-5.364-9.13-32.238-10.115-57.911-1.1-28.686,0-.977,0-.977l.646-17.732Z" transform="translate(-939.254 -2216.249)"/><path class="m" d="M885.781,3158.424a24.307,24.307,0,0,0-1.869,6.236,1.406,1.406,0,0,0,1.237,1.683c1.47.145,3.733.33,5.546.318a1.4,1.4,0,0,0,1.387-1.563,11.818,11.818,0,0,0-2.759-6.481Z" transform="translate(-867.242 -2994.804)"/><path class="n" d="M895.337,3100.15l1.12,6.109a3.95,3.95,0,0,0,3.3.227l-.535-6.573Z" transform="translate(-877.632 -2941.726)"/><path class="o" d="M845.794,2289.353c-4.51,27.219.978,67.273,2.829,75.112a1.222,1.222,0,0,0,.987.928,8.2,8.2,0,0,0,3.528-.141,1.121,1.121,0,0,0,.805-1.032c.248-6.338-.2-45.248,4-60.625a3.491,3.491,0,0,1,1.347-1.927l8.156-5.8.625-9.373Z" transform="translate(-831.115 -2203.843)"/><g transform="translate(12.995 13.005)"><path class="p" d="M875.042,1740.252c-13.516-.223-28.429,3.549-28.429,3.549-4.029,23.508-.7,50.622-.7,50.622,10.464,2.744,22.267-1.678,22.267-1.678,1.739-9.826,9.853-37.478,9.853-37.478a44.52,44.52,0,0,0,16.524-5.244,28.977,28.977,0,0,1-5.728-11.981A45.351,45.351,0,0,1,875.042,1740.252Z" transform="translate(-844.619 -1719.319)"/><path class="q" d="M1346.815,1537.436a2.586,2.586,0,0,0-3.008-.845c-1.989,8.4-12.418,15.214-23.132,18.543a28.98,28.98,0,0,0,5.728,11.981C1344.184,1557.118,1346.815,1537.436,1346.815,1537.436Z" transform="translate(-1276.47 -1536.412)"/></g><g transform="translate(80.332)"><path class="r" d="M1572.476,1410.8c.139.442-1.47,1.114-2.417-.692-.033-.866-.56-4.575-.042-5.28a69.064,69.064,0,0,1,8.1-8.465,1.271,1.271,0,0,1,.159,1.766l-2.591,2.7a12.535,12.535,0,0,1,1.513,2.991,3.632,3.632,0,0,1-.362,2.672c-.455.819-1.075,1.885-1.662,2.718A3.585,3.585,0,0,1,1572.476,1410.8Z" transform="translate(-1569.791 -1396.363)"/><path class="s" d="M1590.713,1463.313l-2.361,2-.741,1.993,2.105,2.336a27.159,27.159,0,0,1,1.234-4.81C1591.476,1463.977,1591.2,1463.563,1590.713,1463.313Z" transform="translate(-1585.955 -1457.096)"/></g><path class="t" d="M727.657,1813.142l-5.184-13.087s-12.624,8.578-14.7,19.453a29.88,29.88,0,0,1,10.975,2.942C719.68,1817.314,727.657,1813.142,727.657,1813.142Z" transform="translate(-707.484 -1762.569)"/><path class="u" d="M735.877,2015.5s-14.174,8.01-18.957,1.171a5.376,5.376,0,0,1-.986-4.177,29.881,29.881,0,0,0-10.975-2.942,15.011,15.011,0,0,0,1.632,10.29c8.377,15.324,31.161-.847,31.161-.847Z" transform="translate(-704.672 -1952.614)"/><g transform="translate(29.471 41.138)"><path class="g" d="M1022.082,1896.909l7.736-27.015a.787.787,0,0,1,.666-.567c1.4-.164,5.463-.623,10.152-1.019a115.193,115.193,0,0,1,16.127-.535.79.79,0,0,1,.646,1.137c-2.229,4.509-11.4,22.852-15.988,28.861a.793.793,0,0,1-.638.313l-17.948-.167A.791.791,0,0,1,1022.082,1896.909Z" transform="translate(-1022.051 -1865.025)"/><path class="v" d="M1224.19,1840.329l5.609-.935a.4.4,0,0,1,.448.523l-.555,1.682a.4.4,0,0,1-.329.273l-5.4.721a.4.4,0,0,1-.445-.491l.344-1.469A.4.4,0,0,1,1224.19,1840.329Z" transform="translate(-1204.803 -1839.389)"/><path class="v" d="M1185.512,1861.5l.462-2.407a.556.556,0,0,1,.49-.448l11.328-1.149a.556.556,0,0,1,.6.683l-.72,3a.556.556,0,0,1-.513.426l-11.07.557A.556.556,0,0,1,1185.512,1861.5Z" transform="translate(-1170.324 -1855.808)"/><path class="w" d="M1035.222,2022.48s-1.078-4.431-.643-6,1.277-3.593,4.084-3.144a41.081,41.081,0,0,1,6.119,1.632,1.607,1.607,0,0,1-2.3,1.387l1.323,1.024s-.189,1.639-1.991.764l1.231,1.358a1.434,1.434,0,0,1-2.1.483C1039.618,2019.116,1038.982,2023.013,1035.222,2022.48Z" transform="translate(-1033.322 -1997.123)"/></g><path class="x" d="M982.552,1643.669l-4.3,12.437a.448.448,0,0,0,.2.54,10.109,10.109,0,0,0,10.485-.706,2.11,2.11,0,0,0,.972-1.507l1.392-10.764Z" transform="translate(-952.825 -1620.705)"/><g transform="translate(21.565 4.984)"><path class="y" d="M1017.893,1519.642s4.722,8.889,4.117,12.48-6.458,3.333-11.569.417l-3.571-9.6Z" transform="translate(-1000.374 -1513.178)"/><path class="z" d="M947.2,1464.682a.366.366,0,0,0,.16-.536,9.56,9.56,0,0,1-1.314-2.79s-.849-.544,2.161-1.264,7.5-1.839,8.441-4.4c.92-2.5-1.5-8.779-5.352-3.774a.366.366,0,0,1-.581,0c-.632-.823-2.294-2.53-4.6-1.5a3.465,3.465,0,0,0-2.372,3.348.364.364,0,0,1-.432.373,4.225,4.225,0,0,0-4.934,2.3c-1.007,2.213-.353,3.466.244,4.079a.365.365,0,0,1-.156.606,2.2,2.2,0,0,0-1.551,2.509c.128,2.324,2.726,2.119,3.466,2.013a.367.367,0,0,1,.325.115c.634.7,3.491,3.682,6.584,4.041a.369.369,0,0,0,.388-.488l-1.338-3.891a.368.368,0,0,1,.2-.456Z" transform="translate(-936.911 -1450.036)"/><path class="aa" d="M1018.181,1602.555s-3.362-2.307-3.608-.364,3.028,2.814,4.649,2.09Z" transform="translate(-1007.35 -1587.356)"/></g></g></g></g></svg>