<svg xmlns="http://www.w3.org/2000/svg" xmlns:xlink="http://www.w3.org/1999/xlink" width="256.004" height="260" viewBox="0 0 256.004 260"><defs><style>.a{fill:url(#a);}.b{fill:#91b3fa;}.c{fill:url(#b);}.d{fill:url(#c);}.e{fill:url(#d);}.f{fill:url(#e);}.g,.h{fill:#fff;}.g{opacity:0.63;}.h{opacity:0.85;}.i{fill:url(#f);}.j{fill:url(#h);}.k{fill:url(#j);}.l{fill:url(#k);}.m{fill:url(#l);}.n{fill:url(#m);}.o{fill:url(#n);}.p{fill:url(#o);}.q{fill:url(#p);}.r{fill:url(#q);}.s{fill:url(#r);}.t{fill:url(#s);}.u{fill:url(#t);}.v{fill:url(#u);}.w{fill:url(#v);}.x{fill:#bdd0fb;}.y{fill:url(#w);}.z{fill:url(#x);}.aa{fill:url(#y);}.ab{fill:url(#z);}.ac{fill:url(#aa);}</style><linearGradient id="a" x1="1.13" y1="1.295" x2="0.236" y2="0.19" gradientUnits="objectBoundingBox"><stop offset="0" stop-color="#dae3fe"/><stop offset="1" stop-color="#e9effd"/></linearGradient><linearGradient id="b" x1="2.614" y1="-0.898" x2="-0.601" y2="1.145" gradientUnits="objectBoundingBox"><stop offset="0" stop-color="#e1473d"/><stop offset="1" stop-color="#e9605a"/></linearGradient><linearGradient id="c" x1="9.274" y1="-6.528" x2="-1.605" y2="2.168" xlink:href="#b"/><linearGradient id="d" x1="-0.312" y1="1.061" x2="2.479" y2="-1.142" gradientUnits="objectBoundingBox"><stop offset="0" stop-color="#ff928e"/><stop offset="1" stop-color="#fe7062"/></linearGradient><linearGradient id="e" x1="1.526" y1="-0.633" x2="-0.483" y2="1.586" xlink:href="#d"/><linearGradient id="f" x1="0" y1="0.5" x2="1" y2="0.5" xlink:href="#a"/><linearGradient id="h" x1="0" y1="0.5" x2="1" y2="0.5" xlink:href="#a"/><linearGradient id="j" x1="0" y1="0.5" x2="1" y2="0.5" xlink:href="#a"/><linearGradient id="k" x1="320.089" y1="-0.484" x2="317.254" y2="6.012" gradientUnits="objectBoundingBox"><stop offset="0" stop-color="#09005d"/><stop offset="1" stop-color="#1a0f91"/></linearGradient><linearGradient id="l" x1="1267.201" y1="0.5" x2="1268.201" y2="0.5" gradientUnits="objectBoundingBox"><stop offset="0" stop-color="#febbba"/><stop offset="1" stop-color="#ff928e"/></linearGradient><linearGradient id="m" x1="385.361" y1="0.031" x2="382.464" y2="0.887" xlink:href="#k"/><linearGradient id="n" x1="792.989" y1="-2.223" x2="785.971" y2="5.384" xlink:href="#k"/><linearGradient id="o" x1="1467.722" y1="0.5" x2="1468.722" y2="0.5" xlink:href="#l"/><linearGradient id="p" x1="271.546" y1="-0.035" x2="269.506" y2="0.806" xlink:href="#k"/><linearGradient id="q" x1="0.407" y1="0.325" x2="1.972" y2="-2.026" gradientUnits="objectBoundingBox"><stop offset="0" stop-color="#4f52ff"/><stop offset="1" stop-color="#4042e2"/></linearGradient><linearGradient id="r" x1="-183.742" y1="-0.492" x2="-183.397" y2="0.348" xlink:href="#l"/><linearGradient id="s" x1="-551.19" y1="0.04" x2="-550.16" y2="1.767" xlink:href="#l"/><linearGradient id="t" x1="-1332.207" y1="1.716" x2="-1334.083" y2="-0.451" xlink:href="#l"/><linearGradient id="u" x1="0.843" y1="0.152" x2="4.773" y2="-5.86" xlink:href="#q"/><linearGradient id="v" x1="196.021" y1="0.5" x2="197.021" y2="0.5" xlink:href="#l"/><linearGradient id="w" x1="629.218" y1="0.5" x2="630.218" y2="0.5" xlink:href="#l"/><linearGradient id="x" x1="495.789" y1="0.5" x2="496.789" y2="0.5" xlink:href="#l"/><linearGradient id="y" x1="-75.152" y1="140.576" x2="-75.474" y2="139.511" xlink:href="#l"/><linearGradient id="z" x1="-57.167" y1="106.44" x2="-56.962" y2="107.619" xlink:href="#k"/><linearGradient id="aa" x1="-246.143" y1="678.912" x2="-247.086" y2="674.266" xlink:href="#l"/></defs><g transform="translate(-1556.98 -1726.121)"><path class="a" d="M1783.31,1949.942a92.592,92.592,0,0,1-14.161,11.923c-46.194,33.145-100.855,23.483-112.472,21.124-17.154-3.484-50.314-10.219-74.287-38.412-36.27-42.652-30.622-109.851-2.489-154.209,5.146-8.114,32.329-53.148,87.578-60.37,33.437-4.371,72.412,4.444,100.638,28.091C1827.364,1807.727,1823.146,1908,1783.31,1949.942Z"/><path class="b" d="M1685.177,1809.5a52.345,52.345,0,1,0,52.345,52.345h0A52.347,52.347,0,0,0,1685.177,1809.5Zm-22.574,12.544a118.936,118.936,0,0,0-4.659,17.188,106.984,106.984,0,0,0-15.094,5.154,46.053,46.053,0,0,1,19.759-22.345Zm-22.322,30.752a100.549,100.549,0,0,1,16.535-6.461,119.665,119.665,0,0,0-.959,12.242h-16.316a45.4,45.4,0,0,1,.743-5.8Zm-.74,12.33h16.313a119.966,119.966,0,0,0,.965,12.258,100.663,100.663,0,0,1-16.535-6.461,45.534,45.534,0,0,1-.743-5.806Zm3.312,14.191a107.442,107.442,0,0,0,15.1,5.154,118.638,118.638,0,0,0,4.655,17.188,46.061,46.061,0,0,1-19.751-22.35Zm39.053,28.173a45.555,45.555,0,0,1-10.859-2.087,112.139,112.139,0,0,1-6.093-19.339,108.183,108.183,0,0,0,16.951,1.845Zm0-26.127a101.354,101.354,0,0,1-18.266-2.257,113.044,113.044,0,0,1-1.239-13.979h19.506Zm0-22.779H1662.4a113.044,113.044,0,0,1,1.239-13.979,101.266,101.266,0,0,1,18.266-2.257Zm0-22.779a107.814,107.814,0,0,0-16.951,1.841,112.13,112.13,0,0,1,6.093-19.338,45.558,45.558,0,0,1,10.859-2.089Zm48.907,22.779H1714.5a120.7,120.7,0,0,0-.981-12.265,100.56,100.56,0,0,1,16.558,6.468,45.055,45.055,0,0,1,.736,5.787ZM1727.5,1844.4a106.868,106.868,0,0,0-15.144-5.166,118.648,118.648,0,0,0-4.734-17.261,46.064,46.064,0,0,1,19.878,22.417Zm-39.053-28.176a45.369,45.369,0,0,1,10.71,2.037,111.669,111.669,0,0,1,6.2,19.392,107.61,107.61,0,0,0-16.907-1.842Zm0,26.128a100.791,100.791,0,0,1,18.24,2.251,113.322,113.322,0,0,1,1.268,13.982h-19.512Zm10.907,63.04a45.5,45.5,0,0,1-10.907,2.107V1887.9a107.728,107.728,0,0,0,16.982-1.852,111.86,111.86,0,0,1-6.076,19.327Zm-10.907-24.021v-16.236h19.521a112.154,112.154,0,0,1-1.23,13.973,100.834,100.834,0,0,1-18.293,2.25Zm19.351,20.263a118.335,118.335,0,0,0,4.643-17.165,107.258,107.258,0,0,0,15.049-5.147,46.029,46.029,0,0,1-19.693,22.305Zm22.27-30.7a100.777,100.777,0,0,1-16.505,6.455,119.015,119.015,0,0,0,.945-12.252h16.3a45.227,45.227,0,0,1-.743,5.786Z"/><path class="b" d="M1724.873,1951.627c2.044-.9,4.1-1.9,6.089-2.944l-3.055-5.789c-1.861.983-3.772,1.907-5.682,2.755Z"/><path class="b" d="M1704.234,1951.467c-2.052.429-4.143.8-6.219,1.09l.907,6.477c2.221-.312,4.462-.7,6.66-1.164Z"/><path class="b" d="M1679.109,1953.251c-2.094-.137-4.208-.346-6.285-.625l-.871,6.485c2.226.3,4.489.527,6.727.674Z"/><path class="b" d="M1595.771,1821.279l5.962,2.71c.865-1.916,1.812-3.818,2.807-5.66l-5.756-3.109C1597.718,1817.2,1596.707,1819.243,1595.771,1821.279Z"/><path class="b" d="M1652.252,1954.336l2.2-6.165c-1.963-.7-3.925-1.48-5.888-2.328l-2.618,6C1648.028,1952.747,1650.149,1953.584,1652.252,1954.336Z"/><path class="b" d="M1594.809,1900.2l6.025-2.559c-.826-1.936-1.588-3.925-2.266-5.888l-6.182,2.133C1593.111,1896,1593.926,1898.126,1594.809,1900.2Z"/><path class="b" d="M1587.8,1874.162l6.49-.812c-.257-2.076-.447-4.192-.565-6.288l-6.54.362C1587.311,1869.676,1587.517,1871.939,1587.8,1874.162Z"/><path class="b" d="M1588.119,1847.183l6.472.981c.31-2.067.7-4.159,1.151-6.218l-6.39-1.424C1588.869,1842.723,1588.456,1844.965,1588.119,1847.183Z"/><path class="b" d="M1639.375,1933.82a26.172,26.172,0,1,0-26.172,26.173,26.173,26.173,0,0,0,26.172-26.173Zm-26.172,19.63a19.629,19.629,0,1,1,19.629-19.63A19.63,19.63,0,0,1,1613.2,1953.45Z"/><path class="b" d="M1783.325,1789.877a26.16,26.16,0,0,0-48.926-12.887,98.015,98.015,0,0,0-120.291,17.174q-2.007,2.106-3.893,4.333l5,4.224q1.757-2.077,3.631-4.043l-2.372-2.257,2.369,2.252A91.491,91.491,0,0,1,1731.9,1783.1a26.083,26.083,0,0,0,32.025,32.025,91.485,91.485,0,0,1-15.571,113.054c-1.518,1.451-3.109,2.859-4.717,4.2l4.181,5.045c1.724-1.434,3.424-2.944,5.054-4.5a98.013,98.013,0,0,0,17.169-120.291A26.174,26.174,0,0,0,1783.325,1789.877Zm-26.173,19.62a19.629,19.629,0,1,1,19.629-19.629h0A19.63,19.63,0,0,1,1757.152,1809.5Z"/><path class="b" d="M1615.182,1927.278h1.291a3.272,3.272,0,0,0,0-6.54h-1.291a13.086,13.086,0,1,0,0,26.173h1.291a3.272,3.272,0,0,0,0-6.54h-1.291a6.543,6.543,0,0,1-5.445-2.915c-.071-.108-.1-.242-.166-.356h6.9a3.272,3.272,0,0,0,0-6.54h-6.9c.066-.115.095-.247.166-.357A6.542,6.542,0,0,1,1615.182,1927.278Z"/><path class="b" d="M1762.234,1788.754l-7.235-3.6a2.024,2.024,0,0,1,0-3.619,4.846,4.846,0,0,1,4.31,0l2.928,1.465a3.273,3.273,0,0,0,2.925-5.856l-2.946-1.461a11.406,11.406,0,0,0-10.14,0,8.567,8.567,0,0,0,0,15.324l7.233,3.6a2.024,2.024,0,0,1,0,3.619,4.859,4.859,0,0,1-4.31,0l-2.928-1.467a3.273,3.273,0,0,0-2.923,5.856l2.944,1.461a11.423,11.423,0,0,0,10.142,0,8.567,8.567,0,0,0,0-15.322Z"/><path class="c" d="M1695.581,1729.073c-11.794-.093-23.691,1.777-34.217,6.144-24.5,10.166-45.3,37.066-37.158,64.543,2.644,8.925,1.255,18.772,10.147,22.651,4.811,2.1,17.913,3.348,22.894,1.694,13.24-4.4,21.943-16.427,14.742-29.769-2.306-4.272-5.29-8.176-7.282-12.6s-2.9-9.684-.868-14.094c3.985-8.658,17.223-11.41,25.808-11.15a30.041,30.041,0,0,1,24.768,13.916c6.8,10.715,8.517,23.749,7.523,36.187-1.065,13.309-6.676,23.473-15.086,33.683-7.241,8.79-15.215,17.228-20.027,27.55-4.418,9.476-5.862,19.975-6.061,30.342-.039,2.009-10.032,20.945-9.989,26.73.006.817,11.333,3.524,12.151,3.533l20.79.233a1.658,1.658,0,0,0,1.678-1.635c.316-28.145,8.973-54.977,30.888-73.879,7.973-6.878,16.561-12.479,22.761-21.16,8.838-12.373,13.2-24.55,11.939-39.821-1.149-13.946-5.741-27.9-14.832-38.722-9.771-11.63-24.072-18.893-38.935-22.027A109.64,109.64,0,0,0,1695.581,1729.073Z"/><path class="d" d="M1717.331,1960.212c0,12.942-7.174,24.392-20.116,24.392-2.795,0-12.3.026-14.79-.872-9.023-3.26-9.055-10.191-9.055-20.337,0-12.942,4.37-25.67,17.312-25.67S1717.331,1947.27,1717.331,1960.212Z"/><path class="e" d="M1684.374,1726.124c-11.794-.093-23.691,1.777-34.217,6.144-24.5,10.166-45.295,37.066-37.158,64.542,2.644,8.926,8.756,20.161,17.648,24.04a21.742,21.742,0,0,0,15.393.306c13.241-4.4,21.943-16.427,14.743-29.769-2.306-4.273-5.291-8.176-7.282-12.6s-2.9-9.684-.869-14.094c3.985-8.658,17.224-11.41,25.809-11.151a30.044,30.044,0,0,1,24.767,13.917c6.8,10.715,8.517,23.748,7.523,36.187-1.064,13.309-6.676,23.473-15.086,33.683-7.241,8.79-15.215,17.228-20.027,27.55-4.418,9.476-5.862,19.975-6.061,30.342-.039,2.009.637,22.992.68,28.777a1.5,1.5,0,0,0,1.482,1.486l20.79.233a1.658,1.658,0,0,0,1.678-1.635c.316-28.145,8.973-54.977,30.888-73.879,7.974-6.878,16.561-12.479,22.761-21.16,8.838-12.373,13.2-24.55,11.939-39.821-1.149-13.947-5.741-27.9-14.832-38.722-9.771-11.63-24.072-18.893-38.935-22.028A109.705,109.705,0,0,0,1684.374,1726.124Z"/><circle class="f" cx="23.434" cy="23.434" r="23.434" transform="translate(1662.163 1937.012)"/><path class="g" d="M1620.756,1794.119a.3.3,0,0,1-.293-.236c-1.643-7.415-1.884-19.027,6.294-32.236,7.981-12.893,19.176-21.519,33.275-25.641,15.072-4.405,32.965-3.462,53.185,2.8a.3.3,0,1,1-.177.574c-38.847-12.037-69.307-4.018-85.772,22.58-8.071,13.037-7.836,24.483-6.218,31.789a.3.3,0,0,1-.294.366Z"/><path class="g" d="M1625.685,1806.049a.3.3,0,0,1-.243-.123,30.173,30.173,0,0,1-3.33-6.54.3.3,0,0,1,.562-.215,30.2,30.2,0,0,0,3.254,6.4.3.3,0,0,1-.066.42A.3.3,0,0,1,1625.685,1806.049Z"/><path class="g" d="M1693.438,1945.258a.3.3,0,0,1-.136-.033,16.876,16.876,0,0,0-7.7-1.836.3.3,0,1,1,0-.6,17.46,17.46,0,0,1,7.977,1.9.3.3,0,0,1-.136.569Z"/><path class="g" d="M1675.892,1975.139a.3.3,0,0,1-.168-.051,17.664,17.664,0,0,1,1.524-30.206.3.3,0,0,1,.285.53,17.061,17.061,0,0,0-1.473,29.177.3.3,0,0,1-.168.55Z"/><path class="b" d="M1725.253,1805.771l-12.737,13.029,15.279-4.081Z"/><path class="b" d="M1801.042,1811.164l-72.374,3.513a3.257,3.257,0,0,1-3.415-3.254v-29.775a5.99,5.99,0,0,1,5.8-5.987l65.228-2.019a8.8,8.8,0,0,1,8.8,8.8v24.487A4.244,4.244,0,0,1,1801.042,1811.164Z"/><path class="h" d="M1730.832,1813.481a4.476,4.476,0,0,1-4.468-4.475V1782.17a5.857,5.857,0,0,1,5.773-5.815l63.156-1.907a8.583,8.583,0,0,1,8.677,8.467v23.137a4.207,4.207,0,0,1-4.061,4.162l-68.858,3.262C1730.978,1813.479,1730.905,1813.481,1730.832,1813.481Zm64.465-38.719-63.151,1.907a5.545,5.545,0,0,0-5.468,5.5v26.836a4.16,4.16,0,0,0,4.358,4.156l68.859-3.261a3.9,3.9,0,0,0,3.761-3.849v-23.137A8.268,8.268,0,0,0,1795.3,1774.762Z"/><path class="i" d="M1795.086,1780.191l-57.872,2.166a.934.934,0,0,0-1,.839l.022.508a.93.93,0,0,0,1.05.752l57.874-2.113a.935.935,0,0,0,1-.839l-.024-.562A.93.93,0,0,0,1795.086,1780.191Z"/><path class="i" d="M1789.907,1794.842,1732.035,1797a.943.943,0,0,0-1,.867l.023.527a.938.938,0,0,0,1.051.78l57.874-2.1a.943.943,0,0,0,1-.868l-.025-.581A.939.939,0,0,0,1789.907,1794.842Z"/><path class="j" d="M1796.668,1800.971l-64.515,2.435c-.633.024-1.133.42-1.113.881l.022.532c.02.457.541.807,1.168.784l64.518-2.381c.634-.024,1.134-.419,1.114-.881l-.025-.587C1797.818,1801.3,1797.3,1800.947,1796.668,1800.971Z"/><path class="i" d="M1763.357,1788.828l-31.543.92c-.31.009-.541.434-.516.947l.029.592c.025.507.293.91.6.9l31.546-.859c.31-.008.542-.434.516-.947l-.032-.653C1763.931,1789.222,1763.663,1788.82,1763.357,1788.828Z"/><path class="k" d="M1798.112,1787.738l-29.814.855c-.293.008-.51.433-.485.946l.03.591c.025.508.279.911.569.9l29.817-.793c.293-.008.511-.433.485-.946l-.032-.653C1798.657,1788.133,1798.4,1787.73,1798.112,1787.738Z"/><path class="l" d="M1615.36,1975.391s-.6,3.377-.889,6.72a2.3,2.3,0,0,0,2.2,2.5c4.452.185,13.975.546,17.392.393a.75.75,0,0,0,.66-1.027h0a1.678,1.678,0,0,0-.858-.9l-15.731-7.23Z"/><path class="m" d="M1614.871,1973.406l.479,4.04s2.756,1.283,4.638-.162l-1.142-4.5Z"/><path class="n" d="M1615.231,1897.46c-.207,1.055-1.111,52.643,4.4,75.762a.785.785,0,0,1-.46.913,13.664,13.664,0,0,1-4.491.912,1.352,1.352,0,0,1-1.341-.97c-1.576-5.364-9.129-32.238-10.115-57.91-1.1-28.687,0-.977,0-.977l.646-17.732Z"/><path class="o" d="M1597.264,1977.153a24.333,24.333,0,0,0-1.869,6.235,1.406,1.406,0,0,0,1.237,1.683c1.47.144,3.733.33,5.546.318a1.4,1.4,0,0,0,1.387-1.563,11.817,11.817,0,0,0-2.759-6.482Z"/><path class="p" d="M1596.43,1971.957l1.12,6.109a3.953,3.953,0,0,0,3.3.226l-.534-6.573Z"/><path class="q" d="M1593.405,1899.043c-4.51,27.219.978,67.273,2.829,75.112a1.225,1.225,0,0,0,.987.929,8.219,8.219,0,0,0,3.528-.141,1.119,1.119,0,0,0,.8-1.032c.249-6.338-.2-45.247,4-60.625a3.5,3.5,0,0,1,1.347-1.927l8.157-5.8.625-9.373Z"/><path class="r" d="M1622.143,1847.469c-13.516-.223-28.429,3.549-28.429,3.549-4.029,23.508-.7,50.622-.7,50.622,10.463,2.744,22.267-1.677,22.267-1.677,1.739-9.826,9.853-37.479,9.853-37.479a44.51,44.51,0,0,0,16.524-5.243,28.989,28.989,0,0,1-5.728-11.981A45.349,45.349,0,0,1,1622.143,1847.469Z"/><path class="s" d="M1662.066,1827.561a2.587,2.587,0,0,0-3.008-.845c-1.989,8.4-12.418,15.214-23.132,18.544a28.989,28.989,0,0,0,5.728,11.981C1659.435,1847.243,1662.066,1827.561,1662.066,1827.561Z"/><path class="t" d="M1661.744,1827.969c.139.442-1.47,1.114-2.417-.692-.033-.866-.56-4.574-.042-5.28a69.07,69.07,0,0,1,8.1-8.464,1.27,1.27,0,0,1,.159,1.765l-2.591,2.7a12.537,12.537,0,0,1,1.513,2.991,3.629,3.629,0,0,1-.362,2.672c-.455.82-1.076,1.885-1.662,2.719A3.587,3.587,0,0,1,1661.744,1827.969Z"/><path class="u" d="M1663.816,1819.749l-2.362,2-.741,1.993,2.1,2.336a27.177,27.177,0,0,1,1.234-4.811C1664.578,1820.413,1664.305,1820,1663.816,1819.749Z"/><path class="v" d="M1598.9,1864.1l-5.184-13.087s-12.624,8.578-14.7,19.454a29.86,29.86,0,0,1,10.974,2.941C1590.922,1868.278,1598.9,1864.1,1598.9,1864.1Z"/><path class="w" d="M1609.931,1876.42s-14.174,8.011-18.957,1.171a5.38,5.38,0,0,1-.986-4.178,29.86,29.86,0,0,0-10.974-2.941,15.013,15.013,0,0,0,1.631,10.29c8.378,15.324,31.161-.847,31.161-.847Z"/><path class="b" d="M1608.228,1886.554l7.735-27.015a.789.789,0,0,1,.667-.567c1.4-.163,5.462-.622,10.151-1.019a115.229,115.229,0,0,1,16.127-.536.791.791,0,0,1,.647,1.138c-2.229,4.509-11.4,22.852-15.989,28.861a.791.791,0,0,1-.638.313l-17.948-.167A.79.79,0,0,1,1608.228,1886.554Z"/><path class="x" d="M1627.584,1855.611l5.608-.935a.4.4,0,0,1,.449.524l-.555,1.682a.405.405,0,0,1-.329.273l-5.4.721a.4.4,0,0,1-.446-.491l.344-1.469A.4.4,0,0,1,1627.584,1855.611Z"/><path class="x" d="M1623.384,1860.359l.462-2.407a.558.558,0,0,1,.49-.448l11.328-1.15a.557.557,0,0,1,.6.684l-.721,3a.554.554,0,0,1-.513.425l-11.069.557A.556.556,0,0,1,1623.384,1860.359Z"/><path class="y" d="M1610.1,1880.027s-1.078-4.431-.643-6,1.277-3.593,4.084-3.144a41.031,41.031,0,0,1,6.118,1.632,1.607,1.607,0,0,1-2.3,1.387l1.324,1.024s-.19,1.639-1.992.763l1.231,1.358a1.434,1.434,0,0,1-2.1.483C1614.492,1876.663,1613.857,1880.561,1610.1,1880.027Z"/><path class="z" d="M1608.453,1836.5l-4.3,12.437a.448.448,0,0,0,.2.539,10.111,10.111,0,0,0,10.486-.705,2.109,2.109,0,0,0,.971-1.507l1.393-10.764Z"/><path class="aa" d="M1617.81,1824.98s4.722,8.889,4.117,12.48-6.458,3.333-11.569.417l-3.571-9.6Z"/><path class="ab" d="M1610.584,1833.163a.366.366,0,0,0,.16-.536,9.559,9.559,0,0,1-1.314-2.79s-.849-.543,2.161-1.264,7.5-1.838,8.441-4.4c.92-2.5-1.5-8.779-5.352-3.774a.367.367,0,0,1-.581,0c-.632-.823-2.293-2.53-4.6-1.495a3.464,3.464,0,0,0-2.372,3.348.365.365,0,0,1-.432.373,4.225,4.225,0,0,0-4.933,2.3c-1.007,2.213-.353,3.466.243,4.079a.364.364,0,0,1-.156.606,2.2,2.2,0,0,0-1.551,2.509c.128,2.324,2.726,2.119,3.466,2.013a.367.367,0,0,1,.325.115c.634.7,3.492,3.682,6.584,4.041a.369.369,0,0,0,.388-.488l-1.339-3.891a.369.369,0,0,1,.2-.456Z"/><path class="ac" d="M1611.122,1833.715s-3.362-2.307-3.608-.364,3.028,2.814,4.649,2.09Z"/></g></svg>