<svg xmlns="http://www.w3.org/2000/svg" xmlns:xlink="http://www.w3.org/1999/xlink" width="256.004" height="260.002" viewBox="0 0 256.004 260.002"><defs><style>.a{fill:url(#a);}.b{fill:#91b3fa;}.c{fill:url(#b);}.d{fill:url(#c);}.e{fill:url(#d);}.f{fill:url(#e);}.g,.h{fill:#fff;isolation:isolate;}.g{opacity:0.63;}.h{opacity:0.85;}.i{fill:url(#f);}.j{fill:url(#g);}.k{fill:url(#h);}.l{fill:url(#i);}.m{fill:url(#j);}.n{fill:url(#k);}.o{fill:url(#l);}.p{fill:url(#m);}.q{fill:url(#n);}.r{fill:url(#o);}.s{fill:url(#p);}.t{fill:url(#q);}.u{fill:url(#r);}.v{fill:url(#s);}.w{fill:url(#t);}.x{fill:url(#u);}.y{fill:url(#v);}.z{fill:#bdd0fb;}.aa{fill:url(#w);}.ab{fill:url(#x);}.ac{fill:url(#y);}.ad{fill:url(#z);}.ae{fill:url(#aa);}</style><linearGradient id="a" x1="-2.124" y1="3.054" x2="-2.128" y2="3.058" gradientUnits="objectBoundingBox"><stop offset="0" stop-color="#dae3fe"/><stop offset="1" stop-color="#e9effd"/></linearGradient><linearGradient id="b" x1="-4.08" y1="3.946" x2="-4.101" y2="3.935" gradientUnits="objectBoundingBox"><stop offset="0" stop-color="#e1473d"/><stop offset="1" stop-color="#e9605a"/></linearGradient><linearGradient id="c" x1="-14.711" y1="12.506" x2="-14.958" y2="12.32" xlink:href="#b"/><linearGradient id="d" x1="-4.024" y1="3.951" x2="-4.005" y2="3.962" gradientUnits="objectBoundingBox"><stop offset="0" stop-color="#ff928e"/><stop offset="1" stop-color="#fe7062"/></linearGradient><linearGradient id="e" x1="-13.734" y1="12.398" x2="-13.776" y2="12.351" xlink:href="#d"/><linearGradient id="f" x1="-12.02" y1="177.217" x2="-12.004" y2="177.217" xlink:href="#a"/><linearGradient id="g" x1="-11.933" y1="171.296" x2="-11.917" y2="171.296" xlink:href="#a"/><linearGradient id="h" x1="-10.713" y1="159.011" x2="-10.698" y2="159.011" xlink:href="#a"/><linearGradient id="i" x1="-21.767" y1="225.659" x2="-21.737" y2="225.659" xlink:href="#a"/><linearGradient id="j" x1="-24.193" y1="230.703" x2="-24.161" y2="230.703" xlink:href="#a"/><linearGradient id="k" x1="-28.744" y1="58.266" x2="-28.884" y2="57.593" gradientUnits="objectBoundingBox"><stop offset="0" stop-color="#09005d"/><stop offset="1" stop-color="#1a0f91"/></linearGradient><linearGradient id="l" x1="-84.2" y1="108.462" x2="-84.004" y2="108.462" gradientUnits="objectBoundingBox"><stop offset="0" stop-color="#febbba"/><stop offset="1" stop-color="#ff928e"/></linearGradient><linearGradient id="m" x1="-31.929" y1="8.103" x2="-32.101" y2="8.092" xlink:href="#k"/><linearGradient id="n" x1="-62.504" y1="71.611" x2="-63.358" y2="70.688" xlink:href="#k"/><linearGradient id="o" x1="-87.096" y1="81.794" x2="-86.87" y2="81.794" xlink:href="#l"/><linearGradient id="p" x1="-22.734" y1="7.962" x2="-22.819" y2="7.951" xlink:href="#k"/><linearGradient id="q" x1="-11.509" y1="11.723" x2="-11.478" y2="11.764" gradientUnits="objectBoundingBox"><stop offset="0" stop-color="#4f52ff"/><stop offset="1" stop-color="#4042e2"/></linearGradient><linearGradient id="r" x1="-23.575" y1="22.738" x2="-23.562" y2="22.711" xlink:href="#l"/><linearGradient id="s" x1="-71.683" y1="48.94" x2="-71.566" y2="48.825" xlink:href="#l"/><linearGradient id="t" x1="-171.551" y1="121.761" x2="-172.069" y2="122.104" xlink:href="#l"/><linearGradient id="u" x1="-27.81" y1="29.864" x2="-27.612" y2="30.132" xlink:href="#q"/><linearGradient id="v" x1="-16.353" y1="38.521" x2="-16.323" y2="38.521" xlink:href="#l"/><linearGradient id="w" x1="-49.722" y1="70.8" x2="-49.625" y2="70.8" xlink:href="#l"/><linearGradient id="x" x1="-40.185" y1="48.579" x2="-40.108" y2="48.579" xlink:href="#l"/><linearGradient id="y" x1="-37.772" y1="45.449" x2="-37.793" y2="45.52" xlink:href="#l"/><linearGradient id="z" x1="-28.721" y1="35.139" x2="-28.711" y2="35.08" xlink:href="#k"/><linearGradient id="aa" x1="-112.616" y1="213.501" x2="-112.818" y2="214.99" xlink:href="#l"/></defs><g transform="translate(-970.996 -162)"><g transform="translate(-748.07 -1288.945)"><path class="a" d="M1945.4,1674.771a92.57,92.57,0,0,1-14.161,11.923c-46.195,33.145-100.853,23.483-112.472,21.119-17.154-3.484-50.314-10.219-74.287-38.411-36.27-42.653-30.622-109.851-2.489-154.21,5.146-8.114,32.329-53.148,87.578-60.37,33.436-4.371,72.412,4.444,100.637,28.092C1989.45,1532.556,1985.232,1632.832,1945.4,1674.771Z"/><path class="b" d="M1933.932,1606.566l-143.108,82.361a4.412,4.412,0,0,1-6.022-1.622l-47.139-81.913a4.411,4.411,0,0,1,1.622-6.02l143.11-82.36a4.41,4.41,0,0,1,6.021,1.622l47.14,81.913A4.411,4.411,0,0,1,1933.932,1606.566Zm-143.687,72.518,135.469-77.968-42.742-74.27-135.465,77.963Z"/><path class="b" d="M1902.634,1609.172l-93.81,53.989a4.411,4.411,0,0,1-6.021-1.623,8.865,8.865,0,0,0-12.089-3.255,4.41,4.41,0,0,1-6.021-1.623l-20.585-35.766a4.411,4.411,0,0,1,1.623-6.02,8.866,8.866,0,0,0,3.256-12.091,4.412,4.412,0,0,1,1.623-6.021l93.809-53.989a4.411,4.411,0,0,1,6.022,1.623,8.863,8.863,0,0,0,12.059,3.277,4.411,4.411,0,0,1,6.022,1.622l20.585,35.766a4.411,4.411,0,0,1-1.622,6.02,8.858,8.858,0,0,0-3.256,12.086A4.412,4.412,0,0,1,1902.634,1609.172Zm-94.853,44.414,87.133-50.146a17.749,17.749,0,0,1,4.62-17.337l-16.734-29.079a17.739,17.739,0,0,1-17.348-4.673l-87.1,50.132a17.733,17.733,0,0,1-4.673,17.346l16.734,29.079a17.736,17.736,0,0,1,17.355,4.688Z"/><path class="b" d="M1848.734,1624.034a24.3,24.3,0,1,1,8.936-33.194v.011A24.334,24.334,0,0,1,1848.734,1624.034Zm-19.845-34.482a15.485,15.485,0,1,0,21.144,5.7,15.486,15.486,0,0,0-21.144-5.7Z"/><path class="b" d="M1930.4,1579.465a4.411,4.411,0,0,1-4.771-7.407l4.144-3-50.266-69.4-115.6,83.722a4.411,4.411,0,0,1-5.175-7.145l119.155-86.3a4.412,4.412,0,0,1,6.159.978h0l55.441,76.539a4.412,4.412,0,0,1-.978,6.159h0l-7.716,5.589c-.137.087-.262.172-.4.252Z"/><path class="b" d="M1934.717,1546.766a4.412,4.412,0,0,1-5.075-7.162l2.214-1.909-55.972-64.879-106.551,91.9a4.415,4.415,0,0,1-5.761-6.688h0l109.893-94.782a4.411,4.411,0,0,1,6.215.457l61.733,71.569a4.411,4.411,0,0,1-.461,6.217l-5.545,4.79a4.439,4.439,0,0,1-.677.5Z"/><path class="c" d="M1857.668,1453.9c-11.794-.093-23.691,1.777-34.217,6.145-24.5,10.166-45.3,37.066-37.158,64.542,2.643,8.926,1.255,18.773,10.147,22.652,4.811,2.1,17.913,3.348,22.894,1.694,13.24-4.4,21.943-16.427,14.742-29.769-2.306-4.273-5.291-8.176-7.282-12.6s-2.9-9.684-.869-14.1c3.985-8.658,17.224-11.41,25.809-11.15a30.039,30.039,0,0,1,24.767,13.916c6.8,10.715,8.517,23.749,7.523,36.187-1.064,13.309-6.676,23.473-15.086,33.683-7.241,8.79-15.214,17.228-20.027,27.55-4.418,9.476-5.862,19.975-6.061,30.342-.039,2.009-10.031,20.945-9.988,26.73.006.817,11.333,3.525,12.15,3.534l20.79.232a1.658,1.658,0,0,0,1.678-1.635c.317-28.145,8.973-54.977,30.888-73.879,7.974-6.878,16.561-12.479,22.762-21.16,8.837-12.373,13.2-24.55,11.939-39.821-1.149-13.947-5.742-27.9-14.833-38.722-9.771-11.63-24.072-18.893-38.935-22.028A109.619,109.619,0,0,0,1857.668,1453.9Z"/><path class="d" d="M1879.418,1685.038c0,12.942-7.174,24.392-20.116,24.392-2.8,0-12.3.026-14.791-.872-9.022-3.26-9.055-10.191-9.055-20.337,0-12.942,4.37-25.67,17.312-25.67S1879.418,1672.1,1879.418,1685.038Z"/><path class="e" d="M1846.461,1450.949c-11.794-.093-23.691,1.777-34.217,6.145-24.5,10.166-45.3,37.066-37.158,64.542,2.643,8.926,8.755,20.161,17.647,24.04a21.745,21.745,0,0,0,15.394.306c13.24-4.4,21.943-16.427,14.742-29.769-2.306-4.273-5.291-8.176-7.282-12.6s-2.9-9.684-.869-14.1c3.985-8.658,17.224-11.41,25.809-11.15a30.04,30.04,0,0,1,24.767,13.916c6.8,10.715,8.518,23.749,7.523,36.187-1.064,13.309-6.676,23.473-15.086,33.683-7.241,8.79-15.214,17.228-20.027,27.55-4.418,9.476-5.862,19.975-6.061,30.342-.039,2.009.638,22.992.681,28.777a1.5,1.5,0,0,0,1.482,1.487l20.79.232a1.658,1.658,0,0,0,1.678-1.635c.316-28.144,8.973-54.977,30.888-73.879,7.974-6.878,16.561-12.479,22.762-21.16,8.837-12.373,13.2-24.55,11.939-39.821-1.149-13.947-5.741-27.9-14.833-38.722-9.771-11.63-24.072-18.893-38.935-22.028A109.627,109.627,0,0,0,1846.461,1450.949Z"/><circle class="f" cx="23.434" cy="23.434" r="23.434" transform="translate(1824.25 1661.841)"/><path class="g" d="M1782.843,1518.948a.3.3,0,0,1-.293-.236c-1.642-7.415-1.883-19.027,6.294-32.236,7.981-12.893,19.177-21.519,33.276-25.641,15.071-4.4,32.965-3.462,53.185,2.8a.3.3,0,0,1-.178.575c-38.846-12.037-69.307-4.018-85.772,22.58-8.071,13.037-7.836,24.483-6.218,31.789a.3.3,0,0,1-.294.366Z"/><path class="g" d="M1787.773,1530.878a.3.3,0,0,1-.243-.123,30.206,30.206,0,0,1-3.33-6.54.3.3,0,1,1,.562-.215,30.224,30.224,0,0,0,3.254,6.4.3.3,0,0,1-.243.478Z"/><path class="g" d="M1855.525,1670.086a.307.307,0,0,1-.136-.033,16.87,16.87,0,0,0-7.705-1.835.3.3,0,0,1,0-.6,17.472,17.472,0,0,1,7.978,1.9.3.3,0,0,1-.136.569Z"/><path class="g" d="M1837.979,1699.965a.3.3,0,0,1-.168-.052,17.662,17.662,0,0,1,1.524-30.2.3.3,0,0,1,.285.53,17.062,17.062,0,0,0-1.473,29.177.3.3,0,0,1-.169.55Z"/><path class="b" d="M1887.339,1530.6l-12.737,13.029,15.279-4.081Z"/><path class="b" d="M1963.129,1536l-72.375,3.512a3.257,3.257,0,0,1-3.411-3.1c0-.053,0-.106,0-.158v-29.779a5.989,5.989,0,0,1,5.805-5.988l65.228-2.018a8.8,8.8,0,0,1,8.8,8.8h0v24.487A4.246,4.246,0,0,1,1963.129,1536Z"/><path class="h" d="M1892.919,1538.31a4.475,4.475,0,0,1-4.468-4.475V1507a5.855,5.855,0,0,1,5.773-5.814l63.156-1.907a8.583,8.583,0,0,1,8.677,8.467v23.137a4.208,4.208,0,0,1-4.06,4.162l-68.859,3.261Q1893.028,1538.31,1892.919,1538.31Zm64.465-38.719-63.151,1.907a5.544,5.544,0,0,0-5.468,5.5v26.836a4.16,4.16,0,0,0,4.162,4.16c.065,0,.131,0,.2,0l68.859-3.261a3.894,3.894,0,0,0,3.761-3.849v-23.136A8.267,8.267,0,0,0,1957.384,1499.591Z"/><path class="i" d="M1957.172,1505.02l-57.872,2.166a.933.933,0,0,0-1,.839l.022.509a.93.93,0,0,0,1.05.752l57.874-2.113a.936.936,0,0,0,1-.839l-.024-.561A.93.93,0,0,0,1957.172,1505.02Z"/><path class="j" d="M1951.994,1519.67l-57.872,2.155a.943.943,0,0,0-1,.868l.022.527a.939.939,0,0,0,1.051.78l57.875-2.1a.943.943,0,0,0,1-.868l-.025-.581A.939.939,0,0,0,1951.994,1519.67Z"/><path class="k" d="M1958.755,1525.8l-64.515,2.436c-.634.024-1.133.419-1.114.881l.023.532c.02.457.541.806,1.168.783l64.517-2.381c.634-.023,1.135-.419,1.115-.881l-.025-.587C1959.9,1526.13,1959.382,1525.776,1958.755,1525.8Z"/><path class="l" d="M1925.446,1513.658l-31.543.92c-.31.009-.541.434-.516.947l.029.591c.025.508.292.91.6.9l31.546-.858c.31-.008.542-.434.517-.947l-.032-.652C1926.018,1514.051,1925.746,1513.649,1925.446,1513.658Z"/><path class="m" d="M1960.2,1512.567l-29.814.855c-.293.008-.51.433-.485.946l.03.591c.025.508.279.911.569.9l29.817-.794c.293-.008.511-.432.486-.946l-.032-.652C1960.743,1512.962,1960.489,1512.558,1960.2,1512.567Z"/><path class="n" d="M1777.446,1700.219s-.6,3.377-.889,6.72a2.3,2.3,0,0,0,2.089,2.493l.111.007c4.452.185,13.975.546,17.392.393a.749.749,0,0,0,.711-.785.738.738,0,0,0-.052-.241h0a1.679,1.679,0,0,0-.858-.9l-15.73-7.23Z"/><path class="o" d="M1776.957,1698.235l.479,4.04s2.756,1.283,4.637-.162l-1.141-4.5Z"/><path class="p" d="M1777.317,1622.288c-.207,1.055-1.111,52.643,4.4,75.762a.785.785,0,0,1-.46.913,13.655,13.655,0,0,1-4.491.913,1.352,1.352,0,0,1-1.341-.97c-1.576-5.364-9.13-32.238-10.115-57.911-1.1-28.686,0-.977,0-.977l.646-17.732Z"/><path class="q" d="M1759.35,1701.981a24.307,24.307,0,0,0-1.869,6.235,1.406,1.406,0,0,0,1.093,1.661,1.39,1.39,0,0,0,.144.022c1.47.145,3.733.33,5.546.318a1.4,1.4,0,0,0,1.4-1.4,1.42,1.42,0,0,0-.009-.16,11.818,11.818,0,0,0-2.759-6.481Z"/><path class="r" d="M1758.517,1696.785l1.12,6.108a3.952,3.952,0,0,0,3.3.228l-.535-6.573Z"/><path class="s" d="M1755.491,1623.871c-4.51,27.219.978,67.273,2.829,75.112a1.223,1.223,0,0,0,.987.928,8.222,8.222,0,0,0,3.528-.141,1.121,1.121,0,0,0,.805-1.032c.248-6.338-.2-45.248,4-60.625a3.492,3.492,0,0,1,1.347-1.927l8.156-5.8.625-9.373Z"/><path class="t" d="M1784.23,1572.3c-13.516-.223-28.429,3.549-28.429,3.549-4.029,23.508-.7,50.622-.7,50.622,10.464,2.744,22.267-1.678,22.267-1.678,1.739-9.826,9.853-37.478,9.853-37.478a44.546,44.546,0,0,0,16.524-5.244,28.981,28.981,0,0,1-5.728-11.981A45.366,45.366,0,0,1,1784.23,1572.3Z"/><path class="u" d="M1824.152,1552.39a2.585,2.585,0,0,0-3.008-.845c-1.989,8.4-12.418,15.214-23.132,18.543a28.981,28.981,0,0,0,5.728,11.981C1821.521,1572.072,1824.152,1552.39,1824.152,1552.39Z"/><path class="v" d="M1823.83,1552.8c.139.442-1.47,1.114-2.417-.692-.033-.866-.56-4.574-.042-5.28a69.031,69.031,0,0,1,8.1-8.465,1.271,1.271,0,0,1,.159,1.766l-2.591,2.7a12.5,12.5,0,0,1,1.513,2.991,3.631,3.631,0,0,1-.362,2.672c-.455.819-1.075,1.885-1.662,2.718A3.587,3.587,0,0,1,1823.83,1552.8Z"/><path class="w" d="M1825.9,1544.578l-2.361,2-.741,1.993,2.1,2.336a27.2,27.2,0,0,1,1.234-4.81C1826.665,1545.242,1826.389,1544.828,1825.9,1544.578Z"/><path class="x" d="M1760.985,1588.934l-5.184-13.087s-12.625,8.578-14.7,19.453a29.862,29.862,0,0,1,10.975,2.942C1753.008,1593.106,1760.985,1588.934,1760.985,1588.934Z"/><path class="y" d="M1772.017,1601.247s-14.174,8.01-18.957,1.171a5.379,5.379,0,0,1-.986-4.177,29.863,29.863,0,0,0-10.975-2.942,15.011,15.011,0,0,0,1.632,10.29c8.377,15.325,31.161-.847,31.161-.847Z"/><path class="b" d="M1770.314,1611.383l7.736-27.015a.787.787,0,0,1,.666-.567c1.4-.163,5.463-.623,10.152-1.019a115.025,115.025,0,0,1,16.127-.536.79.79,0,0,1,.646,1.137c-2.229,4.509-11.4,22.852-15.988,28.861a.8.8,0,0,1-.638.313l-17.948-.167a.791.791,0,0,1-.783-.8A.805.805,0,0,1,1770.314,1611.383Z"/><path class="z" d="M1789.67,1580.439l5.609-.935a.4.4,0,0,1,.448.523l-.555,1.682a.4.4,0,0,1-.329.273l-5.4.72a.4.4,0,0,1-.445-.49l.344-1.469A.4.4,0,0,1,1789.67,1580.439Z"/><path class="z" d="M1785.471,1585.191l.462-2.407a.556.556,0,0,1,.49-.448l11.328-1.149a.556.556,0,0,1,.6.683l-.72,3a.556.556,0,0,1-.513.426l-11.07.557a.557.557,0,0,1-.587-.524A.58.58,0,0,1,1785.471,1585.191Z"/><path class="aa" d="M1772.183,1604.856s-1.078-4.431-.643-6,1.277-3.593,4.084-3.144a40.943,40.943,0,0,1,6.119,1.632,1.608,1.608,0,0,1-2.3,1.387l1.323,1.024s-.189,1.639-1.991.764l1.231,1.358a1.436,1.436,0,0,1-2.1.483C1776.579,1601.492,1775.943,1605.389,1772.183,1604.856Z"/><path class="ab" d="M1770.539,1561.325l-4.3,12.437a.449.449,0,0,0,.2.54,10.108,10.108,0,0,0,10.485-.7,2.11,2.11,0,0,0,.972-1.507l1.393-10.764Z"/><path class="ac" d="M1779.9,1549.808s4.722,8.889,4.117,12.48-6.458,3.333-11.569.417l-3.571-9.6Z"/><path class="ad" d="M1772.666,1557.992a.366.366,0,0,0,.189-.482.341.341,0,0,0-.029-.054,9.563,9.563,0,0,1-1.314-2.79s-.849-.544,2.161-1.264,7.5-1.839,8.441-4.4c.92-2.5-1.5-8.779-5.352-3.774a.366.366,0,0,1-.513.067.331.331,0,0,1-.068-.067c-.632-.823-2.294-2.53-4.6-1.495a3.463,3.463,0,0,0-2.372,3.348.365.365,0,0,1-.348.379.39.39,0,0,1-.084-.006,4.223,4.223,0,0,0-4.934,2.3c-1.007,2.213-.352,3.466.244,4.079a.365.365,0,0,1-.156.606,2.2,2.2,0,0,0-1.551,2.509c.128,2.323,2.726,2.119,3.466,2.013a.362.362,0,0,1,.325.115c.634.7,3.491,3.682,6.584,4.041a.37.37,0,0,0,.406-.33.38.38,0,0,0-.018-.158l-1.338-3.89a.369.369,0,0,1,.2-.457Z"/><path class="ae" d="M1773.208,1558.544s-3.362-2.307-3.608-.364,3.028,2.814,4.649,2.09Z"/></g></g></svg>