<svg xmlns="http://www.w3.org/2000/svg" xmlns:xlink="http://www.w3.org/1999/xlink" width="246.295" height="250" viewBox="0 0 246.295 250"><defs><style>.a{fill:url(#a);}.b{fill:#fff;}</style><linearGradient id="a" x1="0.5" x2="0.5" y2="1" gradientUnits="objectBoundingBox"><stop offset="0" stop-color="#ca1072"/><stop offset="1" stop-color="#f5a21a"/></linearGradient></defs><path class="a" d="M660.235,492.424c4.07,21.085,12.319,63.82-7.421,92.409-35.826,51.885-157.668,48.229-209.133-17.187-4.449-5.656-26.77-35.157-24.334-75.553,4.224-70.069,80.472-132.175,141.579-119.977,35.763,7.139,59.532,38.37,69.318,51.227C634.276,428.641,652.745,453.621,660.235,492.424Z" transform="translate(-419.161 -370.574)"/><g transform="translate(45.839 32.292)"><path class="b" d="M1110.086,1320.961l-113.542,65.345a3.5,3.5,0,0,1-4.777-1.287l-37.4-64.989a3.5,3.5,0,0,1,1.287-4.777l113.542-65.344a3.5,3.5,0,0,1,4.777,1.287l37.4,64.989A3.5,3.5,0,0,1,1110.086,1320.961Zm-114,57.536,107.478-61.855-33.912-58.925-107.477,61.855Z" transform="translate(-953.898 -1206.395)"/><path class="b" d="M1309.032,1541l-74.428,42.834a3.5,3.5,0,0,1-4.777-1.287,7.032,7.032,0,0,0-9.591-2.582,3.5,3.5,0,0,1-4.777-1.287l-16.331-28.377a3.5,3.5,0,0,1,1.287-4.777,7.035,7.035,0,0,0,2.585-9.593,3.5,3.5,0,0,1,1.287-4.777l74.428-42.834a3.5,3.5,0,0,1,4.777,1.287,7.032,7.032,0,0,0,9.568,2.6,3.5,3.5,0,0,1,4.777,1.287l16.331,28.377a3.5,3.5,0,0,1-1.287,4.777,7.028,7.028,0,0,0-2.583,9.588A3.5,3.5,0,0,1,1309.032,1541Zm-75.256,35.238,69.131-39.786a14.081,14.081,0,0,1,3.665-13.754l-13.276-23.068a14.074,14.074,0,0,1-13.763-3.708l-69.11,39.774a14.066,14.066,0,0,1-3.708,13.762l13.276,23.068a14.074,14.074,0,0,1,13.77,3.72Z" transform="translate(-1177.679 -1424.367)"/><path class="b" d="M1679.042,1861.489a19.283,19.283,0,1,1,7.089-26.333l.005.009A19.307,19.307,0,0,1,1679.042,1861.489Zm-15.745-27.358a12.286,12.286,0,1,0,16.776,4.525A12.286,12.286,0,0,0,1663.3,1834.131Z" transform="translate(-1590.451 -1733.064)"/><path class="b" d="M1275.187,1068.249a3.5,3.5,0,0,1-3.785-5.875l3.288-2.381-39.88-55.058-91.713,66.425a3.5,3.5,0,0,1-4.106-5.669l94.536-68.469a3.5,3.5,0,0,1,4.886.776l0,0,43.987,60.728a3.5,3.5,0,0,1-.776,4.886l0,0-6.122,4.435c-.105.069-.208.136-.314.2Z" transform="translate(-1121.801 -975.186)"/><path class="b" d="M1321.9,814.4a3.5,3.5,0,0,1-4.029-5.682l1.756-1.515-44.408-51.48-84.537,72.918a3.5,3.5,0,1,1-4.576-5.306l87.19-75.2a3.5,3.5,0,0,1,4.931.363l48.977,56.782a3.5,3.5,0,0,1-.366,4.933l-4.4,3.8a3.566,3.566,0,0,1-.536.394Z" transform="translate(-1165.092 -747.28)"/></g></svg>