<svg xmlns="http://www.w3.org/2000/svg" xmlns:xlink="http://www.w3.org/1999/xlink" width="239" height="239" viewBox="0 0 239 239"><defs><style>.a{clip-path:url(#a);}.b{fill:#db4437;}.c{fill:url(#b);}.d{fill:rgba(62,39,35,0.15);}.e{fill:#0f9d58;}.f{fill:url(#e);}.g{fill:rgba(38,50,56,0.15);}.h{clip-path:url(#h);}.i{fill:#ffcd40;}.j{fill:url(#i);}.k{clip-path:url(#m);}.l{fill:url(#p);}.m{clip-path:url(#r);}.n{fill:url(#u);}.o{fill:url(#w);}.p{fill:#f1f1f1;}.q{fill:#4285f4;}.r{fill:rgba(62,39,35,0.2);}.s{fill:rgba(255,255,255,0.1);}.t{fill:#3e2723;opacity:0.1;}.u{fill:rgba(255,255,255,0.2);}.v{fill:url(#aa);}</style><clipPath id="a"><circle cx="119.5" cy="119.5" r="119.5" transform="translate(0.051)"/></clipPath><linearGradient id="b" x1="0.045" y1="0.621" x2="0.369" y2="0.337" gradientUnits="objectBoundingBox"><stop offset="0" stop-color="#a52714" stop-opacity="0.6"/><stop offset="0.66" stop-color="#a52714" stop-opacity="0"/></linearGradient><linearGradient id="e" x1="0.839" y1="0.878" x2="0.363" y2="0.664" gradientUnits="objectBoundingBox"><stop offset="0" stop-color="#055524" stop-opacity="0.4"/><stop offset="0.33" stop-color="#055524" stop-opacity="0"/></linearGradient><clipPath id="h"><path d="M8,241.147H121.78l52.808-52.809V148.786H80.476L8,24.48Z" transform="translate(-8 -24.48)"/></clipPath><linearGradient id="i" x1="0.326" y1="-0.048" x2="0.486" y2="0.454" gradientUnits="objectBoundingBox"><stop offset="0" stop-color="#ea6100" stop-opacity="0.302"/><stop offset="0.66" stop-color="#ea6100" stop-opacity="0"/></linearGradient><clipPath id="m"><path d="M97.515,56l47.063,81.495L91.77,229.855H217.041V56Z" transform="translate(-91.77 -56)"/></clipPath><radialGradient id="p" cx="-0.049" cy="-0.002" r="4.013" gradientTransform="translate(5.348) scale(0.267 1)" gradientUnits="objectBoundingBox"><stop offset="0" stop-color="#3e2723" stop-opacity="0.2"/><stop offset="1" stop-color="#3e2723" stop-opacity="0"/></radialGradient><clipPath id="r"><path d="M21.97,8V62.792l53.5,91.9L122.521,73.2H242.046V8Z" transform="translate(-21.97 -8)"/></clipPath><radialGradient id="u" cx="-0.002" cy="0.001" r="1.155" gradientTransform="translate(-1.81) scale(1.18 1)" xlink:href="#p"/><radialGradient id="w" cx="0.103" cy="-0.122" r="1.124" gradientTransform="translate(-15.157) scale(2.014 1)" gradientUnits="objectBoundingBox"><stop offset="0" stop-color="#263238" stop-opacity="0.2"/><stop offset="1" stop-color="#263238" stop-opacity="0"/></radialGradient><radialGradient id="aa" cx="0.149" cy="0.136" r="1.004" gradientUnits="objectBoundingBox"><stop offset="0" stop-color="#fff" stop-opacity="0.102"/><stop offset="1" stop-color="#fff" stop-opacity="0"/></radialGradient></defs><g transform="translate(-0.051)"><g class="a"><path class="b" d="M21.97,8V154.69h53.5L122.521,73.2H242.046V8Z" transform="translate(-2.995 -8)"/><path class="c" d="M21.97,8V154.69h53.5L122.521,73.2H242.046V8Z" transform="translate(-2.995 -8)"/></g><g class="a"><path class="d" d="M76.787,140.122,22.688,47.34,21.9,48.7l53.7,92.089Z" transform="translate(-3.02 6.093)"/></g><g class="a"><path class="e" d="M8,241.147H121.78l52.808-52.809V148.786H80.476L8,24.48Z" transform="translate(-8 -2.096)"/><path class="f" d="M8,241.147H121.78l52.808-52.809V148.786H80.476L8,24.48Z" transform="translate(-8 -2.096)"/></g><g class="a"><path class="g" d="M143.89,117.5l-1.127-.652L90.62,208.056h1.562l51.749-90.513Z" transform="translate(21.598 30.995)"/></g><g class="a"><g class="h" transform="translate(0 22.384)"><path class="i" d="M97.515,56l47.063,81.495L91.77,229.855H217.041V56Z" transform="translate(22.01 -13.188)"/><path class="j" d="M97.515,56l47.063,81.495L91.77,229.855H217.041V56Z" transform="translate(22.01 -13.188)"/></g></g><g class="a"><path class="i" d="M97.515,56l47.063,81.495L91.77,229.855H217.041V56Z" transform="translate(22.01 9.196)"/><path class="j" d="M97.515,56l47.063,81.495L91.77,229.855H217.041V56Z" transform="translate(22.01 9.196)"/></g><g class="a"><g class="k" transform="translate(113.78 65.196)"><path class="b" d="M21.97,8V154.69h53.5L122.521,73.2H242.046V8Z" transform="translate(-116.775 -73.196)"/><path class="c" d="M21.97,8V154.69h53.5L122.521,73.2H242.046V8Z" transform="translate(-116.775 -73.196)"/></g></g><g class="a"><path class="l" d="M96,56V84.455L202.486,56Z" transform="translate(23.525 9.196)"/></g><g class="a"><g class="m" transform="translate(18.975)"><path class="e" d="M8,241.147H121.78l52.808-52.809V148.786H80.476L8,24.48Z" transform="translate(-26.975 -2.096)"/><path class="f" d="M8,241.147H121.78l52.808-52.809V148.786H80.476L8,24.48Z" transform="translate(-26.975 -2.096)"/></g></g><g class="a"><path class="n" d="M21.97,48.45,99.729,126.2l-24.258,14Z" transform="translate(-2.995 6.491)"/></g><g class="a"><path class="o" d="M91.83,211.9,120.3,105.69l24.258,14Z" transform="translate(22.032 26.997)"/></g><g class="a"><circle class="p" cx="54.5" cy="54.5" r="54.5" transform="translate(65.051 65)"/><circle class="q" cx="43.5" cy="43.5" r="43.5" transform="translate(76.051 76)"/></g><g class="a"><path class="r" d="M110.33,55A54.332,54.332,0,0,0,56,109.33v1.358a54.332,54.332,0,0,1,54.33-54.33H229.855V55Z" transform="translate(9.196 8.837)"/><path class="s" d="M174.521,148.786a54.245,54.245,0,0,1-94,0h-.054L8,24.48v1.358L80.476,150.145h.054a54.245,54.245,0,0,0,94,0h.068v-1.358Z" transform="translate(-8 -2.096)"/><path class="t" d="M97.179,56c-.231,0-.448.027-.679.041a54.293,54.293,0,0,1,0,108.578c.231,0,.448.041.679.041A54.33,54.33,0,1,0,97.179,56Z" transform="translate(23.704 9.196)"/><path class="u" d="M145.054,128.812a54.149,54.149,0,0,0,4.754-43.532,53.728,53.728,0,0,1-5.256,41.684l.027.054L91.77,219.379h1.576l51.735-90.513Z" transform="translate(22.01 19.685)"/></g><g class="a"><path class="u" d="M127.525,9.358A119.521,119.521,0,0,1,247.037,128.2c0-.231.014-.448.014-.679A119.525,119.525,0,1,0,8,127.525c0,.231.014.448.014.679A119.521,119.521,0,0,1,127.525,9.358Z" transform="translate(-8 -8)"/><path class="d" d="M127.525,214.346A119.521,119.521,0,0,0,247.037,95.5c0,.231.014.448.014.679A119.525,119.525,0,1,1,8,96.179c0-.231.014-.448.014-.679A119.521,119.521,0,0,0,127.525,214.346Z" transform="translate(-8 23.346)"/></g><circle class="v" cx="119.5" cy="119.5" r="119.5" transform="translate(0.051)"/></g></svg>