<svg xmlns="http://www.w3.org/2000/svg" width="23.526" height="20" viewBox="0 0 23.526 20"><defs><style>.a{fill:#d22d60;}</style></defs><path class="a" d="M23.319,56.179,13,39.062a1.441,1.441,0,0,0-2.469,0L.207,56.179a1.441,1.441,0,0,0,1.234,2.186H22.084a1.441,1.441,0,0,0,1.234-2.186ZM11.771,44.286a.977.977,0,0,1,1.094.927c0,1.809-.213,4.408-.213,6.216,0,.471-.517.669-.882.669-.486,0-.9-.2-.9-.669,0-1.809-.213-4.408-.213-6.216C10.661,44.62,11.147,44.286,11.771,44.286Zm.015,11.2a1.17,1.17,0,1,1,1.155-1.17A1.188,1.188,0,0,1,11.786,55.488Z" transform="translate(0 -38.365)"/></svg>