<svg xmlns="http://www.w3.org/2000/svg" xmlns:xlink="http://www.w3.org/1999/xlink" width="229" height="229.031" viewBox="0 0 229 229.031"><defs><style>.a{fill:url(#a);}.b{opacity:0.35;fill:url(#b);}.c{fill:url(#c);}.d{opacity:0.41;fill:url(#d);}.e{fill:url(#e);}.f{fill:url(#f);}</style><linearGradient id="a" x1="0.026" y1="-0.104" x2="1.026" y2="-0.104" gradientUnits="objectBoundingBox"><stop offset="0" stop-color="#0c59a4"/><stop offset="1" stop-color="#114a8b"/></linearGradient><radialGradient id="b" cx="0.552" cy="0.509" r="0.62" gradientTransform="matrix(0.863, 0, 0, -0.95, 0.079, -0.395)" gradientUnits="objectBoundingBox"><stop offset="0.72" stop-opacity="0"/><stop offset="0.95" stop-opacity="0.529"/><stop offset="1"/></radialGradient><linearGradient id="c" x1="0.933" y1="0.545" x2="0.272" y2="-0.039" gradientUnits="objectBoundingBox"><stop offset="0" stop-color="#1b9de2"/><stop offset="0.16" stop-color="#1595df"/><stop offset="0.67" stop-color="#0680d7"/><stop offset="1" stop-color="#0078d4"/></linearGradient><radialGradient id="d" cx="0.418" cy="0.726" r="0.69" gradientTransform="matrix(0.185, -0.989, -0.986, -0.121, -1.576, -1.917)" gradientUnits="objectBoundingBox"><stop offset="0.76" stop-opacity="0"/><stop offset="0.95" stop-opacity="0.502"/><stop offset="1"/></radialGradient><radialGradient id="e" cx="0.101" cy="0.278" r="1.188" gradientTransform="matrix(-0.025, 0.999, 1.417, 0.08, -4.286, 2.635)" gradientUnits="objectBoundingBox"><stop offset="0" stop-color="#35c1f1"/><stop offset="0.11" stop-color="#34c1ed"/><stop offset="0.23" stop-color="#2fc2df"/><stop offset="0.31" stop-color="#2bc3d2"/><stop offset="0.67" stop-color="#36c752"/></radialGradient><radialGradient id="f" cx="0.938" cy="0.454" r="0.571" gradientTransform="matrix(0.187, 0.96, 0.52, -0.228, -0.536, 2.679)" gradientUnits="objectBoundingBox"><stop offset="0" stop-color="#66eb6e"/><stop offset="1" stop-color="#66eb6e" stop-opacity="0"/></radialGradient></defs><g transform="translate(0)"><path class="a" d="M212.883,180.994a83.832,83.832,0,0,1-9.428,4.213,91.12,91.12,0,0,1-32.112,5.778c-42.327,0-79.2-29.115-79.2-66.477a28.158,28.158,0,0,1,14.7-24.428c-38.284,1.61-48.123,41.5-48.123,64.876,0,66.084,60.9,72.783,74.027,72.783,7.075,0,17.746-2.057,24.151-4.079l1.172-.394a114.8,114.8,0,0,0,59.572-47.228,3.578,3.578,0,0,0-4.759-5.045Z" transform="translate(-6.196 -10.561)"/><path class="b" d="M212.883,180.994a83.832,83.832,0,0,1-9.428,4.213,91.12,91.12,0,0,1-32.112,5.778c-42.327,0-79.2-29.115-79.2-66.477a28.158,28.158,0,0,1,14.7-24.428c-38.284,1.61-48.123,41.5-48.123,64.876,0,66.084,60.9,72.783,74.027,72.783,7.075,0,17.746-2.057,24.151-4.079l1.172-.394a114.8,114.8,0,0,0,59.572-47.228,3.578,3.578,0,0,0-4.759-5.045Z" transform="translate(-6.196 -10.561)"/><path class="c" d="M94.584,221.024a70.842,70.842,0,0,1-20.34-19.088A72.2,72.2,0,0,1,100.657,94.6c2.791-1.315,7.558-3.694,13.9-3.578a28.936,28.936,0,0,1,22.979,11.628,28.516,28.516,0,0,1,5.689,16.691c0-.188,21.879-71.2-71.558-71.2C32.4,48.14.109,85.4.109,118.1a116.416,116.416,0,0,0,10.832,50.091A114.493,114.493,0,0,0,150.82,228.216a67.578,67.578,0,0,1-56.155-7.156Z" transform="translate(-0.011 -5.08)"/><path class="d" d="M94.584,221.024a70.842,70.842,0,0,1-20.34-19.088A72.2,72.2,0,0,1,100.657,94.6c2.791-1.315,7.558-3.694,13.9-3.578a28.936,28.936,0,0,1,22.979,11.628,28.516,28.516,0,0,1,5.689,16.691c0-.188,21.879-71.2-71.558-71.2C32.4,48.14.109,85.4.109,118.1a116.416,116.416,0,0,0,10.832,50.091A114.493,114.493,0,0,0,150.82,228.216a67.578,67.578,0,0,1-56.155-7.156Z" transform="translate(-0.011 -5.08)"/><path class="e" d="M136.255,133.152c-.725.939-2.952,2.236-2.952,5.063,0,2.335,1.521,4.58,4.222,6.467,12.863,8.945,37.112,7.764,37.174,7.764a53.275,53.275,0,0,0,27.076-7.469,54.9,54.9,0,0,0,27.219-47.3c.233-20.045-7.156-33.373-10.143-39.276C199.9,21.324,158.984,0,114.493,0A114.5,114.5,0,0,0,0,112.894C.429,80.2,32.917,53.8,71.558,53.8c3.131,0,20.984.3,37.568,9.007,14.616,7.675,22.272,16.941,27.595,26.128,5.528,9.544,6.512,21.6,6.512,26.4S140.781,127.266,136.255,133.152Z"/><path class="f" d="M136.255,133.152c-.725.939-2.952,2.236-2.952,5.063,0,2.335,1.521,4.58,4.222,6.467,12.863,8.945,37.112,7.764,37.174,7.764a53.275,53.275,0,0,0,27.076-7.469,54.9,54.9,0,0,0,27.219-47.3c.233-20.045-7.156-33.373-10.143-39.276C199.9,21.324,158.984,0,114.493,0A114.5,114.5,0,0,0,0,112.894C.429,80.2,32.917,53.8,71.558,53.8c3.131,0,20.984.3,37.568,9.007,14.616,7.675,22.272,16.941,27.595,26.128,5.528,9.544,6.512,21.6,6.512,26.4S140.781,127.266,136.255,133.152Z"/></g></svg>