<svg xmlns="http://www.w3.org/2000/svg" width="30" height="30.037" viewBox="0 0 30 30.037"><defs><style>.a{fill:#3a5a98;}.b{fill:#345387;}.c{fill:#2e4d72;}.d{fill:#fff;}</style></defs><g transform="translate(-0.163)"><circle class="a" cx="15" cy="15" r="15" transform="translate(0.163 0)"/><path class="b" d="M90.934,69.754A15.083,15.083,0,0,1,69.6,91.084Z" transform="translate(-65.188 -65.465)"/><path class="c" d="M185.565,102.779l-10.54-10.541-5.473,5.473.326.326-3.116,3.116,2.55,2.55-.335.335,2.761,2.761-3.183,3.183,5.438,5.438A14.581,14.581,0,0,0,185.565,102.779Z" transform="translate(-155.5 -85.694)"/><path class="d" d="M168.357,96.638V99.2h-1.79v3.135h1.79v9.316h3.678v-9.316H174.5s.231-1.5.343-3.147h-2.8V97.046a.885.885,0,0,1,.8-.751h2V93.031h-2.724C168.266,93.031,168.357,96.169,168.357,96.638Z" transform="translate(-155.761 -87.31)"/></g></svg>