<svg xmlns="http://www.w3.org/2000/svg" width="1595" height="373.699" viewBox="0 0 1595 373.699"><defs><style>.a{fill:#fff;}</style></defs><g transform="translate(-27.946 -202.196)"><path class="a" d="M27.946,228.409a49.192,49.192,0,0,1,11-.83c152-20.738,298-27.375,448-24.886,158,2.489,311,22.4,470,38.159,187,19.079,368,19.909,555,.83,5,0,10-.83,15-.83,33-4.148,64-6.636,96-12.443V549.44c-34,4.977-69,8.3-104,11.614-3,0-7,1.659-10,1.659-16,.83-31,2.489-47,4.148h-11c-245,20.738-487,3.318-727-27.375-231-24.057-466-23.227-696,9.954V228.409Z" transform="translate(0 0)"/></g></svg>