<svg xmlns="http://www.w3.org/2000/svg" xmlns:xlink="http://www.w3.org/1999/xlink" width="233.314" height="241" viewBox="0 0 233.314 241"><defs><style>.a{fill:url(#a);}.b{fill:url(#b);}.c{fill:url(#c);}.d{fill:url(#d);}.e{fill:url(#e);}.f{fill:url(#f);}.g{fill:url(#g);}.h{fill:url(#h);}.i{fill:url(#i);}.j{fill:url(#j);}.k{fill:url(#k);}.l{fill:url(#l);}</style><linearGradient id="a" x1="0.914" y1="0.155" x2="0.083" y2="0.931" gradientUnits="objectBoundingBox"><stop offset="0.048" stop-color="#fff44f"/><stop offset="0.111" stop-color="#ffe847"/><stop offset="0.225" stop-color="#ffc830"/><stop offset="0.368" stop-color="#ff980e"/><stop offset="0.401" stop-color="#ff8b16"/><stop offset="0.462" stop-color="#ff672a"/><stop offset="0.534" stop-color="#ff3647"/><stop offset="0.705" stop-color="#e31587"/></linearGradient><radialGradient id="b" cx="0.859" cy="-0.129" r="1.283" gradientTransform="translate(-19.085) scale(0.813 1)" gradientUnits="objectBoundingBox"><stop offset="0.129" stop-color="#ffbd4f"/><stop offset="0.186" stop-color="#ffac31"/><stop offset="0.247" stop-color="#ff9d17"/><stop offset="0.283" stop-color="#ff980e"/><stop offset="0.403" stop-color="#ff563b"/><stop offset="0.467" stop-color="#ff3750"/><stop offset="0.71" stop-color="#f5156c"/><stop offset="0.782" stop-color="#eb0878"/><stop offset="0.86" stop-color="#e50080"/></radialGradient><radialGradient id="c" cx="0.478" cy="0.395" r="1.283" gradientTransform="translate(-19.157) scale(0.813 1)" gradientUnits="objectBoundingBox"><stop offset="0.3" stop-color="#960e18"/><stop offset="0.351" stop-color="#b11927" stop-opacity="0.741"/><stop offset="0.435" stop-color="#db293d" stop-opacity="0.341"/><stop offset="0.497" stop-color="#f5334b" stop-opacity="0.094"/><stop offset="0.53" stop-color="#ff3750" stop-opacity="0"/></radialGradient><radialGradient id="d" cx="0.5" cy="-0.3" r="1.855" gradientTransform="translate(299.067) scale(1.698 1)" gradientUnits="objectBoundingBox"><stop offset="0.132" stop-color="#fff44f"/><stop offset="0.252" stop-color="#ffdc3e"/><stop offset="0.506" stop-color="#ff9d12"/><stop offset="0.526" stop-color="#ff980e"/></radialGradient><radialGradient id="e" cx="0.194" cy="1.101" r="1.019" gradientTransform="translate(22.255) scale(1.096 1)" gradientUnits="objectBoundingBox"><stop offset="0.353" stop-color="#3a8ee6"/><stop offset="0.472" stop-color="#5c79f0"/><stop offset="0.669" stop-color="#9059ff"/><stop offset="1" stop-color="#c139e6"/></radialGradient><radialGradient id="f" cx="0.582" cy="0.366" r="0.54" gradientTransform="matrix(1.066, -0.235, 0.301, 1.138, 83.139, -23.161)" gradientUnits="objectBoundingBox"><stop offset="0.206" stop-color="#9059ff" stop-opacity="0"/><stop offset="0.278" stop-color="#8c4ff3" stop-opacity="0.063"/><stop offset="0.747" stop-color="#7716a8" stop-opacity="0.451"/><stop offset="0.975" stop-color="#6e008b" stop-opacity="0.6"/></radialGradient><radialGradient id="g" cx="2.081" cy="-1.04" r="2.922" gradientTransform="translate(3.126)" gradientUnits="objectBoundingBox"><stop offset="0" stop-color="#ffe226"/><stop offset="0.121" stop-color="#ffdb27"/><stop offset="0.295" stop-color="#ffc82a"/><stop offset="0.502" stop-color="#ffa930"/><stop offset="0.732" stop-color="#ff7e37"/><stop offset="0.792" stop-color="#ff7139"/></radialGradient><radialGradient id="h" cx="0.793" cy="-0.409" r="1.938" gradientTransform="translate(-17.501) scale(0.84 1)" gradientUnits="objectBoundingBox"><stop offset="0.113" stop-color="#fff44f"/><stop offset="0.456" stop-color="#ff980e"/><stop offset="0.622" stop-color="#ff5634"/><stop offset="0.716" stop-color="#ff3647"/><stop offset="0.904" stop-color="#e31587"/></radialGradient><radialGradient id="i" cx="0.063" cy="-0.104" r="1.651" gradientTransform="matrix(0.222, 0.994, -1.378, 0.069, -474.245, 168.094)" gradientUnits="objectBoundingBox"><stop offset="0" stop-color="#fff44f"/><stop offset="0.06" stop-color="#ffe847"/><stop offset="0.168" stop-color="#ffc830"/><stop offset="0.304" stop-color="#ff980e"/><stop offset="0.356" stop-color="#ff8b16"/><stop offset="0.455" stop-color="#ff672a"/><stop offset="0.57" stop-color="#ff3647"/><stop offset="0.737" stop-color="#e31587"/></radialGradient><radialGradient id="j" cx="0.154" cy="-0.427" r="2.387" gradientTransform="translate(-4.736) scale(0.981 1)" gradientUnits="objectBoundingBox"><stop offset="0.137" stop-color="#fff44f"/><stop offset="0.48" stop-color="#ff980e"/><stop offset="0.592" stop-color="#ff5634"/><stop offset="0.655" stop-color="#ff3647"/><stop offset="0.904" stop-color="#e31587"/></radialGradient><radialGradient id="k" cx="1.554" cy="-0.446" r="3.128" gradientTransform="translate(-28.76) scale(0.896 1)" gradientUnits="objectBoundingBox"><stop offset="0.094" stop-color="#fff44f"/><stop offset="0.231" stop-color="#ffe141"/><stop offset="0.509" stop-color="#ffaf1e"/><stop offset="0.626" stop-color="#ff980e"/></radialGradient><linearGradient id="l" x1="0.904" y1="0.151" x2="0.197" y2="0.835" gradientUnits="objectBoundingBox"><stop offset="0.167" stop-color="#fff44f" stop-opacity="0.8"/><stop offset="0.266" stop-color="#fff44f" stop-opacity="0.635"/><stop offset="0.489" stop-color="#fff44f" stop-opacity="0.216"/><stop offset="0.6" stop-color="#fff44f" stop-opacity="0"/></linearGradient></defs><g transform="translate(0 0)"><path class="a" d="M224.868,80.848c-5.075-12.211-15.37-25.4-23.431-29.564a121.35,121.35,0,0,1,11.829,35.453l.021.2c-13.206-32.924-35.6-46.2-53.891-75.107-.925-1.462-1.85-2.926-2.751-4.472-.515-.883-.928-1.679-1.287-2.411A21.254,21.254,0,0,1,153.616.316a.3.3,0,0,0-.265-.3.416.416,0,0,0-.22,0c-.015,0-.039.027-.057.033s-.057.033-.084.045l.045-.078C123.7,17.193,113.742,48.993,112.826,64.9A58.426,58.426,0,0,0,80.682,77.289,34.919,34.919,0,0,0,77.668,75a54.15,54.15,0,0,1-.328-28.549A86.508,86.508,0,0,0,49.225,68.184h-.054c-4.629-5.868-4.3-25.215-4.038-29.257a20.878,20.878,0,0,0-3.9,2.07,85.061,85.061,0,0,0-11.416,9.779A102,102,0,0,0,18.9,63.878v0A98.647,98.647,0,0,0,3.228,99.264l-.157.772c-.22,1.028-1.013,6.175-1.148,7.293a2.462,2.462,0,0,1-.027.256,111.318,111.318,0,0,0-1.9,16.1v.6a116.807,116.807,0,0,0,231.914,19.752c.2-1.507.356-3,.53-4.52a120.116,120.116,0,0,0-7.576-58.673ZM90.248,172.277c.545.262,1.058.545,1.618.8l.081.051q-.85-.407-1.7-.847ZM117,101.829ZM213.3,86.959v-.112l.021.124Z" transform="translate(0 0)"/><path class="b" d="M224.868,46.581c-5.075-12.211-15.37-25.4-23.431-29.564A121.35,121.35,0,0,1,213.266,52.47v.111l.021.124a105.78,105.78,0,0,1-3.634,78.832c-13.387,28.723-45.79,58.164-96.51,56.732-54.8-1.552-103.068-42.219-112.091-95.482-1.642-8.4,0-12.657.826-19.483A87.022,87.022,0,0,0,0,89.421v.6a116.807,116.807,0,0,0,231.914,19.752c.2-1.507.356-3,.53-4.52a120.116,120.116,0,0,0-7.576-58.673Z" transform="translate(0 34.267)"/><path class="c" d="M224.868,46.581c-5.075-12.211-15.37-25.4-23.431-29.564A121.35,121.35,0,0,1,213.266,52.47v.111l.021.124a105.78,105.78,0,0,1-3.634,78.832c-13.387,28.723-45.79,58.164-96.51,56.732-54.8-1.552-103.068-42.219-112.091-95.482-1.642-8.4,0-12.657.826-19.483A87.022,87.022,0,0,0,0,89.421v.6a116.807,116.807,0,0,0,231.914,19.752c.2-1.507.356-3,.53-4.52a120.116,120.116,0,0,0-7.576-58.673Z" transform="translate(0 34.267)"/><path class="d" d="M92.721,94.568c.253.178.488.356.726.533A63.589,63.589,0,0,0,82.6,80.952C46.3,44.644,73.084,2.226,77.6.071l.045-.066C48.308,17.183,38.354,48.983,37.438,64.889c1.362-.093,2.712-.208,4.1-.208A58.948,58.948,0,0,1,92.721,94.568Z" transform="translate(75.388 0.01)"/><path class="e" d="M74.006,58.6c-.193,2.905-10.457,12.926-14.047,12.926-33.214,0-38.605,20.092-38.605,20.092,1.471,16.919,13.26,30.854,27.512,38.225.651.338,1.311.642,1.971.94q1.715.759,3.43,1.4a51.941,51.941,0,0,0,15.2,2.932c58.215,2.73,69.492-69.616,27.482-90.609a40.323,40.323,0,0,1,28.163,6.838A58.948,58.948,0,0,0,73.931,21.466c-1.386,0-2.742.115-4.1.208A58.426,58.426,0,0,0,37.682,34.063c1.781,1.507,3.791,3.52,8.025,7.694C53.633,49.566,73.961,57.654,74.006,58.6Z" transform="translate(43 43.225)"/><path class="f" d="M74.006,58.6c-.193,2.905-10.457,12.926-14.047,12.926-33.214,0-38.605,20.092-38.605,20.092,1.471,16.919,13.26,30.854,27.512,38.225.651.338,1.311.642,1.971.94q1.715.759,3.43,1.4a51.941,51.941,0,0,0,15.2,2.932c58.215,2.73,69.492-69.616,27.482-90.609a40.323,40.323,0,0,1,28.163,6.838A58.948,58.948,0,0,0,73.931,21.466c-1.386,0-2.742.115-4.1.208A58.426,58.426,0,0,0,37.682,34.063c1.781,1.507,3.791,3.52,8.025,7.694C53.633,49.566,73.961,57.654,74.006,58.6Z" transform="translate(43 43.225)"/><path class="g" d="M42.359,42.363c.946.6,1.727,1.127,2.411,1.6a54.15,54.15,0,0,1-.328-28.549A86.507,86.507,0,0,0,16.327,37.144C16.9,37.129,33.839,36.824,42.359,42.363Z" transform="translate(32.877 31.041)"/><path class="h" d="M.733,101.023c9.014,53.264,57.287,93.93,112.091,95.482,50.72,1.435,83.123-28.009,96.51-56.732a105.78,105.78,0,0,0,3.634-78.832v-.112c0-.087-.018-.139,0-.112l.021.2c4.144,27.054-9.617,53.264-31.128,70.987l-.066.151c-41.914,34.136-82.026,20.6-90.145,15.068q-.85-.407-1.7-.847c-24.438-11.681-34.534-33.946-32.37-53.041a30,30,0,0,1-27.669-17.4A44.054,44.054,0,0,1,72.853,74.1a58.164,58.164,0,0,0,43.855,1.724c-.045-.949-20.372-9.041-28.3-16.846-4.234-4.174-6.244-6.184-8.025-7.694A34.921,34.921,0,0,0,77.37,49c-.693-.473-1.474-.985-2.411-1.6-8.52-5.539-25.463-5.235-26.023-5.22h-.054c-4.629-5.868-4.3-25.215-4.038-29.257a20.878,20.878,0,0,0-3.9,2.07,85.062,85.062,0,0,0-11.416,9.779,102,102,0,0,0-10.964,13.07v0A98.647,98.647,0,0,0,2.893,73.234c-.057.238-4.207,18.38-2.161,27.789Z" transform="translate(0.334 26.031)"/><path class="i" d="M64.956,80.962A63.588,63.588,0,0,1,75.805,95.127c.642.485,1.242.967,1.751,1.435,26.481,24.411,12.606,58.917,11.573,61.374,21.512-17.723,35.26-43.933,31.128-70.987C107.045,54.008,84.65,40.733,66.36,11.825c-.925-1.462-1.85-2.926-2.751-4.472-.515-.883-.928-1.679-1.287-2.411A21.254,21.254,0,0,1,60.58.316a.3.3,0,0,0-.265-.3.416.416,0,0,0-.22,0c-.015,0-.039.027-.057.033s-.057.033-.084.045c-4.518,2.143-31.306,44.56,5,80.869Z" transform="translate(93.036 0)"/><path class="j" d="M109.2,38.145c-.509-.467-1.109-.949-1.751-1.435-.238-.178-.473-.356-.726-.533a40.323,40.323,0,0,0-28.163-6.838c42.011,21.005,30.74,93.34-27.482,90.609a51.94,51.94,0,0,1-15.2-2.932q-1.715-.642-3.43-1.4c-.66-.3-1.32-.6-1.971-.94l.081.051c8.119,5.542,48.219,19.083,90.145-15.068l.066-.151C121.817,97.063,135.692,62.547,109.2,38.145Z" transform="translate(61.375 58.401)"/><path class="k" d="M44.169,71.143S49.56,51.05,82.774,51.05c3.589,0,13.863-10.02,14.047-12.926A58.164,58.164,0,0,1,52.966,36.4a44.054,44.054,0,0,0-42.942,1.724,30,30,0,0,0,27.669,17.4c-2.164,19.1,7.932,41.363,32.37,53.041.545.262,1.058.545,1.618.8C57.417,102,45.64,88.061,44.169,71.143Z" transform="translate(20.185 63.704)"/><path class="l" d="M224.868,80.848c-5.075-12.211-15.37-25.4-23.431-29.564a121.35,121.35,0,0,1,11.829,35.453l.021.2c-13.206-32.924-35.6-46.2-53.891-75.107-.925-1.462-1.85-2.926-2.751-4.472-.515-.883-.928-1.679-1.287-2.411A21.254,21.254,0,0,1,153.616.316a.3.3,0,0,0-.265-.3.416.416,0,0,0-.22,0c-.015,0-.039.027-.057.033s-.057.033-.084.045l.045-.078C123.7,17.193,113.742,48.993,112.826,64.9c1.362-.093,2.712-.208,4.1-.208a58.947,58.947,0,0,1,51.178,29.887,40.323,40.323,0,0,0-28.163-6.838c42.011,21.005,30.74,93.34-27.482,90.609a51.94,51.94,0,0,1-15.2-2.932q-1.715-.642-3.43-1.4c-.66-.3-1.32-.6-1.971-.94l.081.051q-.85-.407-1.7-.847c.545.262,1.058.545,1.618.8C77.6,165.7,65.825,151.766,64.354,134.847c0,0,5.391-20.092,38.605-20.092,3.589,0,13.863-10.02,14.047-12.926-.045-.949-20.372-9.041-28.3-16.846-4.234-4.174-6.244-6.184-8.025-7.694A34.919,34.919,0,0,0,77.668,75a54.15,54.15,0,0,1-.328-28.549A86.508,86.508,0,0,0,49.225,68.184h-.054c-4.629-5.868-4.3-25.215-4.038-29.257a20.878,20.878,0,0,0-3.9,2.07,85.061,85.061,0,0,0-11.416,9.779A102,102,0,0,0,18.9,63.878v0A98.647,98.647,0,0,0,3.228,99.264l-.157.772c-.22,1.028-1.205,6.247-1.347,7.368h0A135.9,135.9,0,0,0,0,123.687v.6a116.807,116.807,0,0,0,231.914,19.752c.2-1.507.356-3,.53-4.52a120.116,120.116,0,0,0-7.576-58.673Zm-11.588,6,.021.124Z" transform="translate(0 0)"/></g></svg>