<svg xmlns="http://www.w3.org/2000/svg" xmlns:xlink="http://www.w3.org/1999/xlink" width="114.774" height="116.5" viewBox="0 0 114.774 116.5"><defs><linearGradient id="a" x1="0.5" x2="0.5" y2="1" gradientUnits="objectBoundingBox"><stop offset="0" stop-color="#ca1072"/><stop offset="1" stop-color="#f5a21a"/></linearGradient></defs><g transform="translate(-1173.112 -704)"><g transform="translate(1173.112 704)"><path d="M421.594,427.356c-1.9,9.826-5.741,29.74,3.458,43.062,16.7,24.179,73.473,22.475,97.456-8.009,2.073-2.635,12.475-16.383,11.34-35.208-1.969-32.652-37.5-61.593-65.976-55.909-16.666,3.327-27.742,17.88-32.3,23.872A78.85,78.85,0,0,0,421.594,427.356Z" transform="translate(-419.161 -370.574)" fill="url(#a)"/></g><g transform="translate(1192.999 741.25)"><path d="M49.1,71a8.449,8.449,0,1,1,8.526-8.448A8.5,8.5,0,0,1,49.1,71Zm0-14.526a6.078,6.078,0,1,0,6.155,6.078A6.124,6.124,0,0,0,49.1,56.477Zm0,0" transform="translate(-34.558 -46.087)" fill="#fff"/><path d="M17.97,203.222H3.1A3.092,3.092,0,0,1,0,200.143v-3.878a14.569,14.569,0,0,1,23.217-11.553,1.186,1.186,0,0,1-1.408,1.909,12.2,12.2,0,0,0-19.438,9.644v3.878a.719.719,0,0,0,.728.708H17.97a1.186,1.186,0,1,1,0,2.371Zm0,0" transform="translate(0 -154.916)" fill="#fff"/><path d="M353.948,197.17H339.077a1.186,1.186,0,1,1,0-2.371h14.872a.718.718,0,0,0,.728-.707v-3.878a12.111,12.111,0,0,0-12.168-12.027,12.278,12.278,0,0,0-7.7,2.718,1.185,1.185,0,1,1-1.491-1.843,14.659,14.659,0,0,1,9.195-3.246,14.485,14.485,0,0,1,14.539,14.4v3.878a3.092,3.092,0,0,1-3.1,3.078Zm0,0" transform="translate(-283.544 -149.762)" fill="#fff"/><path d="M348.878,67.049a8.449,8.449,0,1,1,8.527-8.448A8.5,8.5,0,0,1,348.878,67.049Zm0-14.526a6.078,6.078,0,1,0,6.156,6.078A6.124,6.124,0,0,0,348.878,52.524Zm0,0" transform="translate(-289.915 -42.72)" fill="#fff"/><path d="M149.319,184.9H117.138a3.867,3.867,0,0,1-3.877-3.848V175.6a19.968,19.968,0,0,1,39.934,0v5.454a3.867,3.867,0,0,1-3.877,3.848Zm-16.09-26.7a17.517,17.517,0,0,0-17.6,17.4v5.454a1.493,1.493,0,0,0,1.506,1.477h32.18a1.494,1.494,0,0,0,1.506-1.477V175.6a17.516,17.516,0,0,0-17.6-17.4Zm0,0" transform="translate(-96.477 -132.739)" fill="#fff"/><path d="M182.238,21.707a10.918,10.918,0,0,1-10.957-10.854,10.958,10.958,0,0,1,21.914,0,10.918,10.918,0,0,1-10.957,10.854Zm0-19.337a8.545,8.545,0,0,0-8.586,8.483,8.587,8.587,0,0,0,17.172,0,8.545,8.545,0,0,0-8.586-8.483Zm0,0" transform="translate(-145.899 0)" fill="#fff"/></g></g></svg>