<svg xmlns="http://www.w3.org/2000/svg" xmlns:xlink="http://www.w3.org/1999/xlink" width="118.87" height="116.5" viewBox="0 0 118.87 116.5"><defs><linearGradient id="a" x1="0.5" x2="0.5" y2="1" gradientUnits="objectBoundingBox"><stop offset="0" stop-color="#a70e5f"/><stop offset="1" stop-color="#511bb2"/></linearGradient></defs><g transform="translate(-790 -700)"><g transform="translate(790 700)"><path d="M690.656,513.176c24.033,30.741,80.315,31.234,95.9,14.159,6.218-6.814,7.86-18.517,10.274-35.708a158.284,158.284,0,0,0,1.427-19.522c.34-15.568.51-23.352-2-28.648-7.178-15.159-32.115-21.06-48.234-21.333q-1.687-.029-3.4.022c-18.873.562-40.17,8.419-53.3,25.207a56.322,56.322,0,0,0-3.8,5.484A52.963,52.963,0,0,0,690.656,513.176Z" transform="translate(-679.574 -422.113)" fill="url(#a)"/></g><g transform="translate(819 722)"><path d="M105.2,18.717v47.75a7.059,7.059,0,0,1-7.028,7.074H66.11a7.059,7.059,0,0,1-7.028-7.074V35.419a17.173,17.173,0,0,0,5.271.135V66.467a1.765,1.765,0,0,0,1.757,1.768H98.174a1.765,1.765,0,0,0,1.757-1.768V18.717a1.765,1.765,0,0,0-1.757-1.768H80.781a18.821,18.821,0,0,0-.769-5.305H98.174A7.059,7.059,0,0,1,105.2,18.717ZM61.863,33.368A16.684,16.684,0,1,1,78.438,16.684,16.648,16.648,0,0,1,61.863,33.368Zm0-3.537A13.147,13.147,0,1,0,48.8,16.684,13.119,13.119,0,0,0,61.863,29.831ZM71.8,18.453a1.769,1.769,0,0,0,0-3.537H63.62V7.974a1.757,1.757,0,1,0-3.514,0v8.711a1.763,1.763,0,0,0,1.757,1.768ZM92.082,32.792H73.048a1.769,1.769,0,0,0,0,3.537H92.082a1.769,1.769,0,0,0,0-3.537Zm.031,10.728H73.079a1.769,1.769,0,0,0,0,3.537H92.113a1.769,1.769,0,0,0,0-3.537Zm0,11.172H73.079a1.768,1.768,0,0,0,0,3.537H92.113a1.768,1.768,0,0,0,0-3.537Z" transform="translate(-45.288 0)" fill="#fff"/></g></g></svg>