<svg xmlns="http://www.w3.org/2000/svg" xmlns:xlink="http://www.w3.org/1999/xlink" width="117.104" height="111.374" viewBox="0 0 117.104 111.374"><defs><linearGradient id="a" x1="0.5" x2="0.5" y2="1" gradientUnits="objectBoundingBox"><stop offset="0" stop-color="#c52b7c"/><stop offset="1" stop-color="#6f47b7"/></linearGradient></defs><g transform="translate(-622 -694)"><g transform="translate(622 694)"><path d="M604.662,497.1c29.051-4.4,52.659-31.866,48.37-62.395-3.659-26.036-26.486-46.3-53.859-48.211q-2.973-.208-6.011-.123a59.817,59.817,0,0,0-38.874,15.792c-9.988,9.2-16.477,21.5-17.658,34.41C533.484,470.918,568.529,502.576,604.662,497.1Z" transform="translate(-536.434 -386.349)" fill="url(#a)"/></g><g transform="translate(651 719)"><g transform="translate(0)"><g transform="translate(16.063)"><path d="M154.673,39.746a14.373,14.373,0,1,1,14.373-14.373A14.389,14.389,0,0,1,154.673,39.746Zm0-23.678a9.3,9.3,0,1,0,9.3,9.3A9.315,9.315,0,0,0,154.673,16.068Z" transform="translate(-140.3 -11)" fill="#fff"/></g><g transform="translate(0 30.572)"><path d="M69.337,287.4h-55.8A2.529,2.529,0,0,1,11,284.865,30.6,30.6,0,0,1,20.081,263a20.83,20.83,0,0,1,14.609-5.9H48.181A20.808,20.808,0,0,1,62.79,263a30.6,30.6,0,0,1,9.081,21.864A2.529,2.529,0,0,1,69.337,287.4Zm-53.145-5.068H66.679A25.464,25.464,0,0,0,59.213,266.6a15.743,15.743,0,0,0-11.031-4.423H34.69A15.721,15.721,0,0,0,23.659,266.6a25.464,25.464,0,0,0-7.466,15.727Z" transform="translate(-11 -257.1)" fill="#fff"/></g></g></g></g></svg>