<svg xmlns="http://www.w3.org/2000/svg" xmlns:xlink="http://www.w3.org/1999/xlink" width="30" height="30" viewBox="0 0 30 30"><defs><style>.a{fill:url(#a);}.b,.c{fill:#fff;}.b{opacity:0.1;}</style><linearGradient id="a" x1="0.146" y1="0.146" x2="0.854" y2="0.854" gradientUnits="objectBoundingBox"><stop offset="0" stop-color="#fae100"/><stop offset="0.15" stop-color="#fcb720"/><stop offset="0.3" stop-color="#ff7950"/><stop offset="0.5" stop-color="#ff1c74"/><stop offset="1" stop-color="#6c1cd1"/></linearGradient></defs><g transform="translate(2.037 14.037)"><g transform="translate(-2 -14)"><g transform="translate(0)"><rect class="a" width="30" height="30" rx="15" transform="translate(-0.037 -0.037)"/><g transform="translate(2.001 1.998)"><path class="b" d="M25.961,5.065a52.786,52.786,0,0,1-9.025,11.864,52.855,52.855,0,0,1-11.858,9.02q-.372-.323-.723-.674A14.8,14.8,0,1,1,25.288,4.335q.348.353.673.73Z" transform="translate(-0.016 0)"/><g transform="translate(5.188 5.191)"><path class="c" d="M48.386,36H40.7A4.7,4.7,0,0,0,36,40.7v7.688a4.7,4.7,0,0,0,4.7,4.7h7.688a4.7,4.7,0,0,0,4.7-4.7V40.7a4.7,4.7,0,0,0-4.7-4.7Zm3.2,11.711a3.878,3.878,0,0,1-3.878,3.878H41.373a3.878,3.878,0,0,1-3.878-3.878V41.373a3.878,3.878,0,0,1,3.878-3.878h6.338a3.878,3.878,0,0,1,3.878,3.878Z" transform="translate(-36 -36)"/><path class="c" d="M63.088,56.66l-.041-.041-.034-.034a4.305,4.305,0,0,0-3.041-1.256,4.382,4.382,0,0,0-4.352,4.414,4.431,4.431,0,0,0,1.281,3.12,4.312,4.312,0,0,0,3.079,1.281,4.427,4.427,0,0,0,3.107-7.485Zm-3.116,5.98a2.9,2.9,0,1,1,2.855-2.9A2.9,2.9,0,0,1,59.972,62.64Z" transform="translate(-51.43 -51.202)"/><path class="c" d="M94.81,50.526a1.042,1.042,0,0,1-1.036,1.051,1.027,1.027,0,0,1-.73-.305,1.053,1.053,0,0,1,.732-1.792,1.029,1.029,0,0,1,.66.239l.021.021a.652.652,0,0,1,.094.094l.023.026a1.051,1.051,0,0,1,.235.666Z" transform="translate(-80.624 -46.601)"/></g></g></g></g></g></svg>