<svg xmlns="http://www.w3.org/2000/svg" xmlns:xlink="http://www.w3.org/1999/xlink" width="255.085" height="250" viewBox="0 0 255.085 250"><defs><style>.a{fill:url(#a);}.b{fill:#fff;}</style><linearGradient id="a" x1="0.5" x2="0.5" y2="1" gradientUnits="objectBoundingBox"><stop offset="0" stop-color="#a70e5f"/><stop offset="1" stop-color="#511bb2"/></linearGradient></defs><path class="a" d="M910.88,617.527c-51.572,65.967-172.349,67.026-205.784,30.384-13.344-14.622-16.867-39.736-22.046-76.626a339.663,339.663,0,0,1-3.062-41.893c-.73-33.407-1.093-50.112,4.285-61.477,15.4-32.531,68.917-45.192,103.505-45.78q3.621-.062,7.306.048c40.5,1.207,86.2,18.066,114.388,54.092a120.85,120.85,0,0,1,8.146,11.769C943.345,530.352,939.015,581.543,910.88,617.527Z" transform="translate(-679.574 -422.113)"/><g transform="translate(36.539 33.654)"><path class="b" d="M1478.85,1230.275a48.824,48.824,0,1,0,48.824,48.824A48.825,48.825,0,0,0,1478.85,1230.275Zm-21.055,11.7a110.948,110.948,0,0,0-4.346,16.032,99.861,99.861,0,0,0-14.079,4.807A42.959,42.959,0,0,1,1457.8,1241.972Zm-20.821,28.684a93.8,93.8,0,0,1,15.423-6.027,111.771,111.771,0,0,0-.894,11.419h-15.219a42.321,42.321,0,0,1,.693-5.407Zm-.69,11.5H1451.5a111.591,111.591,0,0,0,.9,11.434,93.857,93.857,0,0,1-15.423-6.027A42.32,42.32,0,0,1,1436.284,1282.151Zm3.089,13.237a100.257,100.257,0,0,0,14.081,4.807,110.532,110.532,0,0,0,4.342,16.032A42.961,42.961,0,0,1,1439.373,1295.388Zm36.426,26.278a42.5,42.5,0,0,1-10.128-1.947,104.51,104.51,0,0,1-5.683-18.038,100.945,100.945,0,0,0,15.81,1.721Zm0-24.37a94.481,94.481,0,0,1-17.037-2.105,105.338,105.338,0,0,1-1.156-13.039H1475.8Zm0-21.247h-18.193a105.337,105.337,0,0,1,1.156-13.039,94.481,94.481,0,0,1,17.037-2.105Zm0-21.247a100.577,100.577,0,0,0-15.81,1.718,104.5,104.5,0,0,1,5.683-18.038,42.49,42.49,0,0,1,10.128-1.948Zm45.618,21.247H1506.2a112.636,112.636,0,0,0-.915-11.44,93.815,93.815,0,0,1,15.444,6.033A42.049,42.049,0,0,1,1521.416,1276.048Zm-3.089-13.234a99.516,99.516,0,0,0-14.125-4.819,110.647,110.647,0,0,0-4.416-16.1A42.964,42.964,0,0,1,1518.328,1262.813Zm-36.426-26.281a42.319,42.319,0,0,1,9.99,1.9,104.191,104.191,0,0,1,5.78,18.087,100.451,100.451,0,0,0-15.77-1.718Zm0,24.37a94.083,94.083,0,0,1,17.013,2.1,105.661,105.661,0,0,1,1.183,13.042h-18.2Zm10.174,58.8a42.431,42.431,0,0,1-10.174,1.965V1303.4a100.422,100.422,0,0,0,15.84-1.727A104.359,104.359,0,0,1,1492.075,1319.7Zm-10.174-22.405v-15.144h18.208a104.6,104.6,0,0,1-1.147,13.033A94.062,94.062,0,0,1,1481.9,1297.295Zm18.05,18.9a110.349,110.349,0,0,0,4.33-16.011,100.131,100.131,0,0,0,14.037-4.8A42.93,42.93,0,0,1,1499.951,1316.2Zm20.772-28.639a93.993,93.993,0,0,1-15.395,6.021,111.133,111.133,0,0,0,.881-11.428h15.207A42.32,42.32,0,0,1,1520.724,1287.558Z" transform="translate(-1387.305 -1187.551)"/><path class="b" d="M2320.659,2563.788c1.907-.842,3.822-1.77,5.68-2.746l-2.85-5.4c-1.736.917-3.518,1.779-5.3,2.57Z" transform="translate(-2192.088 -2388.498)"/><path class="b" d="M2083.5,2640.782c-1.913.4-3.864.745-5.8,1.016l.846,6.042c2.071-.291,4.162-.656,6.212-1.086Z" transform="translate(-1974.18 -2465.641)"/><path class="b" d="M1825.39,2652.871c-1.953-.128-3.925-.323-5.862-.583l-.812,6.048c2.076.277,4.187.492,6.274.629Z" transform="translate(-1739.505 -2476.066)"/><path class="b" d="M1061.81,1292.718l5.561,2.527c.807-1.787,1.69-3.561,2.618-5.279l-5.369-2.9C1063.626,1288.915,1062.683,1290.819,1061.81,1292.718Z" transform="translate(-1053.657 -1239.008)"/><path class="b" d="M1566.153,2592.82l2.047-5.751c-1.831-.651-3.661-1.38-5.492-2.171l-2.442,5.6C1562.213,2591.338,1564.191,2592.118,1566.153,2592.82Z" transform="translate(-1505.318 -2415.003)"/><path class="b" d="M1030.438,2055.42l5.619-2.387c-.77-1.806-1.481-3.661-2.113-5.492l-5.766,1.989C1028.854,2051.5,1029.614,2053.481,1030.438,2055.42Z" transform="translate(-1023.182 -1928.093)"/><path class="b" d="M977,1808.791l6.054-.757c-.24-1.936-.417-3.91-.527-5.865l-6.1.338C976.547,1804.607,976.739,1806.718,977,1808.791Z" transform="translate(-976.285 -1705.756)"/><path class="b" d="M985.786,1544.724l6.036.915c.289-1.928.65-3.879,1.074-5.8l-5.96-1.328C986.485,1540.564,986.1,1542.655,985.786,1544.724Z" transform="translate(-984.77 -1466.853)"/><path class="b" d="M1023.785,2229.826a24.412,24.412,0,1,0-24.412,24.412A24.411,24.411,0,0,0,1023.785,2229.826Zm-24.412,18.309a18.309,18.309,0,1,1,18.309-18.309A18.31,18.31,0,0,1,999.373,2248.135Z" transform="translate(-974.961 -2071.145)"/><path class="b" d="M1366.784,799.6a24.4,24.4,0,0,0-45.635-12.02,91.423,91.423,0,0,0-112.2,16.018q-1.871,1.965-3.631,4.042l4.663,3.94q1.638-1.938,3.387-3.771l-2.213-2.105,2.21,2.1a85.338,85.338,0,0,1,105.45-14.522,24.328,24.328,0,0,0,29.871,29.871,85.332,85.332,0,0,1-14.524,105.45c-1.416,1.353-2.9,2.667-4.4,3.913l3.9,4.705c1.608-1.337,3.194-2.746,4.714-4.2a91.42,91.42,0,0,0,16.014-112.2A24.412,24.412,0,0,0,1366.784,799.6ZM1342.372,817.9a18.309,18.309,0,1,1,18.309-18.309A18.31,18.31,0,0,1,1342.372,817.9Z" transform="translate(-1183.693 -775.18)"/><path class="b" d="M1136.85,2341.535h1.205a3.052,3.052,0,0,0,0-6.1h-1.205a12.206,12.206,0,1,0,0,24.412h1.205a3.052,3.052,0,0,0,0-6.1h-1.205a6.1,6.1,0,0,1-5.078-2.719c-.067-.1-.094-.225-.155-.332h6.438a3.052,3.052,0,0,0,0-6.1h-6.438c.061-.107.088-.23.155-.333A6.1,6.1,0,0,1,1136.85,2341.535Z" transform="translate(-1110.592 -2188.956)"/><path class="b" d="M2581.559,895.77l-6.748-3.357a1.887,1.887,0,0,1,0-3.375,4.52,4.52,0,0,1,4.02,0l2.731,1.366a3.053,3.053,0,0,0,2.728-5.462l-2.748-1.363a10.643,10.643,0,0,0-9.458,0,7.992,7.992,0,0,0,0,14.294l6.747,3.356a1.888,1.888,0,0,1,0,3.376,4.529,4.529,0,0,1-4.02,0l-2.731-1.368a3.053,3.053,0,0,0-2.727,5.462l2.746,1.363a10.655,10.655,0,0,0,9.46,0,7.992,7.992,0,0,0,0-14.292Z" transform="translate(-2418.14 -872.398)"/></g></svg>