<svg xmlns="http://www.w3.org/2000/svg" width="24" height="24" viewBox="0 0 24 24"><defs><style>.a{fill:#fff;}.b{fill:#54529a;}</style></defs><g transform="translate(-163 -392)"><g transform="translate(163 392)"><path class="a" d="M24,12A12,12,0,1,1,12,0,12,12,0,0,1,24,12Zm0,0"/><path class="b" d="M73.288,165.69a1.123,1.123,0,0,0-.043-1.182l-3.571-4.777a.544.544,0,0,0-.925,0,1.1,1.1,0,0,0,0,1.243l2.448,3.275H56.654c-.361,0-.654.393-.654.879s.293.879.654.879H71.2l-2.448,3.275a1.1,1.1,0,0,0,0,1.243.544.544,0,0,0,.925,0l3.571-4.777c.015-.02.03-.042.043-.064Zm0,0" transform="translate(-52.719 -153.132)"/></g></g></svg>