<svg xmlns="http://www.w3.org/2000/svg" xmlns:xlink="http://www.w3.org/1999/xlink" width="251.296" height="239" viewBox="0 0 251.296 239"><defs><style>.a{fill:url(#a);}.b{fill:#fff;}</style><linearGradient id="a" x1="0.5" x2="0.5" y2="1" gradientUnits="objectBoundingBox"><stop offset="0" stop-color="#c52b7c"/><stop offset="1" stop-color="#6f47b7"/></linearGradient></defs><path class="a" d="M641.316,624.019c-62.34-9.441-113-68.382-103.8-133.894,7.852-55.871,56.836-99.351,115.578-103.457q6.38-.447,12.9-.264a128.361,128.361,0,0,1,83.42,33.888c21.433,19.739,35.357,46.142,37.893,73.841C794.058,567.828,718.853,635.762,641.316,624.019Z" transform="translate(-536.433 -386.349)"/><g transform="matrix(0.966, 0.259, -0.259, 0.966, 71.432, 24.393)"><path class="b" d="M1784.821,1254.5a16.577,16.577,0,1,0-16.577,16.577A16.6,16.6,0,0,0,1784.821,1254.5Zm-24.112,0a7.535,7.535,0,1,1,7.535,7.535A7.543,7.543,0,0,1,1760.709,1254.5Z" transform="translate(-1691.08 -1198.739)"/><path class="b" d="M1162.833,908.113c.095-.635.056-93.123.013-93.465a4.545,4.545,0,0,0-1.411-2.748c-.632-.585-35.693-25.846-39.844-28.873V761.869a4.521,4.521,0,0,0-4.521-4.521H1054.38a4.521,4.521,0,0,0-4.521,4.521v21.155c-4.477,3.266-36.628,26.446-39.465,28.565a4.508,4.508,0,0,0-1.8,3.139c-.057.525-.028,92.888-.017,93.048a4.524,4.524,0,0,0,4.508,4.189c155.63,0,145.673.132,146.777-.26a4.514,4.514,0,0,0,2.967-3.592Zm-145.223-9.6v-74.4l50.607,36.933C1065.945,862.714,1020.142,896.655,1017.61,898.515Zm58.252-43.084-16.96-12.378V787.706a26.222,26.222,0,0,0,21.3-21.316h11.041a26.224,26.224,0,0,0,21.3,21.316v55.348l-16.96,12.377-7.188-5.28a4.521,4.521,0,0,0-5.352,0Zm27.374,5.615,50.607-36.933v74.4c-2.532-1.86-48.335-35.8-50.607-37.469Zm47.447-45.821-29.09,21.23V794.2c5.889,4.257,12.342,8.865,29.09,21.024ZM1112.55,766.39v12.091a17.132,17.132,0,0,1-12.059-12.091Zm-53.649,0h12.06a17.132,17.132,0,0,1-12.06,12.091ZM1049.86,794.2v42.256l-29.09-21.23C1037.53,803.057,1043.8,798.584,1049.86,794.2Zm-22.977,108.724c6.1-4.478,52.659-38.976,58.844-43.519,43.237,31.755,36.484,27.1,58.844,43.519Z" transform="translate(-1008.563 -757.348)"/></g></svg>