<svg xmlns="http://www.w3.org/2000/svg" width="45.191" height="45" viewBox="0 0 45.191 45"><defs><style>.a{fill:#fff;}</style></defs><g transform="translate(0 -1.082)"><g transform="translate(0 1.082)"><g transform="translate(0 0)"><path class="a" d="M44.9,38.165l-4.531-3.033.7-1.345a.662.662,0,0,0-.083-.736,14,14,0,0,0-4.075-2.909,37.584,37.584,0,0,0,2.4-7.119A48.7,48.7,0,0,0,40.445,8.4a.662.662,0,0,0-.59-.59A34.882,34.882,0,0,1,27.62,4.136a27.764,27.764,0,0,1-4.6-2.9.662.662,0,0,0-.849,0A34.043,34.043,0,0,1,5.336,7.813a.662.662,0,0,0-.59.59,44.948,44.948,0,0,0,.025,7.405.662.662,0,0,0,1.32-.1,47.441,47.441,0,0,1-.069-6.637A36.305,36.305,0,0,0,18.215,5.292,31.2,31.2,0,0,0,22.6,2.585a31.2,31.2,0,0,0,4.38,2.708A36.308,36.308,0,0,0,39.17,9.069,48.97,48.97,0,0,1,38.028,22.72,35.76,35.76,0,0,1,35.421,30.2c-.031.063-.062.126-.093.188q-.1.205-.205.408-.059.114-.118.228-.11.21-.224.417-.094.173-.191.343-.086.153-.174.305t-.178.3c-.043.072-.087.144-.131.216q-.212.348-.432.687l-.032.05c-.076.117-.154.232-.232.347l-.1.148q-.69,1.006-1.454,1.921l-.009.011q-.148.177-.3.35c-.079.091-.159.18-.239.27l-.048.054q-.136.151-.274.3l-.014.015a23.614,23.614,0,0,1-8.38,5.752,23.827,23.827,0,0,1-9.727-7.325l-.029-.037c-.061-.077-.121-.155-.181-.233A27.682,27.682,0,0,1,9.75,30.159a.663.663,0,0,0-.069-.112,38.5,38.5,0,0,1-3.315-11.7.662.662,0,0,0-1.312.174A40.474,40.474,0,0,0,8.278,30.141,14,14,0,0,0,4.2,33.05a.662.662,0,0,0-.083.736l.7,1.345L.294,38.165a.662.662,0,0,0,.049,1.13l3.7,2.036v4.09a.662.662,0,0,0,1,.57L12.4,41.649l.013-.009.022-.014.038-.028.018-.014c.016-.013.03-.027.044-.041l.007-.007a.655.655,0,0,0,.048-.056l0,0,0,0a.654.654,0,0,0,.042-.064l.008-.014a.664.664,0,0,0,.034-.073l0-.013q.012-.032.02-.066l0-.018a.669.669,0,0,0,.013-.078s0-.007,0-.011a.648.648,0,0,0,0-.072c0-.005,0-.011,0-.016a.666.666,0,0,0-.008-.081v-.006a.651.651,0,0,0-.018-.073l-.006-.019a.657.657,0,0,0-.03-.077L11.75,38.9a17.56,17.56,0,0,1,1.91-.811,24.94,24.94,0,0,0,8.69,5.747.662.662,0,0,0,.489,0,24.974,24.974,0,0,0,8.691-5.747,17.555,17.555,0,0,1,1.91.811l-.907,1.892a.659.659,0,0,0-.03.077l-.006.019a.652.652,0,0,0-.018.073v.006a.666.666,0,0,0-.008.081c0,.006,0,.011,0,.017a.67.67,0,0,0,0,.072s0,.007,0,.011a.65.65,0,0,0,.013.078l0,.018a.652.652,0,0,0,.02.065l0,.013a.653.653,0,0,0,.034.073l.008.014a.664.664,0,0,0,.041.064l0,.005,0,0a.655.655,0,0,0,.048.056l.007.007q.021.021.044.041l.018.014.038.028.022.014.013.009,7.353,4.341a.662.662,0,0,0,1-.57v-4.09l3.7-2.036a.662.662,0,0,0,.049-1.13Zm-39.528,6.1V40.939a.662.662,0,0,0-.343-.58l-3.091-1.7,3.508-2.348L7.77,40.758a.654.654,0,0,0,.043.07c.006.009.013.017.02.025s.02.027.032.039.023.024.035.035l.022.021c.015.013.03.024.046.036L7.985,41c.018.012.036.023.055.033l.013.007a.644.644,0,0,0,.062.028l.011,0a.671.671,0,0,0,.067.021l.01,0c.014,0,.028.008.043.01l1.92.326Zm4.49-4.227L9.906,40l.1-.074.068-.047.112-.077.072-.048.123-.081.047-.03.146-.092.012-.007.321.669Zm.7-2-.006,0-.017.009h0l-.007,0-.083.047-.151.086-.088.051-.01.006-.013.008-.232.139-.035.021-.134.084-.028.018,0,0a12.111,12.111,0,0,0-1.207.869L6.377,35.243,5.516,33.6a14.64,14.64,0,0,1,3.34-2.267q.1.2.208.4c.036.067.072.134.108.2q.137.254.278.5c.021.037.041.075.062.112a27.835,27.835,0,0,0,2.335,3.477l.059.075q.1.13.208.259l.108.132c.062.074.123.149.185.222q.139.165.28.326A17.806,17.806,0,0,0,10.555,38.033ZM32.5,37.041l0-.005c.057-.065.113-.132.17-.2l.1-.12q.129-.153.256-.308l.009-.011q.622-.759,1.195-1.575c.051-.072.1-.146.149-.219.061-.088.122-.177.181-.266s.134-.2.2-.3q.08-.123.158-.247.131-.206.26-.415.087-.142.172-.285.1-.168.2-.337.111-.191.219-.384c.04-.071.08-.141.119-.213q.142-.258.279-.52l.093-.179.065-.124A14.808,14.808,0,0,1,39.674,33.6l-3.025,5.778a12.106,12.106,0,0,0-1.207-.869l0,0-.028-.018-.134-.084-.044-.027-.223-.134L35,38.238l-.01-.006-.088-.051-.151-.086-.083-.047-.007,0h0l-.017-.009-.006,0A17.828,17.828,0,0,0,32.5,37.041Zm1.966,2.776.131-.273.012.007.145.092.048.03.123.081L35,39.8l.112.077.068.047.1.073.05.036-1.052.179Zm5.7.543a.662.662,0,0,0-.343.58v3.322l-4.8-2.832,1.92-.326.02,0,.048-.012.034-.011.045-.018.033-.015.043-.023L37.2,41l.04-.03.026-.02c.014-.012.027-.025.039-.038l.02-.02a.652.652,0,0,0,.042-.052l.01-.013a.652.652,0,0,0,.043-.071l2.328-4.446,3.508,2.348Z" transform="translate(0 -1.082)"/></g></g><g transform="translate(8.738 6.023)"><path class="a" d="M126.609,62.775a.662.662,0,0,0-.59-.59,25.853,25.853,0,0,1-12.739-4.974.662.662,0,0,0-.848,0,25.851,25.851,0,0,1-12.74,4.975.662.662,0,0,0-.59.59,35.84,35.84,0,0,0,.151,7.048,28.825,28.825,0,0,0,4.8,13.454.662.662,0,1,0,1.071-.777,27.5,27.5,0,0,1-4.548-12.795,37.106,37.106,0,0,1-.192-6.267,27.169,27.169,0,0,0,12.477-4.882,27.164,27.164,0,0,0,12.477,4.882,35.373,35.373,0,0,1,0,4.063.662.662,0,0,0,1.321.074A33.141,33.141,0,0,0,126.609,62.775Z" transform="translate(-98.997 -57.056)"/></g><g transform="translate(15.378 18.525)"><path class="a" d="M194.422,198.712a.662.662,0,0,0-.74.573c-1.473,11.639-7.409,16.466-12.233,18.464a17.849,17.849,0,0,1-6.079-4.117.662.662,0,1,0-.953.918,19.2,19.2,0,0,0,6.787,4.528.662.662,0,0,0,.489,0,19.39,19.39,0,0,0,9.925-8.783A29.663,29.663,0,0,0,195,199.452.662.662,0,0,0,194.422,198.712Z" transform="translate(-174.233 -198.707)"/></g><g transform="translate(14.739 16.246)"><g transform="translate(0 0)"><path class="a" d="M182.252,173.564a2.321,2.321,0,0,0-3.278,0l-5.894,5.894-2.128-2.128a2.318,2.318,0,0,0-3.278,3.278l3.767,3.767a2.318,2.318,0,0,0,3.278,0l7.533-7.533A2.321,2.321,0,0,0,182.252,173.564Zm-.936,2.342-7.533,7.533a.994.994,0,0,1-1.406,0l-3.767-3.767a.994.994,0,0,1,1.406-1.406l2.6,2.6a.662.662,0,0,0,.936,0l6.362-6.362a.994.994,0,1,1,1.406,1.406Z" transform="translate(-166.997 -172.887)"/></g></g></g></svg>