<svg xmlns="http://www.w3.org/2000/svg" width="47.12" height="47.133" viewBox="0 0 47.12 47.133"><defs><style>.a{fill:#fff;}</style></defs><g transform="translate(-0.066 0)"><path class="a" d="M12.49,75.958V72.326a3.457,3.457,0,0,0-2.761-3.382v-2.6a3.456,3.456,0,0,0-2.82-3.392,3.451,3.451,0,0,0-6.844.631V80.241A5.861,5.861,0,0,0,.94,83.182L10.19,96.2v4.841a.69.69,0,0,0,.69.69H22.238a.69.69,0,0,0,.69-.69V88.976a6.174,6.174,0,0,0-1.816-4.4Zm-1.38-3.632v2.3a3.429,3.429,0,0,0-1.38-.619V70.374A2.074,2.074,0,0,1,11.11,72.326ZM8.349,66.344v7.664a3.428,3.428,0,0,0-1.38.619V64.392A2.074,2.074,0,0,1,8.349,66.344Zm13.2,34.006H11.57V95.978a.69.69,0,0,0-.128-.4l-9.377-13.2a4.473,4.473,0,0,1-.619-2.142V63.583a2.071,2.071,0,0,1,4.141,0V77.434c0,.013,0,.025,0,.037A3.427,3.427,0,0,0,6.6,79.828l9.629,9.629a.69.69,0,1,0,.976-.976L7.575,78.852a2.068,2.068,0,0,1,1.412-3.531l.052,0,.052,0a2.061,2.061,0,0,1,1.412.6l9.633,9.632a4.8,4.8,0,0,1,1.411,3.42Z" transform="translate(0 -54.598)"/><path class="a" d="M283.066,60.132a3.456,3.456,0,0,0-3.392,2.82,3.456,3.456,0,0,0-2.82,3.392v2.6a3.457,3.457,0,0,0-2.761,3.382v3.632l-8.622,8.622a6.174,6.174,0,0,0-1.816,4.4V101.04a.69.69,0,0,0,.69.69H275.7a.69.69,0,0,0,.69-.69V96.2l9.249-13.017a5.861,5.861,0,0,0,.874-2.941V63.583A3.455,3.455,0,0,0,283.066,60.132Zm-4.832,6.212a2.074,2.074,0,0,1,1.38-1.952V74.627a3.43,3.43,0,0,0-1.38-.619Zm-1.381,4.03v3.634a3.43,3.43,0,0,0-1.38.619v-2.3A2.074,2.074,0,0,1,276.853,70.374Zm8.283,9.867a4.472,4.472,0,0,1-.619,2.142l-9.377,13.2a.69.69,0,0,0-.128.4v4.372h-9.977V88.976a4.8,4.8,0,0,1,1.411-3.419l9.633-9.633a2.071,2.071,0,1,1,2.928,2.928l-9.629,9.629a.69.69,0,1,0,.976.976l9.629-9.629a3.427,3.427,0,0,0,1.01-2.357c0-.012,0-.025,0-.037V63.583a2.071,2.071,0,0,1,4.141,0Z" transform="translate(-239.33 -54.598)"/><path class="a" d="M152.67,14.194a.69.69,0,0,0,.382-1.177l-5.193-5.062L149.085.807a.69.69,0,0,0-1-.728l-6.419,3.375L135.246.08a.69.69,0,0,0-1,.728l.814,4.744a.69.69,0,0,0,1.361-.233l-.577-3.366,5.5,2.893a.691.691,0,0,0,.642,0l5.5-2.893-1.051,6.127a.69.69,0,0,0,.2.611l4.451,4.339-6.152.894a.69.69,0,0,0-.52.378l-2.751,5.574L138.914,14.3a.69.69,0,0,0-.52-.378l-6.152-.894,4.451-4.339a.69.69,0,0,0-.963-.989l-5.453,5.315a.69.69,0,0,0,.382,1.177l7.177,1.043,3.21,6.5a.69.69,0,0,0,1.238,0l3.21-6.5Z" transform="translate(-118.038 0)"/></g></svg>