<svg xmlns="http://www.w3.org/2000/svg" width="51" height="51" viewBox="0 0 51 51"><defs><style>.a{fill:#cbd6f4;}.b{fill:#fff;}</style></defs><g transform="translate(-1066 -310)"><g transform="translate(1066 310)"><g transform="translate(65 -1)"><circle class="a" cx="25.5" cy="25.5" r="25.5" transform="translate(-65 1)"/></g></g><path class="b" d="M19.95,15,29.231,5.72a2.624,2.624,0,0,0,0-3.712L27.994.771a2.624,2.624,0,0,0-3.712,0L15,10.051,5.72.769a2.624,2.624,0,0,0-3.712,0L.769,2.006a2.624,2.624,0,0,0,0,3.712L10.052,15,.771,24.281a2.624,2.624,0,0,0,0,3.712l1.237,1.237a2.624,2.624,0,0,0,3.712,0L15,19.95l9.281,9.281a2.624,2.624,0,0,0,3.712,0l1.237-1.237a2.624,2.624,0,0,0,0-3.712Zm0,0" transform="translate(1076.5 320.5)"/></g></svg>