<svg xmlns="http://www.w3.org/2000/svg" width="30" height="30" viewBox="0 0 30 30"><defs><style>.a{fill:#4a86c5;}.b{fill:#3d80b2;}.c{fill:#377ca5;}.d{fill:#fff;}</style></defs><circle class="a" cx="15" cy="15" r="15" transform="translate(0 0)"/><path class="b" d="M90.539,69.383A14.959,14.959,0,1,1,69.384,90.539Z" transform="translate(-64.921 -64.92)"/><path class="a" d="M462.646,301.6c.056-.174.107-.351.156-.528Q462.728,301.335,462.646,301.6Z" transform="translate(-433.372 -282.017)"/><g transform="translate(7.471 5.75)"><path class="c" d="M465.083,301.017h0v0Z" transform="translate(-443.122 -287.889)"/><path class="c" d="M145.623,110.032l-8.257-8.257-1.878,1.878-1.306-1.306-1.09,1.09-6.383-6.383-.4-.151-2.449,2.449,2.957,2.956-2.894,2.894,2.826,2.826-3.09,3.091,9.829,9.818a15.258,15.258,0,0,0,11.975-10.375q.082-.262.156-.528A.009.009,0,0,1,145.623,110.032Z" transform="translate(-123.662 -96.904)"/></g><path class="d" d="M136.151,100.155v5.653h-3.277v-5.274c0-1.325-.474-2.229-1.66-2.229a1.794,1.794,0,0,0-1.682,1.2,2.244,2.244,0,0,0-.109.8v5.505h-3.277s.044-8.932,0-9.858h3.277v1.4c-.006.01-.015.022-.021.032h.021v-.032a3.255,3.255,0,0,1,2.954-1.629C134.534,95.718,136.151,97.127,136.151,100.155ZM122.717,91.2a1.708,1.708,0,1,0-.043,3.407h.022a1.709,1.709,0,1,0,.021-3.407Zm-1.66,14.61h3.277V95.95h-3.277Z" transform="translate(-113.335 -85.511)"/></svg>