<svg width="48" height="48" viewBox="0 0 48 48" fill="none" xmlns="http://www.w3.org/2000/svg">
    <path d="M24 24c-2.2 0-4.083-.783-5.65-2.35C16.783 20.083 16 18.2 16 16s.783-4.083 2.35-5.65C19.917 8.783 21.8 8 24 8s4.083.783 5.65 2.35C31.217 11.917 32 13.8 32 16s-.783 4.083-2.35 5.65C28.083 23.217 26.2 24 24 24zM8 40v-5.6c0-1.133.292-2.175.875-3.125A5.832 5.832 0 0 1 11.2 29.1a29.698 29.698 0 0 1 6.3-2.325C19.633 26.258 21.8 26 24 26s4.367.258 6.5.775a29.698 29.698 0 0 1 6.3 2.325 5.832 5.832 0 0 1 2.325 2.175c.583.95.875 1.992.875 3.125V40H8zm4-4h24v-1.6c0-.367-.092-.7-.275-1a1.946 1.946 0 0 0-.725-.7c-1.8-.9-3.617-1.575-5.45-2.025A23.2 23.2 0 0 0 24 30a23.2 23.2 0 0 0-5.55.675A26.072 26.072 0 0 0 13 32.7c-.3.167-.542.4-.725.7a1.88 1.88 0 0 0-.275 1V36zm12-16c1.1 0 2.042-.392 2.825-1.175C27.608 18.042 28 17.1 28 16s-.392-2.042-1.175-2.825C26.042 12.392 25.1 12 24 12s-2.042.392-2.825 1.175C20.392 13.958 20 14.9 20 16s.392 2.042 1.175 2.825C21.958 19.608 22.9 20 24 20z" fill="#fff"/>
</svg>
