<svg xmlns="http://www.w3.org/2000/svg" width="30" height="30" viewBox="0 0 30 30">
  <g id="Group_3204" data-name="Group 3204" transform="translate(-1 -1)">
    <path id="Path_14761" data-name="Path 14761" d="M30.516,11.645A.484.484,0,0,0,31,11.161V3.419a.484.484,0,0,0-.484-.484h-.484V1.484A.484.484,0,0,0,29.548,1H2.452a.484.484,0,0,0-.484.484V2.935H1.484A.484.484,0,0,0,1,3.419v7.742a.484.484,0,0,0,.484.484h.484V28.1H1.484A.484.484,0,0,0,1,28.581v1.935A.484.484,0,0,0,1.484,31H30.516A.484.484,0,0,0,31,30.516V28.581a.484.484,0,0,0-.484-.484h-.484V11.645ZM2.935,1.968H29.065v.968H2.935ZM1.968,3.9H30.032v6.774H1.968Zm27.1,12.581H23.258v-2.9h5.806Zm-6.774,0H16.484v-2.9H22.29Zm-6.774,0H9.71v-2.9h5.806Zm-6.774,0H2.935v-2.9H8.742Zm21.29,13.548H1.968v-.968H30.032ZM17.452,28.1h-.968V20.839A.484.484,0,0,0,16,20.355H6.323a.484.484,0,0,0-.484.484V28.1H4.871v-8.71H17.452Zm-10.645,0V21.323h3.871V28.1Zm4.839-6.774h3.871V28.1H11.645ZM27.129,28.1H21.323v-8.71h5.806Zm.968,0V18.9a.484.484,0,0,0-.484-.484H20.839a.484.484,0,0,0-.484.484V28.1H18.419V18.9a.484.484,0,0,0-.484-.484H4.387A.484.484,0,0,0,3.9,18.9V28.1H2.935V17.452H29.065V28.1Zm.968-15.484H2.935v-.968H29.065Z" transform="translate(0 0)" fill="#54529a"/>
    <path id="Path_14762" data-name="Path 14762" d="M16.236,9H14.447A.447.447,0,0,0,14,9.447v3.577a.447.447,0,0,0,.447.447h1.789a1.341,1.341,0,0,0,1-2.236,1.341,1.341,0,0,0-1-2.236Zm0,3.577H14.894v-.894h1.341a.447.447,0,0,1,0,.894Zm0-1.789H14.894V9.894h1.341a.447.447,0,0,1,0,.894Z" transform="translate(-6.639 -4.423)" fill="#54529a"/>
    <path id="Path_14763" data-name="Path 14763" d="M25.789,9A1.79,1.79,0,0,0,24,10.789v2.683h.894V12.13h1.789v1.341h.894V10.789A1.79,1.79,0,0,0,25.789,9Zm-.894,2.236v-.447a.894.894,0,0,1,1.789,0v.447Z" transform="translate(-11.746 -4.423)" fill="#54529a"/>
    <path id="Path_14764" data-name="Path 14764" d="M36.683,11.683,34.8,9.179a.447.447,0,0,0-.8.268v4.024h.894V10.788l1.878,2.5a.447.447,0,0,0,.358.179.456.456,0,0,0,.141-.023.447.447,0,0,0,.306-.424V9h-.894Z" transform="translate(-16.853 -4.423)" fill="#54529a"/>
    <path id="Path_14765" data-name="Path 14765" d="M46.683,9h-.894a1.711,1.711,0,0,1-.894,1.507V9H44v4.471h.894V11.965a1.711,1.711,0,0,1,.894,1.507h.894a2.6,2.6,0,0,0-1.268-2.236A2.6,2.6,0,0,0,46.683,9Z" transform="translate(-22.024 -4.423)" fill="#54529a"/>
    <path id="Path_14766" data-name="Path 14766" d="M45.447,44.577H48.13a.447.447,0,0,0,.447-.447V41.447A.447.447,0,0,0,48.13,41H45.447a.447.447,0,0,0-.447.447V44.13A.447.447,0,0,0,45.447,44.577Zm.447-2.683h1.789v1.789H45.894Z" transform="translate(-22.47 -20.428)" fill="#54529a"/>
  </g>
</svg>
