<svg xmlns="http://www.w3.org/2000/svg" width="30" height="30" viewBox="0 0 30 30">
  <g id="Group_2388" data-name="Group 2388" transform="translate(-215 -513)">
    <g id="surface1" transform="translate(215 513)">
      <path id="Path_14767" data-name="Path 14767" d="M25,5.3V2.5A2.5,2.5,0,0,0,22.5,0H2.5A2.5,2.5,0,0,0,0,2.5v11a2.5,2.5,0,0,0,2.242,2.474l1.88,4.879a2.5,2.5,0,0,0,3.232,1.434L19.09,17.766a7.228,7.228,0,0,0,.623,6.418l.287.459V29.5a.5.5,0,0,0,.5.5h9a.5.5,0,0,0,.5-.5V13a6.543,6.543,0,0,0-1.916-4.609Zm0,2.99,1.518,3.939a1.5,1.5,0,0,1-.861,1.938l-.867.335a2.5,2.5,0,0,0,.211-1ZM1,13.5V2.5A1.5,1.5,0,0,1,2.5,1h20A1.5,1.5,0,0,1,24,2.5V5.678h0l0,.011V13.5a1.521,1.521,0,0,1-.034.259l-4.58-4.581a2.667,2.667,0,0,0-3.85,3.689L17.489,15H2.5A1.5,1.5,0,0,1,1,13.5ZM7.406,16,3.85,17.369,3.324,16Zm-.412,5.354a1.5,1.5,0,0,1-1.939-.86L4.211,18.3,10.179,16v0H18.4l.65.709ZM29,29H21V25h8Zm0-5H20.778l-.217-.346a6.235,6.235,0,0,1-.127-6.4.5.5,0,0,0-.066-.586l-4.1-4.47a1.668,1.668,0,0,1,2.408-2.306l7.968,7.966.707-.707L25.5,15.3l.513-.2a2.5,2.5,0,0,0,1.434-3.23L25.758,7.472,27.377,9.1A5.537,5.537,0,0,1,29,13Zm0,0" fill="#fff"/>
      <path id="Path_14768" data-name="Path 14768" d="M66.2,67.5a1.3,1.3,0,0,0,1.3-1.3V63.8a1.3,1.3,0,0,0-1.3-1.3H63.8a1.3,1.3,0,0,0-1.3,1.3v2.4a1.3,1.3,0,0,0,1.3,1.3Zm-2.7-1.3v-.7h1v-1h-1v-.7a.3.3,0,0,1,.3-.3h2.4a.3.3,0,0,1,.3.3v.7h-1v1h1v.7a.3.3,0,0,1-.3.3H63.8A.3.3,0,0,1,63.5,66.2Zm0,0" transform="translate(-60.5 -60.5)" fill="#fff"/>
      <path id="Path_14769" data-name="Path 14769" d="M78.125,265.625h2v1h-2Zm0,0" transform="translate(-75.625 -257.125)" fill="#fff"/>
      <path id="Path_14770" data-name="Path 14770" d="M78.125,359.375h2v1h-2Zm0,0" transform="translate(-75.625 -347.875)" fill="#fff"/>
      <path id="Path_14771" data-name="Path 14771" d="M359.375,359.375h2v1h-2Zm0,0" transform="translate(-347.875 -347.875)" fill="#fff"/>
      <path id="Path_14772" data-name="Path 14772" d="M171.875,265.625h2v1h-2Zm0,0" transform="translate(-166.375 -257.125)" fill="#fff"/>
      <path id="Path_14773" data-name="Path 14773" d="M265.625,265.625h2v1h-2Zm0,0" transform="translate(-257.125 -257.125)" fill="#fff"/>
      <path id="Path_14774" data-name="Path 14774" d="M359.375,265.625h2v1h-2Zm0,0" transform="translate(-347.875 -257.125)" fill="#fff"/>
      <path id="Path_14775" data-name="Path 14775" d="M656.25,78.125h1v1.5h-1Zm0,0" transform="translate(-635.25 -75.625)" fill="#fff"/>
      <path id="Path_14776" data-name="Path 14776" d="M593.75,78.125h1v1.5h-1Zm0,0" transform="translate(-574.75 -75.625)" fill="#fff"/>
      <path id="Path_14777" data-name="Path 14777" d="M531.25,78.125h1v1.5h-1Zm0,0" transform="translate(-514.25 -75.625)" fill="#fff"/>
      <path id="Path_14778" data-name="Path 14778" d="M468.75,78.125h1v1.5h-1Zm0,0" transform="translate(-453.75 -75.625)" fill="#fff"/>
      <path id="Path_14779" data-name="Path 14779" d="M687.5,812.5h1v1h-1Zm0,0" transform="translate(-665.5 -786.5)" fill="#fff"/>
    </g>
  </g>
</svg>
