<svg xmlns="http://www.w3.org/2000/svg" width="60" height="60" viewBox="0 0 60 60"><defs><style>.a{fill:#fff;}</style></defs><g transform="translate(-11 -11)"><g transform="translate(11 11)"><g transform="translate(15.833)"><path class="a" d="M154.467,39.335a14.167,14.167,0,1,1,14.167-14.167A14.183,14.183,0,0,1,154.467,39.335Zm0-23.339a9.171,9.171,0,1,0,9.171,9.171A9.182,9.182,0,0,0,154.467,16Z" transform="translate(-140.3 -11)"/></g><g transform="translate(0 30.135)"><path class="a" d="M68.5,286.965h-55a2.493,2.493,0,0,1-2.5-2.5,30.167,30.167,0,0,1,8.951-21.551,20.532,20.532,0,0,1,14.4-5.816h13.3a20.511,20.511,0,0,1,14.4,5.816A30.167,30.167,0,0,1,71,284.467,2.493,2.493,0,0,1,68.5,286.965Zm-52.384-5H65.882a25.1,25.1,0,0,0-7.359-15.5,15.517,15.517,0,0,0-10.873-4.359h-13.3a15.5,15.5,0,0,0-10.873,4.359,25.1,25.1,0,0,0-7.359,15.5Z" transform="translate(-11 -257.1)"/></g></g></g></svg>