<svg xmlns="http://www.w3.org/2000/svg" width="84.545" height="60" viewBox="0 0 84.545 60"><defs><style>.a{fill:#54529a;}</style></defs><g transform="translate(0 0)"><path class="a" d="M50.379,73.541a9.718,9.718,0,1,1,9.807-9.717A9.775,9.775,0,0,1,50.379,73.541Zm0-16.708a6.991,6.991,0,1,0,7.08,6.991A7.044,7.044,0,0,0,50.379,56.833Zm0,0" transform="translate(-33.655 -44.883)"/><path class="a" d="M20.669,206.43H3.564A3.557,3.557,0,0,1,0,202.889v-4.46A16.757,16.757,0,0,1,26.7,185.14a1.364,1.364,0,0,1-1.619,2.2A14.03,14.03,0,0,0,2.727,198.428v4.46a.827.827,0,0,0,.837.814H20.67a1.364,1.364,0,1,1,0,2.727Zm0,0" transform="translate(0 -150.868)"/><path class="a" d="M357.115,200.378H340.009a1.364,1.364,0,1,1,0-2.727h17.106a.826.826,0,0,0,.837-.814v-4.46a13.931,13.931,0,0,0-14-13.833,14.123,14.123,0,0,0-8.861,3.126,1.363,1.363,0,1,1-1.715-2.12,16.86,16.86,0,0,1,10.576-3.733,16.661,16.661,0,0,1,16.723,16.561v4.46a3.557,3.557,0,0,1-3.564,3.541Zm0,0" transform="translate(-276.134 -145.848)"/><path class="a" d="M350.159,69.588a9.718,9.718,0,1,1,9.808-9.717A9.773,9.773,0,0,1,350.159,69.588Zm0-16.708a6.991,6.991,0,1,0,7.081,6.991A7.044,7.044,0,0,0,350.159,52.88Zm0,0" transform="translate(-282.338 -41.604)"/><path class="a" d="M154.736,189.269H117.721a4.448,4.448,0,0,1-4.459-4.426v-6.274a22.968,22.968,0,0,1,45.933,0v6.274a4.448,4.448,0,0,1-4.459,4.426Zm-18.508-30.71a20.149,20.149,0,0,0-20.239,20.01v6.274a1.718,1.718,0,0,0,1.732,1.7h37.014a1.718,1.718,0,0,0,1.732-1.7V178.57a20.148,20.148,0,0,0-20.239-20.01Zm0,0" transform="translate(-93.956 -129.27)"/><path class="a" d="M183.884,24.968a12.559,12.559,0,0,1-12.6-12.485,12.6,12.6,0,0,1,25.207,0,12.558,12.558,0,0,1-12.6,12.484Zm0-22.242a9.828,9.828,0,0,0-9.876,9.757,9.877,9.877,0,0,0,19.752,0,9.829,9.829,0,0,0-9.876-9.757Zm0,0" transform="translate(-142.086)"/></g></svg>