<svg xmlns="http://www.w3.org/2000/svg" width="19.972" height="27.7" viewBox="0 0 19.972 27.7"><defs><style>.a{fill:#fff;}</style></defs><g transform="translate(-65.8)"><g transform="translate(65.8)"><g transform="translate(0)"><path class="a" d="M83.124,11.78V7.393a7.355,7.355,0,0,0-2.2-5.285A7.121,7.121,0,0,0,75.871,0h-.094a7.376,7.376,0,0,0-7.335,7.393V11.78A3,3,0,0,0,65.8,14.793v9.854A3.035,3.035,0,0,0,68.813,27.7H82.759a3.035,3.035,0,0,0,3.013-3.054V14.793A3.009,3.009,0,0,0,83.124,11.78ZM69.611,7.393h.006a6.214,6.214,0,0,1,6.166-6.236h.006A6.083,6.083,0,0,1,80.1,2.93a6.219,6.219,0,0,1,1.844,4.463v4.393H80.651V7.393a4.948,4.948,0,0,0-1.462-3.553,4.761,4.761,0,0,0-3.365-1.4h-.035A4.917,4.917,0,0,0,70.9,7.387v4.4H69.611Zm9.871,0v4.393h-7.4V7.393a3.74,3.74,0,0,1,3.711-3.77h.035A3.6,3.6,0,0,1,78.373,4.68,3.785,3.785,0,0,1,79.483,7.393ZM84.65,24.664h0a1.862,1.862,0,0,1-1.862,1.862H68.836a1.862,1.862,0,0,1-1.862-1.862V14.822a1.862,1.862,0,0,1,1.862-1.862H82.789a1.862,1.862,0,0,1,1.862,1.862Z" transform="translate(-65.8)"/></g></g><g transform="translate(73.663 17.846)"><g transform="translate(0)"><path class="a" d="M203.852,305.433a2.117,2.117,0,1,0-2.619,2.619V309.7a.587.587,0,0,0,1.174,0v-1.644A2.111,2.111,0,0,0,203.852,305.433Zm-2.032,1.527a.945.945,0,1,1,.945-.945A.945.945,0,0,1,201.82,306.96Z" transform="translate(-199.7 -303.9)"/></g></g></g></svg>