<svg xmlns="http://www.w3.org/2000/svg" width="484.096" height="353.32" viewBox="0 0 484.096 353.32"><defs><style>.a{opacity:0.03;}.b{fill:#54529a;}</style></defs><g class="a" transform="translate(0 -6.482)"><path class="b" d="M387.751,254.421H10.085A10.085,10.085,0,0,1,0,244.335V28.166A10.085,10.085,0,0,1,10.085,18.081H387.751a10.085,10.085,0,0,1,10.085,10.085V244.335A10.085,10.085,0,0,1,387.751,254.421ZM20.171,234.25H377.665v-196H20.171Z" transform="translate(0 105.381)"/><path class="b" d="M291.432,196.333H43.867a10.085,10.085,0,0,1-10.085-10.085A20.272,20.272,0,0,0,13.53,166.007,10.085,10.085,0,0,1,3.445,155.922V61.533A10.085,10.085,0,0,1,13.53,51.448,20.282,20.282,0,0,0,33.782,31.2,10.085,10.085,0,0,1,43.867,21.111H291.432A10.085,10.085,0,0,1,301.517,31.2a20.272,20.272,0,0,0,20.171,20.251,10.085,10.085,0,0,1,10.085,10.085v94.389a10.085,10.085,0,0,1-10.085,10.085,20.261,20.261,0,0,0-20.241,20.241,10.085,10.085,0,0,1-10.015,10.085ZM52.722,176.163H282.667a40.593,40.593,0,0,1,28.935-29.1V70.338a40.573,40.573,0,0,1-29.056-29.056H52.672A40.553,40.553,0,0,1,23.616,70.338v76.729a40.573,40.573,0,0,1,29.056,29.1Z" transform="translate(31.299 132.91)"/><path class="b" d="M69.811,135.467a55.59,55.59,0,1,1,55.58-55.58A55.592,55.592,0,0,1,69.811,135.467Zm0-91a35.42,35.42,0,1,0,35.41,35.43,35.42,35.42,0,0,0-35.41-35.43Z" transform="translate(129.112 161.755)"/><path class="b" d="M352.21,249.68a10.085,10.085,0,0,1-1.009-20.12l11.638-1.22L342.367,33.42,17.69,67.509a10.09,10.09,0,1,1-2.108-20.07L350.253,12.3a10.085,10.085,0,0,1,11.094,8.976l22.581,214.989a10.085,10.085,0,0,1-8.976,11.094l-21.673,2.279c-.363.02-.716.04-1.069.04Z" transform="translate(59.463 52.363)"/><path class="b" d="M369.987,242.136a10.085,10.085,0,0,1-1.9-19.989l6.566-1.261L337.724,28.4,21.639,89.031a10.1,10.1,0,1,1-3.8-19.838l326-62.529a10.085,10.085,0,0,1,11.8,8L396.36,226.968a10.085,10.085,0,0,1-8.008,11.8l-16.459,3.157A10.326,10.326,0,0,1,369.987,242.136Z" transform="translate(87.555 0)"/></g></svg>