<svg xmlns="http://www.w3.org/2000/svg" xmlns:xlink="http://www.w3.org/1999/xlink" width="473.95" height="449.093" viewBox="0 0 473.95 449.093"><defs><style>.a{fill:none;stroke:#707070;}.b{fill:url(#c);}.c{fill:url(#f);}.d{fill:url(#g);}.e{fill:url(#h);}.f{fill:url(#i);}.g{fill:url(#j);}.h{fill:url(#k);}.i{fill:url(#l);}.j{fill:url(#m);}.k{fill:url(#n);}.l{fill:url(#o);}.m{fill:url(#r);}.n{fill:url(#s);}.o{fill:url(#t);}.p{fill:#fff;}.q{fill:url(#u);}.r{fill:url(#v);}.s{fill:url(#w);}.t{fill:url(#x);}.u{fill:url(#y);}.v{fill:url(#z);}.w{fill:url(#aa);}.x{fill:url(#ab);}.y{fill:url(#ac);}.z{fill:url(#ad);}.aa{fill:url(#ae);}.ab{fill:url(#af);}.ac{fill:url(#ag);}.ad{fill:url(#ah);}.ae{fill:url(#ai);}.af{fill:url(#aj);}.ag{fill:url(#ak);}.ah{fill:url(#al);}.ai{fill:url(#am);}.aj{fill:url(#an);}.ak{fill:url(#ao);}.al{fill:url(#ap);}.am{fill:#91b3fa;}.an{fill:#7d97f4;}.ao{fill:url(#aq);}.ap{fill:url(#ar);}.aq{fill:url(#as);}.ar{filter:url(#d);}.as{filter:url(#a);}</style><filter id="a" x="0" y="1.677" width="446.478" height="447.416" filterUnits="userSpaceOnUse"><feOffset dy="15" input="SourceAlpha"/><feGaussianBlur stdDeviation="20" result="b"/><feFlood flood-color="#d22d60" flood-opacity="0.4"/><feComposite operator="in" in2="b"/><feComposite in="SourceGraphic"/></filter><linearGradient id="c" x1="0.5" x2="0.5" y2="1" gradientUnits="objectBoundingBox"><stop offset="0" stop-color="#c52b7c"/><stop offset="1" stop-color="#6f47b7"/></linearGradient><filter id="d" x="28.481" y="0" width="445.469" height="446.34" filterUnits="userSpaceOnUse"><feOffset dy="15" input="SourceAlpha"/><feGaussianBlur stdDeviation="20" result="e"/><feFlood flood-color="#d22d60" flood-opacity="0.4"/><feComposite operator="in" in2="e"/><feComposite in="SourceGraphic"/></filter><linearGradient id="f" x1="0.981" y1="-1.051" x2="0.798" y2="-0.459" gradientUnits="objectBoundingBox"><stop offset="0" stop-color="#ff928e"/><stop offset="1" stop-color="#fe7062"/></linearGradient><linearGradient id="g" x1="0.985" y1="-1.063" x2="0.802" y2="-0.471" xlink:href="#f"/><linearGradient id="h" x1="-13.087" y1="-0.86" x2="-4.775" y2="-0.028" xlink:href="#f"/><linearGradient id="i" x1="2.028" y1="-2.026" x2="-1.012" y2="3.001" gradientUnits="objectBoundingBox"><stop offset="0" stop-color="#cb236d"/><stop offset="1" stop-color="#4c246d"/></linearGradient><linearGradient id="j" x1="2.028" y1="-2.026" x2="-1.012" y2="3.001" gradientUnits="objectBoundingBox"><stop offset="0" stop-color="#53d8ff"/><stop offset="1" stop-color="#3840f7"/></linearGradient><linearGradient id="k" x1="2.028" y1="-2.026" x2="-1.012" y2="3.001" gradientUnits="objectBoundingBox"><stop offset="0" stop-color="#e1473d"/><stop offset="1" stop-color="#e9605a"/></linearGradient><linearGradient id="l" x1="2.028" y1="-2.026" x2="-1.012" y2="3.001" xlink:href="#f"/><linearGradient id="m" x1="-5.424" y1="2.046" x2="0.499" y2="0.5" gradientUnits="objectBoundingBox"><stop offset="0" stop-color="#fdf53f"/><stop offset="0.666" stop-color="#e47658"/><stop offset="1" stop-color="#d93c65"/></linearGradient><linearGradient id="n" x1="2.028" y1="-2.026" x2="-1.012" y2="3.001" xlink:href="#i"/><linearGradient id="o" x1="2.028" y1="-2.026" x2="-1.012" y2="3.001" xlink:href="#j"/><linearGradient id="r" x1="0.54" y1="-17.191" x2="0.518" y2="-7.311" xlink:href="#f"/><linearGradient id="s" x1="0.576" y1="-36.436" x2="0.554" y2="-25.716" xlink:href="#f"/><linearGradient id="t" x1="0.24" y1="0.692" x2="1.938" y2="-0.562" xlink:href="#f"/><linearGradient id="u" x1="1.607" y1="-6.278" x2="0.219" y2="2.221" xlink:href="#f"/><linearGradient id="v" x1="-12.704" y1="2.867" x2="1.183" y2="0.378" xlink:href="#k"/><linearGradient id="w" x1="1.796" y1="-2.182" x2="1.229" y2="0.358" gradientUnits="objectBoundingBox"><stop offset="0" stop-color="#09005d"/><stop offset="1" stop-color="#1a0f91"/></linearGradient><linearGradient id="x" x1="2.709" y1="0.5" x2="3.709" y2="0.5" gradientUnits="objectBoundingBox"><stop offset="0" stop-color="#febbba"/><stop offset="1" stop-color="#ff928e"/></linearGradient><linearGradient id="y" x1="1.949" y1="0.173" x2="0.65" y2="0.864" xlink:href="#w"/><linearGradient id="z" x1="4.35" y1="-3.904" x2="2.947" y2="-0.929" xlink:href="#w"/><linearGradient id="aa" x1="3.138" y1="0.5" x2="4.138" y2="0.5" xlink:href="#x"/><linearGradient id="ab" x1="1.34" y1="0.125" x2="0.425" y2="0.803" xlink:href="#w"/><linearGradient id="ac" x1="11.254" y1="-21.14" x2="10.222" y2="-19.867" xlink:href="#f"/><linearGradient id="ad" x1="0.53" y1="0.5" x2="1.53" y2="0.5" xlink:href="#x"/><linearGradient id="ae" x1="-0.208" y1="1.285" x2="0.556" y2="0.471" xlink:href="#x"/><linearGradient id="af" x1="-118.152" y1="-0.34" x2="-122.56" y2="3.804" xlink:href="#x"/><linearGradient id="ag" x1="29.54" y1="-53.923" x2="26.949" y2="-50.668" xlink:href="#f"/><linearGradient id="ah" x1="1.06" y1="0.5" x2="2.06" y2="0.5" xlink:href="#x"/><linearGradient id="ai" x1="-34.425" y1="-12.241" x2="-34.746" y2="-13.306" xlink:href="#x"/><linearGradient id="aj" x1="-14.769" y1="-0.616" x2="-15.141" y2="1.887" xlink:href="#k"/><linearGradient id="ak" x1="-113.405" y1="-61.797" x2="-114.348" y2="-66.445" xlink:href="#x"/><linearGradient id="al" x1="1.976" y1="-0.812" x2="1.479" y2="-0.355" xlink:href="#w"/><linearGradient id="am" x1="-34.333" y1="-0.654" x2="-37.064" y2="1.477" xlink:href="#w"/><linearGradient id="an" x1="-31.025" y1="-0.433" x2="-32.895" y2="1.305" xlink:href="#w"/><linearGradient id="ao" x1="0.419" y1="0.5" x2="1.419" y2="0.5" xlink:href="#x"/><linearGradient id="ap" x1="0.566" y1="-1.076" x2="1.08" y2="1.414" gradientUnits="objectBoundingBox"><stop offset="0" stop-color="#4f52ff"/><stop offset="1" stop-color="#4042e2"/></linearGradient><linearGradient id="aq" x1="1.345" y1="0.5" x2="2.345" y2="0.5" xlink:href="#x"/><linearGradient id="ar" x1="-0.055" y1="-1.908" x2="0.202" y2="-0.813" xlink:href="#w"/><linearGradient id="as" x1="54.743" y1="-12.923" x2="55.884" y2="-12.923" xlink:href="#w"/></defs><g transform="translate(-374.173 -405.791)"><g class="as" transform="matrix(1, 0, 0, 1, 374.17, 405.79)"><path class="a" d="M750.4,731.228a117.615,117.615,0,0,1-18,15.128c-58.729,42.055-128.221,29.8-142.99,26.8-21.809-4.421-63.966-12.966-94.445-48.737-46.111-54.118-38.931-139.38-3.164-195.662,6.542-10.295,41.1-67.435,111.342-76.6,42.509-5.546,92.061,5.639,127.944,35.643C806.4,550.784,801.042,678.016,750.4,731.228Z" transform="translate(-402.15 -403.56)"/></g><g class="ar" transform="matrix(1, 0, 0, 1, 374.17, 405.79)"><path class="b" d="M750.4,731.228a117.615,117.615,0,0,1-18,15.128c-58.729,42.055-128.221,29.8-142.99,26.8-21.809-4.421-63.966-12.966-94.445-48.737-46.111-54.118-38.931-139.38-3.164-195.662,6.542-10.295,41.1-67.435,111.342-76.6,42.509-5.546,92.061,5.639,127.944,35.643C806.4,550.784,801.042,678.016,750.4,731.228Z" transform="translate(-374.17 -405.79)"/></g><g transform="translate(599.736 453.017)"><rect class="c" width="19.247" height="284.263" transform="translate(141.161 7.467)"/><rect class="d" width="19.247" height="284.263" transform="translate(0 8.164)"/><g transform="translate(4.161 48.672)"><rect class="e" width="10.255" height="41.626" rx="5.128" transform="translate(0.036)"/><g transform="translate(0 33.763)"><ellipse class="f" cx="2.996" cy="2.992" rx="2.996" ry="2.992" transform="translate(0 2.293) rotate(-22.5)"/><ellipse class="g" cx="1.951" cy="1.955" rx="1.951" ry="1.955" transform="matrix(0.16, -0.987, 0.987, 0.16, 1.671, 5.524)"/></g><g transform="translate(1.149 1.419)"><ellipse class="h" cx="2.995" cy="2.989" rx="2.995" ry="2.989"/><path class="i" d="M1.95,0A1.952,1.952,0,1,1,0,1.95,1.957,1.957,0,0,1,1.95,0Z" transform="translate(0.234 2.989) rotate(-45)"/></g></g><g transform="translate(3.42 207.012)"><rect class="j" width="10.255" height="41.626" rx="5.128"/><g transform="translate(0.274 34.075)"><ellipse class="k" cx="2.991" cy="2.996" rx="2.991" ry="2.996" transform="matrix(0.23, -0.973, 0.973, 0.23, 0, 5.821)"/><ellipse class="l" cx="1.951" cy="1.955" rx="1.951" ry="1.955" transform="translate(1.252 5.049) rotate(-76.717)"/></g><g transform="translate(0.195 0.497)"><ellipse class="f" cx="2.996" cy="2.992" rx="2.996" ry="2.992" transform="translate(0 2.293) rotate(-22.5)"/><ellipse class="g" cx="1.951" cy="1.955" rx="1.951" ry="1.955" transform="matrix(0.23, -0.973, 0.973, 0.23, 1.562, 5.361)"/></g></g><path class="m" d="M17.088,0H149.7a10.711,10.711,0,0,1,10.711,10.711v6.377a0,0,0,0,1,0,0H0a0,0,0,0,1,0,0v0A17.088,17.088,0,0,1,17.088,0Z" transform="translate(0 0)"/><path class="n" d="M0,0H160.408a0,0,0,0,1,0,0V7.418a8.306,8.306,0,0,1-8.306,8.306H5.6a5.6,5.6,0,0,1-5.6-5.6V0A0,0,0,0,1,0,0Z" transform="translate(0 279.346)"/><rect class="o" width="136.061" height="276.317" rx="7.62" transform="translate(11.919 10.057)"/><path class="p" d="M1949.141,773.047h-91.868a9.551,9.551,0,0,1-9.55-9.531V665.8a9.551,9.551,0,0,1,9.55-9.531h91.868a9.551,9.551,0,0,1,9.55,9.531v97.716A9.551,9.551,0,0,1,1949.141,773.047Zm-91.868-115.993a8.765,8.765,0,0,0-8.764,8.747v97.716a8.765,8.765,0,0,0,8.764,8.746h91.868a8.765,8.765,0,0,0,8.764-8.746V665.8a8.765,8.765,0,0,0-8.764-8.747Z" transform="translate(-1822.921 -634.527)"/><path class="p" d="M1955.144,838.8h-25.6a9.551,9.551,0,0,1-9.55-9.531V749.534a9.551,9.551,0,0,1,9.55-9.531h25.6a9.551,9.551,0,0,1,9.55,9.531v79.737A9.551,9.551,0,0,1,1955.144,838.8Zm-25.6-98.015a8.765,8.765,0,0,0-8.764,8.746v79.737a8.765,8.765,0,0,0,8.764,8.747h25.6a8.765,8.765,0,0,0,8.763-8.747V749.534a8.765,8.765,0,0,0-8.763-8.746Z" transform="translate(-1886.749 -708.494)"/><path class="p" d="M2391.224,838.465h-25.595a9.551,9.551,0,0,1-9.55-9.531V749.2a9.551,9.551,0,0,1,9.55-9.531h25.595a9.551,9.551,0,0,1,9.55,9.531v79.737A9.551,9.551,0,0,1,2391.224,838.465Zm-25.595-98.015a8.765,8.765,0,0,0-8.764,8.747v79.737a8.765,8.765,0,0,0,8.764,8.747h25.595a8.765,8.765,0,0,0,8.764-8.747V749.2a8.765,8.765,0,0,0-8.764-8.747Z" transform="translate(-2271.861 -708.196)"/><path class="p" d="M1934.962,1930.034H1836.83a9.551,9.551,0,0,1-9.55-9.531V1815.411a9.551,9.551,0,0,1,9.55-9.531h98.133a9.551,9.551,0,0,1,9.55,9.531V1920.5A9.551,9.551,0,0,1,1934.962,1930.034Zm-98.133-123.37a8.765,8.765,0,0,0-8.764,8.746V1920.5a8.765,8.765,0,0,0,8.764,8.747h98.133a8.765,8.765,0,0,0,8.764-8.747V1815.411a8.765,8.765,0,0,0-8.764-8.746Z" transform="translate(-1804.867 -1650.041)"/><path class="q" d="M6.986,0A6.993,6.993,0,1,1,0,6.986,7.01,7.01,0,0,1,6.986,0Z" transform="translate(124.04 146.083) rotate(-45)"/><rect class="r" width="6.279" height="25.012" rx="3.139" transform="translate(134.892 142.713) rotate(90)"/></g><g transform="translate(539.477 563.081)"><path class="s" d="M1503.493,3145.568s-.746,4.216-1.112,8.389a2.877,2.877,0,0,0,2.756,3.115c5.568.231,17.48.682,21.754.491a.935.935,0,0,0,.825-1.282,2.1,2.1,0,0,0-1.073-1.128l-19.675-9.025Z" transform="translate(-1457.673 -2943.525)"/><path class="t" d="M1506.749,3118.436l.6,5.043s3.447,1.6,5.8-.2l-1.427-5.619Z" transform="translate(-1461.54 -2918.871)"/><path class="u" d="M1392.536,2311.578c-.259,1.317-1.39,65.713,5.507,94.571a.979.979,0,0,1-.575,1.14,17.113,17.113,0,0,1-5.617,1.139,1.69,1.69,0,0,1-1.677-1.211c-1.972-6.7-11.419-40.242-12.651-72.288-1.377-35.808,0-1.219,0-1.219l.808-22.135Z" transform="translate(-1346.877 -2206.814)"/><path class="v" d="M1300.4,3164.423s-1.188,2.128-2.338,7.783a1.755,1.755,0,0,0,1.547,2.1c1.839.181,4.669.413,6.937.4a1.75,1.75,0,0,0,1.735-1.951,14.737,14.737,0,0,0-3.451-8.091Z" transform="translate(-1277.213 -2960.181)"/><path class="w" d="M1309.41,3106.575l1.4,7.625s1.385,1.028,4.125.283l-.669-8.2Z" transform="translate(-1287.266 -2908.819)"/><path class="x" d="M1260.625,2301.549c-5.641,33.976,1.224,83.975,3.539,93.76a1.528,1.528,0,0,0,1.234,1.159,10.3,10.3,0,0,0,4.412-.176,1.4,1.4,0,0,0,1.008-1.288c.31-7.911-.249-56.481,5.008-75.676a4.36,4.36,0,0,1,1.685-2.405l10.2-7.238.782-11.7Z" transform="translate(-1242.265 -2194.809)"/><g transform="translate(16.254 16.233)"><path class="y" d="M1297.061,1755.741c-16.905-.279-35.558,4.43-35.558,4.43-5.039,29.344-.881,63.19-.881,63.19,13.088,3.425,27.851-2.094,27.851-2.094,2.175-12.265,12.324-46.783,12.324-46.783a55.768,55.768,0,0,0,20.667-6.546c-4.274-4.944-6.289-11.236-7.164-14.955A56.836,56.836,0,0,1,1297.061,1755.741Z" transform="translate(-1259.01 -1729.612)"/><path class="z" d="M1764.764,1553.9a3.239,3.239,0,0,0-3.762-1.055c-2.488,10.487-15.532,18.991-28.933,23.147.875,3.719,2.89,10.011,7.164,14.955C1761.473,1578.469,1764.764,1553.9,1764.764,1553.9Z" transform="translate(-1676.779 -1552.622)"/></g><g transform="translate(100.476)"><path class="aa" d="M1982.975,1431.476c.174.551-1.839,1.391-3.023-.864-.041-1.081-.7-5.71-.053-6.591,3.446-4.689,10.127-10.566,10.127-10.566a1.585,1.585,0,0,1,.2,2.2l-3.241,3.37a15.639,15.639,0,0,1,1.892,3.733,4.523,4.523,0,0,1-.453,3.336c-.569,1.023-1.345,2.353-2.079,3.393A4.487,4.487,0,0,1,1982.975,1431.476Z" transform="translate(-1979.616 -1413.455)"/><path class="ab" d="M2001.2,1479.983l-2.954,2.5-.927,2.488,2.633,2.916s.885-4.937,1.543-6S2001.818,1480.3,2001.2,1479.983Z" transform="translate(-1995.254 -1472.223)"/></g><path class="ac" d="M1147.9,1830.941l-6.484-16.336s-15.79,10.707-18.387,24.283a37.432,37.432,0,0,1,13.727,3.672C1137.92,1836.15,1147.9,1830.941,1147.9,1830.941Z" transform="translate(-1122.665 -1767.813)"/><path class="ad" d="M1397.186,1659.205l-5.379,15.524a.559.559,0,0,0,.256.674c1.466.809,6.749,3.148,13.115-.88a2.633,2.633,0,0,0,1.215-1.881l1.742-13.436Z" transform="translate(-1360.005 -1630.54)"/><g transform="translate(28.724 10.361)"><path class="ae" d="M1434.027,1535.958s5.907,11.1,5.15,15.579-8.077,4.16-14.47.52l-4.467-11.982Z" transform="translate(-1413.867 -1532.029)"/><path class="af" d="M1376.833,1516.421a.457.457,0,0,0,.2-.669,11.924,11.924,0,0,1-1.643-3.482s-1.062-.679,2.7-1.578,9.378-2.3,10.558-5.493-11.792-5.235-16.832,1.928c0,0-6.467,3.333-5.724,4.1a.461.461,0,0,1-.186.764c-.9.273,1.487,5.775,2.4,5.644a.444.444,0,0,1,.4.143c.79.873,4.368,4.6,8.24,5.047a.461.461,0,0,0,.481-.61l-1.674-4.856a.459.459,0,0,1,.249-.57Z" transform="translate(-1365.71 -1502.277)"/><path class="ag" d="M1432.41,1618.639s-4.206-2.88-4.513-.454,3.787,3.512,5.815,2.608Z" transform="translate(-1420.615 -1603.807)"/></g><path class="ah" d="M1281.344,2004.863c.306-1.613,5.514-23.739,5.514-23.739l-3.678-20.407h-19.954l-12.207,16.095,2.31,31.816C1264.151,2009.086,1274.279,2008.758,1281.344,2004.863Z" transform="translate(-1235.699 -1896.882)"/><path class="ai" d="M1314.266,1811.871l-5.373-17.854a.361.361,0,0,1,.273-.457l5.836-1.2a.361.361,0,0,1,.431.308l2.5,19.925a.361.361,0,0,1-.461.391l-2.966-.875A.361.361,0,0,1,1314.266,1811.871Z" transform="translate(-1286.796 -1748.159)"/><path class="aj" d="M1491.569,1795.431l6.777-21.42c-1.646-.8-3.587-.2-5.815-.016l-5.6,21.436Z" transform="translate(-1444.041 -1731.595)"/><path class="ak" d="M1158.975,2030.21s-17.728,10-23.71,1.461a6.7,6.7,0,0,1-1.233-5.215,37.427,37.427,0,0,0-13.727-3.672,18.706,18.706,0,0,0,2.041,12.845c10.478,19.129,38.976-1.057,38.976-1.057Z" transform="translate(-1119.945 -1951.71)"/><g transform="translate(36.861 51.351)"><path class="al" d="M1435.364,1918.3l9.675-33.722a.985.985,0,0,1,.833-.708c1.753-.2,6.833-.777,12.7-1.272,7.064-.6,15.268-1.079,20.171-.669a.987.987,0,0,1,.808,1.42c-2.788,5.629-14.255,28.526-20,36.026a.992.992,0,0,1-.8.391l-22.449-.208A.987.987,0,0,1,1435.364,1918.3Z" transform="translate(-1435.325 -1878.499)"/><path class="am" d="M1636.367,1854.866l7.015-1.167a.5.5,0,0,1,.561.653l-.695,2.1a.5.5,0,0,1-.411.341l-6.75.9a.5.5,0,0,1-.557-.613l.43-1.833A.5.5,0,0,1,1636.367,1854.866Z" transform="translate(-1612.118 -1853.692)"/><path class="an" d="M1597.759,1876.679l.578-3a.7.7,0,0,1,.613-.56l14.169-1.435a.7.7,0,0,1,.747.853l-.9,3.744a.7.7,0,0,1-.641.531l-13.846.7A.7.7,0,0,1,1597.759,1876.679Z" transform="translate(-1578.763 -1869.579)"/><path class="ao" d="M1448.606,2037.975s-1.348-5.531-.8-7.493,1.6-4.486,5.108-3.925a51.458,51.458,0,0,1,7.653,2.037,2.009,2.009,0,0,1-2.878,1.731l1.655,1.278s-.236,2.047-2.49.953l1.539,1.694a1.8,1.8,0,0,1-2.626.6C1454.1,2033.775,1453.308,2038.641,1448.606,2037.975Z" transform="translate(-1446.229 -2006.323)"/></g><g transform="translate(27.917 6.406)"><path class="ap" d="M1380.181,1473.533c-10.825-13.969-29.545,3.655-17.458,14.91C1369.2,1482.323,1376.212,1473.678,1380.181,1473.533Z" transform="translate(-1358.801 -1468.377)"/><path class="aq" d="M1454.424,1492.339c16.347-3.687,3.83,4.761-10.625,10.613C1446.851,1498.346,1450.076,1494.748,1454.424,1492.339Z" transform="translate(-1433.865 -1488.749)"/></g></g></g></svg>