<svg xmlns="http://www.w3.org/2000/svg" xmlns:xlink="http://www.w3.org/1999/xlink" width="505.901" height="511.016" viewBox="0 0 505.901 511.016"><defs><style>.a{fill:url(#a);}.b,.c{fill:none;}.c{stroke:#707070;}.d{fill:url(#d);}.e{clip-path:url(#h);}.f{fill:url(#i);}.ao,.g{opacity:0.5;}.g{mix-blend-mode:soft-light;}.ag,.am,.g,.y{isolation:isolate;}.h{fill:#beb8f2;}.i{fill:url(#j);}.j{clip-path:url(#k);}.k{fill:#fcfdfe;}.l{fill:url(#l);}.m{clip-path:url(#m);}.n{fill:url(#n);}.o{fill:url(#o);}.p{fill:url(#p);}.q{fill:url(#q);}.ao,.r{fill:#fff;}.s{opacity:0.63;}.t{fill:url(#r);}.u{fill:url(#s);}.v{fill:url(#t);}.w{fill:url(#u);}.x{fill:url(#v);}.am,.y{opacity:0.3;}.ag,.am,.y{mix-blend-mode:multiply;}.y{fill:url(#w);}.z{fill:url(#x);}.aa{fill:url(#y);}.ab{fill:url(#z);}.ac{fill:#26264f;}.ad{fill:url(#aa);}.ae{fill:url(#ab);}.af{fill:url(#ac);}.ag{opacity:0.25;fill:url(#ad);}.ah{fill:#444b8c;}.ai{fill:url(#ae);}.aj{fill:url(#af);}.ak{fill:url(#ag);}.al{fill:url(#ah);}.am{fill:url(#ai);}.an{fill:url(#aj);}.ap{fill:url(#ak);}.aq{filter:url(#e);}.ar{filter:url(#b);}</style><linearGradient id="a" x1="-5.272" y1="0.358" x2="-4.115" y2="0.358" gradientUnits="objectBoundingBox"><stop offset="0" stop-color="#ffc444"/><stop offset="0.996" stop-color="#f36f56"/></linearGradient><filter id="b" x="0" y="0" width="485.421" height="491.572" filterUnits="userSpaceOnUse"><feOffset dy="15" input="SourceAlpha"/><feGaussianBlur stdDeviation="25" result="c"/><feFlood flood-color="#d22d60" flood-opacity="0.4"/><feComposite operator="in" in2="c"/><feComposite in="SourceGraphic"/></filter><linearGradient id="d" x1="0.5" x2="0.5" y2="1" gradientUnits="objectBoundingBox"><stop offset="0" stop-color="#a70e5f"/><stop offset="1" stop-color="#511bb2"/></linearGradient><filter id="e" x="21.433" y="20.503" width="484.468" height="490.513" filterUnits="userSpaceOnUse"><feOffset dy="15" input="SourceAlpha"/><feGaussianBlur stdDeviation="25" result="f"/><feFlood flood-color="#d22d60" flood-opacity="0.4"/><feComposite operator="in" in2="f"/><feComposite in="SourceGraphic"/></filter><clipPath id="h"><path class="a" d="M1941.453,1337.009l26.6,15.45s12.932-10.736,12.007-24.152c-1.887-27.371,22.217-27.115,32.329-28.517,15.25-2.115,27.766-10.631,15.336-24.723s16.937-28.984,42.058-28.852c24.583.13,39-43.493-14.181-48.66-31.759-3.086-43.279,25.8-52.564,39s-30.632,2.341-33.42,23.437c-2.382,18.02,2.959,35.27-11.6,40.154S1936.054,1315.683,1941.453,1337.009Z" transform="translate(-1939.689 -1197.327)"/></clipPath><linearGradient id="i" x1="0.836" y1="-0.023" x2="0.121" y2="0.937" gradientUnits="objectBoundingBox"><stop offset="0" stop-color="#fcb148"/><stop offset="0.052" stop-color="#fdb946"/><stop offset="0.142" stop-color="#fec144"/><stop offset="0.318" stop-color="#ffc444"/><stop offset="0.485" stop-color="#fdb946"/><stop offset="0.775" stop-color="#f99c4c"/><stop offset="0.866" stop-color="#f8924f"/><stop offset="1" stop-color="#f8924f"/></linearGradient><linearGradient id="j" x1="-7.737" y1="-0.129" x2="-8.465" y2="0.507" gradientUnits="objectBoundingBox"><stop offset="0" stop-color="#ff9085"/><stop offset="1" stop-color="#fb6fbb"/></linearGradient><clipPath id="k"><path class="b" d="M1977.052,1177.045l-33.354,3.788s-16.133-18.212-7.061-27.9-3.192-28.344-8.471-39.028c-14.323-28.99,21.842-38.955,6.676-77.655-4.034-10.294-15.463-28.576-9.266-40.176,7.06-13.214,18.492-6.886,22.322-17.187,5.986-16.1,21.763-26.8,37.129-18.013,15.166,8.674,12.355,37.869-10.944,68.939-14.051,23.984-12.424,29.056-6.062,40.541,4.456,8.044,21.865,26.9,12.865,40.2s-14.786,26.239-6.234,34.052C1987.664,1156.493,1977.052,1177.045,1977.052,1177.045Z" transform="translate(-1923.772 -957.718)"/></clipPath><linearGradient id="l" x1="12.425" y1="1.139" x2="13.202" y2="1.961" gradientUnits="objectBoundingBox"><stop offset="0" stop-color="#aa80f9"/><stop offset="0.996" stop-color="#6165d7"/></linearGradient><clipPath id="m"><path class="b" d="M1984.474,1215.805l-52.389,9.7c-4.444-6.425-10.91-18.6-.582-23.809,14.359-7.243,9.474-32.6,3.434-40.736-7.475-10.073-24.368-33.868-2.355-45.393,18.327-9.594,32.2-12.266,28.639-36.239s7.1-41.415,30.2-44.406c24.315-3.147,37.742-37.066,59.5-30.786,37.918,10.944,17.728,69.183-20.8,92.361s-11.683,32.721-6.527,51.907c7.04,26.194-32.13,27.863-40,40.206C1977.42,1198.29,1981.219,1209.266,1984.474,1215.805Z" transform="translate(-1921.677 -1003.367)"/></clipPath><linearGradient id="n" x1="0.491" y1="0.477" x2="0.209" y2="0.496" gradientUnits="objectBoundingBox"><stop offset="0" stop-color="#444b8c"/><stop offset="0.996" stop-color="#26264f"/></linearGradient><linearGradient id="o" x1="0.708" y1="0.034" x2="0.013" y2="1.514" xlink:href="#n"/><linearGradient id="p" x1="0.536" y1="-0.156" x2="0.445" y2="1.444" xlink:href="#j"/><linearGradient id="q" x1="1.226" y1="-1.493" x2="-27.989" y2="78.648" gradientUnits="objectBoundingBox"><stop offset="0" stop-color="#311944"/><stop offset="1" stop-color="#893976"/></linearGradient><linearGradient id="r" x1="0.329" y1="0.554" x2="-0.255" y2="0.738" xlink:href="#i"/><linearGradient id="s" x1="0.727" y1="0.007" x2="0.207" y2="1.135" gradientUnits="objectBoundingBox"><stop offset="0" stop-color="#ffdb44"/><stop offset="1" stop-color="#feef06"/></linearGradient><linearGradient id="t" x1="0.636" y1="1.231" x2="0.531" y2="0.666" xlink:href="#i"/><linearGradient id="u" x1="0.409" y1="0.31" x2="0.858" y2="1.247" xlink:href="#i"/><linearGradient id="v" x1="0.253" y1="0.019" x2="0.711" y2="1.039" xlink:href="#s"/><linearGradient id="w" x1="0.464" y1="0.369" x2="1.215" y2="1.306" xlink:href="#i"/><linearGradient id="x" x1="0.42" y1="2.204" x2="0.464" y2="1.351" xlink:href="#q"/><linearGradient id="y" x1="0.278" y1="2.51" x2="0.468" y2="0.596" xlink:href="#q"/><linearGradient id="z" x1="0.438" y1="-0.225" x2="0.646" y2="2.255" xlink:href="#q"/><linearGradient id="aa" x1="0.351" y1="-0.173" x2="0.569" y2="1.311" xlink:href="#q"/><linearGradient id="ab" x1="-10.981" y1="0.5" x2="-9.981" y2="0.5" xlink:href="#q"/><linearGradient id="ac" x1="-11.012" y1="0.129" x2="-10.292" y2="0.731" xlink:href="#q"/><linearGradient id="ad" x1="-10.729" y1="0.047" x2="-10.008" y2="0.677" xlink:href="#q"/><linearGradient id="ae" x1="-40.267" y1="-1.343" x2="-39.723" y2="1.115" gradientUnits="objectBoundingBox"><stop offset="0.004" stop-color="#e38ddd"/><stop offset="1" stop-color="#9571f6"/></linearGradient><linearGradient id="af" x1="-19.606" y1="14.901" x2="-21.231" y2="14.13" xlink:href="#q"/><linearGradient id="ag" x1="-233.681" y1="-65.622" x2="-241.404" y2="-70.896" xlink:href="#q"/><linearGradient id="ah" x1="0.018" y1="-1.017" x2="0.749" y2="1.219" xlink:href="#n"/><linearGradient id="ai" x1="0.053" y1="-0.578" x2="0.546" y2="0.805" xlink:href="#ae"/><linearGradient id="aj" x1="0.963" y1="-0.162" x2="0.436" y2="0.737" xlink:href="#l"/><linearGradient id="ak" x1="0.909" y1="0.239" x2="-0.214" y2="1.175" xlink:href="#ae"/></defs><g transform="translate(-1482.911 -800.112)"><g class="ar" transform="matrix(1, 0, 0, 1, 1482.91, 800.11)"><path class="c" d="M1721.221,880.646c-45.351.8-115.519,18.045-135.715,62.357-7.054,15.477-6.577,38.229-5.622,83.734a481.027,481.027,0,0,0,4.016,57.057c6.791,50.247,11.413,84.453,28.909,104.37,43.84,49.907,202.2,48.465,269.825-41.384,36.889-49.014,42.564-118.737,8.833-176.36C1854.331,906.978,1781.936,879.573,1721.221,880.646Z" transform="translate(-1503.91 -820.11)"/></g><g class="aq" transform="matrix(1, 0, 0, 1, 1482.91, 800.11)"><path class="d" d="M1721.221,880.646c-45.351.8-115.519,18.045-135.715,62.357-7.054,15.477-6.577,38.229-5.622,83.734a481.027,481.027,0,0,0,4.016,57.057c6.791,50.247,11.413,84.453,28.909,104.37,43.84,49.907,202.2,48.465,269.825-41.384,36.889-49.014,42.564-118.737,8.833-176.36C1854.331,906.978,1781.936,879.573,1721.221,880.646Z" transform="translate(-1482.91 -800.11)"/></g><g transform="translate(1759.516 1038.971)"><path class="a" d="M1941.453,1337.009l26.6,15.45s12.932-10.736,12.007-24.152c-1.887-27.371,22.217-27.115,32.329-28.517,15.25-2.115,27.766-10.631,15.336-24.723s16.937-28.984,42.058-28.852c24.583.13,39-43.493-14.181-48.66-31.759-3.086-43.279,25.8-52.564,39s-30.632,2.341-33.42,23.437c-2.382,18.02,2.959,35.27-11.6,40.154S1936.054,1315.683,1941.453,1337.009Z" transform="translate(-1939.689 -1197.327)"/><g class="e"><path class="f" d="M1941.453,1337.009l26.6,15.45s12.932-10.736,12.007-24.152c-1.887-27.371,22.217-27.115,32.329-28.517,15.25-2.115,26.028-10.033,17.414-24.234-9.745-16.067,14.858-29.474,39.979-29.341,24.583.13,39-43.493-14.181-48.66-31.759-3.086-43.279,25.8-52.564,39s-30.632,2.341-33.42,23.437c-2.382,18.02,2.959,35.27-11.6,40.154S1936.054,1315.683,1941.453,1337.009Z" transform="translate(-1939.689 -1197.327)"/><g class="g" transform="translate(11.278 -3.244)"><path class="h" d="M1963.374,1371.1l.611.22c.136-.379,13.888-38.226,38.835-71.635,22.982-30.779,60.444-63.978,108.4-47.354l.213-.614c-21.349-7.4-42.427-5.714-62.65,5.012-16.155,8.568-31.8,22.893-46.494,42.577C1977.29,1332.79,1963.51,1370.717,1963.374,1371.1Z" transform="translate(-1962.809 -1219.015)"/><path class="h" d="M2117.681,1233.4l.6.254c8.464-19.887,30.831-42.128,31.056-42.35l-.457-.463C2148.653,1191.063,2126.194,1213.394,2117.681,1233.4Z" transform="translate(-2039.963 -1190.839)"/><path class="h" d="M2145,1261.723c25.743-.8,40.122,15.111,40.264,15.272l.486-.43c-.144-.163-14.711-16.3-40.771-15.491Z" transform="translate(-2053.613 -1225.942)"/><path class="h" d="M2011.556,1384.155c21.655-22.827,61.434-8.406,61.809-8.233l.31-.571c-.353-.2-40.742-14.674-62.59,8.356Z" transform="translate(-1986.665 -1280.759)"/><path class="h" d="M2019.329,1333.517l.616.205c6.338-19.052-5.308-41.458-5.426-41.682l-.574.3C2014.063,1292.565,2025.579,1314.731,2019.329,1333.517Z" transform="translate(-1988.095 -1241.439)"/><path class="h" d="M1968.652,1473.526c6.795-9.834,26.246-9.448,26.441-9.443l.017-.649c-.813-.022-20-.4-26.993,9.723Z" transform="translate(-1965.182 -1327.133)"/><path class="h" d="M1968.852,1434.152l.608.226c3.3-8.854-3.661-24.9-5.949-30.175-.323-.745-.6-1.389-.63-1.513l-.636.13a15.153,15.153,0,0,0,.671,1.642C1965.178,1409.676,1972.064,1425.542,1968.852,1434.152Z" transform="translate(-1962.245 -1296.764)"/></g></g></g><g transform="translate(1735.209 919.167)"><path class="i" d="M1958.3,1144.6c7.481,6.834,6.763,16.634,5.133,23.644a10.257,10.257,0,0,0-2.2,1.3c-7.615,4.889-11.906,5.352-20.173,8.987-1.78.782-7.7,1.49-10.139,1.624l-4.549.177s-15.161-17.72-6.089-27.407-3.192-28.344-8.471-39.028c-3.241-6.561-2.623-10.6-3.427-13.2-8.512-27.544-19.628-32.482-16.895-43.139,3.019-11.765,17.428-9.115,21.388-21.739,4.471-14.255-10.9-27.206-3.657-39.751a18.982,18.982,0,0,1,5.228-6.315c6.542-4.907,14.116-2.863,17.094-10.872,5.986-16.1,21.763-26.8,37.129-18.013,15.165,8.674,12.355,37.869-10.944,68.939-14.051,23.984-12.424,29.056-6.062,40.541,4.456,8.044,21.865,26.9,12.865,40.2S1949.751,1136.792,1958.3,1144.6Z" transform="translate(-1891.075 -957.718)"/><g transform="translate(16.349 0)"><g class="j"><g class="g" transform="translate(0.396 -11.223)"><path class="k" d="M1988.505,1166.035l-.648.153c-.877-3.568-1.713-7.178-2.486-10.729a357.991,357.991,0,0,1-8.5-76.99,292.355,292.355,0,0,1,6.459-60.959,251.588,251.588,0,0,1,14.056-44.671,208.383,208.383,0,0,1,14.026-27.479c.895-1.461,1.9-2.911,2.865-4.314,1.291-1.869,2.625-3.8,3.717-5.775l.589.271c-1.106,2-2.45,3.946-3.75,5.828-.964,1.4-1.96,2.839-2.846,4.285a207.723,207.723,0,0,0-13.984,27.4,251.029,251.029,0,0,0-14.022,44.565,291.754,291.754,0,0,0-6.446,60.837,357.427,357.427,0,0,0,8.492,76.867C1986.794,1158.867,1987.63,1162.471,1988.505,1166.035Z" transform="translate(-1950.715 -935.272)"/><path class="k" d="M1958.354,1082.676l-.661-.04c2.6-26.472-23.632-64.161-23.9-64.538l.559-.348C1934.62,1018.13,1960.975,1055.992,1958.354,1082.676Z" transform="translate(-1929.179 -976.511)"/><path class="k" d="M1981.62,1254.066l-.664.032c-.49-18.126,27.22-42.271,27.5-42.513l.445.448C2008.623,1212.272,1981.137,1236.222,1981.62,1254.066Z" transform="translate(-1952.757 -1073.428)"/><path class="k" d="M1954.663,1275.821l-.651.141c-2.566-11.538-12.73-25.833-28.62-40.25-.8-.725-.8-.725-.826-.839l.649-.148-.325.074.274-.18c.047.054.348.328.7.645C1941.842,1249.763,1952.07,1264.167,1954.663,1275.821Z" transform="translate(-1924.565 -1084.945)"/><path class="k" d="M1996.483,1359.342l-.662-.037c1.223-13.026,18.5-24.235,18.671-24.348l.367.506C2014.687,1335.573,1997.678,1346.615,1996.483,1359.342Z" transform="translate(-1960.193 -1135.114)"/><path class="k" d="M1970.651,1374.741c-6.109-8.7-15.15-15.991-27.641-22.282l.328-.545c12.587,6.339,21.7,13.693,27.872,22.48Z" transform="translate(-1933.787 -1143.593)"/><path class="k" d="M2011.774,989.82l-.657-.074c2.326-14.665,1.128-30.483.735-35.68-.095-1.259-.127-1.7-.11-1.858l.661.049c-.011.12.043.839.112,1.75C2012.909,959.221,2014.11,975.089,2011.774,989.82Z" transform="translate(-1967.841 -943.74)"/><path class="k" d="M1996.715,1051.122l-.6-.252c6.421-12.651,34.53-22.48,35.723-22.892l.217.578C2031.766,1028.656,2003.017,1038.706,1996.715,1051.122Z" transform="translate(-1960.34 -981.624)"/></g></g></g></g><g transform="translate(1750.511 941.991)"><path class="l" d="M1979.111,1223.4c-2.3.148-7.479,21.992-16.86,8.443-2.344-3.385-6.671-15.824-23.391-13.2l-9.738,1.525c-4.173-6.706-6.864-13.8,2.382-18.463,14.359-7.242,9.474-32.6,3.434-40.736-7.475-10.073-24.369-33.868-2.355-45.393,18.327-9.594,32.2-12.266,28.639-36.239s7.1-41.415,30.2-44.406c24.315-3.147,37.742-37.066,59.5-30.786,37.918,10.944,17.729,69.184-20.8,92.361s-11.683,32.721-6.527,51.907a34.311,34.311,0,0,1,.716,8.083c-.665,21.2-21.192,28.794-33.144,48.354C1974.868,1231.522,1982.98,1223.148,1979.111,1223.4Z" transform="translate(-1921.677 -1003.367)"/><g transform="translate(0 0)"><g class="m"><g class="g" transform="translate(0.415 2.213)"><path class="k" d="M1993.686,1214.819h-1.155c.745-79.732,42.468-159.06,108.888-207.026l.7.864C2035.976,1056.422,1994.427,1135.419,1993.686,1214.819Z" transform="translate(-1957.519 -1007.793)"/><path class="k" d="M1963.024,1284.622l-1.134.215c-6.267-30.719-39.052-49.377-39.383-49.562l.595-.94C1923.437,1234.522,1956.658,1253.417,1963.024,1284.622Z" transform="translate(-1922.507 -1121.064)"/><path class="k" d="M1994.861,1346.4l-1.1-.319c10.1-30.383,69.34-45.641,69.938-45.791l.289,1.053C2063.395,1301.494,2004.766,1316.6,1994.861,1346.4Z" transform="translate(-1958.133 -1154.042)"/><path class="k" d="M2038.6,1128.835l-1.127-.227c5.807-24.643-17-56.547-17.234-56.866l.955-.621C2021.429,1071.444,2044.516,1103.737,2038.6,1128.835Z" transform="translate(-1971.373 -1039.457)"/><path class="k" d="M2113.828,1081l-.781-.8c22.438-19.564,63.509-18.89,63.922-18.88l-.037,1.09C2176.525,1062.4,2135.915,1061.743,2113.828,1081Z" transform="translate(-2017.777 -1034.556)"/></g></g></g></g><g transform="translate(1600.668 901.782)"><g transform="translate(0)"><path class="n" d="M1781.13,933.482l33.029,274.528a7.234,7.234,0,0,1-6.316,8.2l-137.569,15.1c-8.427.524-13.042-3.781-13.562-8.159l-34.677-291.869c-.517-4.352,3.617-8.294,12.081-8.294l138.821,2.924A8.751,8.751,0,0,1,1781.13,933.482Z" transform="translate(-1621.993 -922.969)"/><path class="o" d="M1792.885,932.987l33.21,275.9a7.268,7.268,0,0,1-6.338,8.243l-142.621,14.2a8.338,8.338,0,0,1-9.092-7.189l-34.871-293.378a6.92,6.92,0,0,1,7.285-7.815l144.2,2.433A8.792,8.792,0,0,1,1792.885,932.987Z" transform="translate(-1627.556 -922.948)"/><path class="p" d="M1797.226,964.955l30.781,255.815a6.776,6.776,0,0,1-5.934,7.687l-134.13,13.038a7.776,7.776,0,0,1-8.453-6.71l-32.226-271.013a6.483,6.483,0,0,1,6.763-7.326l135.506,1.443A8.157,8.157,0,0,1,1797.226,964.955Z" transform="translate(-1634.603 -939.697)"/><path class="q" d="M1798.01,939.949a2.283,2.283,0,0,1-2.356,2.625,3.145,3.145,0,0,1-3-2.7,2.283,2.283,0,0,1,2.361-2.625A3.146,3.146,0,0,1,1798.01,939.949Z" transform="translate(-1707.314 -930.099)"/><g class="g" transform="translate(5.564)"><path class="r" d="M1766.989,1119.925c-27.459-50.768-68.479-65.964-80.83-118.287-6.676-28.282-2.127-55.352,5.533-77.825l-51.234-.865a6.92,6.92,0,0,0-7.285,7.815l34.871,293.378a8.338,8.338,0,0,0,9.093,7.189l112.113-11.162C1790.08,1174.679,1779.229,1142.556,1766.989,1119.925Z" transform="translate(-1633.12 -922.948)"/></g></g><g class="s" transform="translate(46.448 155.212)"><path class="r" d="M1830.094,1245.516l-108.812,4.348a6.066,6.066,0,0,1-6.239-5.145l-.084-.55a6.067,6.067,0,0,1,5.784-6.979l108.894-3.816a6.066,6.066,0,0,1,6.209,5.146l0,.018A6.067,6.067,0,0,1,1830.094,1245.516Z" transform="translate(-1714.888 -1233.37)"/><path class="r" d="M1836.6,1286.824l-108.673,5.258a6.067,6.067,0,0,1-6.29-5.142l-.086-.562a6.066,6.066,0,0,1,5.733-6.978l108.755-4.725a6.066,6.066,0,0,1,6.26,5.143l0,.028A6.066,6.066,0,0,1,1836.6,1286.824Z" transform="translate(-1718.186 -1254.02)"/><path class="r" d="M1843.11,1328.131l-108.534,6.168a6.066,6.066,0,0,1-6.34-5.14l-.088-.571a6.067,6.067,0,0,1,5.683-6.975l108.615-5.635a6.067,6.067,0,0,1,6.311,5.141l.006.039A6.066,6.066,0,0,1,1843.11,1328.131Z" transform="translate(-1721.483 -1274.67)"/></g></g><g transform="translate(1635.54 894.002)"><path class="t" d="M1832.12,990.135c0,37.981-29.7,67.859-67.658,66.694-39.5-1.214-72.727-35.331-72.727-76.158s33.224-70.465,72.727-66.351C1802.421,918.272,1832.12,952.154,1832.12,990.135Z" transform="translate(-1691.735 -910.663)"/><path class="u" d="M1852.634,983.585c0,37.981-29.7,67.859-67.658,66.694-39.5-1.214-72.728-35.33-72.728-76.158s33.224-70.465,72.728-66.352C1822.935,911.722,1852.634,945.6,1852.634,983.585Z" transform="translate(-1701.992 -907.388)"/><path class="v" d="M1853.086,986.659c0,36.309-28.417,64.823-64.678,63.649-37.67-1.22-69.3-33.779-69.3-72.681s31.627-67.2,69.3-63.337C1824.669,918.006,1853.086,950.351,1853.086,986.659Z" transform="translate(-1705.423 -910.664)"/><path class="w" d="M1853.4,988.854c0,35.111-27.5,62.65-62.544,61.474-36.361-1.221-66.853-32.668-66.853-70.2s30.492-64.865,66.853-61.183C1825.9,922.5,1853.4,953.744,1853.4,988.854Z" transform="translate(-1707.867 -913.002)"/><g transform="translate(50.543 17.875)"><path class="x" d="M1824.9,943.154h0a3.822,3.822,0,0,1,3.375,3.75v6.465a94.936,94.936,0,0,1,11.2,1.943q4.136.972,8.217,2.314a3.779,3.779,0,0,1,2.574,3.879l-.794,8.107a3.038,3.038,0,0,1-4.338,2.521,46.826,46.826,0,0,0-5.512-2.054,49.994,49.994,0,0,0-10.4-1.943l-.953-.078v18.514c9.729,2.722,16.875,6.384,21.492,10.99a23.234,23.234,0,0,1,6.885,17.155q0,11.125-7.614,17.835-7.665,6.754-21.538,7.583v7.135a3.245,3.245,0,0,1-3.378,3.3l-.059,0a3.587,3.587,0,0,1-3.39-3.578v-7.039l-1.5-.067a98.765,98.765,0,0,1-12.478-1.331,81.2,81.2,0,0,1-8.623-1.983,3.716,3.716,0,0,1-2.705-3.842l.934-10.42a3.3,3.3,0,0,1,4.606-2.719,67.761,67.761,0,0,0,7.583,2.489,66.466,66.466,0,0,0,12.125,2.026l.06-20.594q-14.008-3.467-20.925-10.267-6.922-6.832-6.931-17.472,0-11,7.514-16.97,7.467-5.93,21.183-5.915v-6.609A3.052,3.052,0,0,1,1824.9,943.154Zm-3.386,24.713a11.406,11.406,0,0,0-6.748,2.379,6.937,6.937,0,0,0-2.421,5.557,7.458,7.458,0,0,0,2.24,5.523,15.864,15.864,0,0,0,6.929,3.535Zm5.985,37.291v18.885q4.706.009,7.223-2.245a8.085,8.085,0,0,0,2.514-6.358,8.685,8.685,0,0,0-2.336-6.216A17.151,17.151,0,0,0,1827.5,1005.157Z" transform="translate(-1792.82 -943.138)"/></g><path class="y" d="M1779.533,997.8c2.113-20.871,21.295-29.706,18.792-48.9-1.543-11.833-10.512-21.8-20.516-29.59-30.345,3.182-53.81,28.309-53.81,61.173,0,37.529,30.492,68.976,66.853,70.2a63.111,63.111,0,0,0,10.331-.5C1786.742,1035.8,1777.718,1015.726,1779.533,997.8Z" transform="translate(-1707.867 -913.345)"/></g><g transform="translate(1740.114 974.738)"><g transform="translate(0)"><path class="z" d="M1909.839,1082.486a10.19,10.19,0,0,0,1.654-5.218c.128-4.84-3.463-8.615-3.945-8.4-.26.117.07,1.535.254,2.164.385,1.308.8,1.435.764,2.036-.071,1.237-1.857,1.285-2.8,2.927a4.427,4.427,0,0,0,0,4.2A5,5,0,0,0,1909.839,1082.486Z" transform="translate(-1903.061 -1068.861)"/><path class="aa" d="M2066.429,1296.009l-1.38-4.748,5.761-4.269,3.591-1.343-2.126,6.643Z" transform="translate(-1982.966 -1177.255)"/><path class="ab" d="M2053.547,1496.829s3.151,7.927,2.322,11.442a35.412,35.412,0,0,0,5.572-.5,38.349,38.349,0,0,1-1.625-5.406,53.241,53.241,0,0,1-.332-6.335Z" transform="translate(-1977.216 -1282.447)"/><path class="ac" d="M1974,1534.665a2.486,2.486,0,0,1,.6,1.457,2.361,2.361,0,0,1-.178.975c-.537,1.413-1.381,1.6-2.292,3.1-.557.917-.452,1.193-.961,1.607a3.34,3.34,0,0,1-2.189.584,38.947,38.947,0,0,1-5.062-.286q1.7-2.186,3.612-4.433.841-.983,1.679-1.921l3.325-1.124Z" transform="translate(-1932.397 -1301.743)"/><path class="ad" d="M1972.239,1502.421s-1.9,9.915.517,12.692c2.06,2.777-.995.8-.995.8l-3.648,3.184-2.189,3.781s2.015-9.7,1.478-13.556-.806-6.449-.806-6.449Z" transform="translate(-1933.404 -1285.641)"/><path class="ae" d="M1959.116,1283.536s-5.105,4.568-5.105,23.377,2.418,59.652,2.418,59.652l3.87,29.241a25.6,25.6,0,0,0,6.7-.664c2.418-11.017,6.359-29.653,4.478-45.237-.806-16.928,6.718-38.156,6.718-38.156s6.449,21.5,11.017,32.244,13.265,44.419,14.07,46.838c5.345.484,7.628-.929,7.628-.929s-3.427-36.236-6.652-49.939-2.956-46.754-8.33-56.159C1983.837,1278.969,1959.116,1283.536,1959.116,1283.536Z" transform="translate(-1927.448 -1175.223)"/><path class="af" d="M1959.116,1283.536s-5.105,4.568-5.105,23.377,2.418,59.652,2.418,59.652l3.87,29.241a25.6,25.6,0,0,0,6.7-.664c2.418-11.017,6.359-29.653,4.479-45.237-.807-16.928,6.717-38.156,6.717-38.156s6.449,21.5,11.017,32.244,13.265,44.419,14.07,46.838c5.345.484,7.628-.929,7.628-.929s-3.427-36.236-6.652-49.939-2.956-46.754-8.33-56.159C1983.837,1278.969,1959.116,1283.536,1959.116,1283.536Z" transform="translate(-1927.448 -1175.223)"/><path class="ag" d="M1985.638,1318c1.592,10.348,4.776,15.919,12.735,23.083,6.368,4.776,1.592,15.124,3.98,23.083.8,2.388,3.184,4.776,3.98,7.164,2.962,5.924.2,13.17,1.539,19.443a8.515,8.515,0,0,0,3.038-.87s-3.427-36.236-6.652-49.939-2.956-46.754-8.33-56.159c-12.091-4.836-36.812-.269-36.812-.269s-5.105,4.568-5.105,23.377c0,1.526.016,3.2.046,4.982,5.3,4.69,16.14,5.733,22.826.533a3.154,3.154,0,0,1,1.277-.579l.035-.1.028.093C1981.265,1311.288,1984.948,1315.239,1985.638,1318Z" transform="translate(-1927.448 -1175.223)"/><g transform="translate(77.101 222.957)"><path class="ac" d="M2055.809,1526.525s-.786,0-.72,1.014-.354,4.5,3.638,4.667,4.607-.282,4.739-.282a32.747,32.747,0,0,0-1.047-3.338l-1.276-1.636-3.436-.36Z" transform="translate(-2055.085 -1520.65)"/><path class="ah" d="M2064.795,1524.153a12.709,12.709,0,0,0-1.031-3.236c-.705-1.586-.126-2.179-.8-3.623a4.3,4.3,0,0,0-.951-1.442,4.129,4.129,0,0,0-2.819-1.074,2.862,2.862,0,0,0-1.327.311,3.1,3.1,0,0,0-1.194,1.26,14.039,14.039,0,0,0-.961,2.853,7.041,7.041,0,0,0-.356,1.842c1.047,0,5.072.164,5.922.785a3.335,3.335,0,0,1,1.277,2.716c0,1.047.524,1.537,1.047,1.505A1.719,1.719,0,0,0,2064.795,1524.153Z" transform="translate(-2055.22 -1514.775)"/></g><path class="ah" d="M1970.283,1525.02c.9.014,1.559.729,2.056,2.454s2.885,3.25.1,2.885-4.809,3.582-5.8,5.042-3.666,2.756-3.6,1.33,1.245-2.093,1.576-3.552S1968.232,1524.987,1970.283,1525.02Z" transform="translate(-1931.959 -1296.94)"/><path class="r" d="M2037.4,1225.253c.661-1.838,4.787-13.911-1.882-24.922-5.459-9.014-14.906-11.955-16.253-12.353-8.2-2.422-12.309.69-14.9-2.173-4.39-4.859.583-21.407,10.2-24.722,10.843-3.736,23.85,10.631,29.121,20.068a43.516,43.516,0,0,1,4.813,27.22,42.484,42.484,0,0,1-5.249,14.693Z" transform="translate(-1951.82 -1114.669)"/><path class="r" d="M1979.387,1156.877c-9.678-.387-17.143-.234-21.359,3.979-4.453,4.45.047,9.475-.92,21.116-1.48,17.823-12.838,22.177-13.692,40.258a46.19,46.19,0,0,0,1.544,14.071,48.6,48.6,0,0,0,12.593,11.147c8.761,5.331,13.842,4.4,26.424,7.845,20.581,5.632,22.412,12.34,32.617,10.631,10.314-1.727,19.363-10.406,18.27-15.173-.655-2.855-4.812-2.046-9.6-6.4-6.169-5.611-3.79-10.967-8.481-17-6.738-8.661-16.124-3.366-21.865-10.872-5.808-7.593-3.5-22.556,1.391-30.711,3.2-5.327,4.567-11.57,7.288-17.155a3.881,3.881,0,0,0,.373-2.177c-.442-3.637-6.505-5.61-11.1-7.058A54.732,54.732,0,0,0,1979.387,1156.877Z" transform="translate(-1922.126 -1112.799)"/><path class="ai" d="M1999.1,1155.628l1.909-.587s.5,2.584,6.637,2.907a9.172,9.172,0,0,0,5.609-1.908l1.3.95a10.029,10.029,0,0,1-7.412,3.484A9.131,9.131,0,0,1,1999.1,1155.628Z" transform="translate(-1949.994 -1111.951)"/><g transform="translate(50.936 25.902)"><path class="aj" d="M2004.816,1133.375a8.18,8.18,0,0,1,3.1-5.046c2.05-1.629,2.467-1.793,3.172-1.927l.961-.146.106,0a9.61,9.61,0,0,1,2.557.909c.98.689.259,5.569-2.712,11.638l-.35,1.541c2.589.455,3.23.922,3.25,1.3.044.808-2.791,1.839-5.417,1.906-3.295.084-6.793-1.333-6.726-2.392.028-.428.648-.956,3.041-1.475l1.122-1.577C2006.579,1137.694,2004.545,1135.466,2004.816,1133.375Z" transform="translate(-2002.755 -1123.46)"/><path class="ak" d="M2013.49,1138.242c.747-.447,1.316.515.965,1.354a1.661,1.661,0,0,1-2.253.865C2011.485,1139.961,2012.484,1138.844,2013.49,1138.242Z" transform="translate(-2007.357 -1129.397)"/><path class="al" d="M2108.513,1129.5c-9.836-10.674-32.722-7.747-45.416.825-5.9,3.984-8.926,8.688-15.9,9.083-5.3.3-13.727-1.692-18.167-7.432-.559-.723-2.8-3.755-6.154-7.58-1.481-1.686-2.954-3.268-5.236-3.626a4.419,4.419,0,0,0-3.784.841,4.467,4.467,0,0,0-.982,4.03c.183.756.42.836.385,1.331-.094,1.392-2.629,2-2.488,2.7.1.5,1.42.317,1.647.946.249.689-1.2,1.281-1.822,3.014-1.166.781-1.9,2.723-2.158,5.323a23.687,23.687,0,0,0,.733,9.264c3.486,11.258,5.979,19.311,12.014,23.808,7.99,5.953,15.184.457,35.507-.412,27.829-1.191,34.768,8.242,44.77,1.789C2113.956,1165.342,2118.726,1140.578,2108.513,1129.5Z" transform="translate(-2005.526 -1120.665)"/></g><path class="r" d="M1908.838,1094.3c-.248,2.328-1.088,12.63,6.018,21.326a29.416,29.416,0,0,0,17.789,10.014c8.453,1.277,12.1-2.366,15.054.117,5.013,4.212,2.349,21.285-6.726,25.884-10.23,5.184-25.08-7.27-31.592-15.9a43.511,43.511,0,0,1-8.49-26.306,42.486,42.486,0,0,1,3.19-15.272,7.543,7.543,0,0,1,4.757.134Z" transform="translate(-1900.884 -1081.353)"/><path class="am" d="M2016.9,1303.15c-2.474-2.537.25-7.654-3.406-11.457-3.392-3.531-7.234-.679-12.7-3.716-7.006-3.9-5.075-11.029-11.767-14.864-4.812-2.757-7.073.207-14.553-1.239s-16.564-6.592-21.057-15.792a27.149,27.149,0,0,1-2.706-11.27c-3.359,6-6.842,11.751-7.3,21.456a46.19,46.19,0,0,0,1.544,14.071,48.6,48.6,0,0,0,12.593,11.147c8.761,5.33,13.842,4.4,26.424,7.844,20.581,5.633,22.412,12.341,32.617,10.632a27.624,27.624,0,0,0,15.893-8.994C2022.976,1305.2,2018.7,1304.991,2016.9,1303.15Z" transform="translate(-1922.126 -1156.837)"/></g></g><g transform="translate(1586.923 1098.292)"><path class="an" d="M1631.454,1424.579a44.494,44.494,0,0,1-20.944-6.927c-7.934-5.187-18.268-15.846-15.571-22.563,1.007-2.508,3.906-4.655,6.455-4.45,3.765.3,4.2,5.532,10.741,11.22,1.208,1.052,7.456,6.487,10.561,4.655,1.544-.911,2-3.434,1.749-5.352-.737-5.609-7.585-6.47-14.168-12.542-6.674-6.156-12.238-16.895-9.058-24.155,1.828-4.172,6.662-7.468,9.84-6.541,1.358.4,2.219,1.506,6.343,10.414,3.384,7.312,4.137,9.443,6.319,10.136,2.246.714,5.738-.182,7.064-2.395,3.457-5.762-11.482-14.271-12.839-30.4-.608-7.228,1.347-17.939,7.892-20.235,4.424-1.552,10.727.818,13.006,4.878,2.054,3.659-.441,6.412,1.126,14.632.476,2.495,1.454,7.628,3.52,7.9,2.425.316,5.137-6.229,5.764-7.823,4.72-12-.692-18.171,3.759-24,3.47-4.542,11.022-6.367,17-4.072,5.235,2.008,9.422,7.229,9.7,12.64.285,5.505-4.345,10.986-13.606,21.947-4.392,5.2-7.886,8.709-7.687,13.876.1,2.519,1.1,6.061,2.9,6.385,3.981.714,5.941-15.318,15.377-17.794a12.874,12.874,0,0,1,13.469,5.577c3.231,5.334,1.066,12.895-2.993,16.87-5.3,5.188-10.729,1.245-20.7,6.817-4.421,2.472-11.37,7.729-10.352,12.078a5.646,5.646,0,0,0,4.6,3.994c4.881.554,6.493-7.446,14.341-10.962,5.654-2.534,13.472-2.26,15.329.929,2.622,4.5-6.689,14.721-11.64,19.237C1672.781,1414.012,1658.667,1424.364,1631.454,1424.579Z" transform="translate(-1594.502 -1315.969)"/><path class="ao" d="M1673.722,1441.794c-.79-13.38,8.073-40.632,14.521-53.516,6.309-12.607,12.344-32.551,12.4-32.751l.393.118c-.061.2-6.106,20.178-12.431,32.816-6.428,12.844-15.263,40-14.479,53.308Z" transform="translate(-1634.087 -1335.748)"/></g><path class="ap" d="M1627.655,1464.2a64.721,64.721,0,0,1-12.276-32.578c-.488-6.209-1.439-18.338,5.98-28.8,3.7-5.214,11.541-12.927,16.84-10.7,3.409,1.431,5.526,6.876,4.564,11.017-.97,4.174-4.5,4.561-8.341,11.646-1.422,2.621-3.046,5.7-1.8,7.438,1.042,1.452,3.906,1.716,6.052.845,4.434-1.8,3.049-7.319,7.843-11.279,3.409-2.816,9.091-4.14,11.544-1.833,2.129,2,1.758,6.681-.124,9.8-3.013,4.994-8.415,3.528-11.937,8.987-1.562,2.422-2.673,6.08-1.306,7.527,1.558,1.648,6.143.223,9.083-1.6,3.88-2.405,4.024-4.964,6.579-5.286,2.85-.358,6.414,2.356,6.971,5.36.781,4.206-4.379,8.742-8.466,10.713-5.231,2.523-9.118,1.042-11.672,4.49-.938,1.265-1.8,3.33-1.028,4.583,1.1,1.788,5.062,1.2,7.695.806,6.407-.953,8.172-3.277,10.467-2.148,2.324,1.143,3.523,5,2.518,7.712-.558,1.505-2.236,3.837-10.552,5.3C1650.469,1467.217,1640.69,1467.936,1627.655,1464.2Z" transform="translate(-17.855 -255.558)"/></g></svg>