<svg xmlns="http://www.w3.org/2000/svg" xmlns:xlink="http://www.w3.org/1999/xlink" width="478.044" height="444.358" viewBox="0 0 478.044 444.358"><defs><style>.a{fill:none;stroke:#707070;}.b{fill:url(#c);}.c{fill:url(#f);}.d{opacity:0.8;mix-blend-mode:soft-light;}.ae,.af,.ai,.ak,.d,.u{isolation:isolate;}.e{fill:#fff;}.f{fill:url(#g);}.g{fill:url(#h);}.h{fill:url(#i);}.i{opacity:0.7;}.j{fill:#f4f7fa;}.k{fill:url(#j);}.l{fill:url(#k);}.m{fill:url(#l);}.n{fill:url(#m);}.o{fill:url(#n);}.p{fill:#fec045;}.q{fill:url(#o);}.af,.r{opacity:0.42;}.s{fill:url(#p);}.t{fill:url(#q);}.ai,.u{opacity:0.26;}.u{fill:url(#r);}.v{opacity:0.53;}.w{fill:url(#s);}.x{fill:url(#t);}.y{fill:url(#u);}.z{fill:url(#v);}.aa{fill:url(#w);}.ab{fill:url(#x);}.ac{fill:url(#y);}.ad{fill:url(#z);}.ae{opacity:0.15;fill:url(#aa);}.ae,.af,.ai,.ak{mix-blend-mode:multiply;}.ag{fill:url(#ab);}.ah{fill:url(#ac);}.ai{fill:url(#ad);}.aj{fill:url(#ae);}.ak{opacity:0.2;fill:url(#af);}.al{fill:url(#ag);}.am{fill:url(#ah);}.an{filter:url(#d);}.ao{filter:url(#a);}</style><filter id="a" x="44.685" y="0" width="433.359" height="434.885" filterUnits="userSpaceOnUse"><feOffset dy="15" input="SourceAlpha"/><feGaussianBlur stdDeviation="20" result="b"/><feFlood flood-color="#d22d60" flood-opacity="0.4"/><feComposite operator="in" in2="b"/><feComposite in="SourceGraphic"/></filter><linearGradient id="c" x1="0.5" x2="0.5" y2="1" gradientUnits="objectBoundingBox"><stop offset="0" stop-color="#c52b7c"/><stop offset="1" stop-color="#6f47b7"/></linearGradient><filter id="d" x="25.186" y="10.549" width="432.349" height="433.81" filterUnits="userSpaceOnUse"><feOffset dy="15" input="SourceAlpha"/><feGaussianBlur stdDeviation="20" result="e"/><feFlood flood-color="#d22d60" flood-opacity="0.4"/><feComposite operator="in" in2="e"/><feComposite in="SourceGraphic"/></filter><linearGradient id="f" x1="-0.659" y1="-0.396" x2="-1.165" y2="2.919" gradientUnits="objectBoundingBox"><stop offset="0" stop-color="#ff9085"/><stop offset="1" stop-color="#fb6fbb"/></linearGradient><linearGradient id="g" x1="4.887" y1="-1.602" x2="4.334" y2="1.643" gradientUnits="objectBoundingBox"><stop offset="0" stop-color="#aa80f9"/><stop offset="0.996" stop-color="#6165d7"/></linearGradient><linearGradient id="h" x1="-0.344" y1="0.556" x2="-0.349" y2="0.556" gradientUnits="objectBoundingBox"><stop offset="0" stop-color="#311944"/><stop offset="1" stop-color="#893976"/></linearGradient><linearGradient id="i" x1="-0.343" y1="0.574" x2="-0.336" y2="0.573" gradientUnits="objectBoundingBox"><stop offset="0.004" stop-color="#e38ddd"/><stop offset="1" stop-color="#9571f6"/></linearGradient><linearGradient id="j" x1="-3.148" y1="-0.618" x2="-3.09" y2="-0.654" gradientUnits="objectBoundingBox"><stop offset="0" stop-color="#f57e53"/><stop offset="0.005" stop-color="#f58152"/><stop offset="0.042" stop-color="#f8994d"/><stop offset="0.084" stop-color="#fbac49"/><stop offset="0.133" stop-color="#fdb946"/><stop offset="0.196" stop-color="#fec144"/><stop offset="0.318" stop-color="#ffc444"/><stop offset="0.455" stop-color="#fdb946"/><stop offset="0.694" stop-color="#f99c4c"/><stop offset="0.996" stop-color="#f36f56"/></linearGradient><linearGradient id="k" x1="-53.354" y1="0.291" x2="-52.367" y2="0.291" xlink:href="#f"/><linearGradient id="l" x1="-79.266" y1="-1.36" x2="-78.645" y2="-1.36" xlink:href="#f"/><linearGradient id="m" x1="-83.231" y1="-1.37" x2="-82.603" y2="-1.37" xlink:href="#f"/><linearGradient id="n" x1="-87.275" y1="-1.379" x2="-86.639" y2="-1.379" xlink:href="#f"/><linearGradient id="o" x1="-68.067" y1="0.126" x2="-67.346" y2="0.126" xlink:href="#f"/><linearGradient id="p" x1="-11.342" y1="-0.074" x2="-11.275" y2="-0.074" gradientUnits="objectBoundingBox"><stop offset="0" stop-color="#fb6fbb"/><stop offset="1" stop-color="#ff9085"/></linearGradient><linearGradient id="q" x1="-10.731" y1="1.32" x2="-10.662" y2="1.32" xlink:href="#p"/><linearGradient id="r" x1="-2.308" y1="2.254" x2="-2.292" y2="2.254" xlink:href="#f"/><linearGradient id="s" x1="-5.396" y1="-1.442" x2="-6.6" y2="-1.536" xlink:href="#h"/><linearGradient id="t" x1="-6.425" y1="-1.518" x2="-4.735" y2="-1.464" xlink:href="#i"/><linearGradient id="u" x1="-44.315" y1="-18.88" x2="-40.859" y2="-16.838" xlink:href="#j"/><linearGradient id="v" x1="-49.128" y1="-20.084" x2="-48.263" y2="-20.084" xlink:href="#f"/><linearGradient id="w" x1="-148.476" y1="-27.26" x2="-146.108" y2="-27.26" xlink:href="#f"/><linearGradient id="x" x1="-149.297" y1="-27.078" x2="-146.924" y2="-27.078" xlink:href="#f"/><linearGradient id="y" x1="-150.122" y1="-26.896" x2="-147.744" y2="-26.896" xlink:href="#f"/><linearGradient id="z" x1="-67.554" y1="-32.8" x2="-66.873" y2="-32.8" xlink:href="#f"/><linearGradient id="aa" x1="-10.702" y1="-1.803" x2="-8.124" y2="-1.74" xlink:href="#p"/><linearGradient id="ab" x1="-53.361" y1="-10.152" x2="-51.574" y2="-10.152" xlink:href="#p"/><linearGradient id="ac" x1="-42.882" y1="-6.574" x2="-40.954" y2="-6.574" xlink:href="#p"/><linearGradient id="ad" x1="-37.37" y1="-16.685" x2="-36.329" y2="-16.685" xlink:href="#f"/><linearGradient id="ae" x1="0.641" y1="-0.993" x2="0.376" y2="1.775" gradientUnits="objectBoundingBox"><stop offset="0" stop-color="#ab316d"/><stop offset="1" stop-color="#792d3d"/></linearGradient><linearGradient id="af" x1="3.311" y1="-0.817" x2="-0.513" y2="0.923" xlink:href="#ae"/><linearGradient id="ag" x1="4.112" y1="-0.532" x2="-0.545" y2="0.957" xlink:href="#ae"/><linearGradient id="ah" x1="3.689" y1="-0.716" x2="-0.501" y2="0.882" gradientUnits="objectBoundingBox"><stop offset="0" stop-color="#ffc444"/><stop offset="0.996" stop-color="#f36f56"/></linearGradient></defs><g transform="translate(-663.945 -1324.059)"><g class="ao" transform="matrix(1, 0, 0, 1, 663.94, 1324.06)"><path class="a" d="M1388.558,1697.426a112.913,112.913,0,0,1-17.277,14.547c-56.362,40.44-123.052,28.652-137.226,25.773-20.93-4.251-61.387-12.468-90.637-46.866-44.253-52.04-37.362-134.028-3.036-188.15,6.279-9.9,39.444-64.846,106.854-73.657,40.8-5.333,88.35,5.423,122.787,34.274C1442.308,1523.911,1437.162,1646.258,1388.558,1697.426Z" transform="translate(-1007.23 -1382.21)"/></g><g class="an" transform="matrix(1, 0, 0, 1, 663.94, 1324.06)"><path class="b" d="M1388.558,1697.426a112.913,112.913,0,0,1-17.277,14.547c-56.362,40.44-123.052,28.652-137.226,25.773-20.93-4.251-61.387-12.468-90.637-46.866-44.253-52.04-37.362-134.028-3.036-188.15,6.279-9.9,39.444-64.846,106.854-73.657,40.8-5.333,88.35,5.423,122.787,34.274C1442.308,1523.911,1437.162,1646.258,1388.558,1697.426Z" transform="translate(-1027.23 -1372.21)"/></g><g transform="translate(663.945 1415.201)"><path class="c" d="M779.75,1854.693c-39.845-5.119-90.364-18.57-110.654-56.5-4.827-9.023-9.671-26.552,2.512-33.152,11.136-6.033,25.538.339,33.815,8.191,6.086,5.773,10.835,18.657,17.673,22.732,10.008,5.963,15.4-10.308,15.186-17.023-.471-15.014-18.939-21.161-31.214-24.421-20.374-5.411-44.095-10.05-42.818-33.01s23.662-36.731,40.883-26.687c14.188,8.277,12.191,25.942,21.886,36.541,8.613,9.416,11.61-5.867,11.035-13.36-1.249-16.276-15.56-28.047-26.089-38.953-11.9-12.331-25.057-37.14-12.368-53.444,7.3-9.382,25.852-11.58,36.816-10,53.668,7.749,18.081,77.2,27.838,84.95s18.99-5.816,18.966-26.441,3.133-35.836,24.657-29.235,25.622,60.475,1.044,81.179,1.543,43.293,8.141,28.455c4.764-10.714,8.951-38.77,22.718-41.848,22.939-5.118,22.6,41.722,16,52.623-9.254,15.282-30.18,18.6-41.866,31.786-3.395,3.83-11.06,13.316-8.082,18.915,4.153,7.808,15.738-.545,19.995-4.163,9.569-8.136,22.814-35.784,36.3-17.423C878.763,1817.081,850.925,1850.691,779.75,1854.693Z" transform="translate(-663.945 -1615.142)"/><g class="d" transform="translate(73.904 53.174)"><path class="e" d="M1089.179,2078.082a2.027,2.027,0,0,0,1.721-2.01c.016-.813,1.125-82.651-34.544-179.791a1.767,1.767,0,0,0-2.21-1.1,1.678,1.678,0,0,0-1.023,2.17c35.449,96.541,34.35,177.872,34.334,178.679a2,2,0,0,0,1.689,2.055Z" transform="translate(-1053.017 -1895.081)"/></g></g><path class="f" d="M1095.293,2411.75c1.335-8.375,17.35-10.764,23.8-11.982,3.743-.706,9.069-1.434,10.992-5.3,2.02-4.061-1.052-7.2-4.989-7.919-7.049-1.287-14.632,3.19-21.183,5.228-7.037,2.189-14.337,3.219-21.315.2-5.564-2.409-11.261-8.134-12.472-14.159-3.351-16.675,13.356-15.717,24.243-13.375,5.283,1.137,15.67,1.994,16.6-5.472.991-7.942-9.116-11.947-15.359-12.184-8.159-.31-16.179,1.484-24.272,2.07-7.3.53-15.938-.265-17.962-8.663-1.563-6.488,2.091-13.944,7.365-17.793,12.2-8.9,28.263,6.276,41.281,6.244,4.6-.011,12.2-3.388,13.472-8.33,1.292-5.034-5.248-8.425-8.833-10.261-10.627-5.442-59.437-12.411-41.953-33.485,4.4-5.3,12.9-9.764,19.766-9.952,12.947-.354,27.495,8.433,37.469,16.014a136.72,136.72,0,0,1,38.329,45.916c19.7,38.859,10.156,64.915,10.156,64.915-5.711,9.417-14.548,19.21-24.281,24.515-11.441,6.236-29.161,8.976-41.6,4.127C1100.521,2420.53,1094.465,2416.938,1095.293,2411.75Z" transform="translate(-315.168 -727.656)"/><g transform="translate(811.725 1403.125)"><path class="g" d="M1596.44,1583.285c3.652.084,6.555,2.85,6.448,6.149l-6.412,208.9c-.116,3.555-3.712,7.415-7.5,7.264l-138.643-5.5c-3.712-.147-6.775-4.32-6.571-7.832L1451.849,1586c.183-3.26,3.257-5.857,6.832-5.775Z" transform="translate(-1443.406 -1574.775)"/><path class="h" d="M1595.793,1554.608c3.686.084,6.614,2.879,6.5,6.214l-6.935,212.19a6.721,6.721,0,0,1-7.169,6.248l-139.807-5.517a6.515,6.515,0,0,1-6.432-6.71l7.945-209.628c.184-3.3,3.285-5.924,6.893-5.842Z" transform="translate(-1441.944 -1551.562)"/><g class="i" transform="translate(86.625 1.205)"><path class="j" d="M1917.973,2456.737l-2.132,43.917a3.937,3.937,0,0,1-3.733,3.675l-10.734.335a3.238,3.238,0,0,1-3.383-3.086,3.3,3.3,0,0,1,0-.369l2.257-43.939a3.9,3.9,0,0,1,3.713-3.618l10.647-.319a3.214,3.214,0,0,1,3.363,3.058A3.248,3.248,0,0,1,1917.973,2456.737Z" transform="translate(-1897.988 -2283.243)"/><path class="j" d="M1933.627,2152.74l-2.094,43.112a3.877,3.877,0,0,1-3.7,3.6l-10.634.316a3.2,3.2,0,0,1-3.351-3.041,3.249,3.249,0,0,1,0-.355l2.216-43.135a3.841,3.841,0,0,1,3.678-3.549l10.549-.3a3.175,3.175,0,0,1,3.33,3.348Z" transform="translate(-1910.836 -2037.036)"/><path class="j" d="M1948.988,1854.269l-2.056,42.331a3.816,3.816,0,0,1-3.661,3.534l-10.537.3a3.159,3.159,0,0,1-3.32-3.339l2.175-42.352a3.783,3.783,0,0,1,3.643-3.481l10.453-.283a3.139,3.139,0,0,1,3.3,2.967A3.07,3.07,0,0,1,1948.988,1854.269Z" transform="translate(-1923.44 -1795.304)"/><path class="j" d="M1964.08,1561.15l-2.019,41.57a3.759,3.759,0,0,1-3.626,3.466l-10.44.28a3.124,3.124,0,0,1-3.291-2.949,3.161,3.161,0,0,1,0-.333l2.137-41.592a3.728,3.728,0,0,1,3.608-3.415l10.357-.268a3.1,3.1,0,0,1,3.275,3.24Z" transform="translate(-1935.826 -1557.905)"/></g><g transform="translate(42.144 165.83)"><path class="k" d="M1701.412,2432.452l-.969,20.812a7.236,7.236,0,0,1-7.664,6.615l-21.993-.814a7.012,7.012,0,0,1-6.965-7.143l1.063-20.762a7.232,7.232,0,0,1,7.636-6.568l21.9.766A7.016,7.016,0,0,1,1701.412,2432.452Z" transform="translate(-1663.812 -2424.587)"/><path class="l" d="M1708.547,2442.529l-.836,17.874a6.668,6.668,0,0,1-7.072,6.1l-18.886-.7a6.461,6.461,0,0,1-6.431-6.591l.91-17.837a6.665,6.665,0,0,1,7.051-6.065l18.813.661A6.463,6.463,0,0,1,1708.547,2442.529Zm-32.29,16.725a5.565,5.565,0,0,0,5.454,5.673h.086l18.884.7a5.742,5.742,0,0,0,6.09-5.255l.839-17.873a5.565,5.565,0,0,0-5.557-5.642l-18.815-.662a5.739,5.739,0,0,0-6.071,5.223Z" transform="translate(-1673.128 -2433.275)"/><g transform="translate(10.514 2.546)"><path class="j" d="M1721.639,2467.69l1.476-29.62Z" transform="translate(-1721.169 -2438.054)"/><path class="m" d="M1721.579,2438.021l-1.475,29.62-.939-.035,1.479-29.618Z" transform="translate(-1719.165 -2437.988)"/><g transform="translate(7.099 0.248)"><path class="j" d="M1759.009,2469l1.45-29.633Z" transform="translate(-1758.54 -2439.357)"/><path class="n" d="M1758.925,2439.329l-1.448,29.633-.939-.035,1.452-29.631Z" transform="translate(-1756.538 -2439.296)"/></g><g transform="translate(14.204 0.496)"><path class="j" d="M1796.415,2470.334l1.423-29.646Z" transform="translate(-1795.945 -2440.671)"/><path class="o" d="M1796.3,2440.633l-1.421,29.647-.94-.035,1.425-29.645Z" transform="translate(-1793.943 -2440.6)"/></g></g><g transform="translate(5.831 8.905)"><path class="p" d="M1722,2478.338l-.392,8.286a4.032,4.032,0,0,1-4.268,3.681l-16.481-.6a3.9,3.9,0,0,1-3.884-3.926c0-.016,0-.031,0-.047l.418-8.273a4.033,4.033,0,0,1,4.26-3.668l16.448.584a3.913,3.913,0,0,1,3.9,3.928C1722,2478.314,1722,2478.326,1722,2478.338Z" transform="translate(-1696.508 -2473.344)"/><path class="q" d="M1720.473,2476.481l-.392,8.287a4.486,4.486,0,0,1-4.758,4.1l-16.482-.6a4.346,4.346,0,0,1-4.33-4.362c0-.023,0-.045,0-.068l.419-8.274a4.486,4.486,0,0,1,4.751-4.089l16.447.584a4.356,4.356,0,0,1,4.345,4.366C1720.474,2476.446,1720.473,2476.463,1720.473,2476.481Zm-25.022,7.393a3.45,3.45,0,0,0,3.383,3.515h.053l16.479.6a3.562,3.562,0,0,0,3.779-3.259l.392-8.286a3.457,3.457,0,0,0-3.407-3.506h-.042l-16.448-.585a3.563,3.563,0,0,0-3.771,3.246Z" transform="translate(-1694.512 -2471.469)"/></g></g><g class="r" transform="translate(108.193 18.62)"><path class="s" d="M2028.305,2260.96l-2.192,60.295a2.171,2.171,0,0,1-2.311,2l-10.118-.375a2.167,2.167,0,0,1-2.151-2.167l2.3-60.239a2.157,2.157,0,0,1,2.291-1.979l10.034.333A2.139,2.139,0,0,1,2028.305,2260.96Z" transform="translate(-2011.533 -2142.832)"/><path class="t" d="M2049.056,1651.951l-2.925,80.21a2.179,2.179,0,0,1-2.305,2.008l-10.1-.317a2.148,2.148,0,0,1-2.147-2.146l3.07-80.138a2.162,2.162,0,0,1,2.281-1.975l9.992.264a2.108,2.108,0,0,1,2.132,2.083Z" transform="translate(-2027.773 -1649.59)"/></g><path class="u" d="M1612.4,1704.644c12.14.287,21.548,10.718,21,23.187-.542,12.351-10.66,22.021-22.591,21.706-11.914-.314-21.292-10.474-20.959-22.8C1590.188,1714.3,1600.278,1704.357,1612.4,1704.644Z" transform="translate(-1561.751 -1675.562)"/><g class="v" transform="translate(44.947 144.375)"><path class="j" d="M1748.626,2404.273a3.584,3.584,0,0,1-.2,5.027,3.492,3.492,0,0,1-4.938-.107l-.058-.063a3.585,3.585,0,0,1,.244-5.025,3.5,3.5,0,0,1,4.94.151Z" transform="translate(-1730.369 -2385.772)"/><path class="j" d="M1711.147,2319.481a1.28,1.28,0,0,1-.4.912,1.338,1.338,0,0,1-1.876-.061,20.237,20.237,0,0,0-28.1-.919,1.331,1.331,0,0,1-1.87-.061,1.3,1.3,0,0,1,.117-1.832l.014-.012a22.944,22.944,0,0,1,31.749,1.034A1.316,1.316,0,0,1,1711.147,2319.481Z" transform="translate(-1678.57 -2311.631)"/><path class="j" d="M1722.195,2344.968a1.3,1.3,0,0,1-.413.924,1.34,1.34,0,0,1-1.888-.062,14.832,14.832,0,0,0-20.738-.683,1.334,1.334,0,0,1-1.883-.062,1.319,1.319,0,0,1,.115-1.862l.007-.006a17.534,17.534,0,0,1,24.431.8A1.329,1.329,0,0,1,1722.195,2344.968Z" transform="translate(-1693.453 -2333.518)"/><path class="j" d="M1733.168,2370.853a1.34,1.34,0,0,1-2.32.872,9.433,9.433,0,0,0-13.279-.44,1.327,1.327,0,1,1-1.925-1.827,1.345,1.345,0,0,1,.141-.128,12.194,12.194,0,0,1,8.662-3.218,11.925,11.925,0,0,1,8.357,3.781A1.341,1.341,0,0,1,1733.168,2370.853Z" transform="translate(-1708.306 -2355.758)"/></g></g><g transform="translate(819.084 1368.317)"><path class="w" d="M1673.47,1433.308c3.026,1.2,4.594,4.4,3.483,7.123l-70.064,172.282c-1.2,2.929-5.4,5.037-8.52,3.739l-114.138-47.459c-3.056-1.271-4.323-5.7-3.065-8.565l70.651-169.573a5.8,5.8,0,0,1,7.5-2.7Z" transform="translate(-1480.683 -1384.02)"/><path class="x" d="M1676.581,1414.194a5.636,5.636,0,0,1,3.5,7.181l-71.362,174.477a5.979,5.979,0,0,1-7.907,2.988l-114.852-47.731a5.777,5.777,0,0,1-3.288-7.569l71.411-172.037a5.849,5.849,0,0,1,7.552-2.736Z" transform="translate(-1481.928 -1368.317)"/><g class="i" transform="translate(84.307 50.076)"><path class="j" d="M1948.664,2214.542l-12.09,28.316a2.757,2.757,0,0,1-3.346,1.5l-7.13-2.393a2.268,2.268,0,0,1-1.378-3.091l12.177-28.3a2.732,2.732,0,0,1,3.319-1.472l7.069,2.383A2.251,2.251,0,0,1,1948.664,2214.542Z" transform="translate(-1924.525 -2099.366)"/><path class="j" d="M2033.88,2018.621l-11.869,27.8a2.715,2.715,0,0,1-3.3,1.467l-7.059-2.381a2.24,2.24,0,0,1-1.372-3.045l11.954-27.783a2.69,2.69,0,0,1,3.279-1.435l7,2.371A2.224,2.224,0,0,1,2033.88,2018.621Z" transform="translate(-1993.832 -1940.705)"/><path class="j" d="M2117.54,1826.255l-11.653,27.293a2.673,2.673,0,0,1-3.264,1.43l-6.991-2.369a2.213,2.213,0,0,1-1.367-3L2106,1822.33a2.649,2.649,0,0,1,3.239-1.4l6.932,2.359A2.2,2.2,0,0,1,2117.54,1826.255Z" transform="translate(-2061.871 -1784.924)"/><path class="j" d="M2199.686,1637.349l-11.444,26.8a2.632,2.632,0,0,1-3.224,1.394l-6.923-2.357a2.188,2.188,0,0,1-1.362-2.956l11.527-26.789a2.609,2.609,0,0,1,3.2-1.363l6.865,2.347A2.172,2.172,0,0,1,2199.686,1637.349Z" transform="translate(-2128.678 -1631.943)"/></g><g transform="translate(44.514 154.581)"><path class="y" d="M1744.82,2194.717l-5.7,13.429a5.069,5.069,0,0,1-6.643,2.479l-14.242-5.888a4.91,4.91,0,0,1-2.835-6.385l5.753-13.374a5.065,5.065,0,0,1,6.613-2.454l14.19,5.833A4.912,4.912,0,0,1,1744.82,2194.717Z" transform="translate(-1715.032 -2182.116)"/><path class="z" d="M1750.723,2202.426l-4.9,11.533a4.67,4.67,0,0,1-6.13,2.286l-12.231-5.054a4.525,4.525,0,0,1-2.619-5.893l4.939-11.49a4.667,4.667,0,0,1,6.105-2.266l12.192,5.013A4.525,4.525,0,0,1,1750.723,2202.426Zm-25.272,3.122a3.9,3.9,0,0,0,2.255,5.074l12.23,5.053a4.021,4.021,0,0,0,5.278-1.969l4.9-11.531a3.9,3.9,0,0,0-2.275-5.057l-12.193-5.014a4.019,4.019,0,0,0-5.258,1.952Z" transform="translate(-1722.705 -2189.444)"/><g transform="translate(6.089 2.875)"><path class="j" d="M1748.689,2216.994l8.179-19.089Z" transform="translate(-1748.385 -2197.781)"/><path class="aa" d="M1755.875,2197.5l-8.178,19.089-.608-.251,8.18-19.087Z" transform="translate(-1747.09 -2197.25)"/><g transform="translate(4.597 1.884)"><path class="j" d="M1772.893,2226.931l8.165-19.1Z" transform="translate(-1772.589 -2207.702)"/><path class="ab" d="M1780.064,2207.421l-8.164,19.1-.608-.251,8.166-19.1Z" transform="translate(-1771.292 -2207.171)"/></g><g transform="translate(9.198 3.771)"><path class="j" d="M1797.116,2236.875l8.151-19.119Z" transform="translate(-1796.812 -2217.632)"/><path class="ac" d="M1804.273,2217.35l-8.15,19.12-.609-.252,8.151-19.118Z" transform="translate(-1795.514 -2217.101)"/></g></g><g transform="translate(5.437 6.56)"><path class="p" d="M1763.813,2226.448l-2.275,5.345a2.824,2.824,0,0,1-3.7,1.378l-10.675-4.406a2.735,2.735,0,0,1-1.582-3.554l2.288-5.331a2.825,2.825,0,0,1,3.69-1.371l10.657,4.387A2.74,2.74,0,0,1,1763.813,2226.448Z" transform="translate(-1745.053 -2217.973)"/><path class="ad" d="M1762.719,2225.251l-2.274,5.346a3.143,3.143,0,0,1-4.123,1.537l-10.675-4.407a3.043,3.043,0,0,1-1.764-3.962l2.289-5.331a3.143,3.143,0,0,1,4.114-1.529l10.657,4.387A3.05,3.05,0,0,1,1762.719,2225.251Zm-18.23-1.236a2.415,2.415,0,0,0,1.4,3.145l10.674,4.406a2.494,2.494,0,0,0,3.272-1.22l2.275-5.345a2.421,2.421,0,0,0-1.411-3.142l-10.657-4.388a2.5,2.5,0,0,0-3.266,1.214Z" transform="translate(-1743.654 -2216.651)"/></g></g><path class="ae" d="M1911.33,1690.666c-4.161,15.141-7.847,24.361-15.743,33.2-10.845,12.142-24.357,17.678-32.8,20.288l46.305,19.244a5.979,5.979,0,0,0,7.908-2.988l71.362-174.477c1.122-2.743-.455-5.974-3.5-7.181l-18.4-7.289c-28.063,19.125-38.653,38.635-43.065,53.26C1918.059,1642.4,1921.214,1654.7,1911.33,1690.666Z" transform="translate(-1790.204 -1532.877)"/><g class="af" transform="translate(108.438 86.197)"><path class="ag" d="M2077.222,2220.754l-16.116,39.055a1.52,1.52,0,0,1-2,.754l-6.552-2.709a1.517,1.517,0,0,1-.885-1.947l16.176-38.991a1.511,1.511,0,0,1,1.986-.741l6.507,2.661A1.5,1.5,0,0,1,2077.222,2220.754Z" transform="translate(-2051.56 -2141.221)"/><path class="ah" d="M2218.436,1826.725l-21.445,51.953a1.526,1.526,0,0,1-2,.758l-6.553-2.666a1.5,1.5,0,0,1-.887-1.932l21.522-51.871a1.514,1.514,0,0,1,1.979-.742l6.5,2.605A1.476,1.476,0,0,1,2218.436,1826.725Z" transform="translate(-2161.634 -1822.107)"/></g><path class="ai" d="M1909.144,1512.07a15.3,15.3,0,0,1,8.146,20.337,15.691,15.691,0,0,1-20.116,8.754,15.307,15.307,0,0,1-8.213-20.071A15.69,15.69,0,0,1,1909.144,1512.07Z" transform="translate(-1810.466 -1483.905)"/><g class="v" transform="translate(59.979 136.122)"><path class="j" d="M1824.6,2150.865a2.51,2.51,0,0,1-1.357,3.251,2.445,2.445,0,0,1-3.239-1.326,2.51,2.51,0,0,1,1.384-3.24A2.447,2.447,0,0,1,1824.6,2150.865Z" transform="translate(-1815.383 -2137.123)"/><path class="j" d="M1817.655,2095.175a.9.9,0,0,1-.488.5.937.937,0,0,1-1.217-.5,14.172,14.172,0,0,0-18.227-7.444.932.932,0,0,1-1.213-.5.909.909,0,0,1,.535-1.179,16.066,16.066,0,0,1,20.594,8.408A.919.919,0,0,1,1817.655,2095.175Z" transform="translate(-1796.446 -2084.941)"/><path class="j" d="M1820.057,2111.934a.914.914,0,0,1-.5.506.938.938,0,0,1-1.224-.5,10.386,10.386,0,0,0-13.449-5.5.935.935,0,0,1-1.221-.5.924.924,0,0,1,.535-1.2,12.278,12.278,0,0,1,15.846,6.473A.927.927,0,0,1,1820.057,2111.934Z" transform="translate(-1802.242 -2100.269)"/><path class="j" d="M1822.494,2128.938a.939.939,0,0,1-1.736.008,6.605,6.605,0,0,0-8.612-3.521.927.927,0,1,1-.7-1.718,8.538,8.538,0,0,1,6.47,0,8.351,8.351,0,0,1,4.568,4.516A.938.938,0,0,1,1822.494,2128.938Z" transform="translate(-1808.115 -2115.826)"/></g></g><g transform="translate(793.394 1518.54)"><path class="aj" d="M1555.168,2171.454l12.512,146.087a12.579,12.579,0,0,1-3.223,9.843,12.393,12.393,0,0,1-8.037,3.929l-184.31,15.522a13.658,13.658,0,0,1-15.053-12.338l-11.581-155.422a13.169,13.169,0,0,1,13.021-13.934l183.166-5.957A13.425,13.425,0,0,1,1555.168,2171.454Z" transform="translate(-1345.442 -2159.176)"/><path class="ak" d="M1564.659,2352.521a12.574,12.574,0,0,1-8.112,3.927l-184.375,15.523c-7.809.657-14.56-4.9-15.115-12.338l-11.581-155.421a13.169,13.169,0,0,1,13.021-13.935l2.133-.07c.773,4.012,1.81,8.516,2.8,12.838.138.6.279,1.25.414,1.825,1.15,4.989,2.135,9.091,2.31,9.62,5.748,17.21,13.873,36.985,31.04,46.606,26.231,14.712,59.444,12.07,87.029,20.125,18.167,5.305,36.817,12.476,51.27,24.477,10.56,8.769,19.472,19.582,24.685,32.233A87.918,87.918,0,0,1,1564.659,2352.521Z" transform="translate(-1345.442 -2184.313)"/><g class="i" transform="translate(8.809 9.402)"><path class="e" d="M1579.244,2365.051h-.008l-6.349.392a1.368,1.368,0,0,1-1.421-1.26,1.219,1.219,0,0,1,1.193-1.315l6.337-.419H1579a10.336,10.336,0,0,0,3.157-.763,1.274,1.274,0,0,1,1.65.765,1.4,1.4,0,0,1-.814,1.742A12.138,12.138,0,0,1,1579.244,2365.051Zm-16.3,1.079-9.993.818a1.315,1.315,0,1,1-.217-2.622l9.993-.81a1.312,1.312,0,1,1,.218,2.614Zm-20.046,1.641-10.113.828a1.324,1.324,0,1,1-.216-2.638l10.112-.82a1.319,1.319,0,1,1,.217,2.63Zm-20.286,1.66-10.234.838a1.332,1.332,0,1,1-.214-2.654l10.233-.83a1.327,1.327,0,1,1,.215,2.646Zm-20.529,1.68-10.358.848a1.34,1.34,0,1,1-.213-2.67l10.357-.84a1.336,1.336,0,1,1,.214,2.662Zm-20.779,1.7-10.484.858a1.348,1.348,0,1,1-.211-2.687l10.483-.85a1.344,1.344,0,1,1,.212,2.678Zm-21.032,1.722-10.612.868a1.357,1.357,0,1,1-.209-2.7l10.611-.86a1.352,1.352,0,1,1,.21,2.7Zm-21.289,1.742-10.743.879a1.387,1.387,0,0,1-1.526-1.244,1.405,1.405,0,0,1,1.318-1.476l10.742-.871a1.382,1.382,0,0,1,1.516,1.241A1.4,1.4,0,0,1,1438.982,2376.276Zm-21.551,1.448a1.485,1.485,0,0,1-.291,0,17.94,17.94,0,0,1-10.407-4.838,1.326,1.326,0,0,1,.024-1.941,1.492,1.492,0,0,1,2.038,0,15.049,15.049,0,0,0,8.718,4.061,1.362,1.362,0,0,1,1.235,1.519A1.43,1.43,0,0,1,1417.431,2377.724Zm172.916-19.51a1.3,1.3,0,0,1-1.193-2.016,13.286,13.286,0,0,0,2.159-8.522,1.283,1.283,0,0,1,1.181-1.392,1.308,1.308,0,0,1,1.4,1.193,15.849,15.849,0,0,1-2.572,10.162A1.287,1.287,0,0,1,1590.347,2358.214Zm-187.057,5.837a1.411,1.411,0,0,1-1.561-1.179c-.023-.2-.064-.376-.079-.581l-.735-9.8a1.318,1.318,0,0,1,1.215-1.48,1.292,1.292,0,0,1,1.418,1.251l.735,9.792c.013.171.175.322.194.491a1.318,1.318,0,0,1-1.209,1.5C1403.251,2364.047,1403.307,2364.05,1403.291,2364.051Zm189.148-20.118c-.713.054-1.1-.478-1.158-1.192l-.832-9.794c-.061-.713.226-1.335.938-1.387s1.1.482,1.156,1.2l.833,9.785C1593.436,2343.253,1593.151,2343.878,1592.438,2343.933Zm-190.879-.54a1.3,1.3,0,0,1-1.419-1.255l-.775-10.34a1.321,1.321,0,1,1,2.632-.209l.775,10.33A1.311,1.311,0,0,1,1401.559,2343.393Zm189.215-19.033c-.712.05-1.1-.486-1.157-1.2l-.831-9.774c-.061-.712.226-1.328.938-1.375s1.1.49,1.156,1.2l.831,9.765C1591.771,2323.691,1591.486,2324.31,1590.774,2324.36Zm-190.765-1.629a1.305,1.305,0,0,1-1.418-1.262l-.773-10.318a1.292,1.292,0,0,1,1.214-1.454,1.309,1.309,0,0,1,1.417,1.266l.774,10.308A1.3,1.3,0,0,1,1400.01,2322.73Zm189.1-17.9c-.712.045-1.1-.494-1.157-1.2l-.829-9.754c-.06-.71.226-1.321.938-1.364s1.095.5,1.155,1.208l.829,9.745C1590.11,2304.169,1589.824,2304.782,1589.113,2304.828Zm-190.65-2.714a1.315,1.315,0,0,1-1.418-1.269l-.771-10.3a1.279,1.279,0,0,1,1.214-1.441,1.318,1.318,0,0,1,1.416,1.272l.772,10.285A1.285,1.285,0,0,1,1398.463,2302.113Zm188.992-16.778c-.711.042-1.1-.5-1.156-1.211l-.827-9.734c-.06-.709.227-1.313.938-1.352s1.094.506,1.155,1.214l.828,9.725C1588.452,2284.686,1588.167,2285.294,1587.455,2285.335Zm-190.535-3.794a1.323,1.323,0,0,1-1.417-1.276l-.77-10.273a1.266,1.266,0,0,1,1.213-1.428,1.327,1.327,0,0,1,1.415,1.28l.771,10.263A1.272,1.272,0,0,1,1396.92,2281.541Zm188.881-15.658c-.711.037-1.1-.509-1.156-1.217l-.826-9.714c-.06-.707.227-1.306.938-1.341s1.094.513,1.154,1.22l.826,9.705C1586.8,2265.244,1586.512,2265.846,1585.8,2265.883Zm-190.421-4.87a1.332,1.332,0,0,1-1.416-1.283l-.768-10.251a1.254,1.254,0,0,1,1.213-1.415,1.336,1.336,0,0,1,1.414,1.286l.769,10.241A1.26,1.26,0,0,1,1395.381,2261.013Zm188.77-14.542c-.711.033-1.095-.517-1.155-1.223l-.824-9.694c-.06-.706.227-1.3.937-1.329s1.093.521,1.153,1.227l.824,9.685C1585.147,2245.842,1584.861,2246.438,1584.151,2246.47Zm-190.306-5.941a1.34,1.34,0,0,1-1.415-1.29l-.577-7.7a15.857,15.857,0,0,1,.057-2.751,1.39,1.39,0,0,1,1.579-1.176,1.316,1.316,0,0,1,1.157,1.506,13.268,13.268,0,0,0-.168,2.308l.577,7.689A1.247,1.247,0,0,1,1393.845,2240.529ZM1582.5,2227.1c-.71.029-1.094-.524-1.154-1.23l-.159-1.874a13.957,13.957,0,0,0-2.645-6.7,1.185,1.185,0,1,1,1.908-1.386,16.222,16.222,0,0,1,2.828,7.993l.159,1.873C1583.5,2226.479,1583.213,2227.069,1582.5,2227.1Zm-184.607-5.789a1.522,1.522,0,0,1-1.09-.4,1.29,1.29,0,0,1-.052-1.9,17.521,17.521,0,0,1,10.272-4.68,1.481,1.481,0,0,1,1.615,1.186,1.308,1.308,0,0,1-1.205,1.481,14.686,14.686,0,0,0-8.6,3.928A1.421,1.421,0,0,1,1397.9,2221.309Zm173.764-9.284a1.339,1.339,0,0,1-.472-.069,13.858,13.858,0,0,0-4.906-.709l-4.406.158a1.371,1.371,0,0,1-1.408-1.235,1.22,1.22,0,0,1,1.193-1.328l4.406-.155a16.528,16.528,0,0,1,5.849.851,1.336,1.336,0,0,1,.881,1.625A1.218,1.218,0,0,1,1571.66,2212.024Zm-19.664-.265-9.939.357a1.381,1.381,0,0,1-1.422-1.242,1.233,1.233,0,0,1,1.209-1.336l9.938-.35a1.377,1.377,0,0,1,1.414,1.239A1.226,1.226,0,0,1,1552,2211.759Zm-19.936.717-10.056.362a1.392,1.392,0,0,1-1.437-1.25,1.245,1.245,0,0,1,1.225-1.344l10.056-.354a1.387,1.387,0,0,1,1.429,1.246A1.239,1.239,0,0,1,1532.06,2212.476Zm-20.172.725-10.176.366a1.4,1.4,0,0,1-1.452-1.257,1.258,1.258,0,0,1,1.241-1.352l10.175-.358a1.4,1.4,0,0,1,1.444,1.253A1.252,1.252,0,0,1,1511.888,2213.2Zm-20.413.734-10.3.37a1.414,1.414,0,0,1-1.468-1.264,1.271,1.271,0,0,1,1.259-1.361l10.3-.362a1.408,1.408,0,0,1,1.459,1.26A1.265,1.265,0,0,1,1491.475,2213.935Zm-20.658.743-10.422.375a1.425,1.425,0,0,1-1.483-1.271,1.285,1.285,0,0,1,1.276-1.369l10.421-.367a1.419,1.419,0,0,1,1.475,1.267A1.278,1.278,0,0,1,1470.817,2214.677Zm-20.906.751-10.549.379a1.437,1.437,0,0,1-1.5-1.279,1.3,1.3,0,0,1,1.293-1.378l10.548-.371a1.431,1.431,0,0,1,1.49,1.275A1.292,1.292,0,0,1,1449.911,2215.429Zm-21.161.761-10.677.384a1.447,1.447,0,0,1-1.516-1.286,1.312,1.312,0,0,1,1.311-1.387l10.676-.376a1.442,1.442,0,0,1,1.506,1.282A1.305,1.305,0,0,1,1428.75,2216.19Z" transform="translate(-1391.817 -2208.676)"/></g><path class="al" d="M2276.609,2433.047a3.951,3.951,0,0,0-3.641-.286l-37.479,16.034a13.894,13.894,0,0,0-8.56,13.626l1.294,15.566c.518,6.232,5.557,11.44,11.731,12.8l38.786,8.493a4.032,4.032,0,0,0,3.486-.87,3.956,3.956,0,0,0,1.367-3.281l-5.065-58.929A4.076,4.076,0,0,0,2276.609,2433.047Z" transform="translate(-2059.457 -2380.538)"/><path class="am" d="M2290.978,2590.521a7.633,7.633,0,0,1-7.206,8.279,8.109,8.109,0,0,1-8.555-7.354,7.632,7.632,0,0,1,7.243-8.275A8.113,8.113,0,0,1,2290.978,2590.521Z" transform="translate(-2098.585 -2502.623)"/></g></g></svg>