<svg xmlns="http://www.w3.org/2000/svg" xmlns:xlink="http://www.w3.org/1999/xlink" width="480" height="486.506" viewBox="0 0 480 486.506"><defs><style>.a{fill:url(#a);}.b,.d{fill:none;}.c{fill:url(#b);}.d{stroke:#707070;}.e{clip-path:url(#f);}.f{fill:url(#g);}.ai,.g{opacity:0.5;}.g{mix-blend-mode:soft-light;}.aa,.ag,.g{isolation:isolate;}.h{fill:#beb8f2;}.i{fill:url(#h);}.j{clip-path:url(#i);}.k{fill:#fcfdfe;}.l{fill:url(#j);}.m{clip-path:url(#k);}.n{fill:url(#l);}.o{fill:url(#m);}.p{fill:url(#n);}.q{fill:url(#o);}.ai,.am,.r{fill:#fff;}.s{opacity:0.63;}.t{fill:url(#p);}.u{fill:url(#q);}.v{fill:url(#r);}.w{fill:#26264f;}.x{fill:url(#s);}.y{fill:url(#t);}.z{fill:url(#u);}.aa{opacity:0.25;fill:url(#v);}.aa,.ag{mix-blend-mode:multiply;}.ab{fill:#444b8c;}.ac{fill:url(#w);}.ad{fill:url(#x);}.ae{fill:url(#y);}.af{fill:url(#z);}.ag{opacity:0.3;fill:url(#aa);}.ah{fill:url(#ab);}.aj{fill:url(#ac);}.ak{fill:url(#ad);}.al{fill:#fec344;}.am{opacity:0.78;}.an{fill:url(#ae);}.ao{fill:url(#af);}.ap{fill:#ffc344;}.aq,.ar{fill:#ff7b69;font-family:LEMONMILK-Medium, LEMON MILK;font-weight:500;}.aq{font-size:41px;}.ar{font-size:25px;}.as{filter:url(#c);}</style><linearGradient id="a" x1="-1.478" y1="0.656" x2="-0.321" y2="0.656" gradientUnits="objectBoundingBox"><stop offset="0" stop-color="#ffc444"/><stop offset="0.996" stop-color="#f36f56"/></linearGradient><linearGradient id="b" x1="0.5" x2="0.5" y2="1" gradientUnits="objectBoundingBox"><stop offset="0" stop-color="#a70e5f"/><stop offset="1" stop-color="#511bb2"/></linearGradient><filter id="c" x="0" y="0" width="480" height="486.506" filterUnits="userSpaceOnUse"><feOffset dy="15" input="SourceAlpha"/><feGaussianBlur stdDeviation="20" result="d"/><feFlood flood-color="#d22d60" flood-opacity="0.4"/><feComposite operator="in" in2="d"/><feComposite in="SourceGraphic"/></filter><clipPath id="f"><path class="a" d="M1991.078,1959.695l28.629,16.629s13.919-11.556,12.924-26c-2.032-29.461,23.913-29.184,34.8-30.694,16.414-2.277,29.886-11.442,16.506-26.61s18.229-31.2,45.268-31.054c26.459.14,41.976-46.813-15.263-52.375-34.183-3.322-46.583,27.764-56.576,41.974s-32.97,2.52-35.972,25.226c-2.564,19.4,3.185,37.963-12.485,43.219S1985.267,1936.74,1991.078,1959.695Z" transform="translate(-1989.178 -1809.35)"/></clipPath><linearGradient id="g" x1="0.836" y1="-0.023" x2="0.121" y2="0.937" gradientUnits="objectBoundingBox"><stop offset="0" stop-color="#fcb148"/><stop offset="0.052" stop-color="#fdb946"/><stop offset="0.142" stop-color="#fec144"/><stop offset="0.318" stop-color="#ffc444"/><stop offset="0.485" stop-color="#fdb946"/><stop offset="0.775" stop-color="#f99c4c"/><stop offset="0.866" stop-color="#f8924f"/><stop offset="1" stop-color="#f8924f"/></linearGradient><linearGradient id="h" x1="-1.102" y1="0.078" x2="-1.831" y2="0.714" gradientUnits="objectBoundingBox"><stop offset="0" stop-color="#ff9085"/><stop offset="1" stop-color="#fb6fbb"/></linearGradient><clipPath id="i"><path class="b" d="M1978.465,1020.781l-35.9,4.077s-17.364-19.6-7.6-30.029-3.436-30.507-9.118-42.007c-15.417-31.2,23.509-41.928,7.185-83.583-4.342-11.079-16.643-30.757-9.973-43.242,7.6-14.224,19.9-7.412,24.026-18.5,6.443-17.329,23.424-28.848,39.963-19.388,16.323,9.337,13.3,40.76-11.779,74.2-15.123,25.815-13.372,31.275-6.525,43.636,4.8,8.658,23.535,28.956,13.847,43.267s-15.915,28.242-6.71,36.651C1989.888,998.66,1978.465,1020.781,1978.465,1020.781Z" transform="translate(-1921.118 -784.712)"/></clipPath><linearGradient id="j" x1="1.534" y1="0.434" x2="2.311" y2="1.256" gradientUnits="objectBoundingBox"><stop offset="0" stop-color="#aa80f9"/><stop offset="0.996" stop-color="#6165d7"/></linearGradient><clipPath id="k"><path class="b" d="M1979.751,1208.578l-56.389,10.445c-4.783-6.916-11.742-20.02-.626-25.627,15.454-7.8,10.2-35.086,3.7-43.846-8.046-10.841-26.229-36.453-2.535-48.858,19.725-10.327,34.655-13.2,30.825-39.005s7.639-44.576,32.508-47.8c26.171-3.388,40.623-39.9,64.045-33.135,40.813,11.779,19.082,74.464-22.392,99.411s-12.575,35.219-7.025,55.869c7.577,28.193-34.582,29.99-43.057,43.275C1972.158,1189.726,1976.247,1201.539,1979.751,1208.578Z" transform="translate(-1912.16 -979.923)"/></clipPath><linearGradient id="l" x1="0.491" y1="0.477" x2="0.209" y2="0.496" gradientUnits="objectBoundingBox"><stop offset="0" stop-color="#444b8c"/><stop offset="0.996" stop-color="#26264f"/></linearGradient><linearGradient id="m" x1="0.708" y1="0.034" x2="0.013" y2="1.514" xlink:href="#l"/><linearGradient id="n" x1="0.536" y1="-0.156" x2="0.445" y2="1.444" xlink:href="#h"/><linearGradient id="o" x1="1.226" y1="-1.493" x2="-27.991" y2="78.646" gradientUnits="objectBoundingBox"><stop offset="0" stop-color="#311944"/><stop offset="1" stop-color="#893976"/></linearGradient><linearGradient id="p" x1="0.42" y1="2.204" x2="0.464" y2="1.351" xlink:href="#o"/><linearGradient id="q" x1="0.278" y1="2.51" x2="0.468" y2="0.596" xlink:href="#o"/><linearGradient id="r" x1="0.438" y1="-0.225" x2="0.646" y2="2.255" xlink:href="#o"/><linearGradient id="s" x1="0.351" y1="-0.173" x2="0.569" y2="1.311" xlink:href="#o"/><linearGradient id="t" x1="-2.568" y1="0.5" x2="-1.568" y2="0.5" xlink:href="#o"/><linearGradient id="u" x1="-2.6" y1="0.129" x2="-1.879" y2="0.731" xlink:href="#o"/><linearGradient id="v" x1="-2.316" y1="0.047" x2="-1.595" y2="0.677" xlink:href="#o"/><linearGradient id="w" x1="-9.301" y1="-1.343" x2="-8.757" y2="1.115" gradientUnits="objectBoundingBox"><stop offset="0.004" stop-color="#e38ddd"/><stop offset="1" stop-color="#9571f6"/></linearGradient><linearGradient id="x" x1="19.099" y1="14.901" x2="17.474" y2="14.131" xlink:href="#o"/><linearGradient id="y" x1="21.054" y1="46.616" x2="13.331" y2="41.343" xlink:href="#o"/><linearGradient id="z" x1="0.018" y1="-1.017" x2="0.749" y2="1.219" xlink:href="#l"/><linearGradient id="aa" x1="0.053" y1="-0.577" x2="0.546" y2="0.805" xlink:href="#w"/><linearGradient id="ab" x1="0.963" y1="-0.162" x2="0.436" y2="0.737" xlink:href="#j"/><linearGradient id="ac" x1="0.909" y1="0.239" x2="-0.214" y2="1.175" xlink:href="#w"/><linearGradient id="ad" x1="1.178" y1="-0.413" x2="1.037" y2="-0.223" gradientUnits="objectBoundingBox"><stop offset="0" stop-color="#ff928e"/><stop offset="1" stop-color="#fe7062"/></linearGradient><linearGradient id="ae" x1="0.953" y1="-0.752" x2="0.834" y2="-0.422" xlink:href="#ad"/><linearGradient id="af" x1="0.731" y1="-0.548" x2="0.684" y2="-0.338" xlink:href="#ad"/></defs><g transform="translate(-388.243 -410)"><g class="as" transform="matrix(1, 0, 0, 1, 388.24, 410)"><path class="c" d="M600.951,455.033c-48.813.862-124.337,19.422-146.075,67.117-7.592,16.658-7.078,41.147-6.05,90.126a517.772,517.772,0,0,0,4.322,61.413c7.309,54.082,12.285,90.9,31.117,112.337,47.186,53.717,217.635,52.165,290.422-44.544,39.706-52.755,45.814-127.8,9.508-189.823C744.221,483.375,666.3,453.878,600.951,455.033Z" transform="translate(-388.24 -410)"/></g><path class="d" d="M600.951,455.033c-48.813.862-124.337,19.422-146.075,67.117-7.592,16.658-7.078,41.147-6.05,90.126a517.772,517.772,0,0,0,4.322,61.413c7.309,54.082,12.285,90.9,31.117,112.337,47.186,53.717,217.635,52.165,290.422-44.544,39.706-52.755,45.814-127.8,9.508-189.823C744.221,483.375,666.3,453.878,600.951,455.033Z" transform="translate(-20 -20)"/><g transform="translate(642.169 625.444)"><path class="a" d="M1991.078,1959.695l28.629,16.629s13.919-11.556,12.924-26c-2.032-29.461,23.913-29.184,34.8-30.694,16.414-2.277,29.886-11.442,16.506-26.61s18.229-31.2,45.268-31.054c26.459.14,41.976-46.813-15.263-52.375-34.183-3.322-46.583,27.764-56.576,41.974s-32.97,2.52-35.972,25.226c-2.564,19.4,3.185,37.963-12.485,43.219S1985.267,1936.74,1991.078,1959.695Z" transform="translate(-1989.178 -1809.35)"/><g class="e" transform="translate(0)"><path class="f" d="M1991.078,1959.695l28.629,16.629s13.919-11.556,12.924-26c-2.032-29.461,23.913-29.184,34.8-30.694,16.414-2.277,28.014-10.8,18.744-26.083-10.49-17.293,15.992-31.724,43.031-31.58,26.459.14,41.976-46.813-15.263-52.375-34.183-3.322-46.583,27.764-56.576,41.974s-32.97,2.52-35.972,25.226c-2.564,19.4,3.185,37.963-12.485,43.219S1985.267,1936.74,1991.078,1959.695Z" transform="translate(-1989.178 -1809.35)"/><g class="g" transform="translate(12.139 -3.491)"><path class="h" d="M2090.466,2155.943l.658.236c.146-.407,14.948-41.144,41.8-77.1,24.736-33.128,65.059-68.862,116.677-50.969l.229-.66c-22.978-7.965-45.666-6.15-67.432,5.4-17.388,9.223-34.225,24.641-50.042,45.828C2105.445,2114.712,2090.613,2155.535,2090.466,2155.943Z" transform="translate(-2089.858 -1992.253)"/><path class="h" d="M2750.327,1827.415l.644.273c9.109-21.405,33.184-45.344,33.427-45.583l-.491-.5C2783.663,1781.849,2759.49,1805.884,2750.327,1827.415Z" transform="translate(-2666.676 -1781.608)"/><path class="h" d="M2867.095,2082.552c27.708-.859,43.184,16.265,43.337,16.438l.524-.463c-.155-.176-15.834-17.542-43.883-16.674Z" transform="translate(-2768.73 -2044.041)"/><path class="h" d="M2295,2565.156c23.309-24.57,66.124-9.048,66.528-8.862l.333-.614c-.38-.22-43.852-15.794-67.368,8.995Z" transform="translate(-2268.208 -2453.867)"/><path class="h" d="M2312.518,2259.012l.664.221c6.822-20.506-5.712-44.623-5.84-44.864l-.618.326C2306.85,2214.934,2319.245,2238.793,2312.518,2259.012Z" transform="translate(-2278.901 -2159.906)"/><path class="h" d="M2111.328,2958.145c7.313-10.585,28.249-10.169,28.46-10.164l.018-.7c-.875-.023-21.523-.432-29.053,10.465Z" transform="translate(-2107.592 -2800.576)"/><path class="h" d="M2092.749,2721.406l.655.244c3.556-9.531-3.94-26.8-6.4-32.479-.348-.8-.649-1.494-.678-1.628l-.685.14a16.4,16.4,0,0,0,.722,1.767C2088.8,2695.062,2096.207,2712.139,2092.749,2721.406Z" transform="translate(-2085.638 -2573.532)"/></g></g></g><g transform="translate(616.007 496.494)"><path class="i" d="M1853.656,985.864c8.052,7.356,7.279,17.9,5.525,25.449a11.057,11.057,0,0,0-2.365,1.4c-8.2,5.263-12.815,5.761-21.713,9.673-1.915.842-8.288,1.6-10.912,1.748l-4.9.19s-16.318-19.073-6.554-29.5-3.436-30.507-9.118-42.007c-3.489-7.062-2.823-11.409-3.688-14.21-9.162-29.646-21.126-34.961-18.184-46.431,3.249-12.663,18.759-9.81,23.02-23.4,4.812-15.344-11.734-29.283-3.936-42.785a20.429,20.429,0,0,1,5.626-6.8c7.041-5.282,15.194-3.081,18.4-11.7,6.443-17.329,23.424-28.848,39.963-19.388,16.323,9.337,13.3,40.76-11.78,74.2-15.123,25.815-13.372,31.275-6.525,43.636,4.8,8.658,23.535,28.956,13.847,43.266S1844.451,977.455,1853.656,985.864Z" transform="translate(-1781.295 -784.711)"/><g transform="translate(17.597 0)"><g class="j"><g class="g" transform="translate(0.427 -12.08)"><path class="k" d="M2160.684,937.1l-.7.164c-.944-3.84-1.844-7.726-2.676-11.548a385.335,385.335,0,0,1-9.154-82.867,314.7,314.7,0,0,1,6.952-65.612,270.841,270.841,0,0,1,15.129-48.081,224.342,224.342,0,0,1,15.1-29.576c.963-1.573,2.041-3.134,3.084-4.643,1.389-2.011,2.826-4.091,4-6.215l.634.292c-1.191,2.154-2.637,4.248-4.036,6.272-1.038,1.5-2.11,3.055-3.063,4.612A223.577,223.577,0,0,0,2170.9,729.39a270.184,270.184,0,0,0-15.093,47.967,314.045,314.045,0,0,0-6.938,65.481,384.694,384.694,0,0,0,9.14,82.734C2158.843,929.389,2159.742,933.269,2160.684,937.1Z" transform="translate(-2120.01 -688.726)"/><path class="k" d="M1990.41,1111.308l-.712-.043c2.8-28.492-25.436-69.058-25.722-69.465l.6-.374C1964.865,1041.834,1993.231,1082.587,1990.41,1111.308Z" transform="translate(-1959.009 -997.039)"/><path class="k" d="M2166.345,1916.044l-.715.035c-.528-19.51,29.3-45.5,29.6-45.758l.479.482C2195.409,1871.061,2165.825,1896.839,2166.345,1916.044Z" transform="translate(-2135.279 -1721.618)"/><path class="k" d="M1956.9,2013.167l-.7.151c-2.762-12.419-13.7-27.8-30.805-43.323-.86-.78-.86-.78-.889-.9l.7-.159-.349.08.294-.194c.051.058.375.353.752.694C1943.1,1985.12,1954.113,2000.623,1956.9,2013.167Z" transform="translate(-1924.508 -1807.72)"/><path class="k" d="M2229.933,2424.144l-.712-.04c1.316-14.02,19.909-26.086,20.1-26.206l.4.544C2249.527,2398.561,2231.219,2410.445,2229.933,2424.144Z" transform="translate(-2190.873 -2182.8)"/><path class="k" d="M2033.134,2494.98c-6.575-9.367-16.307-17.212-29.751-23.983l.353-.587c13.548,6.823,23.36,14.738,30,24.2Z" transform="translate(-1993.457 -2246.186)"/><path class="k" d="M2295.336,801.633l-.707-.08c2.5-15.784,1.214-32.809.791-38.4-.1-1.354-.137-1.831-.118-2l.711.052c-.013.129.046.9.12,1.883C2296.558,768.7,2297.851,785.776,2295.336,801.633Z" transform="translate(-2248.05 -752.035)"/><path class="k" d="M2231.125,1110.07l-.645-.271c6.911-13.617,37.166-24.2,38.45-24.64l.233.623C2268.851,1085.89,2237.907,1096.707,2231.125,1110.07Z" transform="translate(-2191.974 -1035.268)"/></g></g></g></g><g transform="translate(632.476 521.061)"><path class="l" d="M1973.977,1216.751c-2.472.16-8.05,23.672-18.148,9.089-2.523-3.643-7.18-17.033-25.177-14.213l-10.481,1.641c-4.492-7.218-7.388-14.852,2.564-19.872,15.454-7.8,10.2-35.086,3.7-43.846-8.046-10.842-26.229-36.453-2.535-48.858,19.725-10.327,34.656-13.2,30.825-39.005s7.639-44.576,32.508-47.8c26.171-3.388,40.623-39.9,64.046-33.135,40.813,11.779,19.081,74.464-22.393,99.411s-12.575,35.219-7.025,55.869a36.953,36.953,0,0,1,.771,8.7c-.716,22.816-22.81,30.991-35.674,52.044C1969.41,1225.493,1978.141,1216.481,1973.977,1216.751Z" transform="translate(-1912.159 -979.923)"/><g transform="translate(0 0)"><g class="m"><g class="g" transform="translate(0.446 2.382)"><path class="k" d="M2216.394,1221.677h-1.243c.8-85.818,45.709-171.2,117.2-222.83l.75.93C2261.911,1051.188,2217.192,1136.215,2216.394,1221.677Z" transform="translate(-2177.466 -998.847)"/><path class="k" d="M1959.318,2021.733l-1.221.232c-6.745-33.065-42.033-53.146-42.389-53.345l.641-1.011C1916.709,1967.809,1952.466,1988.147,1959.318,2021.733Z" transform="translate(-1915.708 -1845.69)"/><path class="k" d="M2221.586,2299.286l-1.186-.343c10.868-32.7,74.633-49.125,75.276-49.287l.311,1.134C2295.352,2250.95,2232.247,2267.205,2221.586,2299.286Z" transform="translate(-2182.055 -2092.242)"/><path class="k" d="M2353.4,1331.777l-1.214-.245c6.25-26.524-18.3-60.863-18.549-61.207l1.028-.668C2334.922,1270,2359.771,1304.763,2353.4,1331.777Z" transform="translate(-2281.045 -1235.576)"/><path class="k" d="M2731.353,1248.93l-.84-.859c24.15-21.057,68.357-20.331,68.8-20.321l-.04,1.174C2798.836,1228.913,2755.126,1228.2,2731.353,1248.93Z" transform="translate(-2627.97 -1198.938)"/></g></g></g></g><g transform="translate(471.195 477.782)"><g transform="translate(0 0)"><path class="n" d="M801.906,647.5l35.55,295.484a7.786,7.786,0,0,1-6.8,8.826l-148.07,16.256c-9.071.564-14.037-4.07-14.6-8.781L630.667,645.138c-.557-4.685,3.893-8.927,13-8.927l149.417,3.147A9.419,9.419,0,0,1,801.906,647.5Z" transform="translate(-630.621 -636.187)"/><path class="o" d="M850.165,646.831,885.91,943.794a7.822,7.822,0,0,1-6.821,8.872L725.582,967.95a8.974,8.974,0,0,1-9.786-7.738L678.262,644.439a7.448,7.448,0,0,1,7.841-8.412l155.209,2.619A9.462,9.462,0,0,1,850.165,646.831Z" transform="translate(-672.216 -636.026)"/><path class="p" d="M899.936,788.431l33.131,275.343a7.294,7.294,0,0,1-6.387,8.273l-144.368,14.034a8.37,8.37,0,0,1-9.1-7.223l-34.686-291.7a6.978,6.978,0,0,1,7.279-7.885l145.85,1.553A8.78,8.78,0,0,1,899.936,788.431Z" transform="translate(-724.9 -761.245)"/><path class="q" d="M1366.126,700.092a2.456,2.456,0,0,1-2.536,2.826,3.385,3.385,0,0,1-3.227-2.9,2.457,2.457,0,0,1,2.542-2.826A3.385,3.385,0,0,1,1366.126,700.092Z" transform="translate(-1268.507 -689.49)"/><g class="g" transform="translate(5.988)"><path class="r" d="M822.293,848.038c-29.555-54.644-73.707-71-87-127.316-7.185-30.441-2.29-59.578,5.956-83.766l-55.145-.931a7.448,7.448,0,0,0-7.841,8.412L715.8,960.211a8.974,8.974,0,0,0,9.786,7.738l120.672-12.014C847.146,906.972,835.467,872.4,822.293,848.038Z" transform="translate(-678.205 -636.025)"/></g></g><g class="s" transform="translate(49.994 167.059)"><path class="r" d="M1151.872,1976.553l-117.118,4.681a6.53,6.53,0,0,1-6.715-5.537l-.09-.592a6.529,6.529,0,0,1,6.226-7.512l117.206-4.107a6.53,6.53,0,0,1,6.683,5.538l0,.019A6.529,6.529,0,0,1,1151.872,1976.553Z" transform="translate(-1027.872 -1963.481)"/><path class="r" d="M1179.977,2153.17l-116.969,5.659a6.529,6.529,0,0,1-6.77-5.535l-.092-.6a6.529,6.529,0,0,1,6.171-7.51l117.056-5.086a6.53,6.53,0,0,1,6.738,5.536l0,.031A6.529,6.529,0,0,1,1179.977,2153.17Z" transform="translate(-1052.521 -2117.862)"/><path class="r" d="M1208.084,2329.788l-116.819,6.639a6.529,6.529,0,0,1-6.825-5.532l-.094-.615a6.529,6.529,0,0,1,6.116-7.508l116.906-6.066a6.529,6.529,0,0,1,6.793,5.534l.006.042A6.529,6.529,0,0,1,1208.084,2329.788Z" transform="translate(-1077.172 -2272.245)"/></g></g><g transform="translate(621.286 556.308)"><g transform="translate(0 0)"><path class="t" d="M1846.811,1274.659a10.962,10.962,0,0,0,1.781-5.616c.137-5.21-3.727-9.273-4.246-9.04-.28.126.075,1.652.274,2.329.414,1.408.859,1.544.822,2.191-.077,1.332-2,1.383-3.013,3.15a4.766,4.766,0,0,0,0,4.52A5.384,5.384,0,0,0,1846.811,1274.659Z" transform="translate(-1839.516 -1259.994)"/><path class="u" d="M2526.743,2198.194l-1.485-5.111,6.2-4.594,3.865-1.445-2.288,7.151Z" transform="translate(-2436.909 -2070.375)"/><path class="v" d="M2476.072,3087.562s3.391,8.531,2.5,12.315a38.128,38.128,0,0,0,6-.535,41.314,41.314,0,0,1-1.749-5.819,57.269,57.269,0,0,1-.357-6.818Z" transform="translate(-2393.914 -2856.815)"/><path class="w" d="M2103.613,3251.777a2.68,2.68,0,0,1,.641,1.568,2.548,2.548,0,0,1-.192,1.05c-.578,1.521-1.487,1.722-2.467,3.337-.6.986-.486,1.284-1.034,1.729a3.593,3.593,0,0,1-2.356.629,41.788,41.788,0,0,1-5.448-.308q1.826-2.353,3.888-4.771.905-1.058,1.807-2.067l3.578-1.209Z" transform="translate(-2058.838 -3001.076)"/><path class="x" d="M2108.168,3114.019s-2.045,10.673.557,13.661c2.217,2.989-1.071.857-1.071.857l-3.927,3.427-2.356,4.07s2.169-10.446,1.59-14.592-.867-6.941-.867-6.941Z" transform="translate(-2066.369 -2880.691)"/><path class="y" d="M2055.923,2171.758s-5.5,4.917-5.5,25.161,2.6,64.205,2.6,64.205l4.165,31.473a27.545,27.545,0,0,0,7.211-.714c2.6-11.858,6.844-31.917,4.82-48.691-.867-18.22,7.23-41.068,7.23-41.068s6.941,23.137,11.858,34.706,14.277,47.81,15.145,50.413c5.753.521,8.21-1,8.21-1s-3.689-39-7.159-53.751-3.182-50.323-8.966-60.446C2082.531,2166.841,2055.923,2171.758,2055.923,2171.758Z" transform="translate(-2021.837 -2055.176)"/><path class="z" d="M2055.922,2171.758s-5.5,4.917-5.5,25.161,2.6,64.205,2.6,64.205l4.165,31.473a27.545,27.545,0,0,0,7.211-.714c2.6-11.858,6.844-31.916,4.82-48.691-.867-18.221,7.23-41.068,7.23-41.068s6.941,23.137,11.858,34.706,14.277,47.81,15.145,50.413c5.753.521,8.21-1,8.21-1s-3.689-39-7.159-53.751-3.181-50.323-8.966-60.446C2082.53,2166.841,2055.922,2171.758,2055.922,2171.758Z" transform="translate(-2021.836 -2055.176)"/><path class="aa" d="M2084.468,2208.852c1.713,11.137,5.14,17.135,13.708,24.845,6.854,5.14,1.713,16.278,4.284,24.845.857,2.57,3.427,5.14,4.284,7.711,3.188,6.376.21,14.176,1.656,20.927a9.179,9.179,0,0,0,3.271-.937s-3.689-39-7.159-53.751-3.181-50.323-8.966-60.446c-13.014-5.206-39.622-.289-39.622-.289s-5.5,4.917-5.5,25.161c0,1.643.018,3.443.049,5.362,5.7,5.049,17.372,6.17,24.568.574a3.392,3.392,0,0,1,1.375-.623l.037-.107.03.1C2079.761,2201.628,2083.725,2205.88,2084.468,2208.852Z" transform="translate(-2021.836 -2055.176)"/><g transform="translate(82.986 239.977)"><path class="w" d="M2483.429,3217.1s-.845,0-.775,1.092-.381,4.847,3.916,5.023,4.959-.3,5.1-.3a35.238,35.238,0,0,0-1.127-3.592l-1.374-1.761-3.7-.387Z" transform="translate(-2482.65 -3210.773)"/><path class="ab" d="M2493.965,3176.944a13.673,13.673,0,0,0-1.11-3.483c-.759-1.707-.136-2.345-.861-3.9a4.635,4.635,0,0,0-1.024-1.552,4.442,4.442,0,0,0-3.034-1.156,3.084,3.084,0,0,0-1.428.335,3.334,3.334,0,0,0-1.285,1.356c-.448.736-.345.961-1.035,3.07a7.61,7.61,0,0,0-.384,1.982c1.127,0,5.459.176,6.374.845a3.589,3.589,0,0,1,1.374,2.923c0,1.127.564,1.655,1.127,1.62A1.85,1.85,0,0,0,2493.965,3176.944Z" transform="translate(-2483.659 -3166.851)"/></g><path class="ab" d="M2096.816,3210.658c.968.015,1.678.785,2.213,2.642s3.106,3.5.107,3.105-5.176,3.855-6.247,5.426-3.946,2.966-3.875,1.431,1.34-2.252,1.7-3.823S2094.608,3210.624,2096.816,3210.658Z" transform="translate(-2055.566 -2965.168)"/><path class="r" d="M2296.158,1721.486c.712-1.978,5.153-14.974-2.025-26.825-5.876-9.7-16.043-12.867-17.493-13.3-8.825-2.606-13.248.742-16.033-2.339-4.725-5.229.627-23.041,10.98-26.609,11.671-4.022,25.671,11.443,31.344,21.6a46.834,46.834,0,0,1,5.18,29.3,45.719,45.719,0,0,1-5.649,15.815Z" transform="translate(-2204.05 -1602.46)"/><path class="r" d="M2043.682,1635.927c-10.417-.417-18.451-.251-22.989,4.283-4.793,4.79.051,10.2-.99,22.728-1.594,19.183-13.818,23.87-14.737,43.331a49.7,49.7,0,0,0,1.661,15.145,52.3,52.3,0,0,0,13.554,12c9.43,5.737,14.9,4.737,28.441,8.443,22.152,6.063,24.123,13.283,35.107,11.443,11.1-1.859,20.841-11.2,19.664-16.331-.7-3.072-5.18-2.2-10.332-6.888-6.64-6.039-4.08-11.8-9.128-18.294-7.252-9.322-17.355-3.623-23.535-11.7-6.251-8.173-3.772-24.277,1.5-33.055,3.442-5.734,4.916-12.453,7.844-18.464a4.175,4.175,0,0,0,.4-2.342c-.475-3.915-7-6.039-11.945-7.6A58.926,58.926,0,0,0,2043.682,1635.927Z" transform="translate(-1982.049 -1588.484)"/><path class="ac" d="M2243.253,1629.157l2.054-.632s.537,2.782,7.144,3.129a9.872,9.872,0,0,0,6.037-2.054l1.4,1.023a10.8,10.8,0,0,1-7.978,3.749A9.828,9.828,0,0,1,2243.253,1629.157Z" transform="translate(-2190.395 -1582.146)"/><g transform="translate(54.824 27.879)"><path class="ad" d="M2261.091,1513.09a8.8,8.8,0,0,1,3.338-5.431c2.207-1.754,2.656-1.93,3.414-2.074l1.035-.157.113.005a10.314,10.314,0,0,1,2.752.977c1.054.742.278,5.994-2.919,12.527l-.377,1.659c2.787.49,3.477.993,3.5,1.394.048.87-3,1.979-5.831,2.051-3.546.09-7.311-1.435-7.239-2.574.029-.461.7-1.029,3.273-1.588l1.207-1.7C2262.989,1517.739,2260.8,1515.34,2261.091,1513.09Z" transform="translate(-2258.873 -1502.419)"/><path class="ae" d="M2299.878,1556.326c.8-.481,1.417.553,1.038,1.458a1.787,1.787,0,0,1-2.424.931C2297.72,1558.175,2298.8,1556.974,2299.878,1556.326Z" transform="translate(-2293.277 -1546.805)"/><path class="af" d="M2390.435,1491.028c-10.587-11.488-35.22-8.338-48.883.889-6.349,4.287-9.607,9.352-17.109,9.777-5.7.323-14.775-1.821-19.553-8-.6-.778-3.01-4.043-6.625-8.159-1.594-1.815-3.179-3.518-5.636-3.9-.624-.1-2.7-.436-4.073.905a4.808,4.808,0,0,0-1.056,4.338c.2.814.451.9.415,1.433-.1,1.5-2.83,2.15-2.678,2.9.108.539,1.528.342,1.773,1.018.268.741-1.292,1.379-1.961,3.244-1.255.84-2.048,2.931-2.323,5.729a25.487,25.487,0,0,0,.789,9.971c3.752,12.118,6.436,20.785,12.931,25.626,8.6,6.408,16.343.491,38.218-.444,29.953-1.281,37.422,8.872,48.187,1.926C2396.293,1529.609,2401.427,1502.955,2390.435,1491.028Z" transform="translate(-2279.586 -1481.522)"/></g><path class="r" d="M1831.8,1367.32c-.267,2.506-1.171,13.593,6.477,22.954a31.661,31.661,0,0,0,19.147,10.778c9.1,1.375,13.023-2.547,16.2.125,5.4,4.534,2.529,22.911-7.24,27.86-11.011,5.58-26.994-7.825-34-17.111a46.832,46.832,0,0,1-9.138-28.314,45.72,45.72,0,0,1,3.434-16.438,8.116,8.116,0,0,1,5.12.145Z" transform="translate(-1823.241 -1353.385)"/><path class="ag" d="M2084.063,2075.2c-2.664-2.731.269-8.238-3.666-12.332-3.652-3.8-7.786-.73-13.665-4-7.541-4.193-5.463-11.871-12.666-16-5.179-2.968-7.613.223-15.665-1.333s-17.828-7.095-22.664-17a29.218,29.218,0,0,1-2.913-12.13c-3.615,6.459-7.365,12.649-7.859,23.094a49.7,49.7,0,0,0,1.661,15.145,52.294,52.294,0,0,0,13.554,12c9.43,5.737,14.9,4.737,28.441,8.444,22.152,6.063,24.123,13.282,35.107,11.443a29.736,29.736,0,0,0,17.106-9.681C2090.6,2077.408,2086,2077.181,2084.063,2075.2Z" transform="translate(-1982.049 -1917.717)"/></g></g><g transform="translate(456.401 689.294)"><path class="ah" d="M552.837,2433.6a47.889,47.889,0,0,1-22.544-7.456c-8.54-5.583-19.662-17.056-16.759-24.286,1.084-2.7,4.2-5.01,6.947-4.79,4.052.325,4.524,5.954,11.561,12.077,1.3,1.132,8.024,6.982,11.367,5.01,1.662-.98,2.153-3.7,1.882-5.76-.792-6.037-8.163-6.964-15.249-13.5-7.184-6.626-13.173-18.184-9.749-26,1.967-4.491,7.171-8.037,10.591-7.04,1.462.426,2.388,1.621,6.827,11.209,3.643,7.87,4.453,10.164,6.8,10.91,2.417.768,6.176-.2,7.6-2.577,3.72-6.2-12.359-15.36-13.819-32.719-.654-7.779,1.45-19.308,8.494-21.78,4.762-1.67,11.547.881,14,5.25,2.211,3.938-.475,6.9,1.212,15.749.512,2.685,1.565,8.21,3.788,8.5,2.61.34,5.529-6.7,6.2-8.42,5.08-12.916-.745-19.558,4.045-25.828,3.735-4.889,11.863-6.853,18.3-4.384,5.634,2.161,10.142,7.781,10.443,13.6.306,5.926-4.677,11.824-14.645,23.622-4.727,5.595-8.488,9.375-8.274,14.936.1,2.711,1.179,6.524,3.121,6.872,4.285.769,6.395-16.487,16.551-19.152,5.2-1.364,11.659,1.317,14.5,6,3.478,5.741,1.148,13.879-3.222,18.158-5.7,5.583-11.548,1.34-22.275,7.337-4.759,2.66-12.238,8.32-11.142,13a6.078,6.078,0,0,0,4.956,4.3c5.254.6,6.989-8.014,15.436-11.8,6.085-2.727,14.5-2.432,16.5,1,2.822,4.845-7.2,15.845-12.529,20.705C597.318,2422.225,582.126,2433.367,552.837,2433.6Z" transform="translate(-513.063 -2316.698)"/><path class="ai" d="M851.671,2578.712c-.849-14.4,8.689-43.734,15.629-57.6,6.791-13.569,13.287-35.035,13.352-35.251l.423.127c-.065.216-6.572,21.719-13.38,35.321-6.918,13.824-16.429,43.049-15.583,57.377Z" transform="translate(-809.011 -2464.571)"/></g><path class="aj" d="M614.508,2718.685A69.658,69.658,0,0,1,601.3,2683.62c-.525-6.684-1.549-19.738,6.437-31,3.98-5.613,12.422-13.913,18.125-11.519,3.67,1.541,5.948,7.4,4.912,11.857-1.044,4.494-4.842,4.91-8.978,12.535-1.53,2.822-3.279,6.134-1.936,8.005,1.122,1.563,4.2,1.847,6.514.91,4.773-1.936,3.281-7.878,8.441-12.14,3.669-3.031,9.785-4.456,12.425-1.973,2.292,2.155,1.893,7.19-.133,10.547-3.243,5.375-9.057,3.8-12.848,9.674-1.682,2.607-2.877,6.544-1.405,8.1,1.677,1.774,6.613.24,9.776-1.721,4.176-2.589,4.331-5.344,7.081-5.689,3.068-.385,6.9,2.536,7.5,5.769.84,4.527-4.714,9.409-9.112,11.531-5.63,2.716-9.814,1.122-12.564,4.832-1.009,1.362-1.934,3.584-1.106,4.933,1.181,1.924,5.448,1.289,8.282.867,6.9-1.026,8.795-3.527,11.266-2.312,2.5,1.23,3.792,5.385,2.71,8.3-.6,1.62-2.408,4.129-11.358,5.7C639.064,2721.927,628.538,2722.7,614.508,2718.685Z" transform="translate(-133.484 -1910.613)"/><circle class="ak" cx="27.374" cy="27.374" r="27.374" transform="translate(509.819 507.347) rotate(-45)"/><circle class="al" cx="26.463" cy="26.463" r="26.463" transform="translate(511.106 507.347) rotate(-45)"/><path class="am" d="M1067.638,686.759a.59.59,0,0,1-.526-.857,24.914,24.914,0,0,1,22.349-13.76,25.261,25.261,0,0,1,4.513.406.591.591,0,0,1-.212,1.162,24.053,24.053,0,0,0-4.3-.387,23.739,23.739,0,0,0-21.295,13.111A.59.59,0,0,1,1067.638,686.759Z" transform="translate(-540.928 -189.815)"/><circle class="am" cx="22.398" cy="22.398" r="22.398" transform="translate(517.432 507.923) rotate(-45)"/><g transform="translate(587.656 496.312)"><circle class="an" cx="22.296" cy="22.296" r="22.296" transform="translate(0 31.531) rotate(-45)"/><circle class="al" cx="21.555" cy="21.555" r="21.555" transform="translate(1.048 31.532) rotate(-45)"/><path class="am" d="M1660.9,882.862a.638.638,0,0,1-.569-.925,20.449,20.449,0,0,1,18.343-11.294,20.706,20.706,0,0,1,3.7.333.638.638,0,0,1-.229,1.255,19.42,19.42,0,0,0-3.475-.313,19.179,19.179,0,0,0-17.2,10.593A.637.637,0,0,1,1660.9,882.862Z" transform="translate(-1647.147 -859.647)"/><circle class="am" cx="18.243" cy="18.243" r="18.243" transform="translate(6.201 32.001) rotate(-45)"/></g><circle class="ao" cx="33.4" cy="33.4" r="33.4" transform="translate(527.702 565.756) rotate(-45)"/><circle class="ap" cx="32.289" cy="32.289" r="32.289" transform="translate(529.272 565.756) rotate(-45)"/><path class="am" d="M1238.513,1110.461a.7.7,0,0,1-.624-1.016,30.379,30.379,0,0,1,27.25-16.778,30.8,30.8,0,0,1,5.5.495.7.7,0,1,1-.251,1.378,29.416,29.416,0,0,0-5.252-.472,28.985,28.985,0,0,0-26,16.009A.7.7,0,0,1,1238.513,1110.461Z" transform="translate(-690.203 -557.418)"/><circle class="am" cx="27.329" cy="27.329" r="27.329" transform="translate(536.991 566.46) rotate(-45)"/><text class="aq" transform="translate(520.684 524.41) rotate(1.63)"><tspan x="0" y="0" xml:space="preserve"> ¥ </tspan></text><text class="aq" transform="translate(543.04 581.03) rotate(1.63)"><tspan x="0" y="0" xml:space="preserve"> € </tspan></text><text class="ar" transform="translate(603.665 538.183) rotate(1.63)"><tspan x="0" y="0" xml:space="preserve"> $ </tspan></text></g></svg>