<svg xmlns="http://www.w3.org/2000/svg" xmlns:xlink="http://www.w3.org/1999/xlink" width="450" height="447.701" viewBox="0 0 450 447.701"><defs><style>.a{fill:none;stroke:#707070;}.b{fill:url(#a);}.c{fill:#bdd0fb;}.af,.d,.h,.i,.j{fill:#fff;}.d{opacity:0.45;}.e{fill:#91b3fa;}.f{fill:url(#d);}.g{fill:url(#e);}.h{opacity:0.58;}.i{opacity:0.25;}.k{fill:url(#f);}.l{fill:url(#g);}.m{fill:url(#h);}.n{fill:url(#i);}.o{fill:url(#j);}.p{fill:url(#k);}.q{fill:url(#l);}.r{fill:url(#m);}.s{fill:url(#n);}.t{fill:url(#o);}.u{fill:url(#p);}.v{fill:url(#q);}.w{fill:url(#r);}.x{fill:url(#s);}.y{fill:url(#t);}.z{fill:url(#u);}.aa{fill:url(#v);}.ab{fill:url(#w);}.ac{fill:url(#x);}.ad{fill:url(#y);}.ae{fill:url(#z);}.af{opacity:0.5;}.ag{fill:url(#aa);}.ah{fill:url(#ab);}.ai{filter:url(#b);}</style><linearGradient id="a" x1="1.091" y1="1.163" x2="0.386" y2="0.408" gradientUnits="objectBoundingBox"><stop offset="0" stop-color="#ca1072"/><stop offset="1" stop-color="#f5a21a"/></linearGradient><filter id="b" x="0" y="0" width="450" height="447.701" filterUnits="userSpaceOnUse"><feOffset dy="15" input="SourceAlpha"/><feGaussianBlur stdDeviation="15" result="c"/><feFlood flood-color="#d22d60" flood-opacity="0.4"/><feComposite operator="in" in2="c"/><feComposite in="SourceGraphic"/></filter><linearGradient id="d" x1="0.5" y1="0.941" x2="0.429" y2="-0.71" gradientUnits="objectBoundingBox"><stop offset="0" stop-color="#09005d"/><stop offset="1" stop-color="#1a0f91"/></linearGradient><linearGradient id="e" x1="0.06" y1="1.156" x2="1.06" y2="-0.359" gradientUnits="objectBoundingBox"><stop offset="0" stop-color="#4f52ff"/><stop offset="1" stop-color="#4042e2"/></linearGradient><linearGradient id="f" x1="1.519" y1="-0.775" x2="-1.484" y2="2.907" xlink:href="#d"/><linearGradient id="g" x1="1.004" y1="-2.464" x2="-0.074" y2="4.125" xlink:href="#d"/><linearGradient id="h" x1="0.727" y1="-2.869" x2="0.282" y2="3.71" xlink:href="#e"/><linearGradient id="i" x1="-0.129" y1="0.629" x2="2.791" y2="-0.003" gradientUnits="objectBoundingBox"><stop offset="0" stop-color="#e1473d"/><stop offset="1" stop-color="#e9605a"/></linearGradient><linearGradient id="j" x1="-0.108" y1="0.553" x2="8.523" y2="0.026" xlink:href="#i"/><linearGradient id="k" x1="-60.655" y1="0.5" x2="-59.655" y2="0.5" xlink:href="#d"/><linearGradient id="l" x1="-150.524" y1="0.5" x2="-149.524" y2="0.5" gradientUnits="objectBoundingBox"><stop offset="0" stop-color="#febbba"/><stop offset="1" stop-color="#ff928e"/></linearGradient><linearGradient id="m" x1="-35.584" y1="0.5" x2="-34.584" y2="0.5" xlink:href="#d"/><linearGradient id="n" x1="-141.2" y1="0.5" x2="-140.2" y2="0.5" xlink:href="#l"/><linearGradient id="o" x1="-21.532" y1="0.5" x2="-20.532" y2="0.5" xlink:href="#d"/><linearGradient id="p" x1="0" y1="0.5" x2="1" y2="0.5" xlink:href="#e"/><linearGradient id="q" x1="-11.473" y1="-2.541" x2="-12.997" y2="4.745" gradientUnits="objectBoundingBox"><stop offset="0" stop-color="#ff928e"/><stop offset="1" stop-color="#fe7062"/></linearGradient><linearGradient id="r" x1="-33.662" y1="0.5" x2="-32.662" y2="0.5" xlink:href="#l"/><linearGradient id="s" x1="1.416" y1="-2.107" x2="0.975" y2="-0.759" xlink:href="#q"/><linearGradient id="t" x1="-27.57" y1="-1.665" x2="-29.779" y2="1.59" xlink:href="#l"/><linearGradient id="u" x1="-34.34" y1="-0.353" x2="-35.948" y2="2.031" xlink:href="#l"/><linearGradient id="v" x1="-45.006" y1="-1.142" x2="-47.655" y2="2.815" xlink:href="#l"/><linearGradient id="w" x1="-43.382" y1="0.569" x2="-44.6" y2="1.864" xlink:href="#l"/><linearGradient id="x" x1="-31.74" y1="0.781" x2="-30.696" y2="0.781" xlink:href="#d"/><linearGradient id="y" x1="-127.187" y1="3.192" x2="-124.485" y2="0.654" xlink:href="#l"/><linearGradient id="z" x1="0.84" y1="-1.385" x2="0.262" y2="1.824" xlink:href="#e"/><linearGradient id="aa" x1="1.476" y1="-0.239" x2="-5.298" y2="4.038" xlink:href="#i"/><linearGradient id="ab" x1="2.163" y1="0.18" x2="-17.941" y2="3.504" xlink:href="#i"/></defs><g transform="translate(-432.239 -433.417)"><path class="a" d="M793.925,771.05a137.627,137.627,0,0,1-24.174,19.623c-62.607,41.8-134.173,29.755-156.3,25.636-35.7-6.644-65.833-11.331-91.724-34.723-58.832-53.152-55.97-164.032-11.016-232.718,5.33-8.144,50.217-74.68,121.939-84.056,1.754-.229,3.063-.36,4.209-.481,11.1-1.175,79.85-7.375,135.912,39.594a167.245,167.245,0,0,1,32.916,37.347C849.477,608.9,849.615,713.647,793.925,771.05Z" transform="translate(20 -20)"/><g class="ai" transform="matrix(1, 0, 0, 1, 432.24, 433.42)"><path class="b" d="M793.925,771.05a137.627,137.627,0,0,1-24.174,19.623c-62.607,41.8-134.173,29.755-156.3,25.636-35.7-6.644-65.833-11.331-91.724-34.723-58.832-53.152-55.97-164.032-11.016-232.718,5.33-8.144,50.217-74.68,121.939-84.056,1.754-.229,3.063-.36,4.209-.481,11.1-1.175,79.85-7.375,135.912,39.594a167.245,167.245,0,0,1,32.916,37.347C849.477,608.9,849.615,713.647,793.925,771.05Z" transform="translate(-432.24 -433.42)"/></g><g transform="translate(632.28 473.142)"><path class="c" d="M1822.833,540.345c7.257,35.945,40.946,246.847-151.283,314.009,0,0-57.921-133.135,146.178-315.716A3.1,3.1,0,0,1,1822.833,540.345Z" transform="translate(-1663.957 -537.849)"/><path class="d" d="M1970.488,853.818c-3.745,11.108-7.716,22.126-11.782,33.113s-8.27,21.921-12.6,32.808c-8.651,21.774-17.789,43.36-27.588,64.652s-20.254,42.3-31.828,62.7q-8.631,15.332-18.387,30.017a296.007,296.007,0,0,1-21.1,28.246,1.261,1.261,0,0,1-1.916-1.639l0-.005,0,0a293.689,293.689,0,0,0,21.062-27.9q9.776-14.527,18.456-29.784c11.638-20.277,22.166-41.194,32.074-62.39s19.133-42.72,27.887-64.429q6.567-16.282,12.753-32.714c4.119-10.954,8.146-21.951,11.94-33.015l0,0a.534.534,0,0,1,1.011.344Z" transform="translate(-1821.34 -811.925)"/></g><g transform="translate(672.54 561.381)"><path class="e" d="M1972.161,1455.873s-2.453-35.781,30.269-75.154c30.359-36.531,105.42-121.476,120.471-166.135a1.927,1.927,0,0,1,3.75.408c2.227,22.283,3.416,78.53-30.144,137.56C2053.23,1428.674,1972.161,1455.873,1972.161,1455.873Z" transform="translate(-1972.12 -1213.255)"/><path class="d" d="M2174.379,1537.733a82.651,82.651,0,0,1-2.094,14.694c-.132.605-.252,1.214-.394,1.817l-.461,1.8-.924,3.6-1.073,3.561c-.369,1.184-.688,2.385-1.129,3.545a175.494,175.494,0,0,1-11.945,27.238c-1.1,2.229-2.429,4.328-3.676,6.475l-1.893,3.207c-.323.53-.615,1.079-.963,1.593l-1.023,1.555-4.093,6.222c-.66,1.053-1.427,2.03-2.155,3.035l-2.206,3-2.206,3-1.108,1.5-1.175,1.443-4.7,5.774c-.791.955-1.552,1.94-2.366,2.872l-2.439,2.8-4.879,5.6-4.941,5.541c-1.653,1.841-3.288,3.7-4.967,5.517q-5,5.487-10.084,10.9c-3.372,3.622-6.8,7.188-10.212,10.771l-10.338,10.641c-6.9,7.085-13.807,14.154-20.466,21.437-1.691,1.8-3.288,3.677-4.917,5.528-.827.917-1.588,1.884-2.372,2.834s-1.575,1.9-2.327,2.871c-1.461,1.98-3,3.91-4.318,5.988l-1.029,1.533c-.168.257-.352.506-.507.771l-.46.8-1.844,3.2-.007.012a.268.268,0,0,1-.471-.254,87.7,87.7,0,0,1,7.886-12.618c.735-1,1.519-1.96,2.276-2.943s1.514-1.967,2.322-2.906c1.595-1.9,3.16-3.823,4.814-5.665l2.452-2.792c.825-.924,1.67-1.828,2.5-2.742l2.51-2.736,2.536-2.709c3.375-3.619,6.791-7.2,10.19-10.786,6.8-7.176,13.607-14.344,20.328-21.585s13.344-14.572,19.9-21.962l4.865-5.587,2.432-2.793c.812-.93,1.572-1.9,2.361-2.842l4.693-5.7,1.173-1.426,1.105-1.478,2.2-2.964a217.481,217.481,0,0,0,16.137-24.712,174.119,174.119,0,0,0,12.4-26.787c.462-1.144.8-2.33,1.209-3.492l1.18-3.5,1.032-3.55.516-1.776c.16-.6.3-1.2.449-1.794.286-1.2.61-2.391.866-3.6l.74-3.626a72.608,72.608,0,0,0,1.019-7.332.033.033,0,0,1,.034-.033A.034.034,0,0,1,2174.379,1537.733Z" transform="translate(-2033.032 -1495.311)"/></g><g transform="translate(482.368 463.894)"><path class="f" d="M516.5,812.753a22.6,22.6,0,0,1,22.6-22.6h192.23a19.915,19.915,0,0,1,19.889,18.9l14.189,278.7a14.686,14.686,0,0,1-14.4,15.43l-220.32,4a13.94,13.94,0,0,1-14.193-13.938Z" transform="translate(-516.499 -747.939)"/><path class="e" d="M608.039,2826.471h-.007l-24.653-.319a15.2,15.2,0,0,1-14.95-15.145v-37.221a.526.526,0,0,1,1.053,0v37.221a14.147,14.147,0,0,0,13.911,14.092l24.652.318a.527.527,0,0,1-.006,1.053Z" transform="translate(-561.645 -2471.964)"/><path class="e" d="M568.956,2645.954a.526.526,0,0,1-.526-.526V2639.4a.526.526,0,0,1,1.053,0v6.028A.526.526,0,0,1,568.956,2645.954Z" transform="translate(-561.645 -2355.135)"/><g transform="translate(15.748 39.89)"><path class="g" d="M637.041,779a6.566,6.566,0,0,1,7.447-6.549c26.251,3.56,116.52,14.57,191.154,8.841a6.071,6.071,0,0,1,6.538,5.726l14.878,279.94a6.987,6.987,0,0,1-6.564,7.348c-31.39,1.858-160.662,9.039-206.771,4.209a5.536,5.536,0,0,1-4.953-5.478Z" transform="translate(-637.041 -772.392)"/><path class="c" d="M660.709,834.353a6.319,6.319,0,0,1,7.167-6.3c25.262,3.426,112.133,14.021,183.956,8.508a5.843,5.843,0,0,1,6.292,5.511l14.318,269.4a6.724,6.724,0,0,1-6.317,7.071c-30.208,1.788-154.612,8.7-198.985,4.05a5.327,5.327,0,0,1-4.767-5.272Z" transform="translate(-657.617 -820.729)"/><path class="h" d="M10.423,0H161.154a10.422,10.422,0,0,1,10.422,10.422v2.252A10.423,10.423,0,0,1,161.154,23.1H10.422A10.422,10.422,0,0,1,0,12.674V10.423A10.423,10.423,0,0,1,10.423,0Z" transform="translate(19.893 30.703)"/><rect class="h" width="174.774" height="11.548" rx="5.774" transform="translate(19.514 150.366)"/><rect class="h" width="174.774" height="11.548" rx="4.279" transform="translate(19.514 168.184)"/><rect class="h" width="178.426" height="11.548" rx="5.161" transform="translate(19.659 269.921)"/><path class="i" d="M956.793,1360.87h-166.2a4.19,4.19,0,0,1-4.19-4.19v-62.23a4.19,4.19,0,0,1,4.19-4.19H953.975a4.19,4.19,0,0,1,4.186,4l2.818,62.231A4.19,4.19,0,0,1,956.793,1360.87Z" transform="translate(-766.889 -1222.601)"/><path class="j" d="M953.2,1357.186H787a4.846,4.846,0,0,1-4.841-4.841v-62.23a4.847,4.847,0,0,1,4.841-4.842H950.384a4.833,4.833,0,0,1,4.836,4.623l2.818,62.231a4.841,4.841,0,0,1-4.836,5.06ZM787,1286.575a3.543,3.543,0,0,0-3.538,3.539v62.23a3.542,3.542,0,0,0,3.538,3.538H953.2a3.539,3.539,0,0,0,3.535-3.7l-2.818-62.231a3.534,3.534,0,0,0-3.535-3.379Z" transform="translate(-763.202 -1218.267)"/><path class="i" d="M960.416,2314.65H792.828a5.315,5.315,0,0,1-5.315-5.314v-59.981a5.314,5.314,0,0,1,5.315-5.314H958.09a5.315,5.315,0,0,1,5.311,5.108l2.325,59.981A5.315,5.315,0,0,1,960.416,2314.65Z" transform="translate(-767.855 -2051.774)"/><path class="j" d="M956.081,2310.967H788.494a5.973,5.973,0,0,1-5.966-5.966V2245.02a5.972,5.972,0,0,1,5.966-5.966H953.756a5.948,5.948,0,0,1,5.962,5.734l2.325,59.982a5.966,5.966,0,0,1-5.961,6.2Zm-167.587-70.611a4.669,4.669,0,0,0-4.663,4.663V2305a4.668,4.668,0,0,0,4.663,4.663H956.081a4.663,4.663,0,0,0,4.66-4.844l-2.325-59.981a4.649,4.649,0,0,0-4.66-4.483Z" transform="translate(-763.521 -2047.439)"/><rect class="j" width="1.303" height="70.62" transform="matrix(1, -0.017, 0.017, 1, 70.627, 67.668)"/><rect class="j" width="1.302" height="70.636" transform="translate(134.568 67.675) rotate(-1.547)"/><rect class="j" width="120.266" height="1.303" transform="translate(71.855 89.304) rotate(-0.82)"/><rect class="j" width="121.152" height="1.303" transform="translate(72.114 115.974)"/><rect class="j" width="70.616" height="1.303" transform="matrix(0.012, -1, 1, 0.012, 70.631, 262.868)"/><rect class="j" width="123.757" height="1.303" transform="translate(72.548 208.466)"/><rect class="j" width="125.06" height="1.303" transform="translate(71.679 225.401)"/><rect class="j" width="1.303" height="125.553" transform="translate(71.857 244.501) rotate(-89.285)"/></g><path class="k" d="M1361.5,471.278c-6.944-4.831-12.981-4.735-17.231-3.481a8.477,8.477,0,0,0-6.021,8.913l1.833,20.006,21.811,1.936S1375.115,480.751,1361.5,471.278Zm-9.592,16.14a5.438,5.438,0,1,1,5.438-5.438A5.438,5.438,0,0,1,1351.906,487.418Z" transform="translate(-1230.855 -467.068)"/><path class="e" d="M1360.2,507.794a.526.526,0,0,1-.523-.478l-.292-3.186a.526.526,0,1,1,1.048-.1l.292,3.186a.526.526,0,0,1-.476.572A.458.458,0,0,1,1360.2,507.794Zm-.572-6.244a.526.526,0,0,1-.524-.478l-.222-2.419a8.092,8.092,0,0,1,5.737-8.49,16.3,16.3,0,0,1,7.971-.327.526.526,0,1,1-.211,1.031,15.277,15.277,0,0,0-7.462.306,7.038,7.038,0,0,0-4.987,7.385l.222,2.419a.526.526,0,0,1-.476.572Z" transform="translate(-1248.796 -486.561)"/><path class="l" d="M1124.662,685.191V675.133A6.138,6.138,0,0,1,1131.01,669l69.349,2.376a5.969,5.969,0,0,1,5.754,5.609l.58,9.665Z" transform="translate(-1045.207 -642.614)"/><path class="e" d="M1299.241,691.029h-2.982a.526.526,0,1,1,0-1.053h2.982a.526.526,0,1,1,0,1.053Z" transform="translate(-1193.928 -660.854)"/><path class="e" d="M1149.89,700.273a.526.526,0,0,1-.526-.526v-4.069a5.708,5.708,0,0,1,5.7-5.7h10.965a.526.526,0,1,1,0,1.053h-10.965a4.655,4.655,0,0,0-4.649,4.649v4.069A.526.526,0,0,1,1149.89,700.273Z" transform="translate(-1066.682 -660.854)"/><path class="m" d="M906.558,770.987a6.535,6.535,0,0,1,6.527-6.221l121.269,0a8.963,8.963,0,0,1,8.832,7.434l.1.593a7.7,7.7,0,0,1-7.585,9.011H911.29a5,5,0,0,1-5-5.245Z" transform="translate(-855.361 -725.87)"/></g><g transform="translate(619.165 547.793)"><path class="n" d="M1619.512,1124.245c25.2-15.569,46.72-15.434,71.475-3.547a4.57,4.57,0,0,1,2.6,4.17l-.012,1.03a4.562,4.562,0,0,1-6.128,4.232c-21.406-7.832-37.441-11.971-63.383,2.02a4.56,4.56,0,0,1-6.694-3.549h0A4.567,4.567,0,0,1,1619.512,1124.245Z" transform="translate(-1610.319 -1111.757)"/><path class="o" d="M1577.217,1109.694l-13.477,20.648a.993.993,0,0,0,.747,1.532l23.635,2.027a1.151,1.151,0,0,0,1.144-1.628,50.788,50.788,0,0,1-10.321-22.452A.99.99,0,0,0,1577.217,1109.694Z" transform="translate(-1563.577 -1109.245)"/></g><g transform="translate(694.972 608.768)"><g transform="translate(0 0)"><path class="p" d="M2962.26,3113.919s1.619,2.552,2.026,9.7a1.164,1.164,0,0,1-1.156,1.233h-12.662a.746.746,0,0,1-.71-.982c.742-2.2,2.985-7.55,7.991-10.609Z" transform="translate(-2844.431 -2912.414)"/><path class="q" d="M3010.6,3076.839l-.716,6a1.13,1.13,0,0,1-.986.993,10,10,0,0,1-2.677-.025,1.855,1.855,0,0,1-1.529-1.84v-5.8Z" transform="translate(-2892.224 -2880.176)"/><path class="r" d="M2669.606,3113.257a17.682,17.682,0,0,1,2.372,8.937,2.237,2.237,0,0,1-2.25,2.188h-19.665a.941.941,0,0,1-.541-1.712c3.721-2.613,11.035-7.494,16.325-9.413Z" transform="translate(-2583.104 -2912.414)"/><path class="s" d="M2782.328,3044.453l-1.527,7.416a1.529,1.529,0,0,1-1.809,1.2,5.528,5.528,0,0,1-1.729-.723,1.756,1.756,0,0,1-.784-1.792l1.58-8.985Z" transform="translate(-2693.801 -2850.095)"/><path class="t" d="M2804.982,2274.4s5.311,4.682,6.311,10.316-2.832,97.2-2.832,97.2-5.311.884-8.049-.775c0,0-3.247-59.424-5.715-73.155,0,0-12.944,61.555-16.531,72.677,0,0-5.116.623-6.766-.351,0,0,3.391-79.792,7.651-93.979Z" transform="translate(-2689.409 -2183.151)"/><path class="u" d="M2947.354,2430.842a.522.522,0,0,1-.135-.017.533.533,0,0,1-.381-.65l2.256-8.654a.534.534,0,0,1,.228-.314l4.874-3.126a.533.533,0,0,1,.576.9l-4.7,3.014-2.2,8.452A.533.533,0,0,1,2947.354,2430.842Z" transform="translate(-2841.911 -2307.986)"/><path class="v" d="M2492.505,1854.513c22.358-1.856,28.2,2.771,28.2,2.771l-10.745,16.962s-21.969-.434-37.71-12.567a38.432,38.432,0,0,0,6.3-9.409A29.6,29.6,0,0,0,2492.505,1854.513Z" transform="translate(-2429.344 -1816.171)"/><path class="w" d="M2354.127,1613.866a.686.686,0,0,1,1.306-.262l2.853,6.088a6.342,6.342,0,0,1,.506,3.774l-1,3.543a6.116,6.116,0,0,0,1.248,4.868c2.621,3.277,8.2,9.262,16.152,12.565a38.416,38.416,0,0,1-6.3,9.409,38.56,38.56,0,0,1-13.42-18.635,2.992,2.992,0,0,1-2.111-2.974Z" transform="translate(-2325.978 -1608.343)"/><path class="x" d="M2432.128,1851.443c7.871-8.481,22.863-12.313,31.543-13.887a7.963,7.963,0,0,1,8.9,5.049c3.906,10.5,14.53,37.819,16.589,42.514,1.69,3.852,3.454,7.614,4.574,9.966a2.824,2.824,0,0,1-1.317,3.762c-7.3,3.52-20.444,7.5-25.771,9.056a1.828,1.828,0,0,1-2.339-1.759,5.711,5.711,0,0,0-.814-2.939l-20.176-33.622c-12.576,13.944-23.589,15.219-32.049,12.167a63.646,63.646,0,0,0,2.8-13.214C2426.565,1866.4,2432.128,1851.443,2432.128,1851.443Z" transform="translate(-2376.326 -1803.267)"/><path class="y" d="M2247.644,2022.868l4.086-2.388c7.3,5.015,15.094,8.051,20.091,7.195a63.678,63.678,0,0,1-2.8,13.214C2257.875,2036.868,2247.644,2022.868,2247.644,2022.868Z" transform="translate(-2234.08 -1962.405)"/><path class="z" d="M2143.889,1935.983c1.593,2.046,7.374,5.943,7.374,5.943s5.305,7.245,7,8.986c1.407,1.446,3.263-.513,3.851-1.219.12-.144.188-.236.188-.236l.481-1.667-5.8-6.4a11.16,11.16,0,0,0-4.609-3.031l-8.143-2.816a.309.309,0,0,0-.348.092A.282.282,0,0,0,2143.889,1935.983Z" transform="translate(-2143.823 -1888.548)"/><path class="aa" d="M2650.842,1719.2l6.7,16.361s-7.7,5.332-13.9,4.825l-3.346-14.711Z" transform="translate(-2575.436 -1700.483)"/><g transform="translate(57.644)"><path class="ab" d="M2602.033,1627.429c-.154.217-4.851,17.185-4.851,17.185l9.746,2.476,6.841-15.421S2604.6,1623.787,2602.033,1627.429Z" transform="translate(-2595.596 -1619.87)"/><path class="ac" d="M2599.543,1590.1l-2.965,8.4a1.237,1.237,0,0,1-.155.3c-.4.572-1.931,2.438-3.745.757-1.646-1.525-3.17-2.892-4.578-3.14a1.243,1.243,0,0,0-1.415.893,53.777,53.777,0,0,0-1.639,8.186,1.241,1.241,0,0,0,1.01,1.338,40.089,40.089,0,0,0,9.308.774,1.244,1.244,0,0,0,1.049-.722c.928-2.029,3.773-8.185,4.831-9.778.993-1.495,3.428-1.453,4.448-1.362a1.222,1.222,0,0,0,.917-.3c.893-.783,2.593-2.782.2-5.175a1.246,1.246,0,0,1,.029-1.794,3.231,3.231,0,0,0,.414-4.8,4.558,4.558,0,0,0-5.441-1.3,1.245,1.245,0,0,1-1.5-.553.984.984,0,0,0-1.015-.475,1.226,1.226,0,0,1-1.308-1.257,3.716,3.716,0,0,0-2.869-3.877c-4.257-1.325-6.912,2.788-7.175,5.857s4.434,4.243,7.2,4.036c2.1-.157,3.659,1.924,4.286,2.931A1.234,1.234,0,0,1,2599.543,1590.1Z" transform="translate(-2585.041 -1575.96)"/><path class="ad" d="M2700.569,1723.834s.688-5.328,2.9-5.589,4.373,1.56,2.17,4.551C2702.9,1726.516,2700.569,1723.834,2700.569,1723.834Z" transform="translate(-2685.476 -1699.635)"/></g></g></g><g transform="translate(572.809 555.327)"><g transform="translate(0 0)"><rect class="ae" width="152.744" height="71.687" transform="matrix(0.967, -0.254, 0.254, 0.967, 0, 38.863)"/><path class="af" d="M1436.678,1262.4l10.368,39.409c-3.172.834-5.014,4.59-4.09,8.1.029.112.045.077.17.529l-119.232,31.369c-.114-.455-.1-.428-.13-.539-.924-3.512-4.292-5.783-7.517-4.934-.047.012-.151-.068-.151-.068l-10.135-38.522c5.438-1.431,5-5.247,4.072-8.759a.505.505,0,0,0-.087-.192l119.232-31.369a.565.565,0,0,0,.024.209A6.285,6.285,0,0,0,1436.678,1262.4Z" transform="translate(-1293.261 -1245.604)"/><g transform="translate(51.329 22.104)"><circle class="c" cx="22.405" cy="22.405" r="22.405" transform="translate(0 31.686) rotate(-45)"/></g></g><path class="j" d="M1251.615,1437.116a.309.309,0,0,1-.048-.1l-3.517-13.367a.3.3,0,0,1,.217-.372l36.023-9.477a.3.3,0,1,1,.155.589l-35.728,9.4,3.44,13.072a.3.3,0,0,1-.542.256Z" transform="translate(-1242.908 -1381.535)"/><path class="j" d="M2159.405,1591.962a.3.3,0,0,1,.169-.473l35.729-9.4-3.44-13.073a.3.3,0,0,1,.59-.155l3.517,13.367a.3.3,0,0,1-.217.372l-36.023,9.478A.3.3,0,0,1,2159.405,1591.962Z" transform="translate(-2035.156 -1516.151)"/></g><g transform="translate(558.003 617.081)"><path class="ag" d="M1167.377,1678.138c-25.035,14.24-45.935,13.351-69.569.931a4.444,4.444,0,0,1-2.377-4.143l.048-1a4.435,4.435,0,0,1,6.1-3.9c20.522,8.363,35.955,12.949,61.653.268a4.433,4.433,0,0,1,6.379,3.684h0A4.439,4.439,0,0,1,1167.377,1678.138Z" transform="translate(-1095.426 -1665.766)"/><path class="ah" d="M1536.642,1663.507l13.821-19.587a.965.965,0,0,0-.672-1.515l-22.892-2.8a1.119,1.119,0,0,0-1.169,1.542,49.381,49.381,0,0,1,9.238,22.177A.962.962,0,0,0,1536.642,1663.507Z" transform="translate(-1469.436 -1639.596)"/></g></g></svg>