<svg xmlns="http://www.w3.org/2000/svg" xmlns:xlink="http://www.w3.org/1999/xlink" width="450" height="447.701" viewBox="0 0 450 447.701"><defs><style>.a{fill:url(#a);}.b{fill:none;stroke:#707070;}.c{fill:url(#d);}.d{fill:url(#e);}.e{opacity:0.3;fill:url(#f);}.e,.i{mix-blend-mode:multiply;isolation:isolate;}.f{fill:url(#g);}.g{fill:url(#h);}.h{fill:url(#i);}.i{opacity:0.54;}.j{fill:#d8dee8;}.k{fill:url(#j);}.l{fill:url(#k);}.m{fill:url(#l);}.at,.n,.t{fill:#fff;}.o{fill:url(#m);}.p{fill:url(#n);}.q{fill:url(#o);}.r{opacity:0.66;}.s{fill:#7d97f4;}.t{opacity:0.5;}.u{fill:url(#p);}.v{fill:url(#q);}.w{fill:#bdd0fb;}.x{fill:url(#r);}.y{fill:url(#s);}.z{fill:url(#t);}.aa{fill:url(#u);}.ab{fill:url(#v);}.ac{fill:url(#w);}.ad{fill:url(#x);}.ae{fill:url(#y);}.af{fill:url(#z);}.ag{fill:url(#aa);}.ah{fill:url(#ab);}.ai{fill:url(#ac);}.aj{fill:url(#ad);}.ak{fill:url(#ae);}.al{fill:url(#af);}.am{fill:url(#ag);}.an{fill:url(#ah);}.ao{fill:url(#ai);}.ap{fill:url(#aj);}.aq{fill:url(#ak);}.ar{fill:url(#al);}.as{fill:url(#am);}.at{font-size:39px;font-family:Cocogoose;}.au{filter:url(#b);}</style><linearGradient id="a" x1="1.091" y1="1.163" x2="0.386" y2="0.408" gradientUnits="objectBoundingBox"><stop offset="0" stop-color="#c52b7c"/><stop offset="1" stop-color="#6f47b7"/></linearGradient><filter id="b" x="0" y="0" width="450" height="447.701" filterUnits="userSpaceOnUse"><feOffset dy="15" input="SourceAlpha"/><feGaussianBlur stdDeviation="15" result="c"/><feFlood flood-color="#d22d60" flood-opacity="0.4"/><feComposite operator="in" in2="c"/><feComposite in="SourceGraphic"/></filter><linearGradient id="d" x1="1.869" y1="0.884" x2="-0.489" y2="0.254" gradientUnits="objectBoundingBox"><stop offset="0" stop-color="#311944"/><stop offset="1" stop-color="#893976"/></linearGradient><linearGradient id="e" x1="0.8" y1="0.204" x2="-0.2" y2="1.635" gradientUnits="objectBoundingBox"><stop offset="0" stop-color="#ffc444"/><stop offset="0.996" stop-color="#f36f56"/></linearGradient><linearGradient id="f" x1="0.857" y1="0.152" x2="0.549" y2="0.563" xlink:href="#e"/><linearGradient id="g" x1="0.268" y1="-0.343" x2="0.747" y2="0.878" xlink:href="#e"/><linearGradient id="h" x1="-0.043" y1="2.096" x2="0.932" y2="-0.405" gradientUnits="objectBoundingBox"><stop offset="0.004" stop-color="#ebeff2"/><stop offset="1" stop-color="#fff"/></linearGradient><linearGradient id="i" x1="2.232" y1="0.088" x2="0.783" y2="2.118" xlink:href="#e"/><linearGradient id="j" x1="-2.62" y1="-7.172" x2="7.172" y2="10.213" gradientUnits="objectBoundingBox"><stop offset="0" stop-color="#ff9085"/><stop offset="1" stop-color="#fb6fbb"/></linearGradient><linearGradient id="k" x1="-3.065" y1="-1.032" x2="12.431" y2="3.312" xlink:href="#j"/><linearGradient id="l" x1="-2.025" y1="-9.414" x2="1.675" y2="11.042" xlink:href="#j"/><linearGradient id="m" x1="0.505" y1="1.832" x2="0.474" y2="1.117" gradientUnits="objectBoundingBox"><stop offset="0" stop-color="#ff928e"/><stop offset="1" stop-color="#fe7062"/></linearGradient><linearGradient id="n" x1="0.669" y1="0.945" x2="0.473" y2="0.177" xlink:href="#m"/><linearGradient id="o" x1="0.527" y1="0.813" x2="0.323" y2="-0.029" xlink:href="#m"/><linearGradient id="p" x1="0.737" y1="0.323" x2="0.16" y2="3.532" gradientUnits="objectBoundingBox"><stop offset="0" stop-color="#4f52ff"/><stop offset="1" stop-color="#4042e2"/></linearGradient><linearGradient id="q" x1="19.085" y1="14.997" x2="18.743" y2="19.406" gradientUnits="objectBoundingBox"><stop offset="0" stop-color="#50e7b7"/><stop offset="0.996" stop-color="#323992"/></linearGradient><linearGradient id="r" x1="19.439" y1="12.266" x2="19.096" y2="16.675" xlink:href="#q"/><linearGradient id="s" x1="0.839" y1="-1.385" x2="0.262" y2="1.824" xlink:href="#p"/><linearGradient id="t" x1="19.438" y1="12.266" x2="19.096" y2="16.675" xlink:href="#q"/><linearGradient id="u" x1="3.361" y1="-7.904" x2="-5.191" y2="-6.342" gradientUnits="objectBoundingBox"><stop offset="0" stop-color="#e1473d"/><stop offset="1" stop-color="#e9605a"/></linearGradient><linearGradient id="v" x1="6.811" y1="-16.933" x2="-14.671" y2="-13.8" xlink:href="#u"/><linearGradient id="w" x1="-3.624" y1="0.83" x2="0.375" y2="0.607" xlink:href="#u"/><linearGradient id="x" x1="-9.447" y1="0.344" x2="-0.586" y2="-0.152" xlink:href="#u"/><linearGradient id="y" x1="-120.063" y1="0.5" x2="-119.063" y2="0.5" gradientUnits="objectBoundingBox"><stop offset="0" stop-color="#09005d"/><stop offset="1" stop-color="#1a0f91"/></linearGradient><linearGradient id="z" x1="-296.037" y1="0.5" x2="-295.037" y2="0.5" gradientUnits="objectBoundingBox"><stop offset="0" stop-color="#febbba"/><stop offset="1" stop-color="#ff928e"/></linearGradient><linearGradient id="aa" x1="-76.52" y1="0.5" x2="-75.52" y2="0.5" xlink:href="#y"/><linearGradient id="ab" x1="-297.679" y1="0.5" x2="-296.679" y2="0.5" xlink:href="#z"/><linearGradient id="ac" x1="-43.665" y1="0.5" x2="-42.665" y2="0.5" xlink:href="#y"/><linearGradient id="ad" x1="61.935" y1="0.5" x2="62.935" y2="0.5" xlink:href="#p"/><linearGradient id="ae" x1="-31.211" y1="-2.541" x2="-32.735" y2="4.745" xlink:href="#m"/><linearGradient id="af" x1="-80.097" y1="0.5" x2="-79.097" y2="0.5" xlink:href="#z"/><linearGradient id="ag" x1="6.76" y1="-2.107" x2="6.319" y2="-0.759" xlink:href="#m"/><linearGradient id="ah" x1="-70.56" y1="-1.665" x2="-72.769" y2="1.59" xlink:href="#z"/><linearGradient id="ai" x1="-69.885" y1="-0.671" x2="-71.119" y2="2.857" xlink:href="#z"/><linearGradient id="aj" x1="-99.719" y1="-1.142" x2="-102.369" y2="2.815" xlink:href="#z"/><linearGradient id="ak" x1="-93.511" y1="-18.763" x2="-94.729" y2="-17.467" xlink:href="#z"/><linearGradient id="al" x1="-67.581" y1="-11.794" x2="-66.537" y2="-11.794" xlink:href="#y"/><linearGradient id="am" x1="-263.119" y1="-57.685" x2="-260.418" y2="-60.223" xlink:href="#z"/></defs><g transform="translate(-432.239 -411.926)"><g class="au" transform="matrix(1, 0, 0, 1, 432.24, 411.93)"><path class="a" d="M793.925,771.05a137.634,137.634,0,0,1-24.174,19.623c-62.607,41.8-134.173,29.755-156.3,25.636-35.7-6.644-65.833-11.331-91.724-34.723-58.832-53.152-55.97-164.032-11.016-232.717,5.33-8.144,50.217-74.68,121.939-84.056,1.754-.229,3.063-.36,4.209-.481,11.1-1.175,79.85-7.375,135.912,39.594a167.25,167.25,0,0,1,32.916,37.347C849.477,608.9,849.615,713.647,793.925,771.05Z" transform="translate(-432.24 -433.42)"/></g><path class="b" d="M793.925,771.05a137.634,137.634,0,0,1-24.174,19.623c-62.607,41.8-134.173,29.755-156.3,25.636-35.7-6.644-65.833-11.331-91.724-34.723-58.832-53.152-55.97-164.032-11.016-232.717,5.33-8.144,50.217-74.68,121.939-84.056,1.754-.229,3.063-.36,4.209-.481,11.1-1.175,79.85-7.375,135.912,39.594a167.25,167.25,0,0,1,32.916,37.347C849.477,608.9,849.615,713.647,793.925,771.05Z" transform="translate(-20 -41.491)"/><g transform="translate(645.905 438.697)"><path class="c" d="M1884.9,524.1c-.1,46.556,24.644,84.55,68.715,85.8.681.019,11.928,0,12.614,0,45.021.11,81.6-38.126,81.707-85.4s-36.308-85.689-81.329-85.8c-1.053,0-10.935.1-11.978.134C1911.058,440.459,1885,477.928,1884.9,524.1Z" transform="translate(-1869.657 -438.697)"/><ellipse class="d" cx="81.518" cy="85.601" rx="81.518" ry="85.601" transform="translate(0 0.765)"/><ellipse class="e" cx="79.464" cy="83.444" rx="79.464" ry="83.444" transform="translate(2.054 2.922)"/><ellipse class="f" cx="77.065" cy="80.925" rx="77.065" ry="80.925" transform="translate(4.453 5.441)"/><ellipse class="g" cx="75.418" cy="79.195" rx="75.418" ry="79.195" transform="translate(7.748 7.171)"/><g transform="translate(14.875 19.724)"><path class="h" d="M1942.43,654.041l-57.449,22.277a69.875,69.875,0,0,1-2.879-19.928c0-35.738,26.721-64.922,60.328-66.724Z" transform="translate(-1882.102 -589.667)"/></g><g class="i" transform="translate(50.179 4.194)"><path class="j" d="M2204.25,551.175c5.964-19.316-15.6-33.256-12.2-55.77,1.5-9.935,7.338-18.075,14.517-24.605,33.942,10.413,58.7,43.375,58.616,82.37-.1,47.276-36.686,85.512-81.707,85.4a77.924,77.924,0,0,1-31.15-6.56c1.39-27.321,9.771-42.755,18.683-52.053C2184.746,565.629,2199.7,565.9,2204.25,551.175Z" transform="translate(-2152.327 -470.8)"/></g><ellipse class="k" cx="4.795" cy="5.035" rx="4.795" ry="5.035" transform="translate(78.582 82.57)"/><path class="l" d="M2386.27,802.11a3.109,3.109,0,0,1,3.03,3.182v33.942a3.034,3.034,0,1,1-6.061,0V805.292A3.109,3.109,0,0,1,2386.27,802.11Z" transform="translate(-2302.893 -754.631)"/><path class="m" d="M2392.3,998.866l54.292-15.962a1.927,1.927,0,0,1,2.349,1.185,1.714,1.714,0,0,1-1.117,2.243l-54.292,15.962a1.926,1.926,0,0,1-2.349-1.185A1.713,1.713,0,0,1,2392.3,998.866Z" transform="translate(-2309.706 -911.735)"/></g><g transform="translate(562.88 559.82)"><path class="n" d="M1711.444,1597.506a.308.308,0,0,1-.048-.1.3.3,0,0,1,.217-.372l35.729-9.4-3.44-13.073a.3.3,0,0,1,.59-.155l3.517,13.367a.3.3,0,0,1-.217.372l-36.023,9.478A.305.305,0,0,1,1711.444,1597.506Z" transform="translate(-1635.79 -1546.954)"/><g transform="translate(0 0)"><path class="o" d="M1354.362,1831.541l-177.841,41.983a13.358,13.358,0,0,1-16.07-9.931l-27.337-115.8a13.358,13.358,0,0,1,9.213-15.878l182.273-53.9a13.358,13.358,0,0,1,16.936,10.452l22.905,127.717A13.358,13.358,0,0,1,1354.362,1831.541Z" transform="translate(-1132.755 -1636.743)"/><g transform="translate(1.443)"><path class="p" d="M1143.8,1739.772l193-60.933-56.409,98.029-42.218,9.332Z" transform="translate(-1143.797 -1637.942)"/><path class="q" d="M1337.8,1406.562l-193,60.933q21.153-45.228,42.307-90.458a20.394,20.394,0,0,1,24.281-10.284Z" transform="translate(-1144.666 -1365.8)"/></g><g class="r" transform="translate(9.705 116.467)"><path class="n" d="M1266.486,2291.5a.882.882,0,0,1-.634-.088l-58.354-32.487a.886.886,0,0,1,.862-1.549l58.354,32.487a.886.886,0,0,1-.228,1.637Z" transform="translate(-1207.043 -2257.268)"/></g><g class="r" transform="translate(192.291 162.132)"><path class="n" d="M2611.244,2639.883q-1.956.462-4.083.958l-1.479.346a.886.886,0,0,1-.406-1.726h0l1.479-.346c16.629-3.894,24.983-5.846,27.851-10.67,2.3-3.865,1.242-9.947-1.666-20.532a.886.886,0,1,1,1.709-.47c3.875,14.107,3.539,18.446,1.481,21.908C2633.148,2634.37,2625.671,2636.478,2611.244,2639.883Z" transform="translate(-2604.593 -2606.792)"/></g></g></g><rect class="s" width="71.687" height="152.745" transform="translate(558.71 642.099) rotate(-68.925)"/><path class="t" d="M1348.858,1637.949l-14.653,38.025c-3.061-1.179-6.752.787-8.058,4.177-.042.107-.009.089-.172.528l-115.043-44.333c.174-.435.169-.406.21-.513,1.306-3.389-.1-7.2-3.208-8.4-.046-.018-.083-.144-.083-.144l14.323-37.169c5.246,2.022,7.122-1.331,8.428-4.72a.508.508,0,0,0,.042-.207l115.043,44.333a.566.566,0,0,0-.1.183A6.284,6.284,0,0,0,1348.858,1637.949Z" transform="translate(-635.161 -996.71)"/><g transform="translate(572.809 533.836)"><g transform="translate(0 0)"><rect class="u" width="152.744" height="71.687" transform="matrix(0.967, -0.254, 0.254, 0.967, 0, 38.863)"/><path class="t" d="M1436.678,1262.4l10.368,39.409c-3.172.834-5.014,4.589-4.09,8.1.029.112.045.077.17.529l-119.232,31.369c-.114-.455-.1-.428-.13-.539-.924-3.512-4.292-5.783-7.517-4.934-.047.012-.151-.068-.151-.068l-10.135-38.522c5.438-1.431,5-5.246,4.072-8.759a.5.5,0,0,0-.087-.192l119.232-31.369a.562.562,0,0,0,.024.209A6.284,6.284,0,0,0,1436.678,1262.4Z" transform="translate(-1293.261 -1245.604)"/><g transform="translate(51.329 22.104)"><circle class="v" cx="22.405" cy="22.405" r="22.405" transform="translate(0 31.686) rotate(-45)"/><g transform="translate(20.718 15.546)"><path class="n" d="M1772.846,1486.432l-.6-2.291a19.323,19.323,0,0,1-6.8.3,1.37,1.37,0,0,1-1.144-1.373l.021-2.287a1.382,1.382,0,0,1,1.583-1.351,16.042,16.042,0,0,0,6.265-.312c2.3-.605,3.811-1.837,3.39-3.435-.38-1.443-1.931-1.952-5.354-1.968-4.89-.047-8.689-1.174-9.745-5.19-.954-3.626.969-7.092,5.375-9.044l-.6-2.291a1.38,1.38,0,0,1,.984-1.686l1.346-.354a1.381,1.381,0,0,1,1.686.984l.541,2.057a17.616,17.616,0,0,1,5.336-.426,1.374,1.374,0,0,1,1.252,1.385l-.016,2.115a1.377,1.377,0,0,1-1.521,1.361,14.375,14.375,0,0,0-5.236.407c-2.73.718-3.212,2.054-2.945,3.068.328,1.248,2.192,1.674,6.027,1.833,5.469.187,8.129,1.739,9.124,5.521.913,3.47-.84,7.267-5.625,9.36l.675,2.564a1.381,1.381,0,0,1-.984,1.686l-1.346.354A1.38,1.38,0,0,1,1772.846,1486.432Z" transform="translate(-1760.224 -1455.1)"/></g></g></g><path class="n" d="M1251.615,1437.116a.309.309,0,0,1-.048-.1l-3.517-13.367a.3.3,0,0,1,.217-.372l36.023-9.477a.3.3,0,1,1,.155.589l-35.728,9.4,3.439,13.072a.3.3,0,0,1-.542.256Z" transform="translate(-1242.908 -1381.535)"/><path class="n" d="M2159.405,1591.963a.3.3,0,0,1,.169-.473l35.729-9.4-3.44-13.073a.3.3,0,0,1,.59-.155l3.517,13.367a.305.305,0,0,1-.217.372l-36.023,9.478A.3.3,0,0,1,2159.405,1591.963Z" transform="translate(-2035.156 -1516.151)"/></g><g transform="translate(570.338 524.68)"><g transform="translate(0)"><rect class="s" width="152.744" height="71.687" transform="matrix(0.898, -0.44, 0.44, 0.898, 0, 67.244)"/><path class="w" d="M1426.606,1207.053l17.94,36.589c-2.945,1.444-4.057,5.473-2.458,8.734.051.1.013.051.224.469l-110.7,54.277c-.2-.423-.168-.368-.218-.472-1.6-3.261-5.31-4.822-8.3-3.354-.044.022-.123-.037-.123-.037l-17.536-35.765c5.048-2.475,3.816-6.145,2.218-9.406a.516.516,0,0,0-.17-.187l110.7-54.277c-.005,0,.061.112.112.216A6.344,6.344,0,0,0,1426.606,1207.053Z" transform="translate(-1290.331 -1189.672)"/><g transform="translate(52.611 33.906)"><circle class="s" cx="22.405" cy="22.405" r="22.405" transform="translate(0 31.686) rotate(-45)"/><g transform="translate(19.914 16.483)"><path class="n" d="M1761.358,1512.292l-1.043-2.127a19.318,19.318,0,0,1-6.6,1.632,1.37,1.37,0,0,1-1.393-1.12l-.431-2.246a1.381,1.381,0,0,1,1.286-1.637,16.041,16.041,0,0,0,6.08-1.542c2.136-1.047,3.374-2.552,2.646-4.037-.657-1.339-2.278-1.532-5.637-.873-4.8.918-8.75.563-10.578-3.166-1.651-3.367-.449-7.144,3.485-9.926l-1.043-2.128a1.381,1.381,0,0,1,.632-1.847l1.25-.613a1.38,1.38,0,0,1,1.847.632l.937,1.91a17.619,17.619,0,0,1,5.148-1.47,1.374,1.374,0,0,1,1.5,1.111l.4,2.076a1.376,1.376,0,0,1-1.222,1.635,14.374,14.374,0,0,0-5.053,1.433c-2.534,1.243-2.743,2.647-2.282,3.589.568,1.158,2.479,1.209,6.27.608,5.4-.9,8.312.1,10.033,3.612,1.58,3.222.61,7.289-3.668,10.286l1.167,2.38a1.381,1.381,0,0,1-.632,1.847l-1.25.613A1.38,1.38,0,0,1,1761.358,1512.292Z" transform="translate(-1744.965 -1482.522)"/></g></g><path class="w" d="M1236.141,1528.871a.3.3,0,0,1-.143-.142l-6.085-12.41a.3.3,0,0,1,.139-.408l33.866-16.6a.3.3,0,0,1,.268.547l-33.592,16.471,5.951,12.137a.3.3,0,0,1-.4.41Z" transform="translate(-1224.651 -1446.699)"/><path class="w" d="M2177.408,1505.983a.3.3,0,0,1,0-.549l33.172-16.264-5.951-12.137a.3.3,0,1,1,.547-.268l6.085,12.41a.3.3,0,0,1-.139.408l-33.445,16.4A.306.306,0,0,1,2177.408,1505.983Z" transform="translate(-2048.234 -1426.979)"/></g><g transform="translate(37.773 37.742)"><path class="s" d="M1491.017,1722.3a6.347,6.347,0,1,1-8.492-2.9A6.347,6.347,0,0,1,1491.017,1722.3Z" transform="translate(-1478.97 -1675.241)"/><circle class="s" cx="6.347" cy="6.347" r="6.347" transform="translate(84.262 3.417) rotate(-15.616)"/></g></g><g transform="translate(580.299 571.802)"><g transform="translate(3.701 0)"><rect class="s" width="152.744" height="71.687" transform="matrix(1, -0.003, 0.003, 1, 0, 0.492)"/><path class="t" d="M1498.352,1529.127l.131,40.75c-3.28.011-6.007,3.182-5.995,6.814,0,.115.024.086.031.555l-123.289.4c0-.469.01-.439.01-.555-.012-3.632-2.7-6.676-6.036-6.665-.049,0-.129-.1-.129-.1l-.128-39.833c5.623-.018,6.155-3.822,6.143-7.454a.5.5,0,0,0-.036-.208l123.289-.4a.565.565,0,0,0-.029.208A6.285,6.285,0,0,0,1498.352,1529.127Z" transform="translate(-1353.993 -1513.947)"/><g transform="translate(44.914 4.117)"><circle class="x" cx="22.405" cy="22.405" r="22.405" transform="translate(0 31.686) rotate(-45)"/><g transform="translate(21.985 15.197)"><path class="n" d="M1813.951,1636.961l-.008-2.369a19.323,19.323,0,0,1-6.652-1.42,1.37,1.37,0,0,1-.763-1.617l.595-2.209a1.381,1.381,0,0,1,1.872-.91,16.039,16.039,0,0,0,6.142,1.273c2.379-.008,4.15-.82,4.145-2.473,0-1.492-1.378-2.374-4.687-3.25-4.721-1.275-8.115-3.32-8.128-7.473-.012-3.75,2.721-6.621,7.475-7.4l-.007-2.369a1.38,1.38,0,0,1,1.376-1.385l1.392,0a1.38,1.38,0,0,1,1.385,1.376l.007,2.127a17.618,17.618,0,0,1,5.272.929,1.374,1.374,0,0,1,.864,1.656l-.547,2.043a1.377,1.377,0,0,1-1.814.936,14.372,14.372,0,0,0-5.171-.922c-2.823.009-3.625,1.181-3.622,2.229,0,1.29,1.7,2.172,5.373,3.289,5.246,1.556,7.431,3.726,7.443,7.637.012,3.588-2.639,6.822-7.8,7.645l.009,2.651a1.381,1.381,0,0,1-1.376,1.385l-1.392,0A1.38,1.38,0,0,1,1813.951,1636.961Z" transform="translate(-1806.467 -1605.352)"/></g></g><path class="n" d="M1326.324,1506.35a.306.306,0,0,1-.021-.11l-.044-13.822a.3.3,0,0,1,.3-.306l37.249-.12a.3.3,0,1,1,0,.609l-36.944.119.044,13.517a.3.3,0,0,1-.589.112Z" transform="translate(-1322.098 -1487.489)"/><path class="n" d="M2143.708,1878.49a.3.3,0,0,1,.283-.415l36.945-.119-.044-13.517a.3.3,0,0,1,.61,0l.045,13.822a.305.305,0,0,1-.3.306l-37.249.12A.305.305,0,0,1,2143.708,1878.49Z" transform="translate(-2032.732 -1811.01)"/></g><g transform="translate(1.769 1.818)"><rect class="y" width="152.744" height="71.687" transform="matrix(1, -0.003, 0.003, 1, 0, 0.492)"/><path class="t" d="M1483.569,1543.043l.131,40.75c-3.28.01-6.007,3.182-5.995,6.814,0,.115.024.086.031.555l-123.289.4c0-.469.01-.439.01-.555-.012-3.632-2.7-6.676-6.035-6.665-.049,0-.129-.1-.129-.1l-.128-39.833c5.622-.018,6.155-3.822,6.143-7.454a.507.507,0,0,0-.036-.208l123.289-.4a.563.563,0,0,0-.029.208A6.284,6.284,0,0,0,1483.569,1543.043Z" transform="translate(-1339.21 -1527.863)"/><g transform="translate(44.914 4.117)"><circle class="z" cx="22.405" cy="22.405" r="22.405" transform="translate(0 31.686) rotate(-45)"/><g transform="translate(21.985 15.197)"><path class="n" d="M1799.168,1650.878l-.008-2.369a19.326,19.326,0,0,1-6.652-1.42,1.371,1.371,0,0,1-.763-1.617l.595-2.209a1.381,1.381,0,0,1,1.872-.91,16.042,16.042,0,0,0,6.142,1.273c2.379-.008,4.15-.82,4.145-2.473,0-1.492-1.378-2.374-4.687-3.251-4.721-1.275-8.115-3.32-8.128-7.473-.012-3.75,2.721-6.621,7.475-7.4l-.008-2.369a1.38,1.38,0,0,1,1.376-1.385l1.392,0a1.38,1.38,0,0,1,1.385,1.376l.007,2.127a17.617,17.617,0,0,1,5.272.929,1.373,1.373,0,0,1,.864,1.655l-.547,2.043a1.377,1.377,0,0,1-1.814.936,14.376,14.376,0,0,0-5.171-.922c-2.822.009-3.625,1.181-3.621,2.229,0,1.29,1.7,2.172,5.373,3.289,5.247,1.556,7.431,3.726,7.443,7.637.011,3.588-2.639,6.822-7.8,7.645l.009,2.651a1.38,1.38,0,0,1-1.376,1.385l-1.392,0A1.381,1.381,0,0,1,1799.168,1650.878Z" transform="translate(-1791.684 -1619.269)"/></g></g><path class="n" d="M1311.541,1520.266a.308.308,0,0,1-.021-.109l-.044-13.822a.3.3,0,0,1,.3-.306l37.248-.12a.3.3,0,1,1,0,.609l-36.944.119.044,13.517a.3.3,0,0,1-.589.112Z" transform="translate(-1307.315 -1501.405)"/><path class="n" d="M2128.925,1892.406a.3.3,0,0,1,.283-.415l36.945-.119-.044-13.517a.3.3,0,0,1,.61,0l.045,13.822a.3.3,0,0,1-.3.306l-37.249.12A.3.3,0,0,1,2128.925,1892.406Z" transform="translate(-2017.949 -1824.926)"/></g><g transform="translate(0 3.872)"><rect class="s" width="152.744" height="71.687" transform="matrix(1, -0.005, 0.005, 1, 0, 0.776)"/><path class="w" d="M1470.255,1559.031l.207,40.75c-3.28.017-6.036,3.159-6.017,6.791,0,.115-.011.051,0,.52l-123.288.627c0-.469.01-.4.009-.52-.018-3.632-2.678-6.654-6.013-6.637-.049,0-.095-.087-.095-.087l-.2-39.832c5.622-.029,6.112-3.869,6.094-7.5a.516.516,0,0,0-.071-.243l123.288-.627c-.006,0,.006.128.006.243A6.344,6.344,0,0,0,1470.255,1559.031Z" transform="translate(-1325.869 -1543.766)"/><g transform="translate(44.91 4.329)"><circle class="s" cx="22.405" cy="22.405" r="22.405" transform="translate(0 31.686) rotate(-45)"/><g transform="translate(21.976 15.197)"><path class="n" d="M1785.57,1668.23l-.012-2.369a19.32,19.32,0,0,1-6.655-1.407,1.37,1.37,0,0,1-.766-1.615l.591-2.21a1.381,1.381,0,0,1,1.87-.913,16.038,16.038,0,0,0,6.144,1.261c2.379-.012,4.149-.828,4.14-2.481-.008-1.492-1.383-2.372-4.693-3.242-4.724-1.266-8.121-3.305-8.142-7.458-.019-3.75,2.708-6.626,7.462-7.417l-.012-2.369a1.38,1.38,0,0,1,1.373-1.387l1.392-.007a1.38,1.38,0,0,1,1.387,1.373l.011,2.127a17.62,17.62,0,0,1,5.274.919,1.373,1.373,0,0,1,.867,1.654l-.543,2.044a1.376,1.376,0,0,1-1.813.939,14.377,14.377,0,0,0-5.172-.912c-2.822.014-3.623,1.188-3.617,2.236.007,1.29,1.7,2.169,5.379,3.279,5.25,1.546,7.438,3.712,7.457,7.623.018,3.588-2.626,6.827-7.783,7.66l.014,2.651a1.38,1.38,0,0,1-1.373,1.387l-1.392.007A1.381,1.381,0,0,1,1785.57,1668.23Z" transform="translate(-1778.047 -1636.616)"/></g></g><path class="w" d="M1294.549,1537.722a.3.3,0,0,1-.068-.19l-.07-13.821a.3.3,0,0,1,.3-.306l37.717-.192a.3.3,0,0,1,0,.61l-37.412.19.069,13.517a.3.3,0,0,1-.542.193Z" transform="translate(-1290.71 -1518.502)"/><path class="w" d="M2116.383,1908.34a.305.305,0,0,1,.236-.5l36.944-.187-.069-13.517a.3.3,0,1,1,.609,0l.07,13.822a.3.3,0,0,1-.3.306l-37.249.189A.3.3,0,0,1,2116.383,1908.34Z" transform="translate(-2005.236 -1840.702)"/><circle class="s" cx="18.011" cy="18.011" r="18.011" transform="translate(59.154 18.594)"/><g transform="translate(24.499 30.464)"><path class="s" d="M1466.3,1738.21a6.346,6.346,0,1,1-6.379-6.314A6.347,6.347,0,0,1,1466.3,1738.21Z" transform="translate(-1453.608 -1730.385)"/><circle class="s" cx="6.347" cy="6.347" r="6.347" transform="translate(94.46 12.492) rotate(-79.788)"/></g></g></g><g transform="translate(668.393 617.373)"><path class="aa" d="M1976.511,1834.616c-6.112-16.709-16.317-24.638-32.415-28.223a2.745,2.745,0,0,0-2.775,1l-.377.49a2.74,2.74,0,0,0,1.32,4.274c13.011,4.255,22.117,8.257,29.164,24.5a2.739,2.739,0,0,0,4.478.811h0A2.742,2.742,0,0,0,1976.511,1834.616Z" transform="translate(-1940.375 -1806.327)"/><path class="ab" d="M2138.975,1962.412l-1.309,14.751a.6.6,0,0,1-.922.446l-11.908-7.822a.691.691,0,0,1,.065-1.193,30.5,30.5,0,0,0,13.21-6.763A.6.6,0,0,1,2138.975,1962.412Z" transform="translate(-2100.466 -1941.456)"/></g><g transform="translate(668.958 565.851)"><path class="ac" d="M2000.251,1464.531c-7.24-28.726-22.772-43.616-48.814-52.33a4.57,4.57,0,0,0-4.768,1.183l-.709.747a4.562,4.562,0,0,0,1.449,7.305c20.814,9.29,35.2,17.489,44.072,45.6a4.56,4.56,0,0,0,7.276,2.116h0A4.566,4.566,0,0,0,2000.251,1464.531Z" transform="translate(-1944.707 -1411.963)"/><path class="ad" d="M2242.533,1716.652l-4.712,24.2a.993.993,0,0,1-1.6.579l-18.37-15.009a1.151,1.151,0,0,1,.313-1.965,50.786,50.786,0,0,0,23.044-8.92A.99.99,0,0,1,2242.533,1716.652Z" transform="translate(-2181.794 -1675.818)"/></g><g transform="translate(486.136 591.069)"><g transform="translate(0)"><path class="ae" d="M564.156,3142.945s-1.619,2.552-2.026,9.7a1.164,1.164,0,0,0,1.156,1.233h12.661a.747.747,0,0,0,.71-.982c-.742-2.2-2.985-7.55-7.991-10.609Z" transform="translate(-559.935 -2941.44)"/><path class="af" d="M573.44,3105.866l.716,6a1.13,1.13,0,0,0,.986.992,9.989,9.989,0,0,0,2.677-.025,1.854,1.854,0,0,0,1.529-1.84v-5.8Z" transform="translate(-569.769 -2909.202)"/><path class="ag" d="M801.644,3142.283a17.683,17.683,0,0,0-2.372,8.937,2.237,2.237,0,0,0,2.25,2.188h19.664a.941.941,0,0,0,.541-1.712c-3.721-2.613-11.035-7.494-16.325-9.413Z" transform="translate(-766.096 -2941.44)"/><path class="ah" d="M801.931,3073.479l1.527,7.416a1.529,1.529,0,0,0,1.809,1.2,5.529,5.529,0,0,0,1.729-.723,1.756,1.756,0,0,0,.784-1.792l-1.58-8.984Z" transform="translate(-768.408 -2879.122)"/><path class="ai" d="M551.816,2303.427s-5.311,4.682-6.31,10.316,2.832,97.2,2.832,97.2,5.311.884,8.049-.775c0,0,3.247-59.424,5.715-73.155,0,0,12.944,61.555,16.53,72.677,0,0,5.117.622,6.766-.351,0,0-3.39-79.792-7.651-93.979Z" transform="translate(-545.34 -2212.178)"/><path class="aj" d="M621.469,2459.869a.525.525,0,0,0,.135-.018.533.533,0,0,0,.381-.65l-2.256-8.654a.535.535,0,0,0-.228-.314l-4.874-3.127a.533.533,0,0,0-.576.9l4.7,3.014,2.2,8.452A.533.533,0,0,0,621.469,2459.869Z" transform="translate(-604.862 -2337.013)"/><path class="ak" d="M808.426,1883.54c-22.358-1.856-28.2,2.771-28.2,2.771l10.744,16.962s21.969-.434,37.71-12.567a38.425,38.425,0,0,1-6.3-9.409A29.6,29.6,0,0,1,808.426,1883.54Z" transform="translate(-749.537 -1845.198)"/><path class="al" d="M1123.916,1642.893a.685.685,0,0,0-1.305-.262l-2.853,6.088a6.343,6.343,0,0,0-.506,3.773l1,3.543a6.116,6.116,0,0,1-1.247,4.868c-2.621,3.277-8.2,9.262-16.152,12.565a38.424,38.424,0,0,0,6.3,9.409,38.559,38.559,0,0,0,13.42-18.635,2.992,2.992,0,0,0,2.111-2.974Z" transform="translate(-1030.016 -1637.369)"/><path class="am" d="M640.641,1880.469c-7.871-8.481-22.863-12.313-31.543-13.887a7.962,7.962,0,0,0-8.9,5.049c-3.906,10.5-14.53,37.819-16.589,42.514-1.689,3.852-3.453,7.614-4.574,9.966a2.824,2.824,0,0,0,1.318,3.762c7.3,3.52,20.444,7.5,25.771,9.056a1.828,1.828,0,0,0,2.339-1.759,5.711,5.711,0,0,1,.814-2.939l20.176-33.622c12.576,13.944,23.589,15.219,32.049,12.167a63.634,63.634,0,0,1-2.8-13.214C646.2,1895.422,640.641,1880.469,640.641,1880.469Z" transform="translate(-574.393 -1832.293)"/><path class="an" d="M1214.84,2051.9l-4.086-2.388c-7.3,5.015-15.094,8.051-20.091,7.195a63.628,63.628,0,0,0,2.8,13.214C1204.608,2065.9,1214.84,2051.9,1214.84,2051.9Z" transform="translate(-1106.354 -1991.432)"/><path class="ao" d="M1361.078,2015.946c-2.541-1.383-10.081-2.572-10.081-2.572s-8.666-5.07-11.161-6.068c-2.072-.829-2.964,2.27-3.207,3.344-.05.219-.072.354-.072.354l.321,2.061,8.755,3.891a11.15,11.15,0,0,0,5.975.867l9.348-1.223a.349.349,0,0,0,.121-.653Z" transform="translate(-1233.187 -1954.623)"/><path class="ap" d="M857.749,1748.223l-6.7,16.361s7.7,5.332,13.9,4.825l3.346-14.711Z" transform="translate(-811.105 -1729.51)"/><g transform="translate(41.301)"><path class="aq" d="M910.958,1656.456c.153.218,4.85,17.185,4.85,17.185l-9.745,2.476-6.841-15.421S908.387,1652.814,910.958,1656.456Z" transform="translate(-894.289 -1648.896)"/><path class="ar" d="M870.068,1619.13l2.965,8.4a1.234,1.234,0,0,0,.155.3c.4.572,1.931,2.437,3.745.757,1.645-1.525,3.17-2.892,4.578-3.14a1.243,1.243,0,0,1,1.415.893,53.76,53.76,0,0,1,1.639,8.186,1.241,1.241,0,0,1-1.009,1.338,40.09,40.09,0,0,1-9.308.774,1.244,1.244,0,0,1-1.049-.722c-.928-2.029-3.773-8.185-4.831-9.777-.993-1.495-3.428-1.453-4.449-1.363a1.222,1.222,0,0,1-.917-.3c-.893-.783-2.593-2.782-.2-5.175a1.246,1.246,0,0,0-.029-1.794,3.232,3.232,0,0,1-.414-4.8,4.559,4.559,0,0,1,5.441-1.3,1.245,1.245,0,0,0,1.5-.553.984.984,0,0,1,1.015-.475,1.226,1.226,0,0,0,1.308-1.257,3.716,3.716,0,0,1,2.869-3.877c4.257-1.325,6.912,2.788,7.175,5.857s-4.434,4.243-7.2,4.036c-2.1-.157-3.659,1.924-4.286,2.931A1.234,1.234,0,0,0,870.068,1619.13Z" transform="translate(-861.465 -1604.986)"/><path class="as" d="M882.891,1752.861s-.688-5.328-2.9-5.589-4.374,1.561-2.17,4.551C880.558,1755.543,882.891,1752.861,882.891,1752.861Z" transform="translate(-874.88 -1728.661)"/></g></g></g><text class="at" transform="translate(639.453 625.726)"><tspan x="0" y="0">€</tspan></text></g></svg>