<svg xmlns="http://www.w3.org/2000/svg" xmlns:xlink="http://www.w3.org/1999/xlink" width="450" height="442.823" viewBox="0 0 450 442.823"><defs><style>.a{fill:url(#a);}.b{fill:url(#b);}.c{fill:url(#c);}.d{fill:none;stroke:#707070;}.e{clip-path:url(#g);}.ak,.ap,.f{opacity:0.7;}.f,.n{mix-blend-mode:soft-light;}.ac,.ae,.ak,.am,.ay,.az,.bc,.f,.n,.o,.w{isolation:isolate;}.bh,.g,.n{fill:#fff;}.h{clip-path:url(#i);}.i{fill:#fcfdfe;}.j{fill:url(#j);}.k{fill:url(#k);}.am,.l,.o{fill:url(#l);}.m{fill:url(#m);}.n{opacity:0.48;}.ac,.ae,.o,.w{opacity:0.3;}.ac,.ae,.ak,.am,.ay,.az,.bc,.o,.w{mix-blend-mode:multiply;}.p{fill:#d8dee8;}.q{fill:url(#p);}.r{fill:url(#q);}.s{fill:url(#r);}.t{fill:url(#s);}.u{fill:url(#t);}.v{fill:url(#u);}.w{fill:url(#v);}.x{fill:url(#w);}.y{fill:url(#x);}.z{fill:url(#y);}.aa{fill:url(#z);}.ab{fill:url(#aa);}.ac{fill:url(#ab);}.ad{fill:url(#ac);}.ae{fill:url(#ad);}.af{fill:url(#ae);}.ag{fill:url(#af);}.ah{fill:url(#ag);}.ai{fill:url(#ah);}.aj{fill:url(#ai);}.al{fill:#aa79ef;font-size:13px;}.al,.bh{font-family:LEMONMILK-Medium, LEMON MILK;font-weight:500;}.am{opacity:0.1;}.an{fill:url(#ak);}.ao{fill:url(#al);}.aq{fill:#f4f7fa;}.ar{fill:url(#am);}.as{fill:url(#an);}.at{fill:url(#ao);}.au{fill:url(#ap);}.av{fill:url(#aq);}.aw{fill:#fec045;}.ax{fill:url(#ar);}.ay{opacity:0.15;fill:url(#as);}.az{opacity:0.42;}.ba{fill:url(#at);}.bb{fill:url(#au);}.bc{opacity:0.26;fill:url(#av);}.bd{opacity:0.53;}.be{fill:url(#aw);}.bf{fill:url(#ax);}.bg{fill:url(#ay);}.bh{font-size:43px;}.bi{fill:url(#az);}.bj{filter:url(#d);}</style><linearGradient id="a" x1="0.734" y1="0.401" x2="1.267" y2="-0.166" gradientUnits="objectBoundingBox"><stop offset="0" stop-color="#ff9085"/><stop offset="1" stop-color="#fb6fbb"/></linearGradient><linearGradient id="b" x1="0.383" y1="0.207" x2="0.498" y2="0.686" gradientUnits="objectBoundingBox"><stop offset="0.004" stop-color="#6165d7"/><stop offset="1" stop-color="#aa80f9"/></linearGradient><linearGradient id="c" x1="0.5" x2="0.5" y2="1" gradientUnits="objectBoundingBox"><stop offset="0" stop-color="#ca1072"/><stop offset="1" stop-color="#f5a21a"/></linearGradient><filter id="d" x="0" y="0" width="450" height="442.823" filterUnits="userSpaceOnUse"><feOffset dy="15" input="SourceAlpha"/><feGaussianBlur stdDeviation="15" result="e"/><feFlood flood-color="#d22d60" flood-opacity="0.4"/><feComposite operator="in" in2="e"/><feComposite in="SourceGraphic"/></filter><clipPath id="g"><path class="a" d="M967.136,921.888c12.862-9.082,15.162-32.875,12.013-48.842-3.677-18.642-13.306-19.136-15.037-33.856-3.224-27.408,28.834-36.936,27.775-64.833-.866-22.806-22.618-25.092-22.428-50.391.137-18.256,11.53-25.84,6.413-41.769-.437-1.362-5.365-15.98-17.85-19.4-12.6-3.448-25.53,6.532-31.924,14.57-11.819,14.859-3.07,25.3-10.616,48.059-10.274,30.982-32.572,29.963-35.422,54.339-2.353,20.129,12.309,25.467,9.256,47.734-2.835,20.677-16.508,23.588-17.082,37.681C870.911,897.607,940.9,940.413,967.136,921.888Z" transform="translate(-872.214 -662.1)"/></clipPath><clipPath id="i"><path class="b" d="M587.512,1063.2c3.266.463,10.781-1.409,12.539-2.7,11.7-8.622,34.646-23.342,37.857-38.364.548-2.566-10.087-8.025-11.028-10.778-5.936-5.126-8.313-6.537-11.562-14.182-9.592-22.572,33.54-48.073-2.1-71.065-26.108-16.841-52.965-13.661-37.639-57.179s2.468-134.078-52.925-116.066c-31.791,10.337-14.915,55.6-36.434,79.61-20.448,22.814-15.249,47.68,8.461,71.308s5.334,31.684-9.769,54.56c-18.143,27.479,26.817,45.65,48.289,52.269C550.489,1015.935,590.922,1041.173,587.512,1063.2Z" transform="translate(-473.495 -750.52)"/></clipPath><linearGradient id="j" x1="0.422" y1="0.517" x2="0.352" y2="0.841" gradientUnits="objectBoundingBox"><stop offset="0" stop-color="#40447e"/><stop offset="0.996" stop-color="#3c3b6b"/></linearGradient><linearGradient id="k" x1="0.48" y1="0.467" x2="0.372" y2="0.528" xlink:href="#j"/><linearGradient id="l" x1="0" y1="0.5" x2="1" y2="0.5" xlink:href="#j"/><linearGradient id="m" x1="0.638" y1="0.133" x2="-0.19" y2="2.082" gradientUnits="objectBoundingBox"><stop offset="0" stop-color="#ffc444"/><stop offset="0.996" stop-color="#f36f56"/></linearGradient><linearGradient id="p" x1="-20.404" y1="0.702" x2="-19.924" y2="0.433" gradientUnits="objectBoundingBox"><stop offset="0" stop-color="#aa80f9"/><stop offset="0.996" stop-color="#6165d7"/></linearGradient><linearGradient id="q" x1="8.126" y1="-1.071" x2="9.122" y2="-1.071" xlink:href="#p"/><linearGradient id="r" x1="32.406" y1="-4.879" x2="33.63" y2="-6.655" xlink:href="#m"/><linearGradient id="s" x1="13.54" y1="-16.166" x2="14.503" y2="-16.166" xlink:href="#p"/><linearGradient id="t" x1="29.458" y1="-8.591" x2="30.47" y2="-10.47" xlink:href="#m"/><linearGradient id="u" x1="-10.04" y1="0.836" x2="-10.841" y2="0.171" gradientUnits="objectBoundingBox"><stop offset="0" stop-color="#ab316d"/><stop offset="1" stop-color="#792d3d"/></linearGradient><linearGradient id="v" x1="-11.627" y1="0.836" x2="-12.543" y2="0.171" xlink:href="#u"/><linearGradient id="w" x1="-17.638" y1="0.574" x2="-18.772" y2="-0.074" xlink:href="#u"/><linearGradient id="x" x1="-7.509" y1="0.779" x2="-6.913" y2="0.353" xlink:href="#p"/><linearGradient id="y" x1="-30.831" y1="0.5" x2="-29.831" y2="0.5" xlink:href="#m"/><linearGradient id="z" x1="-15.412" y1="9.406" x2="-15.629" y2="9.117" gradientUnits="objectBoundingBox"><stop offset="0" stop-color="#444b8c"/><stop offset="0.996" stop-color="#26264f"/></linearGradient><linearGradient id="aa" x1="-15.965" y1="9.921" x2="-15.444" y2="8.94" gradientUnits="objectBoundingBox"><stop offset="0" stop-color="#311944"/><stop offset="1" stop-color="#893976"/></linearGradient><linearGradient id="ab" x1="-21.853" y1="9.274" x2="-20.35" y2="9.274" xlink:href="#aa"/><linearGradient id="ac" x1="-62.609" y1="-0.444" x2="-60.989" y2="1.585" xlink:href="#m"/><linearGradient id="ad" x1="-7.606" y1="0.766" x2="-7" y2="0.258" xlink:href="#p"/><linearGradient id="ae" x1="-16.791" y1="6.462" x2="-16.738" y2="4.396" xlink:href="#m"/><linearGradient id="af" x1="7.2" y1="4.721" x2="6.522" y2="3.075" gradientUnits="objectBoundingBox"><stop offset="0" stop-color="#311944"/><stop offset="1" stop-color="#6b3976"/></linearGradient><linearGradient id="ag" x1="-45.448" y1="2.196" x2="-45.484" y2="5.274" xlink:href="#m"/><linearGradient id="ah" x1="10.081" y1="4.977" x2="9.06" y2="3.119" xlink:href="#af"/><linearGradient id="ai" x1="-9.652" y1="0.995" x2="-9.545" y2="0.008" xlink:href="#p"/><linearGradient id="ak" x1="0.422" y1="0.883" x2="-0.742" y2="0.718" xlink:href="#aa"/><linearGradient id="al" x1="-0.61" y1="0.769" x2="0.922" y2="0.858" gradientUnits="objectBoundingBox"><stop offset="0.004" stop-color="#e38ddd"/><stop offset="1" stop-color="#9571f6"/></linearGradient><linearGradient id="am" x1="-6.713" y1="0.851" x2="-2.573" y2="3.378" gradientUnits="objectBoundingBox"><stop offset="0" stop-color="#f57e53"/><stop offset="0.005" stop-color="#f58152"/><stop offset="0.042" stop-color="#f8994d"/><stop offset="0.084" stop-color="#fbac49"/><stop offset="0.133" stop-color="#fdb946"/><stop offset="0.196" stop-color="#fec144"/><stop offset="0.318" stop-color="#ffc444"/><stop offset="0.455" stop-color="#fdb946"/><stop offset="0.694" stop-color="#f99c4c"/><stop offset="0.996" stop-color="#f36f56"/></linearGradient><linearGradient id="an" x1="-6.022" y1="2.226" x2="-5.095" y2="2.226" xlink:href="#a"/><linearGradient id="ao" x1="-6.685" y1="32.117" x2="-5.688" y2="32.117" xlink:href="#a"/><linearGradient id="ap" x1="-6.717" y1="30.83" x2="-5.719" y2="30.83" xlink:href="#a"/><linearGradient id="aq" x1="-6.748" y1="29.649" x2="-5.751" y2="29.649" xlink:href="#a"/><linearGradient id="ar" x1="-10.484" y1="2.701" x2="-9.595" y2="2.701" xlink:href="#a"/><linearGradient id="as" x1="-0.684" y1="1.187" x2="0.901" y2="1.407" gradientUnits="objectBoundingBox"><stop offset="0" stop-color="#fb6fbb"/><stop offset="1" stop-color="#ff9085"/></linearGradient><linearGradient id="at" x1="-3.257" y1="3.709" x2="-2.27" y2="3.709" xlink:href="#as"/><linearGradient id="au" x1="-2.615" y1="3.768" x2="-1.624" y2="3.768" xlink:href="#as"/><linearGradient id="av" x1="-5.349" y1="1.747" x2="-4.354" y2="1.747" xlink:href="#a"/><linearGradient id="aw" x1="-0.335" y1="1.325" x2="3.133" y2="-2.462" xlink:href="#u"/><linearGradient id="ax" x1="-0.032" y1="1.208" x2="0.597" y2="0.374" gradientUnits="objectBoundingBox"><stop offset="0" stop-color="#fcb148"/><stop offset="0.052" stop-color="#fdb946"/><stop offset="0.142" stop-color="#fec144"/><stop offset="0.318" stop-color="#ffc444"/><stop offset="0.485" stop-color="#fdb946"/><stop offset="0.775" stop-color="#f99c4c"/><stop offset="0.866" stop-color="#f8924f"/><stop offset="1" stop-color="#f8924f"/></linearGradient><linearGradient id="ay" x1="0.66" y1="0.944" x2="0.229" y2="-0.194" xlink:href="#ax"/><linearGradient id="az" x1="-0.495" y1="1.321" x2="2.887" y2="-3.15" xlink:href="#ax"/></defs><g transform="translate(-400.458 -482.321)"><g class="bj" transform="matrix(1, 0, 0, 1, 400.46, 482.32)"><path class="c" d="M771.9,788.107c-72.784,93.1-243.236,94.594-290.422,42.88-18.832-20.636-23.8-56.079-31.114-108.141a479.447,479.447,0,0,1-4.321-59.123c-1.03-47.147-1.543-70.723,6.047-86.762,21.74-45.911,97.262-63.779,146.076-64.608q5.11-.088,10.31.068c57.158,1.7,121.656,25.5,161.435,76.34a170.553,170.553,0,0,1,11.5,16.61C817.716,665.078,811.606,737.323,771.9,788.107Z" transform="translate(-400.46 -482.32)"/></g><path class="d" d="M771.9,788.107c-72.784,93.1-243.236,94.594-290.422,42.88-18.832-20.636-23.8-56.079-31.114-108.141a479.447,479.447,0,0,1-4.321-59.123c-1.03-47.147-1.543-70.723,6.047-86.762,21.74-45.911,97.262-63.779,146.076-64.608q5.11-.088,10.31.068c57.158,1.7,121.656,25.5,161.435,76.34a170.553,170.553,0,0,1,11.5,16.61C817.716,665.078,811.606,737.323,771.9,788.107Z" transform="translate(-30 -8.777)"/><g transform="translate(501.529 532)"><g transform="translate(0 0)"><path class="a" d="M967.136,921.888c12.862-9.082,15.162-32.875,12.013-48.842-3.677-18.642-13.306-19.136-15.037-33.856-3.224-27.408,28.834-36.936,27.775-64.833-.866-22.806-22.618-25.092-22.428-50.391.137-18.256,11.53-25.84,6.413-41.769-.437-1.362-5.365-15.98-17.85-19.4-12.6-3.448-25.53,6.532-31.924,14.57-11.819,14.859-3.07,25.3-10.616,48.059-10.274,30.982-32.572,29.963-35.422,54.339-2.353,20.129,12.309,25.467,9.256,47.734-2.835,20.677-16.508,23.588-17.082,37.681C870.911,897.607,940.9,940.413,967.136,921.888Z" transform="translate(-872.214 -662.1)"/><g class="e"><g transform="translate(22.843 -20.536)"><g class="f" transform="translate(9.002 12.833)"><path class="g" d="M1159.117,886.192a.44.44,0,0,1-.224-.061,93.511,93.511,0,0,1-29.9-27.66c-7.368-10.684-14.985-21.729-14.371-35.544.467-10.511,5.358-16.126,11.55-23.235,5.9-6.778,13.251-15.214,18.391-30.837,2.934-8.918,6.586-20.016,3.771-33.3-1.634-7.712-4.652-12.075-7.314-15.925-2.788-4.032-5.2-7.515-4.736-13.489.737-9.57,5.848-15.682,11.767-22.759a94.315,94.315,0,0,0,10.555-14.494c9.149-16.2,9.392-38.017.721-64.835a.442.442,0,0,1,.842-.272c8.749,27.063,8.482,49.114-.793,65.542a95.017,95.017,0,0,1-10.646,14.626c-5.821,6.961-10.848,12.972-11.563,22.26-.436,5.661,1.778,8.864,4.582,12.918,2.71,3.919,5.781,8.36,7.452,16.245,2.865,13.52-.828,24.744-3.8,33.763-5.2,15.793-12.609,24.3-18.564,31.142-6.078,6.979-10.88,12.491-11.333,22.694-.6,13.518,6.93,24.439,14.214,35a92.635,92.635,0,0,0,29.621,27.4.442.442,0,0,1-.224.824Z" transform="translate(-1114.588 -603.47)"/></g><g class="f" transform="translate(43.64 84.507)"><path class="g" d="M1378.663,1216.149a.442.442,0,0,1-.3-.772c20.458-18.28,30.071-35.24,34.532-46.248,4.832-11.922,4.829-19.623,4.828-19.7a.442.442,0,0,1,.439-.446h0a.442.442,0,0,1,.442.438c0,.318.012,7.912-4.87,19.982-4.493,11.109-14.175,28.216-34.785,46.633A.441.441,0,0,1,1378.663,1216.149Z" transform="translate(-1378.221 -1148.984)"/></g><g class="f" transform="translate(0 99.899)"><path class="g" d="M1080.316,1357.432a.441.441,0,0,1-.28-.1c-11.42-9.33-20.1-19.914-25.808-31.456a78.224,78.224,0,0,1-7.961-29.336c-1.219-17.413,3.761-30,3.811-30.13a.442.442,0,0,1,.821.33c-.05.124-4.961,12.56-3.747,29.779,1.12,15.88,7.831,39.2,33.443,60.127a.442.442,0,0,1-.28.785Z" transform="translate(-1046.076 -1266.134)"/></g><g class="f" transform="translate(15.108 194.432)"><path class="g" d="M1161.509,2047.7a.442.442,0,0,1-.124-.867c30.166-8.85,45.9-24.931,53.781-36.863,8.53-12.909,9.958-23.84,9.972-23.949a.442.442,0,0,1,.878.108c-.014.111-1.468,11.248-10.112,24.328-7.966,12.055-23.847,28.3-54.27,37.224A.44.44,0,0,1,1161.509,2047.7Z" transform="translate(-1161.067 -1985.635)"/></g><g class="f" transform="translate(35.704)"><path class="g" d="M1336.528,581.635a.442.442,0,0,1-.325-.142c-17.253-18.709-19.354-38.231-18.079-51.313a67.02,67.02,0,0,1,6.981-24.157.442.442,0,0,1,.769.437A66.107,66.107,0,0,0,1319,530.3c-1.25,12.893.832,32.135,17.852,50.591a.442.442,0,0,1-.325.742Z" transform="translate(-1317.818 -505.799)"/></g></g></g></g></g><g transform="translate(449.142 543.618)"><g transform="translate(0 0)"><path class="b" d="M587.512,1063.2c3.266.463,10.781-1.409,12.539-2.7,11.7-8.622,34.646-23.342,37.857-38.364.548-2.566-10.087-8.025-11.028-10.778-5.936-5.126-8.313-6.537-11.562-14.182-9.592-22.572,33.54-48.073-2.1-71.065-26.108-16.841-52.965-13.661-37.639-57.179s2.468-134.078-52.925-116.066c-31.791,10.337-14.915,55.6-36.434,79.61-20.448,22.814-15.249,47.68,8.461,71.308s5.334,31.684-9.769,54.56c-18.143,27.479,26.817,45.65,48.289,52.269C550.489,1015.935,590.922,1041.173,587.512,1063.2Z" transform="translate(-473.495 -750.52)"/><g class="h"><g class="f" transform="translate(-4.596 -7.863)"><path class="i" d="M967.73,990.492l.464-.526c-81.034-71.486-110.874-183.3-79.822-299.112l-.678-.182c-14.716,54.885-15.731,111.014-2.933,162.32C898.216,906.931,926.906,954.477,967.73,990.492Z" transform="translate(-818.396 -690.672)"/><path class="i" d="M492.779,2407.205c29.523-1.406,74.867,10.854,101.08,27.331l.373-.594c-26.316-16.542-71.842-28.85-101.486-27.438Z" transform="translate(-485.621 -2180.969)"/><path class="i" d="M1403.073,2189.6l.592-.377c-8.645-13.574-10.1-31-4.312-51.786,4.241-15.243,12.2-31.907,23.66-49.529l-.589-.382c-11.5,17.682-19.487,34.411-23.747,49.723C1392.837,2158.237,1394.316,2175.85,1403.073,2189.6Z" transform="translate(-1269.486 -1903.995)"/><path class="i" d="M503.347,1554.891l.61-.346c-14.98-26.425-43.738-40.328-65.225-47.339l-.218.667C459.884,1514.845,488.479,1528.661,503.347,1554.891Z" transform="translate(-438.515 -1399.923)"/><path class="i" d="M875.029,888.267l.688.137c6.7-33.558,33.635-57.322,49.094-68.5l-.411-.569C908.858,830.575,881.776,854.475,875.029,888.267Z" transform="translate(-817.676 -802.431)"/></g></g></g></g><g transform="translate(451.593 572.707)"><g transform="translate(0 84.099)"><path class="j" d="M867.861,2949.31l-347.571-3.027v8.957a4.751,4.751,0,0,0,3.569,4.867l98.283,17.637a13.512,13.512,0,0,0,3.526.166L864.084,2957.8c2.128-.179,3.777-2.253,3.777-4.751Z" transform="translate(-516.593 -2770.975)"/><path class="k" d="M731.533,1775.818,499.675,1792.2a6.906,6.906,0,0,1-7.522-6.959V1619.493a7.51,7.51,0,0,1,7.522-7.491H731.533c3.418,0,6.182,3.032,6.182,6.772V1768.61C737.715,1772.349,734.951,1775.577,731.533,1775.818Z" transform="translate(-492.153 -1612.002)"/><path class="l" d="M759.67,1775.818,527.812,1792.2a6.906,6.906,0,0,1-7.522-6.959V1619.493a7.51,7.51,0,0,1,7.522-7.491H759.67c3.418,0,6.182,3.032,6.182,6.772V1768.61C765.852,1772.349,763.088,1775.577,759.67,1775.818Z" transform="translate(-516.593 -1612.002)"/><path class="m" d="M819.125,1828.877l-215.951,14.233a5.659,5.659,0,0,1-6.12-5.712V1692.282a6.151,6.151,0,0,1,6.12-6.141l215.951-.894a5.322,5.322,0,0,1,5.1,5.549v132.174A5.8,5.8,0,0,1,819.125,1828.877Z" transform="translate(-583.271 -1675.624)"/><path class="g" d="M1486.906,1628.085a2.673,2.673,0,1,1-2.667-2.787A2.739,2.739,0,0,1,1486.906,1628.085Z" transform="translate(-1351.569 -1623.551)"/><path class="n" d="M703.808,1730.359c-17.874-9.617-31.929,2.569-45.492-9.455-8.223-7.289-4.186-12.725-14.3-23.618-11.207-12.065-18.5-8.01-29.766-18.868-14.241-13.73-7.118-24.412-19.385-34.27-14.881-11.959-30.93-.89-45.1-12.359-6.11-4.947-9.462-12.138-11.213-19.786H524.691a4.4,4.4,0,0,0-4.4,4.4v171.815a4.045,4.045,0,0,0,4.4,4.084l236.3-16.773a3.805,3.805,0,0,0,2.848-1.741c-17.3-.631-27.925-6.429-34.718-12.424C715.833,1749.634,718.138,1738.069,703.808,1730.359Z" transform="translate(-516.593 -1612.002)"/><path class="l" d="M753.885,2852.844l-233.6,17.247,101.852,18.278a13.522,13.522,0,0,0,3.526.166l242.193-20.428L757.6,2852.961A17.681,17.681,0,0,0,753.885,2852.844Z" transform="translate(-516.593 -2689.77)"/><path class="o" d="M779.714,2891.389l194.475-14.573,60.188,8.2-192.8,15.578Z" transform="translate(-741.932 -2710.635)"/></g><g transform="translate(28.337 0)"><path class="g" d="M910.85,975.2v224.253a11.013,11.013,0,0,1-10.43,10.89l-1.892.116-190.7,11.744a9.917,9.917,0,0,0,8.441-9.768V971.919l130.366,2.2Z" transform="translate(-707.826 -971.919)"/></g><g transform="translate(61.737 25.12)"><path class="p" d="M1111.376,1394.214l-149.338,1.327v-26.11l149.338-.04Z" transform="translate(-962.039 -1342.287)"/><g transform="translate(9.424 59.057)"><path class="p" d="M1132.636,1629.655l-98.874,1.6v-14.75l98.874-1.12Z" transform="translate(-1033.762 -1615.021)"/><g transform="translate(107.048)"><path class="p" d="M1872.8,1626.7l-24.3.394v-14.227l24.3-.275Z" transform="translate(-1848.508 -1612.59)"/></g></g><g transform="translate(9.424 78.559)"><path class="p" d="M1094.771,1785.152l-61.009,1.4V1771.8l61.009-1.1Z" transform="translate(-1033.762 -1769.43)"/><g transform="translate(107.048)"><path class="p" d="M1872.8,1775.135l-24.3.558v-14.227l24.3-.439Z" transform="translate(-1848.508 -1761.026)"/></g></g><g transform="translate(9.424 98.062)"><path class="p" d="M1111.009,1934.054l-77.247,2.294V1921.6l77.247-1.917Z" transform="translate(-1033.762 -1918.339)"/><g transform="translate(107.048)"><path class="p" d="M1872.8,1923.571l-24.3.722v-14.227l24.3-.6Z" transform="translate(-1848.508 -1909.462)"/></g></g><g transform="translate(9.424 117.565)"><path class="p" d="M1067.5,2095.934l-33.742,1.23v-14.75l33.742-1.065Z" transform="translate(-1033.762 -2078.268)"/><g transform="translate(107.048)"><path class="p" d="M1872.8,2072.007l-24.3.885v-14.227l24.3-.767Z" transform="translate(-1848.508 -2057.898)"/></g></g><g transform="translate(0 45.305)"><path class="p" d="M962.038,1508.912v118.116l74.9-3.41,74.441-3.392v-112.3Zm145.181,107.361-71.85,3.171-68.745,3.034V1513.224l140.6-1.128Z" transform="translate(-962.038 -1507.926)"/></g><g transform="translate(0 166.629)"><path class="p" d="M1032.776,2459.64l-68.354,3.326a2.466,2.466,0,0,0-2.383,2.375v16.8a2.175,2.175,0,0,0,2.383,2.127l68.354-3.807a2.4,2.4,0,0,0,2.273-2.332v-16.4A2.113,2.113,0,0,0,1032.776,2459.64Z" transform="translate(-962.039 -2455.918)"/><path class="p" d="M1638.7,2431.334l-64.831,3.155a2.366,2.366,0,0,0-2.259,2.31v16.36a2.087,2.087,0,0,0,2.259,2.074l64.831-3.611a2.3,2.3,0,0,0,2.157-2.268v-15.976A2.031,2.031,0,0,0,1638.7,2431.334Z" transform="translate(-1491.524 -2431.331)"/></g><path class="p" d="M1111.376,1181.21l-149.338-.794v-17.31l149.338.94Z" transform="translate(-962.039 -1163.106)"/></g></g><g transform="translate(701.187 612.752)"><path class="q" d="M2450.925,1451.844l-4.05.81s-21.26,27.132-18.223,37.459,18.223,2.43,18.223,2.43Z" transform="translate(-2423.555 -1428.833)"/><path class="r" d="M2726.438,2920.937c.683.555.809,1.942.891,2.849a2.234,2.234,0,0,1,.01.75c-.33,1.043-2.354,1.153-5.527,1.478-5.015.512-6.507.907-6.9.161-.368-.7.522-1.844.623-1.971a4.6,4.6,0,0,1,2.479-1.346c2.366-.779,3.965-1.205,4.448-1.334C2725.484,2920.716,2725.989,2920.572,2726.438,2920.937Z" transform="translate(-2672.385 -2704.74)"/><path class="s" d="M2777.2,2887.321l-.5,5.715a3.1,3.1,0,0,0,3.19.394l1.289-5.617Z" transform="translate(-2726.134 -2675.705)"/><path class="t" d="M2404.87,2881.99a2.822,2.822,0,0,1,.293,3.39c-.7.807-1.752.2-4.738.291-3.2.1-4.032.851-6.205.251-.878-.243-2.428-.831-2.4-1.458.021-.441.81-.668,3.446-1.552a34.294,34.294,0,0,1,4.52-1.454C2401.784,2881.128,2403.788,2880.8,2404.87,2881.99Z" transform="translate(-2391.821 -2670.345)"/><path class="u" d="M2464.94,2847.851l-1.6,5.334a3.1,3.1,0,0,0,3.151.636l2.382-5.178Z" transform="translate(-2453.94 -2641.421)"/><path class="v" d="M2479.6,1958.58a499.789,499.789,0,0,1-15.791,118.392l6.138,1.652c5.191-4.841,11.74-12.46,14.9-23.229,1.961-6.684,1.308-10.118,2.552-18.338,1.981-13.089,5.993-19.946,10.14-30.5a173.652,173.652,0,0,0,10.493-42.009Z" transform="translate(-2454.352 -1868.99)"/><path class="w" d="M2514.825,2044.672c2.053-5.673,4.554-7.42,5.669-13.364.973-5.184-.363-6.868-.4-12.149-.083-10.523,5.143-14.008,6.884-22.678.944-4.7-5.229-16.567-10.892-26.819q.2-5.67.267-11.082l28.431,5.967a173.653,173.653,0,0,1-10.493,42.01c-4.147,10.555-8.159,17.412-10.14,30.5-1.244,8.22-.59,11.655-2.552,18.338-3.16,10.768-9.708,18.388-14.9,23.229l-.58-.156c5.233-6.82,6.858-12.614,7.088-17.192C2513.443,2056.542,2512.26,2051.76,2514.825,2044.672Z" transform="translate(-2491.1 -1868.99)"/><path class="x" d="M2733.969,1974.073q1.878,34.2,3.063,69.668.879,26.607,1.3,52.534l6.271.774a73.018,73.018,0,0,0,6.54-16.878c2.232-8.949,1.715-14.264,2.694-23.539,1.1-10.4,2.693-12.669,5.519-25.792,5.735-26.633,8.6-39.949,2.205-48.232C2759.486,1979.919,2752.975,1973.173,2733.969,1974.073Z" transform="translate(-2689.015 -1882.376)"/><path class="y" d="M2557.414,1428.08a107.538,107.538,0,0,0-23.034-3.847c-14.308-.809-21.464-1.167-25.665,2.123-13.026,10.2-.681,46.662-5.323,65.82-3.906,16.12-4.05,16.4-4.05,16.4-.923,1.8-2.419,4.306-1.822,7.289.469,2.346,2.245,5.042,4.657,5.872,5.013,1.725,7.886-6.29,16.2-8.707,8.689-2.526,18.41,2.492,30.7,8.838,7.823,4.038,10.494,6.614,13.235,5.336,5.278-2.461,3.829-15.954,3.24-21.463C2563.212,1483.85,2560.578,1458.219,2557.414,1428.08Z" transform="translate(-2483.513 -1404.37)"/><path class="z" d="M2578.918,1711.816c.378-.084,1.052-2.6-.607-3.341-7.492-3.341-13.29,3.274-14.065,5.309l-.775,2.035a19.084,19.084,0,0,0,6.028-.484C2571.806,1714.56,2575.842,1712.5,2578.918,1711.816Z" transform="translate(-2540.918 -1650.941)"/><g transform="translate(11.534 48.98)"><g transform="translate(0 0)"><path class="aa" d="M2485.607,1674.508l13.18.665c.5.026,1.108-.6.984-1.025l-6.157-19.924a.783.783,0,0,0-.81-.532l-12.64.277c-.412.024-.637.835-.526,1.236l5.238,18.735A.818.818,0,0,0,2485.607,1674.508Z" transform="translate(-2479.61 -1653.139)"/><path class="ab" d="M2487.33,1670.433l13.253.622c.508.024.858-.34.734-.766l-5.92-20.269a.783.783,0,0,0-.814-.531l-12.658.749a.645.645,0,0,0-.581.825l5.252,18.8A.818.818,0,0,0,2487.33,1670.433Z" transform="translate(-2481.095 -1649.488)"/></g><path class="ac" d="M2526.421,1658.348c-.392,1.843-2.05,1.446-3.4,3.677-1.717,2.832-.072,5.333-1.645,6.371a3.341,3.341,0,0,1-2.752.125l.376,1.345a.818.818,0,0,0,.734.568l13.253.622c.508.024.858-.34.734-.766l-5.92-20.269a.783.783,0,0,0-.814-.531l-1.9.112a7.322,7.322,0,0,0-.366,2.391C2524.776,1655.049,2526.881,1656.188,2526.421,1658.348Z" transform="translate(-2513.495 -1649.488)"/></g><path class="ad" d="M2480.977,1701.014c-.074-.319.083-.647.32-.664.965-.07,3.2-.1,4.437.972,1.6,1.39,3.679,3.926,1.932,5.206l-1.631,1.2a.261.261,0,0,1-.239.047c-.58-.18-3.019-.946-3.286-1.136A44.291,44.291,0,0,1,2480.977,1701.014Z" transform="translate(-2469.247 -1644.663)"/><path class="ae" d="M2513.447,1624.513c1.414-2.45,1.354-6.151,4.455-7.9,1.808-1.018,3.217-.542,5.67-.608,7.311-.195,8.711-4.795,13.769-5.062,7.833-.414,11.6,10.242,16,8.707,2.873-1,4.722-6.748,3.24-11.137-2.066-6.118-9.148-5.28-18.426-13.566-3.969-3.545-9.663-9.941-8.1-12.756,1.642-2.957,9.435,1.382,15.186-3.037,3.356-2.578,2.928-5.765,5.67-11.542a48.984,48.984,0,0,1,15.018-16.755c2.6,24.879,4.835,46.505,6.85,65.351.589,5.509,2.039,19-3.24,21.463-2.741,1.278-5.413-1.3-13.235-5.336-12.293-6.346-22.014-11.364-30.7-8.838-8.312,2.417-11.186,10.431-16.2,8.707a7.192,7.192,0,0,1-3.7-3.372C2510.167,1628.031,2512.382,1626.359,2513.447,1624.513Z" transform="translate(-2490.734 -1514.839)"/><g transform="translate(31.024 0)"><path class="af" d="M2671.092,1344.995c-.009,1.088,2.7,6.537,6.344,9.179,3.681,2.666,8.313,2.521,9.693,2.863,3.2.793,3.611.772,3.682,1.089.345,1.549-8.38,6.828-17.394,5.556-5.517-.778-10.536-3.926-10.228-5.579s5.821-.771,7.463-3.78c1.143-2.093-.138-5.065-1.652-7.526C2670.466,1344.05,2669.625,1347.742,2671.092,1344.995Z" transform="translate(-2658.547 -1336.022)"/><path class="ag" d="M2630.808,1288.194a5.8,5.8,0,0,1-2.744-6.066c.463-2.037,2.2-3.118,3.238-3.766,3.01-1.877,7.659-2.452,10.446-.183,1.652,1.345,1.57,5.8,1.6,6.585a5.879,5.879,0,0,1-.7,2.216c-.374,1.119-.95,2.891-1.868,5.831a14.493,14.493,0,0,0-1.748-1.818,12.827,12.827,0,0,0-2.716-1.823C2633.7,1287.931,2632.625,1289.146,2630.808,1288.194Z" transform="translate(-2627.945 -1276.702)"/><path class="ah" d="M2661.3,1335.247a7.875,7.875,0,0,1-4.763,6.131c-3.847,1.526-8.36-6.585-6.818-9.491a5.214,5.214,0,0,1,3.458-2.221c.867-.148,1.276.047,2.688-.223,1.3-.249,1.568-.532,2.058-.4.612.161,1.361.912,1.79,3.705.37-1.058,1.094-1.74,1.835-1.741a1.413,1.413,0,0,1,.727.249C2663.244,1331.962,2662.95,1333.6,2661.3,1335.247Z" transform="translate(-2646.586 -1322.136)"/><path class="ai" d="M2669.13,1324.289c-.116.219.752.63,1.244,1.561a5.056,5.056,0,0,1-1.68,6c-1.074.645-1.7.112-3.66.8a9.441,9.441,0,0,0-2.642,1.444c.374,2.3,1.881,4.057,3.677,4.352,1.934.318,3.5-1.175,4.16-1.8a5.91,5.91,0,0,0,1.995-3.694c.153-2.023-1.193-2.561-.662-4.132a9.589,9.589,0,0,0,1.02-2.725,5.76,5.76,0,0,0,.043-.888C2671.177,1324.639,2669.3,1323.971,2669.13,1324.289Z" transform="translate(-2657.866 -1317.966)"/></g><path class="aj" d="M2702.5,1462.626c2.185-3.314,6.532-6.565,10.529-6.277,11.675.843,26.066,32.292,16.2,44.749-7.532,9.509-30.8,9.97-52.038-6.479v-5.467c10.45,1.828,19.114,3.041,25.513,3.847,3.991.5,7.967.956,8.707-.607,1.12-2.365-6.874-5.749-9.922-14.579C2701.069,1476.595,2698.4,1468.852,2702.5,1462.626Z" transform="translate(-2639.697 -1432.73)"/></g><g class="ak" transform="translate(618.83 568.695)"><path class="p" d="M1829.123,942.493v48.686l-29.964-.093-5.677,6.536-8.371,9.623a2.544,2.544,0,0,1-1.484.854l-.047.049c-2.393,2.7-5.314,1.508-5.314-.938V990.9l-3.883-.035a9.274,9.274,0,0,1-6.2-2.459,9.7,9.7,0,0,1-3.18-7.217v-39.8Z" transform="translate(-1764.999 -941.383)"/></g><text class="al" transform="translate(518.574 612.565) rotate(1.062)"><tspan x="0" y="0" xml:space="preserve"> bank statement</tspan></text><g transform="translate(488.531 737.694)"><path class="am" d="M773.513,2288.5l.815,88.92,13.884-.765Z" transform="translate(-773.483 -2280.505)"/><path class="an" d="M934.972,2320.652a3.659,3.659,0,0,1-3.181,4.383l-139.8,9.986c-2.531.176-5.7-1.92-6.04-4.432l-12.632-92.433c-.34-2.491,2.291-4.714,4.833-4.722l140.04-2.894a4.706,4.706,0,0,1,4.377,4.072Z" transform="translate(-773.286 -2230.16)"/><path class="ao" d="M949.212,2318.255a3.681,3.681,0,0,1-3.2,4.408l-141.5,9.847a5.046,5.046,0,0,1-5.262-4.271l-12.708-92.935a3.952,3.952,0,0,1,4.031-4.568l141.75-3.094a4.734,4.734,0,0,1,4.406,4.094Z" transform="translate(-784.762 -2227.644)"/><g class="ap" transform="translate(27.684 60.275)"><path class="aq" d="M1011.709,2719.771l-24.141,1.022a2.368,2.368,0,0,1-2.369-1.749l-1.17-5.531a1.575,1.575,0,0,1,1.6-1.908l24.206-.867a2.311,2.311,0,0,1,2.287,1.732l1.124,5.423A1.545,1.545,0,0,1,1011.709,2719.771Z" transform="translate(-983.992 -2707.539)"/><path class="aq" d="M1256,2711.1l-23.068.977a2.272,2.272,0,0,1-2.263-1.712l-1.117-5.406a1.528,1.528,0,0,1,1.527-1.864l23.129-.828a2.22,2.22,0,0,1,2.187,1.7l1.074,5.3A1.5,1.5,0,0,1,1256,2711.1Z" transform="translate(-1197.26 -2700.177)"/><path class="aq" d="M1489.474,2702.8l-22.066.934a2.183,2.183,0,0,1-2.164-1.676l-1.068-5.288a1.484,1.484,0,0,1,1.46-1.821l22.123-.792a2.135,2.135,0,0,1,2.092,1.66l1.028,5.188A1.458,1.458,0,0,1,1489.474,2702.8Z" transform="translate(-1401.056 -2693.137)"/><path class="aq" d="M1712.825,2694.857l-21.127.894a2.1,2.1,0,0,1-2.071-1.641l-1.022-5.174a1.443,1.443,0,0,1,1.4-1.78l21.181-.758a2.056,2.056,0,0,1,2,1.626l.985,5.079A1.419,1.419,0,0,1,1712.825,2694.857Z" transform="translate(-1595.999 -2686.397)"/></g><g transform="translate(23.264 31.549)"><path class="ar" d="M967.839,2486.654l-11.52.4a4.368,4.368,0,0,1-4.363-3.686l-1.575-11.449a3.359,3.359,0,0,1,3.316-3.9l11.531-.255a4.362,4.362,0,0,1,4.286,3.683l1.565,11.305A3.351,3.351,0,0,1,967.839,2486.654Z" transform="translate(-950.346 -2467.763)"/><path class="as" d="M975.028,2492.912l-9.9.335a4.024,4.024,0,0,1-4.023-3.4l-1.352-9.827a3.1,3.1,0,0,1,3.057-3.6l9.9-.226a4.019,4.019,0,0,1,3.96,3.4l1.345,9.718A3.088,3.088,0,0,1,975.028,2492.912Zm-12.147-16.006a2.665,2.665,0,0,0-2.631,3.1l1.352,9.824a3.465,3.465,0,0,0,3.463,2.93l9.9-.332a2.66,2.66,0,0,0,2.58-3.1L976.2,2479.6a3.461,3.461,0,0,0-3.411-2.927Z" transform="translate(-958.491 -2475.084)"/><g transform="translate(1.646 5.477)"><path class="aq" d="M963.125,2511.71l16.433-.426Z" transform="translate(-963.091 -2511.043)"/><path class="at" d="M979.37,2509.929l-16.432.428-.067-.489,16.433-.423Z" transform="translate(-962.87 -2509.446)"/><g transform="translate(0.508 3.655)"><path class="aq" d="M966.994,2539.566l16.43-.466Z" transform="translate(-966.96 -2538.858)"/><path class="au" d="M983.236,2537.744l-16.43.468-.067-.489,16.43-.463Z" transform="translate(-966.739 -2537.26)"/></g><g transform="translate(1.017 7.31)"><path class="aq" d="M970.864,2567.431l16.427-.505Z" transform="translate(-970.831 -2566.684)"/><path class="av" d="M987.1,2565.569l-16.427.508-.067-.489,16.427-.5Z" transform="translate(-970.609 -2565.085)"/></g></g><g transform="translate(5.163 2.926)"><path class="aw" d="M999.734,2504.625l-4.589.149a2.43,2.43,0,0,1-2.419-2.052l-1.18-8.561a1.867,1.867,0,0,1,1.837-2.17l4.592-.111a2.436,2.436,0,0,1,2.4,2.056l1.176,8.511A1.872,1.872,0,0,1,999.734,2504.625Z" transform="translate(-991.278 -2491.638)"/><path class="ax" d="M998.13,2503.264l-4.589.15a2.7,2.7,0,0,1-2.7-2.288l-1.18-8.562a2.079,2.079,0,0,1,2.048-2.419l4.592-.11a2.711,2.711,0,0,1,2.677,2.292l1.176,8.51A2.084,2.084,0,0,1,998.13,2503.264Zm-6.352-12.633a1.65,1.65,0,0,0-1.625,1.921l1.179,8.559a2.146,2.146,0,0,0,2.141,1.816l4.59-.149a1.654,1.654,0,0,0,1.609-1.927l-1.176-8.512a2.152,2.152,0,0,0-2.125-1.819Z" transform="translate(-989.641 -2490.034)"/></g></g><path class="ay" d="M900.643,2724.4c-11.842,2.093-19.562,2.616-28.732.226-12.71-3.313-21.988-10.587-27.224-15.437l5.1,37.327a5.046,5.046,0,0,0,5.262,4.271l141.5-9.848a3.681,3.681,0,0,0,3.2-4.408l-1.978-13.78c-21.924-11.955-38.142-12.782-49.153-11.133C935.178,2713.629,928.3,2719.51,900.643,2724.4Z" transform="translate(-835.306 -2645.918)"/><g class="az" transform="translate(30.013 78.787)"><path class="ba" d="M1036.686,2860.2l-32.925,2.022a1.277,1.277,0,0,1-1.315-1.084l-.72-5.234a1.058,1.058,0,0,1,1-1.22l32.936-1.858a1.244,1.244,0,0,1,1.263,1.065l.711,5.112A1.027,1.027,0,0,1,1036.686,2860.2Z" transform="translate(-1001.715 -2849.468)"/><path class="bb" d="M1441.218,2834.449l-41.725,2.56a1.235,1.235,0,0,1-1.259-1.06l-.714-5.107a1.017,1.017,0,0,1,.944-1.189l41.74-2.354a1.193,1.193,0,0,1,1.195,1.035l.7,4.956A.979.979,0,0,1,1441.218,2834.449Z" transform="translate(-1345.506 -2827.298)"/></g><path class="bc" d="M1697.443,2343.916c.859,6.007-3.6,11.045-9.927,11.249-6.306.2-12.086-4.471-12.932-10.436s3.552-10.99,9.846-11.235C1690.749,2333.248,1696.585,2337.912,1697.443,2343.916Z" transform="translate(-1556.074 -2319.579)"/><g class="bd" transform="translate(47.086 31.809)"><path class="aq" d="M1135.181,2524.429a2.036,2.036,0,0,1-2.747.1,1.758,1.758,0,0,1-.359-2.574,2.041,2.041,0,0,1,2.75-.077A1.758,1.758,0,0,1,1135.181,2524.429Z" transform="translate(-1131.662 -2514.601)"/><g transform="translate(4.033)"><path class="aq" d="M1192.433,2486.465a.777.777,0,0,1-.528-.168.671.671,0,0,1-.135-.962c3.543-4.159,2.65-10.539-2.019-14.429a.67.67,0,0,1-.135-.961.737.737,0,0,1,1.008,0c5.248,4.4,6.256,11.592,2.281,16.3A.665.665,0,0,1,1192.433,2486.465Z" transform="translate(-1185.906 -2469.743)"/><path class="aq" d="M1178.458,2497.47a.8.8,0,0,1-.536-.173.673.673,0,0,1-.136-.969c2.652-3.064,1.99-7.793-1.49-10.657a.671.671,0,0,1-.135-.968.749.749,0,0,1,1.021-.01c4.079,3.378,4.858,8.937,1.756,12.55A.673.673,0,0,1,1178.458,2497.47Z" transform="translate(-1174.216 -2482.559)"/><path class="aq" d="M1164.28,2508.636a.819.819,0,0,1-.544-.177.674.674,0,0,1-.136-.976c1.722-1.958,1.3-5-.954-6.831a.673.673,0,0,1-.136-.975.763.763,0,0,1,1.035-.018,6.831,6.831,0,0,1,2.517,4.313,5.486,5.486,0,0,1-1.294,4.438A.684.684,0,0,1,1164.28,2508.636Z" transform="translate(-1162.355 -2495.561)"/></g></g></g><path class="be" d="M1866.667,649.83l-70.923-4.348a8.954,8.954,0,0,0-9.448,9.1v66.255a9.633,9.633,0,0,0,9.448,9.672l3.946.037v16.316c0,2.445,2.9,3.639,5.292.934l14.836-17.06,46.849.142c4.382.041,7.919-3.835,7.919-8.659V658.972C1874.586,654.148,1871.049,650.056,1866.667,649.83Z" transform="translate(-1164.668 -115.654)"/><path class="bf" d="M1883.777,717.722l-70.923-.369a9.633,9.633,0,0,1-9.448-9.672V641.427a8.955,8.955,0,0,1,9.448-9.1l70.923,4.348c4.381.226,7.918,4.318,7.918,9.142v63.243C1891.7,713.887,1888.159,717.764,1883.777,717.722Z" transform="translate(-1179.53 -104.231)"/><path class="bg" d="M1823.953,726.892V657.236a4.773,4.773,0,0,1,5.033-4.847l74.088,4.289a4.735,4.735,0,0,1,4.221,4.872v66.5a4.4,4.4,0,0,1-4.222,4.614l-74.088-.622A5.135,5.135,0,0,1,1823.953,726.892Z" transform="translate(-1197.377 -121.659)"/><g transform="translate(640.314 539.969)"><path class="g" d="M1984.095,728.123a.808.808,0,0,1,.747.814v52.769a.75.75,0,0,1-.747.769l-51.772-.859a.812.812,0,0,1-.787-.816V726.593a.755.755,0,0,1,.787-.768l51.772,2.3Zm0-2.992-51.772-2.378a3.639,3.639,0,0,0-3.806,3.706v54.29a3.915,3.915,0,0,0,3.806,3.938l51.772.78a3.618,3.618,0,0,0,3.6-3.712V729.063a3.9,3.9,0,0,0-3.6-3.932Z" transform="translate(-1928.516 -722.75)"/><text class="bh" transform="translate(4.633 50.063) rotate(1.63)"><tspan x="0" y="0" xml:space="preserve"> £ </tspan></text></g><path class="bi" d="M1905.351,1273.932V1254.26l22.991.255-18.43,21.181A2.6,2.6,0,0,1,1905.351,1273.932Z" transform="translate(-1268.08 -644.457)"/></g></svg>