<svg xmlns="http://www.w3.org/2000/svg" width="556.091" height="556.453" viewBox="0 0 556.091 556.453"><defs><style>.a{opacity:0.03;}.b{fill:#54529a;}</style></defs><g class="a" transform="matrix(0.891, 0.454, -0.454, 0.891, 187.495, -0.233)"><path class="b" d="M290.291,174.38a44.38,44.38,0,1,0-44.38,44.38A44.43,44.43,0,0,0,290.291,174.38Zm-64.553,0a20.173,20.173,0,1,1,20.173,20.173A20.2,20.2,0,0,1,225.738,174.38Z" transform="translate(-38.815 -25.102)"/><path class="b" d="M413.528,403.63c.254-1.7.15-249.311.035-250.224a12.17,12.17,0,0,0-3.776-7.358c-1.691-1.566-95.557-69.194-106.67-77.3V12.1A12.1,12.1,0,0,0,291.013,0H123.177a12.1,12.1,0,0,0-12.1,12.1V68.741c-11.985,8.744-98.061,70.8-105.656,76.475a12.071,12.071,0,0,0-4.812,8.4C.453,155.025.529,402.3.561,402.727a12.113,12.113,0,0,0,12.07,11.216c416.654,0,390,.353,392.954-.7a12.085,12.085,0,0,0,7.943-9.618Zm-388.793-25.7V178.744L160.22,277.62C154.139,282.087,31.513,372.954,24.735,377.933ZM180.687,262.589l-45.405-33.137V81.275a70.2,70.2,0,0,0,57.035-57.068h29.559c5.044,28.92,27.917,52.149,57.035,57.068V229.452L233.5,262.589,214.26,248.455a12.1,12.1,0,0,0-14.33,0Zm73.285,15.032,135.485-98.877V377.933c-6.779-4.979-129.4-95.846-135.485-100.312ZM381,154.949l-77.88,56.837V98.663c15.765,11.4,33.042,23.734,77.88,56.286ZM278.911,24.207v32.37c-15.82-4.085-28.054-16.86-32.286-32.37Zm-143.629,0h32.286c-4.232,15.51-16.466,28.285-32.286,32.37ZM111.074,98.658V211.786L33.194,154.949C78.065,122.372,94.838,110.4,111.074,98.658ZM49.559,389.736C65.881,377.748,190.537,285.389,207.1,273.228c115.755,85.014,97.675,72.543,157.537,116.509Z"/></g></svg>