<svg xmlns="http://www.w3.org/2000/svg" width="480.006" height="480.003" viewBox="0 0 480.006 480.003"><defs><style>.a{opacity:0.03;}.b{fill:#54529a;}</style></defs><g class="a" transform="translate(0 0.003)"><path class="b" d="M240,112A128,128,0,1,0,368,240,128,128,0,0,0,240,112Zm-55.2,30.664A290.84,290.84,0,0,0,173.406,184.7a261.808,261.808,0,0,0-36.91,12.6,112.626,112.626,0,0,1,48.3-54.633Zm-54.586,75.2a245.94,245.94,0,0,1,40.434-15.8A293.04,293.04,0,0,0,168.3,232h-39.9a110.936,110.936,0,0,1,1.816-14.176ZM128.406,248h39.9a292.617,292.617,0,0,0,2.352,29.977,246.075,246.075,0,0,1-40.434-15.8A110.936,110.936,0,0,1,128.406,248Zm8.1,34.7a262.865,262.865,0,0,0,36.914,12.6A289.811,289.811,0,0,0,184.8,337.336,112.629,112.629,0,0,1,136.5,282.7ZM232,351.594a111.391,111.391,0,0,1-26.551-5.105,273.952,273.952,0,0,1-14.9-47.289A264.685,264.685,0,0,0,232,303.711Zm0-63.891a247.7,247.7,0,0,1-44.664-5.52A276.051,276.051,0,0,1,184.3,248H232Zm0-55.7H184.3a276.05,276.05,0,0,1,3.031-34.184A247.7,247.7,0,0,1,232,192.3Zm0-55.7a263.742,263.742,0,0,0-41.449,4.5,273.956,273.956,0,0,1,14.9-47.289A111.39,111.39,0,0,1,232,128.406ZM351.594,232H311.7a295.218,295.218,0,0,0-2.4-29.992,245.886,245.886,0,0,1,40.488,15.816,110.211,110.211,0,0,1,1.8,14.176Zm-8.1-34.7a260.831,260.831,0,0,0-37.031-12.633,290.113,290.113,0,0,0-11.578-42.2A112.636,112.636,0,0,1,343.5,197.3Zm-95.5-68.9a110.927,110.927,0,0,1,26.191,4.977A273.147,273.147,0,0,1,289.344,180.8,263.345,263.345,0,0,0,248,176.3Zm0,63.891a246.616,246.616,0,0,1,44.6,5.512A276.964,276.964,0,0,1,295.7,232H248Zm26.672,154.145A111.211,111.211,0,0,1,248,351.594V303.711a263.316,263.316,0,0,0,41.527-4.527,273.584,273.584,0,0,1-14.855,47.258ZM248,287.7V248h47.734a274.271,274.271,0,0,1-3.008,34.168A246.572,246.572,0,0,1,248,287.7Zm47.32,49.555a289.363,289.363,0,0,0,11.352-41.977,262.5,262.5,0,0,0,36.8-12.578,112.543,112.543,0,0,1-48.152,54.555Zm54.457-75.082a246.414,246.414,0,0,1-40.359,15.785A291.235,291.235,0,0,0,311.727,248h39.867a110.937,110.937,0,0,1-1.816,14.176Zm0,0"/><path class="b" d="M337.07,459.543c5-2.207,10.02-4.641,14.891-7.2L344.488,438.2c-4.551,2.4-9.223,4.664-13.895,6.738Zm0,0"/><path class="b" d="M286.609,459.152c-5.016,1.047-10.129,1.953-15.2,2.664l2.219,15.84c5.43-.762,10.91-1.719,16.285-2.848Zm0,0"/><path class="b" d="M225.16,463.512c-5.121-.336-10.289-.848-15.367-1.527l-2.129,15.855c5.441.727,10.977,1.289,16.449,1.648Zm0,0"/><path class="b" d="M21.375,140.8l14.578,6.625c2.117-4.684,4.43-9.336,6.863-13.84l-14.074-7.609c-2.605,4.855-5.078,9.848-7.367,14.824Zm0,0"/><path class="b" d="M159.488,466.168l5.367-15.078c-4.8-1.707-9.6-3.617-14.4-5.691l-6.4,14.672c5.105,2.211,10.289,4.258,15.434,6.1Zm0,0"/><path class="b" d="M19.023,333.8l14.73-6.258c-2.02-4.734-3.883-9.6-5.539-14.4L13.1,318.36c1.773,5.168,3.766,10.359,5.926,15.441Zm0,0"/><path class="b" d="M1.871,270.113l15.871-1.984c-.629-5.074-1.094-10.25-1.383-15.375l-16,.887c.328,5.5.832,11.039,1.512,16.473Zm0,0"/><path class="b" d="M2.664,204.145l15.824,2.4c.758-5.055,1.7-10.168,2.816-15.2L5.68,187.864c-1.184,5.375-2.2,10.855-3.016,16.281Zm0,0"/><path class="b" d="M128,416a64,64,0,1,0-64,64A64,64,0,0,0,128,416ZM64,464a48,48,0,1,1,48-48A48,48,0,0,1,64,464Zm0,0"/><path class="b" d="M480,64A63.961,63.961,0,0,0,360.359,32.488,239.659,239.659,0,0,0,66.214,74.48q-4.9,5.15-9.52,10.6L68.921,95.406q4.295-5.08,8.879-9.887L72,80l5.793,5.512a223.727,223.727,0,0,1,276.453-38.07,63.779,63.779,0,0,0,78.313,78.313A223.711,223.711,0,0,1,394.48,402.207c-3.711,3.547-7.6,6.992-11.535,10.258L393.16,424.8c4.215-3.5,8.375-7.2,12.359-11A239.672,239.672,0,0,0,447.5,119.649,64,64,0,0,0,480,64Zm-64,48a48,48,0,1,1,48-48A48,48,0,0,1,416,112Zm0,0"/><path class="b" d="M68.84,400H72a8,8,0,0,0,0-16H68.84a32,32,0,0,0,0,64H72a8,8,0,0,0,0-16H68.84a16,16,0,0,1-13.312-7.129c-.176-.27-.246-.59-.406-.871H72a8,8,0,0,0,0-16H55.121c.16-.281.23-.6.406-.871A16,16,0,0,1,68.84,400Zm0,0"/><path class="b" d="M428.426,61.266l-17.691-8.8a4.946,4.946,0,0,1,0-8.848,11.848,11.848,0,0,1,10.539,0l7.16,3.582a8,8,0,0,0,7.152-14.32l-7.2-3.574a27.9,27.9,0,0,0-24.8,0,20.952,20.952,0,0,0,0,37.473l17.688,8.8a4.949,4.949,0,0,1,0,8.852,11.873,11.873,0,0,1-10.539,0l-7.16-3.586a8,8,0,1,0-7.148,14.32l7.2,3.574a27.933,27.933,0,0,0,24.8,0,20.952,20.952,0,0,0,0-37.469Zm0,0"/></g></svg>