<svg xmlns="http://www.w3.org/2000/svg" xmlns:xlink="http://www.w3.org/1999/xlink" width="472.575" height="470.323" viewBox="0 0 472.575 470.323"><defs><style>.a{fill:url(#a);}.b{fill:none;stroke:#707070;}.c{fill:#bdd0fb;}.d,.g,.i,.k,.l,.o{fill:#fff;}.d{opacity:0.43;}.e{fill:#91b3fa;}.f{fill:#7d97f4;}.g{opacity:0.15;}.h{opacity:0.68;}.i{mix-blend-mode:soft-light;isolation:isolate;}.j{fill:url(#d);}.l{opacity:0.8;}.m{fill:url(#f);}.n{fill:url(#g);}.o{opacity:0.78;}.p{fill:url(#h);}.q{fill:url(#j);}.r{fill:url(#l);}.s{fill:url(#m);}.t{fill:url(#n);}.u{fill:url(#o);}.v{fill:url(#p);}.w{fill:url(#q);}.x{fill:url(#r);}.y{fill:url(#s);}.z{fill:url(#t);}.aa{fill:url(#u);}.ab{fill:url(#v);}.ac{fill:url(#w);}.ad{fill:url(#x);}.ae{fill:url(#y);}.af{fill:url(#z);}.ag{fill:url(#aa);}.ah{fill:url(#ab);}.ai,.ak,.al{fill:#ff7b69;font-family:LEMONMILK-Medium, LEMON MILK;font-weight:500;}.ai{font-size:41px;}.aj{font-size:1px;font-family:MyriadPro-Regular, Myriad Pro;}.ak{font-size:42px;}.al{font-size:25px;}.am{filter:url(#b);}</style><linearGradient id="a" x1="1.091" y1="1.163" x2="0.386" y2="0.408" gradientUnits="objectBoundingBox"><stop offset="0" stop-color="#c52b7c"/><stop offset="1" stop-color="#6f47b7"/></linearGradient><filter id="b" x="0" y="0" width="472.575" height="470.323" filterUnits="userSpaceOnUse"><feOffset dy="15" input="SourceAlpha"/><feGaussianBlur stdDeviation="20" result="c"/><feFlood flood-color="#d22d60" flood-opacity="0.4"/><feComposite operator="in" in2="c"/><feComposite in="SourceGraphic"/></filter><linearGradient id="d" y1="0.5" x2="1" y2="0.5" gradientUnits="objectBoundingBox"><stop offset="0" stop-color="#4f52ff"/><stop offset="1" stop-color="#4042e2"/></linearGradient><linearGradient id="f" x1="1.178" y1="-0.413" x2="1.037" y2="-0.223" gradientUnits="objectBoundingBox"><stop offset="0" stop-color="#ff928e"/><stop offset="1" stop-color="#fe7062"/></linearGradient><linearGradient id="g" x1="0.878" y1="-0.071" x2="-1.173" y2="3.028" xlink:href="#f"/><linearGradient id="h" x1="0.953" y1="-0.752" x2="0.834" y2="-0.422" xlink:href="#f"/><linearGradient id="j" x1="0.731" y1="-0.548" x2="0.684" y2="-0.338" xlink:href="#f"/><linearGradient id="l" x1="-10.454" y1="-0.346" x2="-10.09" y2="0.297" gradientUnits="objectBoundingBox"><stop offset="0" stop-color="#09005d"/><stop offset="1" stop-color="#1a0f91"/></linearGradient><linearGradient id="m" x1="-8.669" y1="0.32" x2="-8.117" y2="1.397" gradientUnits="objectBoundingBox"><stop offset="0" stop-color="#febbba"/><stop offset="1" stop-color="#ff928e"/></linearGradient><linearGradient id="n" x1="-33.848" y1="0.5" x2="-32.848" y2="0.5" xlink:href="#d"/><linearGradient id="o" x1="-24.177" y1="1.602" x2="-23.142" y2="-1.187" xlink:href="#m"/><linearGradient id="p" x1="-20.919" y1="0.5" x2="-19.919" y2="0.5" xlink:href="#d"/><linearGradient id="q" x1="-10.592" y1="1.698" x2="-10.129" y2="-1.193" xlink:href="#m"/><linearGradient id="r" x1="2.198" y1="-0.523" x2="1.173" y2="0.1" xlink:href="#f"/><linearGradient id="s" x1="-7.962" y1="-0.331" x2="-8.947" y2="0.684" xlink:href="#d"/><linearGradient id="t" x1="-31.685" y1="1.857" x2="-31.431" y2="0.807" xlink:href="#m"/><linearGradient id="u" x1="-23.107" y1="1.596" x2="-21.574" y2="-0.658" xlink:href="#m"/><linearGradient id="v" x1="-18.82" y1="-0.055" x2="-18.189" y2="1.348" xlink:href="#l"/><linearGradient id="w" x1="-89.028" y1="4.296" x2="-83.235" y2="-2.845" xlink:href="#m"/><linearGradient id="x" x1="-24.582" y1="1.636" x2="-22.992" y2="4.642" xlink:href="#m"/><linearGradient id="y" x1="-54.991" y1="0.5" x2="-53.991" y2="0.5" xlink:href="#m"/><linearGradient id="z" x1="-13.1" y1="-2.7" x2="-13.84" y2="-0.237" xlink:href="#l"/><linearGradient id="aa" x1="-9.923" y1="0.133" x2="-10.321" y2="0.802" xlink:href="#l"/><linearGradient id="ab" x1="-14.559" y1="1.009" x2="-12.735" y2="0.359" xlink:href="#m"/></defs><g transform="translate(-157.846 424.738)"><g transform="translate(-249.886 -845.604)"><g class="am" transform="matrix(1, 0, 0, 1, 407.73, 420.87)"><path class="a" d="M777.887,796.368a134.807,134.807,0,0,1-23.676,19.218c-61.316,40.941-131.406,29.141-153.076,25.108-34.962-6.507-64.475-11.1-89.832-34.007-57.619-52.056-54.816-160.649-10.788-227.918,5.22-7.976,49.181-73.14,119.424-82.322,1.718-.225,3-.352,4.123-.471,10.866-1.15,78.2-7.223,133.109,38.778a163.8,163.8,0,0,1,32.237,36.576C832.293,637.564,832.429,740.148,777.887,796.368Z" transform="translate(-407.73 -450.08)"/></g><path class="b" d="M777.887,796.368a134.807,134.807,0,0,1-23.676,19.218c-61.316,40.941-131.406,29.141-153.076,25.108-34.962-6.507-64.475-11.1-89.832-34.007-57.619-52.056-54.816-160.649-10.788-227.918,5.22-7.976,49.181-73.14,119.424-82.322,1.718-.225,3-.352,4.123-.471,10.866-1.15,78.2-7.223,133.109,38.778a163.8,163.8,0,0,1,32.237,36.576C832.293,637.564,832.429,740.148,777.887,796.368Z" transform="translate(20 -49.214)"/><g transform="translate(471.014 461.605)"><g transform="translate(0 24.812)"><path class="c" d="M540.854,657.264a1.694,1.694,0,0,1,3.107,1.072c-1.544,16.96-4.2,61.56,7.021,90.045,18.272,46.379,17.856,110.218-13.289,131.486C537.693,879.867,436.211,818.163,540.854,657.264Z" transform="translate(-493.512 -656.491)"/><path class="d" d="M755.261,841.882c-.152.516-.237.953-.348,1.42l-.3,1.383-.567,2.769c-.365,1.848-.7,3.7-1.039,5.554q-.99,5.562-1.854,11.146c-1.146,7.445-2.09,14.92-2.921,22.408s-1.474,15-1.948,22.519-.827,15.052-.939,22.591a361.83,361.83,0,0,0,1.941,45.178c.894,7.491,1.984,14.962,3.505,22.354a195.835,195.835,0,0,0,5.875,21.838.3.3,0,0,0,.566-.179v0A218.791,218.791,0,0,1,752,998.965c-1.394-7.375-2.357-14.823-3.126-22.286s-1.228-14.96-1.522-22.46-.272-15.013-.21-22.521c.187-15.02,1.177-30.024,2.577-44.986q1.074-11.221,2.582-22.4.741-5.589,1.6-11.161l.9-5.564.481-2.776.255-1.384c.091-.452.181-.939.277-1.331l.016-.065a.294.294,0,0,0-.568-.153Z" transform="translate(-713.232 -818.094)"/></g><g transform="translate(29.404 0)"><path class="e" d="M787.375,462.173a1.621,1.621,0,0,1,2.809,1.415c-3.643,15.882-11.891,57.826-4.911,86.274,11.366,46.32,2.771,106.791-29.489,122.956C755.783,672.818,667.494,601.281,787.375,462.173Z" transform="translate(-724.461 -461.605)"/><path class="d" d="M984.752,630.911c-.211.47-.347.874-.513,1.3l-.462,1.272-.894,2.552c-.584,1.705-1.142,3.418-1.7,5.132q-1.654,5.146-3.191,10.328c-2.044,6.911-3.9,13.878-5.651,20.87s-3.326,14.03-4.741,21.1-2.718,14.165-3.793,21.3a345.959,345.959,0,0,0-3.961,43.084c-.114,7.217-.039,14.441.455,21.645a187.153,187.153,0,0,0,2.771,21.46.289.289,0,0,0,.57-.1v0a209.583,209.583,0,0,1-2.145-21.428c-.373-7.171-.329-14.356-.1-21.53s.758-14.341,1.443-21.489,1.672-14.268,2.694-21.378c2.106-14.216,4.972-28.314,8.219-42.319q2.458-10.5,5.322-20.9,1.419-5.2,2.944-10.378l1.571-5.159.812-2.57.42-1.279c.144-.417.292-.868.433-1.226l.024-.061a.287.287,0,0,0-.529-.222Z" transform="translate(-929.837 -609.208)"/></g></g><g transform="translate(474.79 487.29)"><ellipse class="f" cx="157.251" cy="169.737" rx="157.251" ry="169.737" transform="translate(0 314.2) rotate(-87.486)"/><ellipse class="g" cx="133.191" cy="125.823" rx="133.191" ry="125.823" transform="translate(34.093 27.376)"/><g class="h" transform="translate(22.089 11.375)"><path class="i" d="M1654.327,912.436c-.041,27.735-1.943,55.526-6.83,82.868-1.237,6.83-2.672,13.627-4.381,20.359a196.2,196.2,0,0,1-6.117,19.924,94.436,94.436,0,0,1-9.126,18.779,37.5,37.5,0,0,1-6.849,7.989,19.516,19.516,0,0,1-4.484,2.89,13.433,13.433,0,0,1-5.234,1.233,13.2,13.2,0,0,1-5.291-.973,18.341,18.341,0,0,1-4.588-2.731,35.61,35.61,0,0,1-7-7.864,91.365,91.365,0,0,1-9.258-18.714,191.7,191.7,0,0,1-6.182-19.9c-1.726-6.728-3.175-13.522-4.423-20.35-2.49-13.658-4.188-27.448-5.334-41.275s-1.708-27.7-1.778-41.58c-.034-6.937.155-13.873.4-20.8s.642-13.859,1.152-20.776c1.026-13.834,2.559-27.637,4.837-41.326,1.143-6.843,2.476-13.657,4.079-20.411a196.24,196.24,0,0,1,5.793-20c1.165-3.273,2.438-6.512,3.89-9.674a70.65,70.65,0,0,1,4.98-9.178A34.208,34.208,0,0,1,1599.43,763a17.481,17.481,0,0,1,4.526-2.711,12.767,12.767,0,0,1,5.2-.924,13.8,13.8,0,0,1,5.142,1.2,20.082,20.082,0,0,1,4.469,2.789,38.151,38.151,0,0,1,6.992,7.777,93.661,93.661,0,0,1,9.59,18.495,189.714,189.714,0,0,1,6.573,19.761c1.851,6.691,3.418,13.458,4.775,20.263C1652.067,856.9,1654.247,884.7,1654.327,912.436Zm-2.053,0c.026-13.82-.5-27.643-1.648-41.414a398.828,398.828,0,0,0-5.4-41.082c-1.276-6.789-2.762-13.539-4.531-20.215a188.5,188.5,0,0,0-6.317-19.71,92.748,92.748,0,0,0-9.29-18.412,37.4,37.4,0,0,0-6.765-7.7,19.4,19.4,0,0,0-4.286-2.742,12.826,12.826,0,0,0-4.894-1.194,12.023,12.023,0,0,0-4.938.929,16.8,16.8,0,0,0-4.319,2.654,33.462,33.462,0,0,0-6.6,7.81,69.764,69.764,0,0,0-4.817,9.116c-1.4,3.146-2.631,6.372-3.752,9.633a195.138,195.138,0,0,0-5.54,19.945c-1.522,6.737-2.775,13.535-3.839,20.362-2.12,13.657-3.5,27.426-4.368,41.22s-1.184,27.623-1.159,41.444q-.055,20.728,1.452,41.423c1.035,13.779,2.621,27.524,4.994,41.133,1.189,6.8,2.578,13.572,4.242,20.271a190.352,190.352,0,0,0,5.982,19.8,90.132,90.132,0,0,0,8.976,18.511,34.449,34.449,0,0,0,6.7,7.652,17.216,17.216,0,0,0,4.283,2.6,11.816,11.816,0,0,0,4.844.921,12.321,12.321,0,0,0,4.8-1.173,18.384,18.384,0,0,0,4.2-2.755,36.337,36.337,0,0,0,6.559-7.784,93.159,93.159,0,0,0,8.842-18.581,194.676,194.676,0,0,0,5.911-19.818c1.645-6.7,3.018-13.475,4.2-20.28,2.357-13.612,3.923-27.358,4.964-41.137S1652.28,926.258,1652.274,912.436Z" transform="translate(-1456.583 -758.507)"/><path class="i" d="M1183.37,906.617a202.183,202.183,0,0,1-7.173,52.953,170.49,170.49,0,0,1-22.154,48.558,139.837,139.837,0,0,1-16.921,20.721,118.688,118.688,0,0,1-20.829,16.768,100.415,100.415,0,0,1-24.3,11.112,90.9,90.9,0,0,1-52.846.023,100.447,100.447,0,0,1-24.322-11.094,118.811,118.811,0,0,1-20.858-16.756,139.941,139.941,0,0,1-16.954-20.717A170.736,170.736,0,0,1,954.8,959.61a192.331,192.331,0,0,1-5.378-26.255,197.412,197.412,0,0,1,.017-53.474,192.194,192.194,0,0,1,5.4-26.247,170.672,170.672,0,0,1,22.242-48.542A139.868,139.868,0,0,1,994.031,784.4a118.415,118.415,0,0,1,20.851-16.726,100.843,100.843,0,0,1,24.3-11.053,90.257,90.257,0,0,1,52.763.022,100.778,100.778,0,0,1,24.284,11.073,118.319,118.319,0,0,1,20.823,16.739,139.766,139.766,0,0,1,16.923,20.7,170.418,170.418,0,0,1,22.184,48.524A202.169,202.169,0,0,1,1183.37,906.617Zm-2.353,0a199.943,199.943,0,0,0-6.884-52.38,169.738,169.738,0,0,0-21.45-48.225,138.341,138.341,0,0,0-16.538-20.66,115.563,115.563,0,0,0-20.458-16.774,98.841,98.841,0,0,0-23.994-11.092,88.022,88.022,0,0,0-52.238.022,98.776,98.776,0,0,0-23.974,11.111,115.476,115.476,0,0,0-20.429,16.786,138.271,138.271,0,0,0-16.506,20.665,169.479,169.479,0,0,0-21.392,48.207,193.653,193.653,0,0,0-5.143,25.944,201.776,201.776,0,0,0,.017,52.787,193.532,193.532,0,0,0,5.162,25.937,169.415,169.415,0,0,0,21.422,48.174,138.164,138.164,0,0,0,16.508,20.642,115.084,115.084,0,0,0,20.423,16.757,99.164,99.164,0,0,0,23.955,11.07,87.405,87.405,0,0,0,52.155.023,99.21,99.21,0,0,0,23.974-11.052,115.207,115.207,0,0,0,20.452-16.744,138.277,138.277,0,0,0,16.54-20.637,169.656,169.656,0,0,0,21.48-48.192A199.92,199.92,0,0,0,1181.017,906.617Z" transform="translate(-915.66 -752.688)"/><path class="i" d="M793.381,1478.959l35.377-.286,35.377-.162,70.754-.131,70.754.144,35.377.177,35.377.308a.1.1,0,0,1,0,.208l-35.377.309-35.377.177-70.754.144-70.754-.131-35.377-.162-35.377-.286a.155.155,0,0,1,0-.309Z" transform="translate(-780.934 -1385.988)"/><path class="i" d="M1115.744,1013.561c8.372-.133,16.744-.19,25.117-.286l25.116-.162c8.372-.069,16.744-.062,25.117-.083l25.116-.048,50.233.144,25.116.177c8.372.1,16.744.166,25.117.308a.1.1,0,0,1,0,.208c-8.372.142-16.744.2-25.117.308l-25.116.177-50.233.144-25.116-.048c-8.372-.021-16.744-.014-25.117-.083l-25.116-.162c-8.372-.1-16.744-.153-25.117-.286a.155.155,0,0,1,0-.31Z" transform="translate(-1062.255 -979.843)"/><path class="i" d="M696.82,1944.357l38.45-.285,38.45-.163,76.9-.131,76.9.144,38.45.177,38.45.308a.1.1,0,0,1,0,.208l-38.45.308-38.45.177-76.9.144-76.9-.131-38.45-.163-38.45-.285a.155.155,0,0,1,0-.309Z" transform="translate(-696.666 -1792.132)"/><path class="i" d="M793.381,2409.754l35.377-.286,35.377-.162,70.754-.131,70.754.144,35.377.177,35.377.309a.1.1,0,0,1,0,.208l-35.377.309-35.377.177-70.754.144-70.754-.131-35.377-.162-35.377-.286a.155.155,0,0,1,0-.309Z" transform="translate(-780.934 -2198.277)"/><path class="i" d="M1353.763,2877.158H1152.831a.542.542,0,1,1,0-1.085h200.932a.542.542,0,1,1,0,1.085Z" transform="translate(-1094.28 -2605.73)"/></g></g><g transform="translate(632.034 515.581)"><g transform="translate(0 0)"><circle class="j" cx="25.966" cy="25.966" r="25.966" transform="translate(0 36.721) rotate(-45)"/><path class="j" d="M1894.262,1157.8h-51.884s-2.067,14.746,21.107,54.221a5.766,5.766,0,0,0,4.856,2.919,5.832,5.832,0,0,0,4.859-2.984C1896.371,1172.478,1894.262,1157.8,1894.262,1157.8Z" transform="translate(-1831.623 -1123.139)"/><g transform="translate(9.954 10.296)"><path class="k" d="M1863.586,1048.943v.172h-.41a6.452,6.452,0,0,1-5.505-3.191c-13.546-23.074-18.51-37.671-20.288-45.835a26.217,26.217,0,0,1-.89-5.61,13.068,13.068,0,0,1-.023-2.832l.068-.416a26.718,26.718,0,0,1,53.317.264,11.72,11.72,0,0,1,.043,1.431v.1a26.759,26.759,0,0,1-1.071,7.508c-1.839,8.157-6.624,22.6-19.939,45.288A6.2,6.2,0,0,1,1863.586,1048.943ZM1837.922,992.5c-.006,0,.005,1.012.074,1.849l0,.031a24.622,24.622,0,0,0,.845,5.309l.009.038c1.752,8.053,6.664,22.464,20.119,45.384a5.234,5.234,0,0,0,4.409,2.394l.206.754v-.754a6.338,6.338,0,0,0,4.235-2.412c13.23-22.54,18.328-36.865,20.031-44.912v-.047a39.177,39.177,0,0,0,.722-7.107l-.3-.106v-.009c0-.752.033-1.158.021-1.265l.025-.044a25.2,25.2,0,0,0-50.318.2l-.033.7Z" transform="translate(-1836.413 -966.428)"/></g><circle class="l" cx="14.993" cy="14.993" r="14.993" transform="translate(15.601 36.637) rotate(-45)"/><g transform="translate(20.974 20.807)"><path class="e" d="M1938.8,1080.641a15.831,15.831,0,1,1,15.831-15.831A15.849,15.849,0,0,1,1938.8,1080.641Zm0-29.986a14.156,14.156,0,1,0,14.155,14.156A14.172,14.172,0,0,0,1938.8,1050.655Z" transform="translate(-1922.966 -1048.98)"/></g></g><g transform="translate(22.331 14.976)"><path class="e" d="M1933.874,1009.234a.251.251,0,0,1-.164-.442,23.267,23.267,0,0,1,15.152-5.609.251.251,0,0,1,0,.5,22.766,22.766,0,0,0-14.825,5.488A.25.25,0,0,1,1933.874,1009.234Z" transform="translate(-1933.623 -1003.183)"/></g><g transform="translate(14.302 25.877)"><path class="e" d="M1870.815,1101.424a.251.251,0,0,1-.251-.251,23.213,23.213,0,0,1,3.481-12.248.251.251,0,1,1,.427.265,22.711,22.711,0,0,0-3.406,11.984A.251.251,0,0,1,1870.815,1101.424Z" transform="translate(-1870.564 -1088.806)"/></g></g><circle class="m" cx="27.693" cy="27.693" r="27.693" transform="translate(672.874 512.358) rotate(-45)"/><circle class="n" cx="26.772" cy="26.772" r="26.772" transform="translate(674.176 512.358) rotate(-45)"/><path class="o" d="M2209.117,676.229a.6.6,0,0,1-.533-.866,25.2,25.2,0,0,1,22.609-13.921,25.556,25.556,0,0,1,4.566.411.6.6,0,0,1-.214,1.175,24.349,24.349,0,0,0-4.352-.391,24.016,24.016,0,0,0-21.543,13.264A.6.6,0,0,1,2209.117,676.229Z" transform="translate(-1519.156 -174.395)"/><circle class="o" cx="22.659" cy="22.659" r="22.659" transform="translate(680.576 512.942) rotate(-45)"/><g transform="translate(751.618 501.195)"><circle class="p" cx="22.556" cy="22.556" r="22.556" transform="translate(0 31.899) rotate(-45)"/><circle class="n" cx="21.806" cy="21.806" r="21.806" transform="translate(1.061 31.899) rotate(-45)"/><path class="o" d="M2802.384,872.3a.645.645,0,0,1-.575-.936,20.687,20.687,0,0,1,18.557-11.426,20.945,20.945,0,0,1,3.747.337.645.645,0,0,1-.232,1.27,19.651,19.651,0,0,0-3.516-.316,19.4,19.4,0,0,0-17.405,10.717A.645.645,0,0,1,2802.384,872.3Z" transform="translate(-2788.467 -848.818)"/><circle class="o" cx="18.456" cy="18.456" r="18.456" transform="translate(6.273 32.374) rotate(-45)"/></g><circle class="q" cx="33.789" cy="33.789" r="33.789" transform="translate(690.965 571.449) rotate(-45)"/><circle class="n" cx="32.666" cy="32.666" r="32.666" transform="translate(692.554 571.449) rotate(-45)"/><path class="o" d="M2379.994,1099.969a.708.708,0,0,1-.631-1.027,30.733,30.733,0,0,1,27.568-16.973,31.166,31.166,0,0,1,5.567.5.708.708,0,0,1-.254,1.394,29.735,29.735,0,0,0-5.313-.478,29.324,29.324,0,0,0-26.3,16.2A.708.708,0,0,1,2379.994,1099.969Z" transform="translate(-1668.18 -541.381)"/><circle class="o" cx="27.647" cy="27.647" r="27.647" transform="translate(700.362 572.161) rotate(-45)"/><g transform="translate(668.534 608.694)"><path class="r" d="M2539.494,1756.743s4.211,2.048,4.986,4.4c.621,1.888,5.278,2.131,5.738,5.845a4.261,4.261,0,0,0,3.566,3.745c4.756.729,12.085,3.2,13.258,11.456.9,6.3-2.318,8.693-5.69,9.52a4.777,4.777,0,0,0-3.622,5.517c.481,2.4-.236,5.171-4.391,7.363-9.311,4.913-18.608-11.639-18.608-11.639l-1.906-28.9Z" transform="translate(-2470.705 -1738.939)"/><path class="s" d="M2179.609,1702.929s18.59,29.4,40.695,35.083c0,0-4.307,12.268-7.632,13.672,0,0-27.2-22.692-34.185-44.577Z" transform="translate(-2161.48 -1691.976)"/><path class="t" d="M2885.709,3167.071l.6,4.953a2.046,2.046,0,0,0,1.794,1.79,31.68,31.68,0,0,0,6.629.1,1.752,1.752,0,0,0,1.471-2.272,18.044,18.044,0,0,0-3.323-6.471h-5.494A1.692,1.692,0,0,0,2885.709,3167.071Z" transform="translate(-2778.65 -2968.053)"/><path class="u" d="M2519.493,2724.355l-.927,5.455s3.105,31.457,3.658,44.04a9.858,9.858,0,0,1-1.459,5.6l-5.4,8.769,13.724-8.1.273-1.675-2.247-3.089,2.943-35.24a10.813,10.813,0,0,0-1.23-5.98l-2.839-5.333Z" transform="translate(-2455.467 -2583.357)"/><path class="v" d="M2500.327,3146.722h4.38a2.637,2.637,0,0,0,2.093-1.026c1.365-1.774,4.194-5.235,5.547-5.326,1.821-.122,1.588,6.352,1.588,6.352h1.021l1.293-8.044a4.761,4.761,0,0,0-2.5-4.977s-.416,3.078-2.673,4.44-9.185,6.238-9.185,6.238a6.253,6.253,0,0,0-1.78.047A1.158,1.158,0,0,0,2500.327,3146.722Z" transform="translate(-2441.334 -2940.586)"/><path class="w" d="M2695.435,2729.167s18.193,34.511,21.085,42.39a75.683,75.683,0,0,1,3.944,15.075c.061.972,1.271,1.905,4.6,1.905a3.2,3.2,0,0,0,2.977-1.357,1.945,1.945,0,0,0,.073-1.883c-1.052-2.13-4.392-8.936-5.629-12.023-1.477-3.686-4.654-20.389-6.4-26.2s-3.711-12.107-11.3-17.91C2704.8,2729.167,2699.589,2724.065,2695.435,2729.167Z" transform="translate(-2612.612 -2585.578)"/><path class="x" d="M2429.717,2015.337c-4.693-19.886,7.2-31.134,7.2-31.134-7.5-7.2-21.17-10.477-21.17-10.477s-13.042,9.535-11.495,17c.907,4.374,9.167,26.2,9.167,26.2A18.149,18.149,0,0,0,2429.717,2015.337Z" transform="translate(-2358.387 -1928.296)"/><path class="y" d="M2497.344,2310.4c-1.91-5.754-10.405-9.845-10.405-9.845a18.149,18.149,0,0,1-16.3,1.588,32.7,32.7,0,0,0-.531,12.633c1.182,6.085,8.6,45.191,8.6,45.191,11.688,2.368,29.664-2.383,29.664-2.383C2500.926,2344.368,2499.253,2316.155,2497.344,2310.4Z" transform="translate(-2415.608 -2213.515)"/><path class="z" d="M2511.833,1859.305l3.815,17.139c.365,1.51-1.011,1.263-2.537.975-2.5-.471-5.721-1.442-6.8-3.387a1.842,1.842,0,0,1-.2-.646l-1.639-11.884a2.135,2.135,0,0,1,1.25-2.244l3.163-1.4A2.135,2.135,0,0,1,2511.833,1859.305Z" transform="translate(-2445.95 -1827.017)"/><g transform="translate(52.231 10.057)"><path class="aa" d="M2461.5,1743.607s-4.062,2.75-5.808,9.752,1.091,9.514,4,9.36,7.123-1.053,10.776-6.077S2466.822,1740.247,2461.5,1743.607Z" transform="translate(-2455.156 -1737)"/><path class="ab" d="M2476.448,1712.716s1.489-10.034-6.842-8.5l-1.684,1.754s-4.078-4.592.435-8.063,10.775-2.582,14.239,3.737,4.722,10.76,1.818,14.687-5.088.559-5.088.559,1.332-3.4.227-4.857-2.531.848-2.531.848Z" transform="translate(-2464.821 -1695.898)"/><path class="ac" d="M2555.42,1807.657s.735-5.162,3.371-3.687-.95,4.822-2.388,5.961Z" transform="translate(-2542.655 -1789.98)"/></g><g transform="translate(6.661 0)"><path class="ad" d="M2108.827,1633.909c-.056.607,2.2,1.026,2.917-1.56-.2-1.123-.548-6.039-1.409-6.8-4.584-4.068-12.759-8.644-12.759-8.644a1.672,1.672,0,0,0,.285,2.315l4.081,2.754a16.5,16.5,0,0,0-1.117,4.266,4.776,4.776,0,0,0,1.206,3.337c.812.928,1.905,2.126,2.891,3.036A4.717,4.717,0,0,0,2108.827,1633.909Z" transform="translate(-2097.232 -1616.903)"/><path class="ae" d="M2146.5,1677.173l.624-.257c-.083-.2-2.041-4.96-2.988-5.95a1.432,1.432,0,0,1-.518-.957.68.68,0,0,1,.209-.42l3.3,1.766,1.458,2.284.568-.364-1.553-2.432-3.868-2.068-.175.142a1.466,1.466,0,0,0-.617,1.051,2.006,2.006,0,0,0,.7,1.465C2144.361,1672.178,2145.948,1675.829,2146.5,1677.173Z" transform="translate(-2137.122 -1662.171)"/></g><g transform="translate(0 66.91)"><path class="af" d="M2327.134,2362.022l-.078,0-34.087-.037a1.51,1.51,0,1,1,0-3.019l34.087.037a1.509,1.509,0,0,1,.075,3.018Z" transform="translate(-2260.056 -2331.4)"/><path class="ag" d="M2047.18,2142.441h28.388a5.415,5.415,0,0,1,4.894,3.07l13.124,27.534h-35.279a3.288,3.288,0,0,1-3.058-2.058l-10.177-25.479A2.246,2.246,0,0,1,2047.18,2142.441Z" transform="translate(-2044.911 -2142.441)"/><ellipse class="f" cx="2.234" cy="3.601" rx="2.234" ry="3.601" transform="translate(16.891 12.075) rotate(-18.242)"/></g><path class="ah" d="M2494.679,2056.341c4.651,4.693,10.552,25.5,7.625,28.971-2.578,4.045-11.355,9.551-19.713,9.559h-12.332c5.182-5.506,8.75-6.9,13-3.052,3.372-1.441,7.744-7.022,10.662-9.513a3.111,3.111,0,0,0,.65-3.944c-2.318-3.925-5.226-7.96-6.15-11.868C2488.221,2061.913,2491.61,2056.672,2494.679,2056.341Z" transform="translate(-2416.104 -2000.393)"/></g><text class="ai" transform="translate(683.88 529.107) rotate(1.63)"><tspan x="0" y="0" xml:space="preserve"> ¥ </tspan></text><text class="aj" transform="translate(586.18 626.652)"><tspan x="0" y="0">¥</tspan></text><text class="ak" transform="translate(706.468 587.388) rotate(1.63)"><tspan x="0" y="0" xml:space="preserve"> € </tspan></text><text class="al" transform="translate(767.824 543.24) rotate(1.63)"><tspan x="0" y="0" xml:space="preserve"> $ </tspan></text></g></g></svg>