<svg xmlns="http://www.w3.org/2000/svg" xmlns:xlink="http://www.w3.org/1999/xlink" width="450" height="444.7" viewBox="0 0 450 444.7"><defs><style>.a{fill:url(#a);}.b{fill:none;stroke:#707070;}.c{fill:#bdd0fb;}.aa,.ab,.am,.d,.m{fill:#fff;}.d{mix-blend-mode:soft-light;}.al,.d{isolation:isolate;}.e,.h{fill:#7d97f4;}.f{fill:url(#d);}.g{fill:url(#e);}.h{opacity:0.24;}.i{fill:#1f5aa9;}.j{fill:url(#f);}.k{fill:#91b3fa;}.l{fill:url(#g);}.n{fill:url(#h);}.o{fill:url(#i);}.p{fill:url(#j);}.q{fill:url(#k);}.r{fill:url(#l);}.s{fill:url(#m);}.t{fill:url(#o);}.u{fill:url(#p);}.v{fill:url(#q);}.w{fill:url(#r);}.x{fill:url(#s);}.y{fill:url(#t);}.z{fill:url(#u);}.aa{opacity:0.7;}.ab{opacity:0.78;}.ac{fill:url(#w);}.ad,.ae{fill:#ff7b69;}.ad{font-size:30px;}.ad,.ae,.am{font-family:LEMONMILK-Medium, LEMON MILK;font-weight:500;}.ae{font-size:42px;}.af{fill:url(#x);}.ag{fill:url(#y);}.ah{fill:url(#z);}.ai{fill:url(#aa);}.aj{fill:url(#ab);}.ak{fill:url(#ac);}.al{opacity:0.2;mix-blend-mode:multiply;fill:url(#ad);}.am{font-size:34px;}.an{fill:url(#ae);}.ao{fill:url(#af);}.ap{fill:url(#ag);}.aq{fill:url(#ah);}.ar{fill:url(#ai);}.as{fill:url(#aj);}.at{fill:url(#ak);}.au{fill:url(#al);}.av{fill:url(#am);}.aw{fill:url(#an);}.ax{fill:url(#ao);}.ay{fill:url(#ap);}.az{fill:url(#aq);}.ba{fill:url(#ar);}.bb{fill:url(#as);}.bc{fill:url(#at);}.bd{fill:url(#au);}.be{filter:url(#b);}</style><linearGradient id="a" x1="1.123" y1="1.302" x2="0.239" y2="0.188" gradientUnits="objectBoundingBox"><stop offset="0" stop-color="#c52b7c"/><stop offset="1" stop-color="#6f47b7"/></linearGradient><filter id="b" x="0" y="0" width="450" height="444.7" filterUnits="userSpaceOnUse"><feOffset dy="15" input="SourceAlpha"/><feGaussianBlur stdDeviation="15" result="c"/><feFlood flood-color="#d22d60" flood-opacity="0.4"/><feComposite operator="in" in2="c"/><feComposite in="SourceGraphic"/></filter><linearGradient id="d" x1="-0.056" y1="0.525" x2="0.94" y2="0.525" gradientUnits="objectBoundingBox"><stop offset="0" stop-color="#09005d"/><stop offset="1" stop-color="#1a0f91"/></linearGradient><linearGradient id="e" x1="0.882" y1="0.006" x2="-0.598" y2="1.874" gradientUnits="objectBoundingBox"><stop offset="0" stop-color="#4f52ff"/><stop offset="1" stop-color="#4042e2"/></linearGradient><linearGradient id="f" x1="-0.052" y1="0.533" x2="0.944" y2="0.533" xlink:href="#d"/><linearGradient id="g" x1="0.668" y1="-1.05" x2="0.484" y2="0.645" gradientUnits="objectBoundingBox"><stop offset="0" stop-color="#ff928e"/><stop offset="1" stop-color="#fe7062"/></linearGradient><linearGradient id="h" x1="-0.275" y1="0.976" x2="1.332" y2="-0.095" gradientUnits="objectBoundingBox"><stop offset="0" stop-color="#febbba"/><stop offset="1" stop-color="#ff928e"/></linearGradient><linearGradient id="i" x1="-0.983" y1="3.694" x2="5.002" y2="-8.994" xlink:href="#h"/><linearGradient id="j" x1="0" y1="0.5" x2="1" y2="0.5" xlink:href="#h"/><linearGradient id="k" x1="-16.101" y1="-1.451" x2="-16.943" y2="0.424" xlink:href="#d"/><linearGradient id="l" x1="-32.686" y1="-7.332" x2="-33.641" y2="-5.922" xlink:href="#d"/><linearGradient id="m" x1="1.14" y1="-0.188" x2="0.025" y2="1.245" xlink:href="#d"/><linearGradient id="o" x1="2.652" y1="-0.43" x2="1.915" y2="-0.123" xlink:href="#g"/><linearGradient id="p" x1="-14.815" y1="-2.838" x2="-17.434" y2="-1.443" xlink:href="#h"/><linearGradient id="q" x1="-94.758" y1="-6.938" x2="-108.798" y2="-3.066" xlink:href="#h"/><linearGradient id="r" x1="-7.275" y1="3.297" x2="-8.61" y2="1.599" xlink:href="#h"/><linearGradient id="s" x1="-3.102" y1="1.004" x2="-1.865" y2="1.004" xlink:href="#d"/><linearGradient id="t" x1="-0.184" y1="1.294" x2="0.486" y2="0.516" xlink:href="#g"/><linearGradient id="u" x1="0.53" y1="0.174" x2="0.463" y2="0.907" xlink:href="#g"/><linearGradient id="w" x1="0.546" y1="0.011" x2="0.46" y2="0.924" xlink:href="#g"/><linearGradient id="x" x1="-2.752" y1="-1.765" x2="-2.35" y2="-0.508" gradientUnits="objectBoundingBox"><stop offset="0" stop-color="#aa80f9"/><stop offset="0.996" stop-color="#6165d7"/></linearGradient><linearGradient id="y" x1="-21.208" y1="-20.12" x2="-17.93" y2="-7.257" xlink:href="#x"/><linearGradient id="z" x1="-20.183" y1="-27.45" x2="-17.309" y2="-11.188" xlink:href="#x"/><linearGradient id="aa" x1="-16.365" y1="-21.168" x2="-13.481" y2="-4.742" xlink:href="#x"/><linearGradient id="ab" x1="-22.304" y1="-19.238" x2="-19.047" y2="-6.432" xlink:href="#x"/><linearGradient id="ac" x1="-11.651" y1="-5.682" x2="-11.342" y2="-4.86" xlink:href="#x"/><linearGradient id="ad" x1="-3.104" y1="-2.119" x2="-2.127" y2="-2.119" xlink:href="#x"/><linearGradient id="ae" x1="20.678" y1="22.255" x2="20.076" y2="21.707" xlink:href="#g"/><linearGradient id="af" x1="58.827" y1="18.834" x2="57.045" y2="18.377" xlink:href="#g"/><linearGradient id="ag" x1="-123.56" y1="-0.49" x2="-122.557" y2="-0.49" xlink:href="#d"/><linearGradient id="ah" x1="-279.18" y1="-19.205" x2="-278.265" y2="-19.205" xlink:href="#h"/><linearGradient id="ai" x1="-75.62" y1="-4.155" x2="-74.617" y2="-4.155" xlink:href="#d"/><linearGradient id="aj" x1="-347.935" y1="3.697" x2="-346.751" y2="3.697" xlink:href="#h"/><linearGradient id="ak" x1="2.448" y1="-0.863" x2="0.542" y2="0.543" xlink:href="#e"/><linearGradient id="al" x1="0.5" y1="-6.979" x2="0.5" y2="-2.202" xlink:href="#e"/><linearGradient id="am" x1="-34.842" y1="-7.014" x2="-35.088" y2="-4.407" xlink:href="#d"/><linearGradient id="an" x1="-81.981" y1="-3.114" x2="-80.909" y2="-3.114" xlink:href="#h"/><linearGradient id="ao" x1="-0.296" y1="1.354" x2="0.465" y2="0.681" xlink:href="#d"/><linearGradient id="ap" x1="-79.226" y1="-8.894" x2="-81.554" y2="-5.987" xlink:href="#h"/><linearGradient id="aq" x1="-62.323" y1="-18.745" x2="-64.19" y2="-12.135" xlink:href="#h"/><linearGradient id="ar" x1="-106.691" y1="-8.821" x2="-109.541" y2="-4.715" xlink:href="#h"/><linearGradient id="as" x1="-78.517" y1="-30.097" x2="-79.643" y2="-28.815" xlink:href="#h"/><linearGradient id="at" x1="-56.41" y1="-19.377" x2="-55.452" y2="-19.377" xlink:href="#d"/><linearGradient id="au" x1="-228.528" y1="-96.681" x2="-225.976" y2="-99.278" xlink:href="#h"/></defs><g transform="translate(-423.017 -429.264)"><g class="be" transform="matrix(1, 0, 0, 1, 423.02, 429.26)"><path class="a" d="M786.288,770.854A129.6,129.6,0,0,1,766.375,787.3c-64.96,45.71-141.825,32.385-158.161,29.132-24.123-4.805-70.753-14.093-104.465-52.972-51-58.821-43.062-151.492-3.5-212.666,7.236-11.19,45.462-73.3,123.155-83.255,47.019-6.028,101.828,6.129,141.519,38.74C848.238,574.729,842.307,713.018,786.288,770.854Z" transform="translate(-423.02 -436.05)"/></g><path class="b" d="M786.288,770.854A129.6,129.6,0,0,1,766.375,787.3c-64.96,45.71-141.825,32.385-158.161,29.132-24.123-4.805-70.753-14.093-104.465-52.972-51-58.821-43.062-151.492-3.5-212.666,7.236-11.19,45.462-73.3,123.155-83.255,47.019-6.028,101.828,6.129,141.519,38.74C848.238,574.729,842.307,713.018,786.288,770.854Z" transform="translate(-20 -26.783)"/><g transform="translate(746.086 486.994)"><path class="c" d="M2672.2,681.375c-.99-.882-2.317-2.195-3.111-1.408-12.849,12.725-43.519,50.308-33.848,111.749,12.135,77.087-3.991,106.592-24.58,125.31a61.835,61.835,0,0,0,23.316-4.24C2709.527,882.667,2693.414,700.259,2672.2,681.375Z" transform="translate(-2610.665 -679.725)"/><path class="d" d="M2724.057,881.333c-1.4,8.766-2.624,17.547-3.51,26.344q-1.4,13.19-1.961,26.4c-.335,8.8-.5,17.6-.27,26.371.186,8.777.767,17.52,1.382,26.3a263.573,263.573,0,0,1,.857,26.572,87.838,87.838,0,0,1-4.87,26.683c-.78,2.155-1.6,4.306-2.548,6.395-.906,2.1-1.908,4.175-2.947,6.23a100.492,100.492,0,0,1-7.154,11.9,103.949,103.949,0,0,1-19.151,20.408,1.819,1.819,0,0,1-2.5-.147,1.667,1.667,0,0,1,.219-2.372l.005,0c1.722-1.488,3.426-2.993,5.056-4.562.828-.773,1.62-1.578,2.427-2.369.776-.818,1.584-1.609,2.334-2.448a96.14,96.14,0,0,0,8.416-10.483,101.813,101.813,0,0,0,12.142-23.608,85.408,85.408,0,0,0,3.374-12.648,94.5,94.5,0,0,0,1.431-12.961,260.827,260.827,0,0,0-.649-26.237c-.485-8.785-.91-17.618-.953-26.47q-.052-6.637.146-13.282c.052-2.214.15-4.429.243-6.643q.173-3.321.39-6.641.906-13.279,2.664-26.509c1.219-8.811,2.679-17.6,4.489-26.331a.5.5,0,0,1,.562-.381A.439.439,0,0,1,2724.057,881.333Z" transform="translate(-2671.858 -854.727)"/></g><g transform="translate(729.785 458.252)"><path class="e" d="M2499.3,679.836a2.975,2.975,0,0,1-5.26-1.427c-4.206-28.233-18.877-140.72,1.828-215.09a6.882,6.882,0,0,1,11.854-2.667C2530.381,487.114,2586.2,571.035,2499.3,679.836Z" transform="translate(-2485.063 -458.252)"/><path class="d" d="M2580.175,763.911c1.054,3.61,1.854,7.283,2.588,10.966q1.077,5.531,1.88,11.111c1.076,7.437,1.8,14.923,2.292,22.423s.7,15.02.706,22.538-.269,15.038-.692,22.547l-.363,5.63-.461,5.622-.235,2.811-.287,2.806-.579,5.613c-.9,7.468-1.857,14.934-3.111,22.354q-3.637,22.28-9.289,44.179a1.529,1.529,0,0,1-2.962-.761l.007-.025q5.937-21.655,9.945-43.786c1.367-7.363,2.442-14.776,3.455-22.2l.666-5.578.331-2.789.279-2.795.55-5.591.451-5.6c.543-7.471.936-14.957,1.052-22.45s.019-14.99-.342-22.478-.972-14.965-1.926-22.4q-.7-5.58-1.7-11.119c-.672-3.687-1.413-7.37-2.405-10.984v0a.078.078,0,0,1,.151-.043Z" transform="translate(-2558.64 -724.194)"/></g><g transform="translate(483.766 527.876)"><g transform="translate(0 0)"><path class="f" d="M601.669,995.781a13.415,13.415,0,0,0-12.24,13.337c-.12,42.458-.319,188.909,2.448,240.745a10.417,10.417,0,0,0,10.294,9.865c27.2.293,105.433.831,149.847-2.01a17.541,17.541,0,0,0,16.438-17.523c-.054-44.562-.766-169.885-6.87-227.168a14.315,14.315,0,0,0-13.13-12.757C718.794,997.958,640.021,992.446,601.669,995.781Z" transform="translate(-589.371 -994.736)"/><path class="g" d="M667.784,1105.517c-.534,36.32-2.055,157.139.6,201.732a12.392,12.392,0,0,0,11.7,11.881c25.739.9,91.743,2.633,129.354-1.506a13.93,13.93,0,0,0,12.129-13.723c.941-37.064,3.482-149.594.9-193.687a13.713,13.713,0,0,0-12.522-13.1c-27.869-1.878-99.435-6.209-131.418-3.545A11.964,11.964,0,0,0,667.784,1105.517Z" transform="translate(-656.808 -1080.008)"/><path class="h" d="M708.291,1152.658c-.5,34.726-1.907,150.243.617,192.88A11.8,11.8,0,0,0,719.99,1356.9c24.369.864,86.858,2.54,122.464-1.408a13.264,13.264,0,0,0,11.479-13.118c.882-35.437,3.26-143.028.806-185.188a13.063,13.063,0,0,0-11.859-12.529c-26.386-1.8-94.141-5.961-124.419-3.422A11.389,11.389,0,0,0,708.291,1152.658Z" transform="translate(-692.125 -1121.527)"/><path class="i" d="M1153.068,1037.506a1.884,1.884,0,0,0,1.825,1.844c4.953.151,18.9.578,25.141.8a1.885,1.885,0,0,0,1.91-2.283,1.923,1.923,0,0,0-1.756-1.689c-4.218-.293-16.945-1.084-25.355-.6A1.948,1.948,0,0,0,1153.068,1037.506Z" transform="translate(-1079.903 -1030.146)"/></g></g><g transform="translate(614.635 514.253)"><g transform="translate(0 0)"><path class="j" d="M1611.23,890.911a14.672,14.672,0,0,0-13.387,14.587c-.132,46.438-.349,206.616,2.678,263.31a11.393,11.393,0,0,0,11.259,10.789c29.748.32,115.315.909,163.893-2.2a19.185,19.185,0,0,0,17.979-19.166c-.059-48.739-.838-185.808-7.514-248.461a15.657,15.657,0,0,0-14.361-13.953C1739.333,893.292,1653.176,887.263,1611.23,890.911Z" transform="translate(-1597.779 -889.768)"/><path class="e" d="M1683.542,1010.933c-.584,39.724-2.248,171.868.656,220.641a13.553,13.553,0,0,0,12.8,13c28.152.981,100.343,2.88,141.478-1.647a15.235,15.235,0,0,0,13.266-15.01c1.029-40.538,3.808-163.615.986-211.842a15,15,0,0,0-13.7-14.329c-30.482-2.054-108.755-6.791-143.736-3.878A13.085,13.085,0,0,0,1683.542,1010.933Z" transform="translate(-1671.537 -983.033)"/><path class="k" d="M1722.319,1060.619c-.521,37.768-1.992,163.408.734,209.781.4,6.778,5.548,12.132,11.9,12.363,26.164.948,93.256,2.794,131.484-1.486,6.884-.771,12.141-6.872,12.32-14.263.933-38.542,3.447-155.56.8-201.415-.423-7.315-5.889-13.155-12.737-13.631-28.33-1.97-101.077-6.518-133.585-3.767C1727.133,1048.716,1722.409,1054.081,1722.319,1060.619Z" transform="translate(-1705.403 -1026.89)"/><path class="i" d="M2214.313,936.548a2.06,2.06,0,0,0,2,2.017c5.417.165,20.677.632,27.5.877a2.062,2.062,0,0,0,2.089-2.5,2.1,2.1,0,0,0-1.921-1.848c-4.614-.321-18.533-1.186-27.731-.655A2.131,2.131,0,0,0,2214.313,936.548Z" transform="translate(-2134.29 -928.498)"/></g></g><g transform="translate(520.815 598.782)"><rect class="l" width="78.086" height="31.234" rx="12" transform="translate(0)"/><g transform="translate(11.145 7.43)"><path class="m" d="M970.874,1601.8a1.4,1.4,0,0,1-.348.4.781.781,0,0,1-.47.133,1.149,1.149,0,0,1-.547-.16l-.663-.359a5.544,5.544,0,0,0-.846-.359,3.39,3.39,0,0,0-1.084-.16,2.332,2.332,0,0,0-1.565.448,1.523,1.523,0,0,0-.514,1.211,1.116,1.116,0,0,0,.31.807,2.668,2.668,0,0,0,.813.553,8.692,8.692,0,0,0,1.15.426q.647.194,1.321.432a11.812,11.812,0,0,1,1.322.558,4.417,4.417,0,0,1,1.151.818,3.824,3.824,0,0,1,.813,1.211,4.3,4.3,0,0,1,.31,1.72,5.615,5.615,0,0,1-.387,2.09,4.9,4.9,0,0,1-1.123,1.7,5.208,5.208,0,0,1-1.814,1.139,6.783,6.783,0,0,1-2.45.415,7.846,7.846,0,0,1-1.532-.155,9.09,9.09,0,0,1-1.51-.437,8.772,8.772,0,0,1-1.371-.669,5.811,5.811,0,0,1-1.117-.863l1.106-1.747a.905.905,0,0,1,.343-.321.974.974,0,0,1,.475-.122,1.261,1.261,0,0,1,.669.21q.337.211.763.465a6.2,6.2,0,0,0,.979.464,3.662,3.662,0,0,0,1.3.21,2.484,2.484,0,0,0,1.582-.448,1.7,1.7,0,0,0,.564-1.421,1.342,1.342,0,0,0-.31-.918,2.4,2.4,0,0,0-.813-.586,7.523,7.523,0,0,0-1.145-.409q-.642-.177-1.317-.393a9.616,9.616,0,0,1-1.316-.531,4.147,4.147,0,0,1-1.145-.83,3.875,3.875,0,0,1-.813-1.283,5.1,5.1,0,0,1-.31-1.9,4.5,4.5,0,0,1,.365-1.77,4.561,4.561,0,0,1,1.073-1.537,5.283,5.283,0,0,1,1.736-1.078,6.418,6.418,0,0,1,2.356-.4,8.831,8.831,0,0,1,1.443.116,7.6,7.6,0,0,1,1.333.343,7.335,7.335,0,0,1,1.178.542,5.439,5.439,0,0,1,.979.714Z" transform="translate(-960.721 -1598.354)"/><path class="m" d="M1072.51,1599.717v2.876H1065.9v3.76h5.066v2.765H1065.9v3.838h6.614v2.876h-10.374v-16.115Z" transform="translate(-1048.974 -1599.54)"/><path class="m" d="M1160.813,1599.739a1.044,1.044,0,0,1,.3.083.992.992,0,0,1,.255.172,2.953,2.953,0,0,1,.276.3l7.654,9.678q-.044-.465-.066-.9t-.022-.824v-8.527h3.3v16.115h-1.947a1.794,1.794,0,0,1-.73-.133,1.554,1.554,0,0,1-.575-.487l-7.6-9.6q.033.421.055.824t.022.758v8.638h-3.3v-16.115h1.969A3.15,3.15,0,0,1,1160.813,1599.739Z" transform="translate(-1132.776 -1599.54)"/><path class="m" d="M1301.911,1607.769a8.447,8.447,0,0,1-.6,3.224,7.55,7.55,0,0,1-1.7,2.555,7.7,7.7,0,0,1-2.638,1.681,9.328,9.328,0,0,1-3.423.6h-6.26v-16.115h6.26a9.261,9.261,0,0,1,3.423.608,7.817,7.817,0,0,1,2.638,1.681,7.491,7.491,0,0,1,1.7,2.549A8.418,8.418,0,0,1,1301.911,1607.769Zm-3.827,0a7.028,7.028,0,0,0-.309-2.157,4.611,4.611,0,0,0-.891-1.631,3.868,3.868,0,0,0-1.421-1.029,4.831,4.831,0,0,0-1.914-.359h-2.5v10.363h2.5a4.826,4.826,0,0,0,1.914-.359,3.866,3.866,0,0,0,1.421-1.028,4.613,4.613,0,0,0,.891-1.631A7.065,7.065,0,0,0,1298.083,1607.769Z" transform="translate(-1244.908 -1599.54)"/></g></g><g transform="translate(497.726 625.283)"><path class="n" d="M911.821,2624.344l-11.358,2.839,2.839,21.3a24.19,24.19,0,0,0-5.679,9.938c-1.42,5.679-2.729,29.524-2.729,29.524l-2.695,1.629-.328,1.36,7.841,10.542-1.3-8.391c-.206-1.332.151-4.033.039-4.09,4.259-11.358,13.37-43.353,13.37-43.353Z" transform="translate(-866.574 -2510.264)"/><path class="o" d="M991.785,2557.8c-.123,0-.244.008-.367,0,.549-6.847,3.057-36.982,5.567-48.277,2.839-12.777-4.259-38.333-4.259-38.333l-12.778,12.778,7.1,24.135c-4.865,7.3.793,50.03.672,50.011l.008.095-1.852,2.547.225,1.381,11.315,6.677-4.452-7.23A8.123,8.123,0,0,1,991.785,2557.8Z" transform="translate(-943.219 -2376.984)"/><path class="p" d="M886.275,2034.525s-24.878,28.039,0,42.415l2.535-1.835s-12.351-11.827,0-26.306Z" transform="translate(-852.081 -1996.99)"/><path class="q" d="M1031.924,3159.509h-3.611a2.175,2.175,0,0,1-1.726-.846c-1.126-1.463-3.458-4.317-4.573-4.391-1.5-.1-1.309,5.237-1.309,5.237h-.842l-1.066-6.632a3.926,3.926,0,0,1,2.06-4.1h0a5.551,5.551,0,0,0,2.2,3.661c1.861,1.123,7.572,5.143,7.572,5.143a5.16,5.16,0,0,1,1.468.039A.955.955,0,0,1,1031.924,3159.509Z" transform="translate(-976.984 -2966.633)"/><path class="r" d="M879.909,3133.2l-3.328-1.4a2.175,2.175,0,0,1-1.263-1.449c-.47-1.785-1.514-5.32-2.513-5.821-1.345-.675-3.238,4.32-3.238,4.32l-.776-.326,1.589-6.526a3.925,3.925,0,0,1,3.49-2.984h0a5.551,5.551,0,0,0,.612,4.229c1.28,1.756,4.986,7.677,4.986,7.677a5.152,5.152,0,0,1,1.338.605A.955.955,0,0,1,879.909,3133.2Z" transform="translate(-846.489 -2940.732)"/><path class="s" d="M939.432,2303.41s-.418,2.559.194,9.594,3.536,23.553,2.941,39.357c0,0-8.313,1.937-22.756,1.02,0,0-6.1-24.674-4.61-34.055s9.54-16.11,9.54-16.11Z" transform="translate(-886.672 -2230.811)"/><path class="p" d="M998.232,1900.29l1.016,11.947h-9.653l2.4-18.237Z" transform="translate(-951.614 -1874.703)"/><path class="t" d="M946.364,2019.466c3.332-.184,10.78-.524,16.057-.236,2.778.151,6.173.922,6.742,3.646l.219,7.391a14.857,14.857,0,0,1-.209,6.94L964,2056.182s-4.6,2.763-14.692-.194c0,0-8.865-21.139-5.236-34.662A2.513,2.513,0,0,1,946.364,2019.466Z" transform="translate(-911.243 -1983.583)"/><path class="u" d="M1097.613,1842.907c.516-.117,1.044-.2,1.557-.289,5.867-.978,11.28-3.151,17-4.546.714-.174,3.77-.366,4.106-1.114,2.765-6.16,2.588-13.491,3.568-20.077l0-.032a1.468,1.468,0,0,1,2.81-.343,41.56,41.56,0,0,1,3.265,15.421c.042,4.764-.713,9.61-4.833,12.611-4.153,3.025-11.323,7.068-16.129,8.17-3.413.782-12.436,4.444-14.839.2a7,7,0,0,1-.714-3.113,9.615,9.615,0,0,1,.436-3.921A4.76,4.76,0,0,1,1097.613,1842.907Z" transform="translate(-1041.932 -1806.473)"/><path class="v" d="M1316.559,1757.571l-3.307-2.958.811-9.308s1.722-.175,1.134,3.65a3.324,3.324,0,0,1,3.3.463C1319.933,1750.677,1319.1,1758.541,1316.559,1757.571Z" transform="translate(-1233.268 -1745.302)"/><path class="w" d="M1005.076,1824.7c.383.116,5.3,8.775,4.041,13.216s-9.076,1.723-12.285-3.47S994.87,1821.625,1005.076,1824.7Z" transform="translate(-956.549 -1813.781)"/><g transform="translate(0 4.566)"><path class="x" d="M727.878,1797.939c.724,7.761-4.826,7.259-7.341,11.572-4.077,6.99-13.84,4.017-20.218,11.4-4.6,5.332-4.553,15.388.438,22.007,6.913,9.167,21.138,9.488,26.892,4.313,5.5-4.945,1.86-13.661,9.43-19.75,3.214-2.585,5.311-2.174,6.841-5.025,2.678-4.991-.61-12.106-1.876-14.848-2.748-5.948-5.171-6.441-5-9.472.326-5.9,9.686-7.536,9.3-11.512-.349-3.62-8.853-8.106-14.7-5.22C722.592,1785.873,727.555,1794.481,727.878,1797.939Z" transform="translate(-696.938 -1780.486)"/><path class="c" d="M708.884,2082.773a.261.261,0,0,1-.292-.136c-2.449-4.861-2.877-9.218-1.271-12.951,2.665-6.195,10.129-8.5,10.2-8.519a.265.265,0,0,1,.324.175.26.26,0,0,1-.175.324c-.073.022-7.31,2.257-9.877,8.229-1.541,3.584-1.117,7.792,1.259,12.506a.261.261,0,0,1-.116.35A.292.292,0,0,1,708.884,2082.773Z" transform="translate(-705.145 -2024.729)"/><path class="c" d="M924.65,1996.794a.153.153,0,0,1-.033,0,.131.131,0,0,1-.127-.134c.121-4.921,1.487-8.64,4.059-11.052a12.8,12.8,0,0,1,5.633-2.868c1.7-.5,3.168-.938,4.116-2.284,1.96-2.783.575-8.043-4.116-15.635a.13.13,0,1,1,.222-.137c4.751,7.689,6.133,13.046,4.107,15.922-1,1.421-2.508,1.867-4.255,2.384a12.59,12.59,0,0,0-5.528,2.808c-2.519,2.363-3.857,6.02-3.976,10.869A.131.131,0,0,1,924.65,1996.794Z" transform="translate(-894.959 -1940.728)"/><path class="c" d="M960.617,1821.523a.133.133,0,0,1-.042,0,.13.13,0,0,1-.117-.142c.291-3.084,3.159-3.309,6.2-3.545a13.24,13.24,0,0,0,5.427-1.17c1.13-.645,1.721-1.372,1.756-2.162.061-1.345-1.517-2.459-1.533-2.47a.13.13,0,1,1,.149-.214c.07.048,1.711,1.205,1.645,2.695-.039.885-.674,1.685-1.888,2.377a13.415,13.415,0,0,1-5.536,1.2c-3.05.239-5.688.443-5.958,3.31A.13.13,0,0,1,960.617,1821.523Z" transform="translate(-926.257 -1807.736)"/></g></g><g transform="translate(685.238 660.446)"><circle class="y" cx="30.004" cy="30.004" r="30.004" transform="translate(0 42.432) rotate(-45)"/><circle class="z" cx="29.006" cy="29.006" r="29.006" transform="translate(1.411 42.432) rotate(-45)"/><path class="aa" d="M2280.245,2148.03a.622.622,0,0,1-.283-.068.629.629,0,0,1-.278-.845,27.291,27.291,0,0,1,24.48-15.072,27.686,27.686,0,0,1,4.943.444.629.629,0,1,1-.225,1.238,26.418,26.418,0,0,0-4.718-.424,26.039,26.039,0,0,0-23.357,14.381A.628.628,0,0,1,2280.245,2148.03Z" transform="translate(-2261.732 -2117.018)"/><circle class="ab" cx="24.55" cy="24.55" r="24.55" transform="translate(8.345 43.064) rotate(-45)"/></g><g transform="translate(641.802 667.358)"><circle class="y" cx="21.984" cy="21.984" r="21.984" transform="translate(0 31.09) rotate(-45)"/><circle class="ac" cx="21.253" cy="21.253" r="21.253" transform="translate(1.034 31.09) rotate(-45)"/><path class="aa" d="M1907.42,2165.1a.629.629,0,0,1-.561-.912,20.161,20.161,0,0,1,18.086-11.136,20.417,20.417,0,0,1,3.652.329.629.629,0,1,1-.226,1.238,19.16,19.16,0,0,0-3.426-.308,18.911,18.911,0,0,0-16.963,10.445A.629.629,0,0,1,1907.42,2165.1Z" transform="translate(-1893.855 -2142.209)"/><circle class="ab" cx="17.988" cy="17.988" r="17.988" transform="translate(10.584 17.151) rotate(-10.519)"/></g><text class="ad" transform="translate(650.197 708.953) rotate(1.63)"><tspan x="0" y="0" xml:space="preserve"> € </tspan></text><text class="ae" transform="translate(694.691 718.159) rotate(1.63)"><tspan x="0" y="0" xml:space="preserve"> € </tspan></text><g transform="translate(600.697 548.078)"><g transform="translate(0)"><path class="af" d="M1580.226,1150.4l55.469,45.95c-47.7,21.449-42.148,87.01-89.847,108.46l-55.469-45.95C1538.077,1237.415,1532.526,1171.853,1580.226,1150.4Z" transform="translate(-1490.378 -1150.404)"/><path class="m" d="M1689.048,1236.187c-40.464,22.8-38.939,80.385-79.4,103.186l-47.21-39.109c40.464-22.8,38.939-80.385,79.4-103.186Z" transform="translate(-1553.084 -1191.021)"/><g transform="translate(0 100.231)"><path class="ag" d="M1508.12,1925.016c.208.172.391.336.579.517l.048.047a8.837,8.837,0,0,1,2.913,7.195,7.985,7.985,0,0,1-3.65,5.826,11.479,11.479,0,0,1-1.054.636,15,15,0,0,1-4.731,1.535l-11.847-9.814a63.585,63.585,0,0,0,13.533-8.229A12.27,12.27,0,0,1,1508.12,1925.016Z" transform="translate(-1490.378 -1922.728)"/><path class="ah" d="M1847.091,2227.6a10.983,10.983,0,0,1,2.886,3.69,63.572,63.572,0,0,1-13.47,8.179l-12.122-10.042a15.664,15.664,0,0,1,3.53-2.531c.372-.2.752-.389,1.138-.566,5.758-2.641,12.817-2.64,17.525.866.018.012.036.027.055.041C1846.787,2227.358,1846.947,2227.485,1847.091,2227.6Z" transform="translate(-1781.038 -2185.296)"/></g><g transform="translate(76.314)"><path class="ai" d="M2091.947,1150.4l11.846,9.814a15.672,15.672,0,0,1-3.529,2.53c-.372.2-.752.389-1.138.566-5.7,2.613-12.654,2.654-17.362-.745-.221-.157-.4-.294-.608-.466a9.642,9.642,0,0,1-2.742-3.469A63.566,63.566,0,0,1,2091.947,1150.4Z" transform="translate(-2078.413 -1150.404)"/><path class="aj" d="M2453.348,1427.093l12.122,10.042a63.566,63.566,0,0,0-13.47,8.179,14.028,14.028,0,0,1-4.478-2.41c-.144-.12-.3-.252-.436-.38-.016-.016-.034-.031-.049-.046a9.09,9.09,0,0,1-3.135-6.775,7.9,7.9,0,0,1,3.678-6.427,11.388,11.388,0,0,1,1.046-.642A14.976,14.976,0,0,1,2453.348,1427.093Z" transform="translate(-2396.468 -1391.185)"/></g><path class="ak" d="M1934.125,1569.078c8.854,7.335,11.47,21.66,6.368,32.43s-16.906,13.15-25.84,5.75c-8.854-7.335-11.47-21.66-6.368-32.43S1925.192,1561.677,1934.125,1569.078Z" transform="translate(-1851.8 -1511.02)"/><path class="al" d="M1643.377,1494.639l.18.149c-47.7,21.449-42.148,87.01-89.847,108.46l-54.3-44.978a69.573,69.573,0,0,1,8.541-.393,65.008,65.008,0,0,1,11.568,1.239,78.393,78.393,0,0,1,15.39,4.816c27.876,11.829,35.887,1.869,40.719-14.953,1.327-4.46,2.473-9.368,3.862-14.359.612-2.195,1.3-4.406,2.057-6.6a81.129,81.129,0,0,1,5.463-12.48c7.1-13.47,19.562-22.586,34.976-22.179a43.357,43.357,0,0,1,8.59,1,22.422,22.422,0,0,0,2.372.375A59.654,59.654,0,0,0,1643.377,1494.639Z" transform="translate(-1498.241 -1448.839)"/></g><text class="am" transform="matrix(0.485, -0.875, 0.875, 0.485, 71.913, 107.867)"><tspan x="0" y="0" xml:space="preserve"> € </tspan></text></g><g transform="translate(566.542 543.596)"><path class="an" d="M1375.447,1145.926c-50.442-31.159-93.5-30.89-143.048-7.1a9.147,9.147,0,0,0-5.2,8.345l.024,2.061a9.13,9.13,0,0,0,12.264,8.47c42.841-15.675,74.932-23.959,126.852,4.042a9.126,9.126,0,0,0,13.4-7.1h0A9.139,9.139,0,0,0,1375.447,1145.926Z" transform="translate(-1227.2 -1120.935)"/><path class="ao" d="M2137.791,1116.767l26.972,41.324a1.988,1.988,0,0,1-1.495,3.067l-47.3,4.056a2.3,2.3,0,0,1-2.29-3.258c11.3-14.535,17.908-29.54,20.656-44.934A1.981,1.981,0,0,1,2137.791,1116.767Z" transform="translate(-1998.444 -1115.868)"/></g><g transform="translate(675.853 620.22)"><path class="ap" d="M2751.4,3143.879s1.618,2.285,2.33,8.877a1.078,1.078,0,0,1-1.012,1.2l-11.716.594a.692.692,0,0,1-.7-.875c.583-2.067,2.408-7.126,6.9-10.192Z" transform="translate(-2653.219 -2956.962)"/><path class="aq" d="M2798.128,3110.727l-1.282,5.454a1.048,1.048,0,0,1-1.011.812,9.269,9.269,0,0,1-2.462-.3,1.718,1.718,0,0,1-1.217-1.853l.6-5.338Z" transform="translate(-2698.36 -2927.395)"/><path class="ar" d="M2494.836,3149.689a16.383,16.383,0,0,1,2.485,8.2,2.072,2.072,0,0,1-2.012,2.1l-18.209.635a.872.872,0,0,1-.556-1.568c3.361-2.54,9.976-7.3,14.813-9.243Z" transform="translate(-2423.413 -2962.367)"/><path class="as" d="M2592.49,3090.775l-.466,7a1.417,1.417,0,0,1-1.509,1.333,5.131,5.131,0,0,1-1.678-.446,1.627,1.627,0,0,1-.946-1.546l.317-8.446Z" transform="translate(-2520.613 -2909.267)"/><path class="at" d="M2621.619,2393.421s4.4,4.863,4.739,10.153-12.7,89.2-12.7,89.2-4.981.262-7.33-1.549c0,0,3.179-55.049,2.332-67.948,0,0-18.307,55.331-22.764,65.2,0,0-4.775.042-6.194-1.026,0,0,11.405-73.115,16.8-85.734Z" transform="translate(-2513.491 -2304.246)"/><path class="au" d="M2801.156,2533.934a.713.713,0,0,0,.666-.457L2804.7,2526l4.562-2.25a.713.713,0,0,0-.631-1.279l-4.812,2.373a.712.712,0,0,0-.35.384l-2.976,7.733a.713.713,0,0,0,.666.969Z" transform="translate(-2705.581 -2416.488)"/><path class="av" d="M2443.126,1952.59c20.778.612,25.678,5.479,25.678,5.479l-11.653,14.5s-20.182-2.68-33.416-15.485a35.6,35.6,0,0,0,6.781-8.009A27.432,27.432,0,0,0,2443.126,1952.59Z" transform="translate(-2377.762 -1917.568)"/><path class="aw" d="M2333.239,1711.707a.635.635,0,0,1,1.229-.106l1.995,5.9a5.876,5.876,0,0,1,.074,3.527l-1.289,3.158a5.667,5.667,0,0,0,.643,4.612,39.428,39.428,0,0,0,13.567,13.245,35.607,35.607,0,0,1-6.781,8.009,35.727,35.727,0,0,1-10.422-18.551,2.772,2.772,0,0,1-1.635-2.957Z" transform="translate(-2296.704 -1710.536)"/><path class="ax" d="M2363.186,1976.138c8.127-6.992,22.329-8.963,30.484-9.511a7.378,7.378,0,0,1,7.669,5.572c2.506,10.073,9.452,36.328,10.86,40.865,1.156,3.722,2.389,7.369,3.177,9.651a2.616,2.616,0,0,1-1.6,3.327c-7.089,2.483-19.6,4.786-24.668,5.663a1.693,1.693,0,0,1-1.971-1.862,5.291,5.291,0,0,0-.445-2.79L2371.6,1994c-13.026,11.533-23.3,11.563-30.771,7.875a58.943,58.943,0,0,0,3.949-11.875C2356.511,1989.328,2363.186,1976.138,2363.186,1976.138Z" transform="translate(-2305.618 -1932.825)"/><path class="ay" d="M2226.578,2096.732l2.389-2.535c6.2,5.375,11.7,7.1,16.388,6.834a58.947,58.947,0,0,1-3.95,11.875C2231.562,2108.047,2226.578,2096.732,2226.578,2096.732Z" transform="translate(-2206.192 -2043.855)"/><path class="az" d="M2091.338,2060.206l-11.751-.863-10.094-7.231c1.656-.795,10.176,2.172,10.176,2.172s9.3-.352,11.771-.076c2.055.229,1.428,3.15,1.157,4.134-.055.2-.1.321-.1.321Z" transform="translate(-2069.493 -2007.114)"/><path class="ba" d="M2606.128,1846.685l4.474,15.76s-7.646,4.11-13.3,3l-1.554-13.892Z" transform="translate(-2527.453 -1828.464)"/><g transform="translate(61.178 0)"><path class="bb" d="M2562.389,1753.844c-.164.184-6.25,15.319-6.25,15.319l8.716,3.291,7.9-13.488S2565.134,1750.758,2562.389,1753.844Z" transform="translate(-2554.161 -1747.069)"/><path class="bc" d="M2555.868,1719.961l-3.6,7.426a1.138,1.138,0,0,1-.174.261c-.43.485-2.031,2.044-3.526.308-1.357-1.575-2.618-2.992-3.889-3.367a1.152,1.152,0,0,0-1.4.675,49.813,49.813,0,0,0-2.359,7.367,1.15,1.15,0,0,0,.79,1.337,37.141,37.141,0,0,0,8.49,1.679,1.153,1.153,0,0,0,1.041-.556c1.065-1.772,4.323-7.144,5.463-8.5,1.07-1.273,3.307-.982,4.237-.793a1.131,1.131,0,0,0,.875-.181c.9-.628,2.676-2.292.723-4.744a1.154,1.154,0,0,1,.213-1.648,2.994,2.994,0,0,0,.88-4.378,4.223,4.223,0,0,0-4.875-1.764,1.154,1.154,0,0,1-1.322-.665.912.912,0,0,0-.885-.542,1.136,1.136,0,0,1-1.073-1.293,3.443,3.443,0,0,0-2.24-3.867c-3.782-1.662-6.653,1.849-7.214,4.647s3.642,4.367,6.207,4.463c1.95.073,3.169,2.151,3.642,3.143A1.143,1.143,0,0,1,2555.868,1719.961Z" transform="translate(-2540.897 -1706.287)"/><path class="bd" d="M2652.4,1850.99s1.186-4.834,3.254-4.844,3.865,1.891,1.526,4.415C2654.272,1853.7,2652.4,1850.99,2652.4,1850.99Z" transform="translate(-2637.931 -1827.995)"/></g></g></g></svg>