<svg xmlns="http://www.w3.org/2000/svg" xmlns:xlink="http://www.w3.org/1999/xlink" width="710.871" height="827.359" viewBox="0 0 710.871 827.359"><defs><style>.a{opacity:0.4;}.b{fill:url(#a);}.c{fill:#fff;opacity:0.5;}.d{fill:url(#b);}</style><linearGradient id="a" x1="0.963" y1="-0.162" x2="0.436" y2="0.737" gradientUnits="objectBoundingBox"><stop offset="0" stop-color="#aa80f9"/><stop offset="0.996" stop-color="#6165d7"/></linearGradient><linearGradient id="b" x1="0.909" y1="0.239" x2="-0.214" y2="1.175" gradientUnits="objectBoundingBox"><stop offset="0.004" stop-color="#e38ddd"/><stop offset="1" stop-color="#9571f6"/></linearGradient></defs><g class="a" transform="translate(-513.063 -2316.698)"><g transform="translate(513.063 2316.698)"><path class="b" d="M783.226,3110.749c-43.66-3.464-99.516-15.6-153.128-50.646-58.006-37.922-133.555-115.856-113.835-164.964,7.362-18.333,28.558-34.033,47.19-32.537,27.527,2.21,30.731,40.445,78.53,82.033,8.834,7.686,54.506,47.423,77.211,34.033,11.288-6.657,14.626-25.1,12.785-39.127-5.383-41.006-55.45-47.3-103.58-91.695-48.8-45.006-89.476-123.517-66.223-176.6,13.362-30.5,48.706-54.592,71.939-47.821,9.929,2.893,16.223,11.009,46.37,76.135,24.743,53.455,30.247,69.036,46.2,74.1,16.42,5.217,41.948-1.329,51.651-17.507,25.27-42.131-83.947-104.337-93.865-222.245-4.445-52.838,9.849-131.151,57.7-147.937,32.348-11.347,78.431,5.984,95.09,35.659,15.019,26.751-3.225,46.879,8.231,106.976,3.477,18.237,10.632,55.765,25.73,57.734,17.726,2.312,37.558-45.54,42.142-57.193,34.509-87.733-5.061-132.849,27.478-175.438,25.373-33.21,80.583-46.549,124.319-29.775,38.272,14.679,68.889,52.85,70.934,92.409,2.081,40.249-31.772,80.317-99.475,160.452-32.107,38-57.652,63.677-56.2,101.449.709,18.413,8.01,44.313,21.2,46.678,29.108,5.221,43.436-111.99,112.423-130.092,35.311-9.265,79.192,8.944,98.473,40.774,23.625,39,7.8,94.275-21.883,123.341-38.725,37.924-78.439,9.1-151.3,49.839-32.325,18.07-83.124,56.51-75.685,88.3,3.238,13.841,17.745,27.394,33.666,29.2,35.687,4.05,47.473-54.435,104.847-80.144,41.336-18.523,98.493-16.519,112.071,6.792,19.167,32.91-48.909,107.627-85.1,140.642C1085.365,3033.494,982.175,3109.178,783.226,3110.749Z" transform="translate(-513.063 -2316.698)"/><path class="c" d="M851.978,3116.559c-5.77-97.819,59.021-297.064,106.16-391.257,46.128-92.168,90.252-237.979,90.691-239.442l2.873.866c-.442,1.464-44.641,147.522-90.881,239.919-46.993,93.9-111.591,292.408-105.851,389.736Z" transform="translate(-562.209 -2341.254)"/></g><path class="d" d="M693.075,3170.534c-32.875-45.642-81.1-128-89.748-238.177-3.563-45.4-10.523-134.074,43.723-210.563,27.038-38.124,84.375-94.506,123.116-78.242,24.928,10.465,40.4,50.273,33.368,80.542-7.093,30.522-32.889,33.35-60.982,85.146-10.395,19.167-22.271,41.665-13.147,54.375,7.619,10.615,28.552,12.546,44.247,6.18,32.42-13.15,22.29-53.514,57.339-82.464,24.922-20.587,66.467-30.264,84.4-13.4,15.567,14.64,12.855,48.842-.9,71.64-22.027,36.507-61.522,25.8-87.269,65.708-11.423,17.706-19.544,44.451-9.547,55.024,11.392,12.049,44.917,1.629,66.4-11.69,28.368-17.585,29.416-36.3,48.1-38.642,20.838-2.616,46.891,17.229,50.965,39.184,5.707,30.75-32.02,63.915-61.893,78.324C883,3051.925,854.58,3041.1,835.9,3066.3c-6.855,9.249-13.135,24.345-7.514,33.507,8.021,13.071,37.008,8.755,56.256,5.89,46.842-6.972,59.739-23.959,76.524-15.706,16.994,8.356,25.759,36.581,18.41,56.38-4.083,11-16.353,28.047-77.151,38.72C859.87,3192.561,788.374,3197.816,693.075,3170.534Z" transform="translate(-12.757 -47.031)"/></g></svg>