<svg xmlns="http://www.w3.org/2000/svg" width="444" height="750.437" viewBox="0 0 444 750.437"><defs><style>.a{opacity:0.54;}.b{fill:#bdd0fb;}.c{fill:#fff;opacity:0.45;}.d{fill:#91b3fa;}</style></defs><g class="a" transform="translate(66 -2246)"><g transform="translate(-66 2246)"><g transform="translate(0 0)"><path class="b" d="M2024.314,543.511c16.46,81.528,92.872,559.888-343.134,712.223,0,0-131.373-301.972,331.555-716.094A7.037,7.037,0,0,1,2024.314,543.511Z" transform="translate(-1663.957 -537.849)"/><path class="c" d="M2129.637,854.712c-8.5,25.2-17.5,50.185-26.724,75.106s-18.757,49.721-28.568,74.415c-19.621,49.388-40.349,98.347-62.574,146.641-22.26,48.27-45.939,95.934-72.19,142.225q-19.576,34.776-41.7,68.084c-14.786,22.148-30.475,43.76-47.852,64.067a2.859,2.859,0,0,1-4.345-3.718l.01-.011.008-.01c17.276-19.978,32.962-41.346,47.772-63.284q22.173-32.949,41.861-67.555c26.4-45.992,50.276-93.435,72.748-141.51,22.439-48.1,43.4-96.9,63.253-146.135q14.894-36.929,28.927-74.2c9.343-24.846,18.476-49.788,27.082-74.883l0-.011a1.211,1.211,0,0,1,2.293.78Z" transform="translate(-1791.346 -759.692)"/></g><g transform="translate(91.317 200.142)"><path class="d" d="M1972.214,1763.55s-5.563-81.157,68.654-170.461c68.86-82.859,239.109-275.527,273.248-376.82a4.371,4.371,0,0,1,8.505.927c5.05,50.542,7.748,178.119-68.372,312.008C2156.09,1701.86,1972.214,1763.55,1972.214,1763.55Z" transform="translate(-1972.12 -1213.255)"/><path class="c" d="M2342.022,1537.777a187.534,187.534,0,0,1-4.749,33.328c-.3,1.374-.571,2.754-.893,4.122l-1.045,4.084-2.1,8.172-2.435,8.077c-.836,2.685-1.561,5.41-2.561,8.04a398.013,398.013,0,0,1-27.092,61.781c-2.5,5.056-5.509,9.818-8.338,14.685l-4.294,7.274c-.732,1.2-1.4,2.448-2.184,3.614l-2.32,3.527-9.284,14.113c-1.5,2.389-3.237,4.605-4.888,6.885l-5,6.8-5,6.8-2.512,3.394-2.665,3.274-10.663,13.1c-1.793,2.167-3.52,4.4-5.367,6.513l-5.533,6.346-11.066,12.693-11.208,12.567c-3.749,4.177-7.458,8.391-11.267,12.513q-11.342,12.444-22.872,24.713c-7.649,8.215-15.427,16.3-23.163,24.431l-23.449,24.137c-15.645,16.069-31.316,32.1-46.42,48.622-3.835,4.082-7.456,8.339-11.153,12.537-1.875,2.079-3.6,4.273-5.38,6.429-1.755,2.173-3.572,4.3-5.278,6.512-3.314,4.49-6.8,8.869-9.794,13.581l-2.334,3.477c-.381.584-.8,1.148-1.149,1.75l-1.044,1.812-4.183,7.254-.016.027a.607.607,0,0,1-1.068-.576,198.942,198.942,0,0,1,17.886-28.62c1.668-2.267,3.445-4.447,5.163-6.675,1.74-2.21,3.433-4.463,5.266-6.592,3.617-4.3,7.167-8.67,10.919-12.849l5.562-6.333c1.87-2.1,3.788-4.145,5.679-6.219l5.694-6.207,5.752-6.145c7.656-8.209,15.4-16.32,23.112-24.465,15.431-16.277,30.862-32.534,46.107-48.959q22.9-24.61,45.13-49.814l11.034-12.672,5.517-6.336c1.842-2.11,3.566-4.3,5.355-6.446l10.644-12.937,2.662-3.235,2.508-3.353,5-6.722a493.384,493.384,0,0,0,36.6-56.051,394.9,394.9,0,0,0,28.132-60.757c1.047-2.594,1.812-5.284,2.742-7.92l2.677-7.948,2.342-8.053,1.17-4.029c.363-1.35.677-2.712,1.018-4.068.65-2.719,1.384-5.423,1.965-8.159l1.677-8.225a164.746,164.746,0,0,0,2.311-16.629.075.075,0,0,1,.076-.074A.079.079,0,0,1,2342.022,1537.777Z" transform="translate(-2021.424 -1441.557)"/></g></g></g></svg>